<svg enable-background="new 0 0 578 155" viewBox="0 0 578 155" xmlns="http://www.w3.org/2000/svg"><g fill="#fff"><path d="m76.3 67.8c-3.3-4.5-8.9-6.7-11.7-7.2-.6 0-.6-1.1 0-1.1 2.8-2.8 12.2-12.2 12.2-25.6 0-15.6-4.5-21.7-4.5-21.7-8.9-12.2-19.5-12.2-19.5-12.2h-52.8v3.9c1.1 0 11.7.6 11.7 12.8v90.2c0 10-11.7 11.1-11.7 11.1v5h59c1.7 0 3.9-.6 5.6-1.1h.6c3.9-1.7 7.2-3.9 10.6-7.2 3.3-3.9 7.2-13.9 7.2-23.9 0-12.4-2.8-18-6.7-23m-45.7-55.1c0-4.5 6.1-5 6.1-5h3.3c6.1 0 12.8 3.9 15.6 9.5 2.8 7.8 2.8 17.3 2.2 23.4-.6 4.5-2.2 8.9-5 12.8-1.1 1.7-2.8 2.8-3.9 3.3-1.7 1.1-3.3 1.1-5 1.1h-6.7c-2.2 0-3.9-1.1-5.6-2.8-.6-1.1-1.1-1.7-1.1-2.8v-39.5zm32.3 88.5c-2.2 7.8-8.4 14.5-15 14.5h-11.2c-2.2 0-3.3-1.7-5-3.3-.6-1.1-1.1-1.7-1.1-2.8v-39.5c0-4.5 6.1-5 6.1-5h10.6c6.1 0 11.7 3.9 13.9 9.5 3.9 7.7 3.4 20.5 1.7 26.6"/><path d="m154.8 117.9v4.5h-22.3c-1.1 0-1.7-1.1-1.7-1.7v-4.5c-2.2 1.7-5.6 3.9-10.6 5-2.8.6-6.1 1.1-9.5 1.1-14.5 0-14.5-16.1-14.5-16.1v-44c0-1.1-.6-2.8-1.1-3.9-1.1-1.7-3.9-2.8-7.2-2.8v-3.3l25.1-3.3v55.7c0 3.9 3.3 6.7 6.1 6.7 3.9 0 8.9-3.3 11.7-5.6v-43.5c0-1.1-.6-2.8-1.1-3.9-1.1-1.7-3.9-2.8-7.2-2.8v-3.3l25.1-3.3v58.5c0 2.2.6 3.9 1.7 6.1.5 2.2 2.1 4.4 5.5 4.4"/><path d="m212.1 60-.6 6.7c0 2.2-1.1 5-3.3 6.1l-6.1 4.5c-1.1.6-2.2 0-2.2-1.1s0-2.2 0-3.3c0-2.2 0-4.5-.6-6.7-.6-1.7-1.7-3.3-3.3-3.9-2.2-1.1-4.5 0-6.1 1.7-.6.6-1.7 1.1-2.2 2.2-.6.6-1.1 1.1-1.7 1.7v41.2c0 2.2 1.1 5 2.2 6.7 1.7 2.2 5.6 3.3 8.9 3.3v4.5h-35.6v-4.5c3.3 0 5-2.2 6.1-3.9s1.7-3.9 1.7-6.1v-45.7c0-1.1-.6-2.2-1.1-2.8-1.1-1.7-3.9-2.8-7.2-2.8v-3.9l8.4-1.1 16.7-2.2v8.9l9.5-7.2s3.3-3.3 7.8-3.3c4.8-.7 8.7 3.8 8.7 11"/><path d="m252.8 49.4c-7.8 0-12.8 3.9-15.6 6.7v-53.4l-25.1 3.3v3.9c3.9 0 6.1 1.7 7.2 2.8.6 1.1 1.1 2.2 1.1 3.9v104.6h3.3s2.8-4.5 8.4-1.1c6.1 3.9 11.7 3.9 15.6 4.5 12.2 1.1 30.1-7.2 30.1-38.4 0-27.9-13.4-36.8-25-36.8m7.7 42.3c0 16.7-4.5 23.9-11.7 24.5h-2.8c-5 0-9.5-5-9.5-13.9v-23.9c0-11.1 5.6-19.5 11.1-19.5h1.1c5.6 0 11.7 6.7 11.7 21.2z"/><path d="m397.5 60-.6 6.7c0 2.2-1.1 5-3.3 6.1l-6.1 4.5c-1.1.6-2.2 0-2.2-1.1s0-2.2 0-3.3c0-2.2 0-4.5-.6-6.7-.6-1.7-1.7-3.3-3.3-3.9-2.2-1.1-4.5 0-6.1 1.7-.6.6-1.7 1.1-2.2 2.2-.6.6-1.1 1.1-1.7 1.7v41.2c0 2.2 1.1 5 2.2 6.7 1.7 2.2 5.6 3.3 8.9 3.3v4.5h-35.6v-4.5c3.3 0 5-2.2 6.1-3.9s1.7-3.9 1.7-6.1v-45.7c0-1.1-.6-2.2-1.1-2.8-1.1-1.7-3.9-2.8-7.2-2.8v-3.9l8.4-1.1 16.7-2.2v8.9l9.5-7.2s3.3-3.3 7.8-3.3c4.8-.7 8.7 3.8 8.7 11"/><path d="m455.4 60-.6 6.7c0 2.2-1.1 5-3.3 6.1l-6.1 4.5c-1.1.6-2.2 0-2.2-1.1s0-2.2 0-3.3c0-2.2 0-4.5-.6-6.7-.6-1.7-1.7-3.3-3.3-3.9-2.2-1.1-4.5 0-6.1 1.7-.6.6-1.7 1.1-2.2 2.2-.6.6-1.1 1.1-1.7 1.7v41.2c0 2.2 1.1 5 2.2 6.7 1.7 2.2 5.6 3.3 8.9 3.3v4.5h-35.6v-4.5c3.3 0 5-2.2 6.1-3.9s1.7-3.9 1.7-6.1v-45.7c0-1.1-.6-2.2-1.1-2.8-1.1-1.7-3.9-2.8-7.2-2.8v-3.9l8.4-1.1 16.7-2.2v8.9l9.5-7.2s3.3-3.3 7.8-3.3c4.8-.7 8.7 3.8 8.7 11"/><path d="m340.2 77.8c-1.1-11.7-7.2-23.4-18.4-27.8-10.6-3.9-21.7 3.3-27.8 11.7-7.2 10-7.8 23.4-5.6 35.6.6 4.5 2.2 8.9 4.5 12.8 3.3 5.6 7.8 10.6 14.5 12.8 6.1 2.2 13.4 2.2 19.5-.6 2.8-1.1 5.6-3.3 7.8-6.1 1.1-1.1 2.2-2.2 2.8-3.9 0-.6.6-.6.6-1.1v-.6-3.9c0-.6-.6-1.1-1.1-1.1s-1.1 0-1.1.6c-1.1 1.1-3.3 3.9-7.2 6.1-1.7 1.1-3.3 1.7-5.6 1.7-13.9 1.1-17.8-15-18.4-25.6h33.4c1.1 0 2.2-1.1 2.2-2.2-.1-3.4-.1-7.3-.1-8.4m-35.1 1.1c0-3.9.6-7.2 1.1-11.1 1.1-5 3.3-10 8.4-10.6 7.2-1.1 9.5 8.9 9.5 13.4v7.2c0 .6-.6 1.1-1.1 1.1z"/><path d="m504.4 50.5v3.3s5.6 1.1 7.2 6.7c0 0 1.7 5.6-.6 11.1l-11.1 30.1-10-30.1c-2.2-5.6-.6-11.1-.6-11.1 1.7-5.6 7.2-6.7 7.2-6.7v-3.3h-34.5v3.3s5.6.6 6.7 5l21.7 67.4c-.6 3.9-3.3 13.9-8.9 16.1 0 0-5 1.1-7.8-.6-2.2-1.7-3.3-5.6-3.3-7.8 0-2.8.6-5.6 1.7-8.4 0-.6 0-.6 0-1.1v-.6c0-.6-.6-1.1-1.1-1.1h-.6s0 0-.6 0c-1.1.6-10.6 5-10.6 15.6 0 13.9 8.4 16.7 11.7 16.7 6.7 0 13.4.6 25.1-29.5l23.9-65.7c1.7-5 8.4-6.1 8.4-6.1v-3.3z"/><path d="m573.4 87.3c-2.8-3.3-6.7-6.1-15-11.1-7.2-4.5-11.1-6.1-12.2-10-.6-2.8-.6-6.1 1.7-8.4 2.8-2.8 6.7-2.8 8.4-2.2 5.6.6 8.9 3.9 10 5 4.5 5 4.5 11.1 4.5 12.8h3.3v-21.2h-3.9s0 1.7-1.1 2.2c-.6 0-1.1 0-1.1 0-1.1-.6-1.7-.6-2.8-1.1-4.5-2.8-8.9-2.8-10-2.8-1.7 0-6.1-.6-10.6 2.2-6.7 3.3-9.5 9.5-10 11.7-.6 1.1-3.3 8.9.6 17.3 2.8 6.1 8.4 9.5 12.2 11.7 1.1.6 7.2 3.9 13.4 7.8 1.1.6 2.8 1.7 3.9 3.9 1.7 2.8 1.1 6.1 1.1 7.2s-.6 4.5-3.9 6.7c-2.8 2.2-5.6 1.7-7.2 1.7-4.5 0-7.8-2.2-8.9-2.8-3.9-2.2-5.6-5.6-7.2-9.5-1.7-3.3-2.8-6.7-3.9-8.9h-3.3v22.8h3.9s0-1.7 1.1-2.2h1.1c1.1.6 1.1.6 2.2 1.1 1.7 1.1 5 3.3 9.5 4.5 2.2.6 10 1.7 17.8-2.8 1.1-.6 8.4-5.6 10.6-14.5 2-11.7-3.6-19.5-4.2-21.1"/></g></svg>