<?xml version="1.0" encoding="utf-8"?>
<!-- Generator: Adobe Illustrator 22.0.1, SVG Export Plug-In . SVG Version: 6.00 Build 0)  -->
<svg version="1.1" id="Layer_1" xmlns="http://www.w3.org/2000/svg" xmlns:xlink="http://www.w3.org/1999/xlink" x="0px" y="0px"
	 viewBox="0 0 578 155" style="enable-background:new 0 0 578 155;" xml:space="preserve">
<style type="text/css">
	.st0{fill:#FFFFFF;}
</style>
<g>
	<path class="st0" d="M76.3,67.8c-3.3-4.5-8.9-6.7-11.7-7.2c-0.6,0-0.6-1.1,0-1.1c2.8-2.8,12.2-12.2,12.2-25.6
		c0-15.6-4.5-21.7-4.5-21.7C63.4,0,52.8,0,52.8,0H0v3.9c1.1,0,11.7,0.6,11.7,12.8v90.2C11.7,116.9,0,118,0,118v5h59
		c1.7,0,3.9-0.6,5.6-1.1h0.6c3.9-1.7,7.2-3.9,10.6-7.2c3.3-3.9,7.2-13.9,7.2-23.9C83,78.4,80.2,72.8,76.3,67.8 M30.6,12.7
		c0-4.5,6.1-5,6.1-5H40c6.1,0,12.8,3.9,15.6,9.5c2.8,7.8,2.8,17.3,2.2,23.4c-0.6,4.5-2.2,8.9-5,12.8c-1.1,1.7-2.8,2.8-3.9,3.3
		c-1.7,1.1-3.3,1.1-5,1.1h-6.7c-2.2,0-3.9-1.1-5.6-2.8l0,0c-0.6-1.1-1.1-1.7-1.1-2.8V12.7H30.6z M62.9,101.2
		c-2.2,7.8-8.4,14.5-15,14.5H36.7c-2.2,0-3.3-1.7-5-3.3l0,0c-0.6-1.1-1.1-1.7-1.1-2.8V70.1c0-4.5,6.1-5,6.1-5h10.6
		c6.1,0,11.7,3.9,13.9,9.5C65.1,82.3,64.6,95.1,62.9,101.2"/>
	<path class="st0" d="M154.8,117.9v4.5h-22.3c-1.1,0-1.7-1.1-1.7-1.7v-4.5c-2.2,1.7-5.6,3.9-10.6,5c-2.8,0.6-6.1,1.1-9.5,1.1
		c-14.5,0-14.5-16.1-14.5-16.1v-44c0-1.1-0.6-2.8-1.1-3.9c-1.1-1.7-3.9-2.8-7.2-2.8v-3.3l25.1-3.3v55.7c0,3.9,3.3,6.7,6.1,6.7
		c3.9,0,8.9-3.3,11.7-5.6V62.2c0-1.1-0.6-2.8-1.1-3.9c-1.1-1.7-3.9-2.8-7.2-2.8v-3.3l25.1-3.3v58.5c0,2.2,0.6,3.9,1.7,6.1
		C149.8,115.7,151.4,117.9,154.8,117.9"/>
	<path class="st0" d="M212.1,60l-0.6,6.7c0,2.2-1.1,5-3.3,6.1l-6.1,4.5c-1.1,0.6-2.2,0-2.2-1.1s0-2.2,0-3.3c0-2.2,0-4.5-0.6-6.7
		c-0.6-1.7-1.7-3.3-3.3-3.9c-2.2-1.1-4.5,0-6.1,1.7c-0.6,0.6-1.7,1.1-2.2,2.2c-0.6,0.6-1.1,1.1-1.7,1.7v41.2c0,2.2,1.1,5,2.2,6.7
		c1.7,2.2,5.6,3.3,8.9,3.3v4.5h-35.6v-4.5c3.3,0,5-2.2,6.1-3.9c1.1-1.7,1.7-3.9,1.7-6.1V63.4c0-1.1-0.6-2.2-1.1-2.8
		c-1.1-1.7-3.9-2.8-7.2-2.8v-3.9l8.4-1.1l16.7-2.2v8.9l9.5-7.2c0,0,3.3-3.3,7.8-3.3C208.2,48.3,212.1,52.8,212.1,60"/>
	<path class="st0" d="M252.8,49.4c-7.8,0-12.8,3.9-15.6,6.7V2.7L212.1,6v3.9c3.9,0,6.1,1.7,7.2,2.8c0.6,1.1,1.1,2.2,1.1,3.9v104.6
		h3.3c0,0,2.8-4.5,8.4-1.1c6.1,3.9,11.7,3.9,15.6,4.5c12.2,1.1,30.1-7.2,30.1-38.4C277.8,58.3,264.4,49.4,252.8,49.4 M260.5,91.7
		c0,16.7-4.5,23.9-11.7,24.5H246c-5,0-9.5-5-9.5-13.9V78.4c0-11.1,5.6-19.5,11.1-19.5h1.1c5.6,0,11.7,6.7,11.7,21.2L260.5,91.7
		L260.5,91.7z"/>
	<path class="st0" d="M397.5,60l-0.6,6.7c0,2.2-1.1,5-3.3,6.1l-6.1,4.5c-1.1,0.6-2.2,0-2.2-1.1s0-2.2,0-3.3c0-2.2,0-4.5-0.6-6.7
		c-0.6-1.7-1.7-3.3-3.3-3.9c-2.2-1.1-4.5,0-6.1,1.7c-0.6,0.6-1.7,1.1-2.2,2.2c-0.6,0.6-1.1,1.1-1.7,1.7v41.2c0,2.2,1.1,5,2.2,6.7
		c1.7,2.2,5.6,3.3,8.9,3.3v4.5h-35.6v-4.5c3.3,0,5-2.2,6.1-3.9c1.1-1.7,1.7-3.9,1.7-6.1V63.4c0-1.1-0.6-2.2-1.1-2.8
		c-1.1-1.7-3.9-2.8-7.2-2.8v-3.9l8.4-1.1l16.7-2.2v8.9l9.5-7.2c0,0,3.3-3.3,7.8-3.3C393.6,48.3,397.5,52.8,397.5,60"/>
	<path class="st0" d="M455.4,60l-0.6,6.7c0,2.2-1.1,5-3.3,6.1l-6.1,4.5c-1.1,0.6-2.2,0-2.2-1.1s0-2.2,0-3.3c0-2.2,0-4.5-0.6-6.7
		c-0.6-1.7-1.7-3.3-3.3-3.9c-2.2-1.1-4.5,0-6.1,1.7c-0.6,0.6-1.7,1.1-2.2,2.2c-0.6,0.6-1.1,1.1-1.7,1.7v41.2c0,2.2,1.1,5,2.2,6.7
		c1.7,2.2,5.6,3.3,8.9,3.3v4.5h-35.6v-4.5c3.3,0,5-2.2,6.1-3.9c1.1-1.7,1.7-3.9,1.7-6.1V63.4c0-1.1-0.6-2.2-1.1-2.8
		c-1.1-1.7-3.9-2.8-7.2-2.8v-3.9l8.4-1.1l16.7-2.2v8.9l9.5-7.2c0,0,3.3-3.3,7.8-3.3C451.5,48.3,455.4,52.8,455.4,60"/>
	<path class="st0" d="M340.2,77.8c-1.1-11.7-7.2-23.4-18.4-27.8c-10.6-3.9-21.7,3.3-27.8,11.7c-7.2,10-7.8,23.4-5.6,35.6
		c0.6,4.5,2.2,8.9,4.5,12.8c3.3,5.6,7.8,10.6,14.5,12.8c6.1,2.2,13.4,2.2,19.5-0.6c2.8-1.1,5.6-3.3,7.8-6.1c1.1-1.1,2.2-2.2,2.8-3.9
		c0-0.6,0.6-0.6,0.6-1.1v-0.6v-3.9c0-0.6-0.6-1.1-1.1-1.1s-1.1,0-1.1,0.6c-1.1,1.1-3.3,3.9-7.2,6.1c-1.7,1.1-3.3,1.7-5.6,1.7
		c-13.9,1.1-17.8-15-18.4-25.6h33.4c1.1,0,2.2-1.1,2.2-2.2C340.2,82.8,340.2,78.9,340.2,77.8 M305.1,78.9c0-3.9,0.6-7.2,1.1-11.1
		c1.1-5,3.3-10,8.4-10.6c7.2-1.1,9.5,8.9,9.5,13.4v7.2c0,0.6-0.6,1.1-1.1,1.1H305.1z"/>
	<path class="st0" d="M504.4,50.5v3.3c0,0,5.6,1.1,7.2,6.7c0,0,1.7,5.6-0.6,11.1l-11.1,30.1l-10-30.1c-2.2-5.6-0.6-11.1-0.6-11.1
		c1.7-5.6,7.2-6.7,7.2-6.7v-3.3H462v3.3c0,0,5.6,0.6,6.7,5l21.7,67.4c-0.6,3.9-3.3,13.9-8.9,16.1c0,0-5,1.1-7.8-0.6
		c-2.2-1.7-3.3-5.6-3.3-7.8c0-2.8,0.6-5.6,1.7-8.4c0-0.6,0-0.6,0-1.1l0,0v-0.6c0-0.6-0.6-1.1-1.1-1.1h-0.6c0,0,0,0-0.6,0
		c-1.1,0.6-10.6,5-10.6,15.6c0,13.9,8.4,16.7,11.7,16.7c6.7,0,13.4,0.6,25.1-29.5l23.9-65.7c1.7-5,8.4-6.1,8.4-6.1v-3.3L504.4,50.5z
		"/>
	<path class="st0" d="M573.4,87.3c-2.8-3.3-6.7-6.1-15-11.1c-7.2-4.5-11.1-6.1-12.2-10c-0.6-2.8-0.6-6.1,1.7-8.4
		c2.8-2.8,6.7-2.8,8.4-2.2c5.6,0.6,8.9,3.9,10,5c4.5,5,4.5,11.1,4.5,12.8h3.3V52.2h-3.9c0,0,0,1.7-1.1,2.2c-0.6,0-1.1,0-1.1,0
		c-1.1-0.6-1.7-0.6-2.8-1.1c-4.5-2.8-8.9-2.8-10-2.8c-1.7,0-6.1-0.6-10.6,2.2c-6.7,3.3-9.5,9.5-10,11.7c-0.6,1.1-3.3,8.9,0.6,17.3
		c2.8,6.1,8.4,9.5,12.2,11.7c1.1,0.6,7.2,3.9,13.4,7.8c1.1,0.6,2.8,1.7,3.9,3.9c1.7,2.8,1.1,6.1,1.1,7.2s-0.6,4.5-3.9,6.7
		c-2.8,2.2-5.6,1.7-7.2,1.7c-4.5,0-7.8-2.2-8.9-2.8c-3.9-2.2-5.6-5.6-7.2-9.5c-1.7-3.3-2.8-6.7-3.9-8.9h-3.3v22.8h3.9
		c0,0,0-1.7,1.1-2.2c0.6,0,1.1,0,1.1,0c1.1,0.6,1.1,0.6,2.2,1.1c1.7,1.1,5,3.3,9.5,4.5c2.2,0.6,10,1.7,17.8-2.8
		c1.1-0.6,8.4-5.6,10.6-14.5C579.6,96.7,574,88.9,573.4,87.3"/>
</g>
</svg>
