<?xml version="1.0" encoding="utf-8"?>
<!-- Generator: Adobe Illustrator 22.0.1, SVG Export Plug-In . SVG Version: 6.00 Build 0)  -->
<svg version="1.1" id="Layer_1" xmlns="http://www.w3.org/2000/svg" xmlns:xlink="http://www.w3.org/1999/xlink" x="0px" y="0px"
	 viewBox="0 0 577.8 403" style="enable-background:new 0 0 577.8 403;" xml:space="preserve">
<style type="text/css">
	.st0{fill:#FFFFFF;}
</style>
<g>
	<path class="st0" d="M269.1,126.9c0.4,0.2,0.9,0.4,1.5,0.7c0.2,0.1,0.4,0.3,0.6,0.6c0.6,1.1,0.6,2.2,0.4,3.3
		c-0.2,1-0.8,1.7-1.5,2.3c0,0.3-0.1,0.6,0,1c0,0.2,0.1,0.5,0.3,0.6c0.7,0.6,0.7,1.4,0.8,2.1c0.2,0.7-0.1,1.3-0.4,2
		c-0.4,1-1.3,1.4-1.9,2.1c0,0-0.1,0.1-0.1,0.1c-1,0-1.9,0.6-3,0.3c-0.4-0.1-0.8,0-1.1,0.4c-0.2,0.3-0.3,0.6-0.4,0.9
		c-0.3,0.9-0.5,1.8-0.7,2.6c-0.4,1-0.8,2.1-1.2,3.1c-0.1,0.4-0.2,0.8-0.4,1.2c-0.2,0.5-0.3,1-0.6,1.4c-0.2,0.3-0.3,0.7-0.5,1
		c-0.3,0.7-0.5,1.5-0.9,2.1c-0.4,0.7-0.6,1.4-1,2.1c-0.6,1.1-1.2,2.3-1.7,3.5c-0.3,0.7-0.7,1.4-1,2.1c-0.2,0.4-0.2,0.9-0.7,1.1
		c-0.1,0-0.1,0.1-0.2,0.2c-0.2,1.1-1.1,1.8-1.4,2.8c-0.6,0.7-1.1,1.6-1.6,2.4c-0.1,0.2-0.2,0.3-0.3,0.5c-0.7,1.6-1.9,2.9-2.8,4.4
		c-0.3,0.5-0.6,1-0.8,1.4c-0.4,0.6-0.7,1.1-1.3,1.6c0.3,0.6,0.4,1.2,0.2,1.8c-0.1,0.4-0.2,1,0,1.4c0.2,0.7,0.1,1.3-0.1,1.9
		c-0.3,0.9-0.7,1.8-1.3,2.6c-0.5,0.5-1.1,0.9-1.7,1.2c-0.4,0.2-0.9,0.2-1.3,0.1c-0.4-0.1-0.9-0.1-1.3-0.2c-0.6-0.1-1.2-0.2-1.8-0.3
		c-1-0.3-1.9-0.5-2.9-0.9c-0.4-0.2-0.8-0.1-1.2-0.2c-0.4,0-0.8,0-1.2-0.3c-0.1-0.1-0.3-0.1-0.5-0.1c-0.4-0.1-0.9-0.1-1.3-0.2
		c-0.9-0.2-1.7-0.6-2.7-0.7c-0.9-0.1-1.7-0.4-2.5-0.5c-0.4-0.1-0.7-0.1-1.1-0.1c-0.6,0-1.3,0-1.9-0.3c-0.2-0.1-0.5-0.1-0.8-0.1
		c-1.3,0-2.6,0.1-3.9,0c-0.8-0.1-1.7-0.1-2.6,0c-0.8,0-1.6,0.1-2.5,0.1c-0.5,0-1.1,0-1.6-0.1c-2-0.2-3.9-0.2-5.9-0.2
		c-0.6,0-1.2,0-1.8-0.2c-0.5-0.2-1.2-0.1-1.8-0.1c-0.6,0-1.2,0-1.8-0.2c-0.3-0.1-0.6-0.1-1-0.1c-0.4,0-0.7-0.1-1.1-0.1
		c-0.3,0-0.6-0.1-0.9-0.2c-0.4-0.1-0.7-0.1-1.1-0.2c-0.3,0-0.5-0.2-0.8-0.1c-1.4,0.1-2.8-0.1-4.2-0.6c-0.1,0-0.3-0.1-0.4-0.1
		c-0.8,0.2-1.5-0.3-2.3-0.3c-0.7,0-1.4-0.5-2.1-0.6c-1.5-0.2-2.9-0.8-4.3-1.2c-0.5-0.2-1.1-0.2-1.6-0.3c-0.7-0.2-1.4-0.3-2.1-0.6
		c-0.7-0.3-1.4-0.1-2.2-0.1c-0.7,0.5-1.7,0.6-2.3,1.3c-0.3,0.3-0.5,0.7-0.5,1.1c-0.1,0.8,0,1.6,0.4,2.3c0.2,0.4,0.5,0.9,0.8,1.3
		c0.8,0.9,1.7,1.8,2.5,2.7c0.4,0.5,0.8,0.9,1.3,1.4c0.3,0.4,0.7,0.7,1,1.1c0.6,0.6,1.3,1.2,1.7,2c0.5,1,1.3,1.7,2.1,2.5
		c0.7,0.6,1.2,1.3,1.8,2.1c0.3,0.4,0.5,0.8,0.9,1c0.5,0.3,1,0.6,1.7,0.5c0.5-0.1,1.1-0.2,1.6-0.4c0.5-0.4,0.6-0.9,0.8-1.5
		c0.1-0.4,0.2-0.8,0.3-1.2c0.1-0.4,0.4-0.7,0.8-0.8c0.4-0.1,0.9-0.3,1.4-0.1c0.2,0.1,0.4,0.1,0.5,0.1c1.1-0.1,2.1,0.3,3.1,0.5
		c1,0.2,1.9,0.6,2.9,1c0.9,0.4,1.7,0.9,2.6,1.3c0.5,0.3,0.9,0.6,1.3,1c0.7,0.7,1.4,1.4,2.1,2.1c0.7,0.7,1.2,1.6,1.6,2.6
		c0.2,0.7,0.6,1.3,0.7,2.1c0.1,0.7,0.5,1.4,0.6,2.1c0.2,0.9,0.2,1.9,0.2,2.9c0,0.7-0.4,1-1.1,0.9c-0.5-0.1-0.9-0.1-1.4,0
		c-0.2,0.1-0.6,0.1-0.8,0c-0.7-0.3-1.6,0-2.3-0.4c-0.7,0.3-1.3-0.1-2-0.1c-0.5,0.1-0.9-0.3-1-0.8c-0.1-0.3-0.2-0.6-0.2-0.9
		c-0.1-0.5-0.1-1-0.4-1.4c-0.1-0.1-0.2-0.3-0.2-0.5c0-1-0.5-1.9-0.8-2.9c-0.2-0.5-0.3-1-0.4-1.5c-0.4-0.6-0.9-0.9-1.8-0.9
		c-0.2,0.2-0.5,0.4-0.7,0.6c0,0.1,0,0.2,0,0.3c0.1,0.4,0.2,0.7,0.3,1.1c0.2,0.9,0.4,1.9,0.4,2.9c0,0.6,0.1,1.3,0.2,2
		c-0.3,0.5-0.3,0.5-0.9,0.9c-0.5-0.2-1.1-0.3-1.7-0.2c-0.6,0-1.3-0.2-1.9-0.4c-1.5-0.5-3-0.8-4.4-1.6c-0.1-0.1-0.3-0.1-0.5-0.1
		c-0.2,0-0.4,0-0.5-0.1c-1-0.6-2.2-0.9-3.3-1.4c-0.4-0.2-0.8-0.4-1.3-0.5c-1.1-0.3-2.2-0.7-3.2-1.1c-0.3-0.1-0.6-0.3-1-0.5
		c-0.1,0-0.1-0.2-0.2-0.2c-1-0.2-1.7-0.9-2.6-1.3c-1.3-0.5-2.5-1.1-3.6-2c-2.1-1-3.6-2.7-5.2-4.3c-0.5-0.5-1-1.1-1.4-1.7
		c-0.8-1.1-1.2-2.3-1.3-3.6c0-0.5-0.2-1,0-1.5c0.1-0.4-0.1-0.7-0.4-1c-0.2-0.2-0.4-0.3-0.6-0.4c-1-0.4-1.6-1.4-2.3-2.2
		c-0.1-0.1-0.2-0.2-0.2-0.3c-0.2-1.2-0.8-2.3-0.7-3.5c0-0.7-0.3-1.3-0.8-1.8c-0.2-0.2-0.4-0.5-0.7-0.7c-1.5-1.4-2.5-3.1-3.5-4.9
		c-0.1-0.8-0.5-1.5-0.7-2.2c-0.3-0.9-0.5-1.7-0.8-2.6c-0.1-0.3-0.1-0.6,0-0.9c0.1-0.6,0-0.7-0.7-0.6c0,0-0.1,0-0.1,0.1
		c-0.2,0.4-0.5,0.7-0.3,1.3c0.1,0.3,0,0.6,0.1,1c0.1,0.6,0.2,1.2,0.3,1.8c0.6,0.6,0.4,1.4,0.7,2c0.3,0.7,0.4,1.4,0.6,2.1
		c0.3,0.9,0.7,1.8,1,2.7c0.2,0.6,0.6,1.3,0.7,1.9c0.1,0.8,0.5,1.4,0.9,2c1,1.5,1.8,2.9,2.4,4.3c0.5,1.2,1.1,2.4,1.7,3.6
		c0.6,1.2,1.4,2.2,2.2,3.3c0.7,1,1.4,2,2.3,2.9c0.3,0.3,0.6,0.6,0.8,0.9c1.1,1.5,2.5,2.8,3.9,4c1.4,1.2,3,2.3,4.7,3
		c0.2,0.1,0.5,0.3,0.7,0.5c0.4,0.3,0.7,0.7,1.1,0.8c1.3,0.5,2.1,1.5,3.1,2.2c0.1,0.1,0.2,0.3,0.3,0.4c0.1,0.2-0.1,0.6-0.3,0.6
		c-0.9,0-1.8,0.3-2.6,0.7c-0.2,0.1-0.6,0.2-0.8,0.1c-0.8-0.2-1.6,0.1-2.4,0.2c-0.1,0-0.3,0.1-0.4,0.1c-1.5-0.1-3,0.5-4.5,0.5
		c-0.7,0-1.3-0.2-2-0.3c-1.2-0.2-2.1-1.1-3.1-1.7c-0.3-0.2-0.5-0.5-0.7-0.8c-0.6-0.9-1.2-1.7-1.7-2.7c-0.3-0.7-0.7-1.4-1-2.1
		c-0.6,0.1-1.3,0.2-1.9,0c-1.3,0-2.4-0.5-3.5-1.1c-0.7-0.4-1.2-0.9-1.4-1.8c0-0.3-0.1-0.5-0.1-0.8c0-0.7-0.1-1.5-0.4-2.1
		c-0.1-0.3-0.1-0.6-0.2-0.9c-0.1-0.5-0.3-0.9-0.7-1.2c-0.1-0.1-0.3-0.2-0.4-0.4c-0.2-0.3-0.3-0.6-0.4-0.9c-0.2-0.7-0.6-1.3-0.9-2
		c-0.2-0.5-0.4-1.1-0.5-1.7c-0.2-0.9-0.3-1.8-0.3-2.7c-0.1-1.3-0.4-2.5-0.1-3.8c0-0.2-0.1-0.5-0.2-0.8c-0.5-1.8-1-3.5-1.6-5.3
		c-0.2-0.8-0.5-1.6-0.9-2.3c-0.2-0.5-0.3-1-0.7-1.5c-0.4-0.4-0.5-1-0.7-1.5c-0.2-0.5-0.4-1-0.7-1.5c-0.4-0.8-0.7-1.7-0.9-2.6
		c-0.1-0.5-0.2-0.9-0.3-1.4c0-0.2-0.1-0.5-0.1-0.7c0.2-1,0.1-2.1,0.4-3.1c0.6-2.1,1.5-4.1,2.5-6c0.5-1,1.1-1.9,1.9-2.7
		c0.3-0.3,0.4-0.7,0.8-1c0.8-0.7,1.7-1.1,2.6-1.5c0.7-0.3,1.5-0.3,2.1,0.1c0.8,0.4,1.6,0.7,2.4,0.9c0.6,0.1,1.2,0.4,1.8,0.7
		c0.6,0.3,1.2,0.5,1.9,0.5c0.4,0,0.9,0.2,1.3,0.3c0.9,0.3,1.9,0.2,2.8,0.7c1,0,1.9,0.5,2.8,0.8c0.3,0.1,0.7,0.1,1.1,0.1
		c0.5,0.1,1,0.1,1.5,0.3c0.6,0.2,1.1,0.3,1.7,0.3c2.2,0,4.3,0.1,6.5,0.4c1,0.1,2.1,0.2,3.1,0.6c0.3,0.1,0.6,0.1,0.9,0.1
		c0.4,0.1,0.7,0.5,0.6,0.9c-0.1,0.2-0.2,0.3-0.3,0.5c-0.3,0.3-0.3,0.6-0.3,1c0.1,0.9,0.2,1.2,1.1,1.2c0.5,0,1,0.1,1.6-0.2
		c0.5-0.2,1-0.4,1.6-0.2c0.3,0.1,0.5,0,0.8-0.1c0.5,0,0.9-0.1,1.4-0.1c0.5-0.1,1-0.2,1.5-0.2c0.5,0.1,0.9-0.1,1.3-0.1
		c0.5-0.1,1-0.1,1.5-0.1c0.6,0.1,1.3,0,1.9-0.1c0.7-0.1,1.4-0.3,2.1,0c0.6,0.2,1.3,0.1,1.9,0.5c0.3,0.2,0.8,0.3,1.2,0.4
		c0.7,0.3,1.4,0.6,2,1.1c0.2,0.2,0.5,0.4,0.9,0.4c0.2,0,0.4-0.2,0.3-0.4c-0.2-0.4-0.1-1-0.7-1.3c-0.1-0.4-0.2-0.8-0.4-1.1
		c-0.2-0.3-0.5-0.6-0.5-1c0,0,0-0.1,0.1-0.2c0.3-0.1,0.6-0.3,1-0.2c0.9,0.1,1.7,0.1,2.6,0.4c0.5,0.1,1,0.3,1.4,0.4
		c1.7,0.4,3.5,0.9,5.1,1.6c1.9,0.8,3.9,1.5,5.7,2.7c0.2,0.2,0.5,0.2,0.8,0.3c0.1,0,0.3,0,0.4,0.1c0.7,0.7,1.7,1.1,2.6,1.6
		c1,0.5,1.8,1.3,2.8,1.7c0.5,0.2,1,0.7,1.5,1c1.5,1.2,3,2.3,4.3,3.7c0.4,0.5,0.8,0.9,1.3,1.5c-0.1,0.2-0.1,0.4-0.2,0.6
		c-0.1,0.2-0.4,0.3-0.6,0.1c-0.5-0.3-1.2,0-1.6-0.6c-0.1-0.1-0.2-0.1-0.4-0.1c-0.8-0.1-1.6-0.2-2.5-0.4c-0.8-0.1-1.6-0.3-2.4-0.4
		c-0.3,0-0.6,0.1-0.9,0.1c-1.6,0.3-3.2,0.7-4.7,1.5c0,0.1,0,0.2-0.1,0.3c-0.2,0.6,0.1,1.1,0.6,1.4c0.4,0.3,0.7,0.6,1.1,0.9
		c0.7,0.6,1.5,1,2.4,1.4c0.4,0.2,1,0.3,1.4,0.6c0.1,0.1,0.3,0.1,0.5,0.1c0.7,0,1.5-0.1,2.2,0.1c0.7,0.1,1.4,0,2,0
		c0.8,0,1.6-0.4,2.4-0.6c0.2-0.1,0.3-0.2,0.5-0.3c0.7-0.4,1.3-0.8,2-1.2c0.2-0.1,0.4-0.2,0.6-0.4c0.3-0.3,0.7-0.6,1-1
		c0.2-0.2,0.5-0.4,0.6-0.7c0.2-0.8,0.9-1.2,1.3-1.8c0.5-0.8,1-1.6,1.3-2.4c0.3-0.8,0.6-1.5,1.1-2.2c0.3-0.4,0.5-0.8,0.6-1.2
		c0.1-0.6,0.4-1.1,0.7-1.6c0.2-0.3,0.4-0.6,0.4-1c0.2-0.9,0.8-1.6,0.9-2.4c0.2-1,0.6-1.8,1.1-2.6c0.1-0.2,0.1-0.3,0.2-0.5
		c0.2-0.7,0.4-1.4,0.7-2.1c0.3-0.7,0.3-1.4,0.8-2c0,0,0-0.1,0.1-0.1c0.7-2.6,1.7-5,2.3-7.7c0.3-1.3,0.8-2.6,1.2-3.9
		c0.4-1.3,0.8-2.5,1-3.8c0.2-0.8,0.5-1.5,0.7-2.2c0.4-0.9,0.9-1.8,1.3-2.7c0.5-1.1,1.2-1.8,2.1-2.5c0.4-0.3,0.9-0.5,1.4-0.5
		c0.4,0,0.8,0,1.2,0c0.4,0,0.7,0.1,1,0.5c0.5,0.6,1.1,1,1.7,1.4c0.3,0.2,0.4,0.4,0.3,0.8c0.1-0.3,0.2-0.4,0.3-0.6
		c0.2,0,0.5,0.1,0.8,0.1c0.7,0.1,1.3,0,2-0.4c0.4-0.3,1-0.3,1.3-0.7c0.1-0.1,0.2-0.2,0.4-0.2c0.6,0,0.9-0.4,1.4-0.6
		c0.5-0.2,0.9-0.4,1.3-0.7c0.3-0.3,0.7-0.5,1.1-0.6C267.4,127.4,268,126.8,269.1,126.9 M237.9,180.6c0.2,0.3,0.3,0.6,0.4,0.8
		c0.3,0.6,0.9,0.8,1.5,0.8c0.3,0.1,0.6-0.1,0.8-0.4c0.1-0.2,0.2-0.4,0.3-0.6c0.1-0.6,0.2-1.3,0.3-1.9c0.1-0.7,0.3-1.3,0.4-2
		c0.1-0.5,0.3-0.9,0.4-1.4c0.2-0.9,0.6-1.8,0.6-2.8c0-0.1,0.1-0.2,0.2-0.4c0.4-1.8,1.1-3.5,1.5-5.3c0-0.2,0.1-0.4,0.2-0.5
		c0.6-1.2,1.2-2.4,1.7-3.6c0.1-0.1,0.1-0.3,0.1-0.4c0-0.7,0.4-1.2,0.6-1.8c0.2-0.6,0.6-1.1,0.8-1.7c0.3-0.6,0.6-1.2,0.8-1.9
		c0.2-0.7,0.5-1.3,0.8-1.9c0.1-0.3,0.3-0.6,0.4-0.9c0.2-0.7,0.4-1.3,0.9-1.8c0.1-0.1,0.1-0.3,0.2-0.5c0.1-0.7,0.2-1.4,0.6-1.9
		c0.4-0.6,0.7-1.2,1-1.8c0.2-0.4,0.3-0.8,0.7-1.2c0.1-0.2,0.2-0.4,0.3-0.6c0.5-1.4,1.5-2.6,2.3-3.9c0.4-0.7,0.9-1.4,1.3-2.1
		c0.3-0.5,0.6-1,1.1-1.4c0.1-0.1,0.1-0.2,0.2-0.3c-0.1-0.1-0.1-0.2-0.2-0.4c-0.1-0.1-0.2-0.3-0.2-0.3c-0.9,0.1-1.6,0.3-2.4,0.4
		c-0.5,0.1-0.9,0.1-1.4,0.1c-0.5,0-0.9-0.2-1.1-0.6c-0.4-0.7-1.2-1.1-1.9-1.7c-0.1,0.3-0.3,0.4-0.3,0.6c0,1.2-0.1,2.3-0.4,3.4
		c-0.1,0.6-0.3,1.3-0.3,1.9c0,0.5,0,0.9-0.2,1.3c-0.3,0.5,0,1-0.2,1.5c-0.3,0.6-0.4,1.3-0.6,2c-0.3,1.1-0.7,2.3-1,3.4
		c-0.1,0.5-0.2,1.1-0.4,1.6c-0.5,1.4-1.1,2.8-1.5,4.3c-0.3,1.2-1.1,2.3-1.1,3.7c0,0.1-0.1,0.3-0.1,0.4c-1.1,2.2-1.8,4.6-2.7,6.9
		c-0.2,0.5-0.4,0.9-0.4,1.4c-0.1,0.7-0.3,1.3-0.6,1.9c-0.4,0.8-0.6,1.6-0.8,2.5c-0.2,0.8-0.3,1.5-0.6,2.2
		C238.9,177.2,238.6,178.9,237.9,180.6 M199.8,172.4c-1.6-0.8-1.7-0.8-2.9-1c-0.2,0-0.4-0.1-0.6-0.2c-0.2-0.1-0.3-0.3-0.5-0.3
		c-1,0-1.8-0.5-2.7-0.9c-0.4-0.2-0.9-0.3-1.3-0.5c-1.9-0.9-3.8-1.9-5.8-2.3c-0.8-0.6-1.8-0.6-2.7-0.8c-0.4-0.1-0.9-0.3-1.3-0.3
		c-0.4,0-0.8-0.3-1.3-0.1c-0.4,0.1-0.9-0.1-1.3-0.1c-0.2,0-0.5,0-0.7,0.1c-0.9,0.2-1.8,0.4-2.7,0.4c-0.3,0-0.8,0.1-1,0.4
		c-0.5,0.5-1.2,1-1.1,1.9c0.9,0.6,1.6,1.3,2.7,1.4c0.5,0.1,1,0.2,1.5,0.1c0.2-0.1,0.4,0,0.7,0c0.6,0.1,1.2,0.2,1.8,0.3
		c0.5,0.1,1.1-0.1,1.6,0.1c0.6,0.2,1.2,0,1.8,0c0.2,0,0.4,0.1,0.5,0.1c0.7,0.2,1.4,0.4,2.1,0.6c1.9,0.5,3.7,1,5.6,1.5
		c0.2,0.1,0.5,0.1,0.6,0.2c0.4,0.4,1,0.4,1.5,0.7c0.1,0.1,0.3,0.1,0.4,0.1c0.6-0.3,1.3,0,1.9-0.1c0.3-0.1,0.6,0,1,0.1
		c0.1,0,0.2,0.2,0.2,0.3c0.3-0.4,0.6-0.8,1.1-1C199.1,172.9,199.4,172.6,199.8,172.4 M180.8,194.3c0.2-0.7,0-1.3-0.1-1.9
		c0-0.3-0.2-0.6-0.5-0.9c-0.5-0.5-1-1-1.2-1.6c-0.4-1.1-1.3-1.8-1.8-2.7c-0.1-0.2-0.3-0.3-0.5-0.5c-0.5-0.6-0.9-1.1-1.4-1.7
		c-0.1-0.1-0.1-0.3-0.3-0.3c-0.4-0.2-0.8-0.4-1-0.9c-0.2-0.4-0.8-0.5-1-0.9c-0.1-0.2-0.3-0.3-0.6-0.3c-0.2,0-0.4-0.1-0.6-0.1
		c-0.6,0.3-1,0.7-1.2,1.3c-0.1,0.2-0.1,0.6,0,0.8c0.4,0.8,1,1.6,1.8,2.1c0.2,0.2,0.5-0.1,0.7,0.2c0.1,0.2,0.4,0.4,0.6,0.6
		c0.3,0.3,0.7,0.5,1,0.9c0.8,1,1.8,1.7,2.3,2.9c0,0.1,0.1,0.1,0.2,0.2c0.3,0.4,0.7,0.8,1,1.3c0.4,0.6,0.9,1.1,1.3,1.6
		C180,194.4,180.3,194.4,180.8,194.3 M163.9,167c-0.2,0-0.5-0.1-0.7-0.1c-0.5,0-1,0.2-1.4,0.5c-0.7,0.6-1,1.4-1.4,2.2
		c-0.1,0.1,0,0.3,0,0.4c0,0.6,0.2,1.1,0.6,1.6c0.4,0.5,0.9,0.8,1.5,0.7c0.2-0.1,0.4-0.2,0.6-0.3c0.9-0.4,1.3-1.2,1.8-2
		c0.4-0.7,0.1-1.2-0.1-1.8c0-0.1,0-0.3,0-0.4c0-0.1-0.1-0.2-0.1-0.3C164.4,167.4,164.2,167.2,163.9,167 M267.9,128.2
		c-0.7,0.6-1.3,1.2-1.5,2.2c-0.1,0.9-0.1,1.7,0.7,2.4c1.2,0.2,1.2,0.2,1.7-0.1c0.9-0.5,1.3-1.6,1.1-2.6c0-0.2-0.1-0.4-0.1-0.5
		c-0.3-1.1-0.5-1.3-1.7-1.3C268,128.2,268,128.2,267.9,128.2 M267.7,134.9c-0.4,0.2-0.7,0.4-1.1,0.4c-0.4,0.1-0.6,0.4-0.8,0.6
		c-0.5,0.6-0.2,1.4-0.4,2.1c0,0.1,0,0.2,0.1,0.3c0.1,0.2,0.3,0.5,0.4,0.7c0.1,0.2,0.1,0.5,0.1,0.8c0.4-0.1,0.6-0.5,1-0.4
		c0.3,0,0.7-0.1,1-0.2c0.6-0.7,1-1.5,1.1-2.4C268.8,136,268.8,136,267.7,134.9"/>
	<path class="st0" d="M292.9,171.6h-1.2c-0.2-0.3-0.5-0.6-0.7-0.9c-0.6-1.1-1.5-1.8-2.4-2.6c-1.1-1.1-2.5-1.7-3.7-2.5
		c-0.2-0.1-0.3-0.2-0.5-0.2c-1-0.2-2.1-0.4-3.1-0.7c-0.9-0.3-1.7-0.2-2.6-0.3c-0.8,0-1.5-0.2-2.2-0.3c-0.3-0.4-0.2-0.7,0-1
		c0.7-0.9,0.9-1.9,1.3-2.9c0.2-0.4,0.4-0.8,0.6-1.2c0.3-0.7,0.5-1.4,0.8-2c0.1-0.3,0.2-0.6,0.3-0.9c0.4-0.8,0.6-1.6,0.7-2.5
		c0.2-1.4,0.6-2.8,1-4.1c0.2-0.6,0.3-1.2,0.4-1.9c0.1-0.1,0.3-0.4,0.4-0.6c0.1-0.2,0.2-0.5,0.2-0.6c-0.2-0.8,0-1.5,0.3-2.1
		c0.4-1.2,0.6-2.5,0.9-3.7c0.1-0.2,0.1-0.4,0.2-0.7c0.2-1.5,1.2-2.7,1.9-3.9c0.6-0.4,0.8-1.2,1.3-1.8c0.5-0.5,0.9-1.1,1.1-1.7
		c0-0.1,0.2-0.2,0.3-0.3c0.8-0.7,1.3-1.7,2-2.4c0.3-0.3,0.4-0.7,0.6-1.1c0.4-0.8,0.8-1.7,1.4-2.4c0.3-1,1-1.8,1.4-2.8
		c0.2-0.3,0.3-0.7,0.6-0.9c0.1-0.1,0.2-0.2,0.2-0.3c0.3-1.1,1-2,1.4-3.1c0.3-0.7,0.5-1.3,1-2c0.4-0.6,0.7-1.4,0.9-2.1
		c0.1-0.8,0.4-1.4,0.7-2.1c0.6-0.6,1.3-0.7,2.1-0.4c1,0.3,1,0.3,2,0.1c0.2,0.1,0.3,0.3,0.5,0.4c1.4,0,2.8,0.1,4.2,0.4
		c1.4,0.3,2.8,0.5,4.2,0.7c0.8,0.1,1.5,0.3,2.3,0.2c0.2,0,0.5,0,0.7,0.1c0.5,0.3,1,0.2,1.5,0.2c0.8-0.1,1.6,0,2.5,0
		c0.3,0,0.6,0,0.8,0c1.5-0.4,3.1-0.1,4.6-0.1c0.5,0,1,0.1,1.5,0.2c0.7,0.2,1.5,0,2.2,0.3c0.7,0.2,1.4,0.3,2.1,0.5
		c0.7,0.2,1.5,0.4,2.2,0.8c0.6,0.3,1.2,0.3,1.8,0.7c0.5,0.4,1.2,0.5,1.7,0.9c0.3,0.2,0.6,0.4,0.8,0.7c0.8,1.4,1.6,2.8,2.4,4.2
		c0.3,0.5,0.6,0.9,0.8,1.4c0.6,1.1,1.1,2.1,1.6,3.2c0,0,0,0.1,0,0.1c1,1,1.3,2.5,2.1,3.7c0.5,0.8,1,1.7,1.3,2.6
		c0.2,0.5,0.5,0.9,0.8,1.3c0.6,0.8,1.1,1.7,1.7,2.5c0.1,0.2,0.2,0.3,0.3,0.5c0.3,1,0.9,1.8,1.5,2.6c0.9,1.2,1.6,2.5,2.3,3.9
		c0.2,0.4,0.5,0.8,0.7,1.2c0.1,0.2,0.2,0.3,0.3,0.5c0.4,0.9,0.9,1.7,1.4,2.5c0.8,1.2,1.7,2.4,2.3,3.7c0.4,0.7,0.9,1.4,1.3,2.1
		c0.4,0.7,0.9,1.4,1.3,2.1c0.4,0.7,0.9,1.4,1.3,2.1c0.7,1.3,1.6,2.5,2.4,3.7c0.4,0.7,0.8,1.3,1.1,2.1c0.1,0.3,0.2,0.5,0.3,0.7
		c0.9,1.6,1.7,3.2,2.9,4.6c-0.1,0.4-0.3,0.6-0.6,0.5c-1-0.4-2.1-0.1-3.1-0.5c-0.2-0.1-0.6-0.1-0.8,0c-1.5,0.2-3,0.3-4.5,0.8
		c-0.9,0.3-1.7,0.7-2.5,1c-0.3,0.1-0.6,0.4-0.9,0.6c-0.1,0.1-0.2,0.3-0.3,0.3c-1.4,0.5-2,1.8-2.9,2.8c-0.4,0.5-0.9,0.9-1.4,1.4
		c-0.4,0.4-0.9,0.3-1.4,0.5c-1.1-0.3-2.2,0-3.3-0.1c-0.5,0-0.9,0.1-1.4,0.2c-1.2,0.2-2.2,0.8-3.3,1.4c-0.9,0.5-1.6,1.2-2.6,1.6
		c-0.1,0-0.2,0.1-0.2,0.2c-0.6,1-1.7,1.6-2.2,2.6c-0.2,0.3-0.5,0.4-0.8,0.5c-0.4,0.1-0.7,0.1-0.8-0.3c-0.2-0.6-0.6-1.1-0.6-1.8
		c0-0.3-0.1-0.6-0.2-0.8c-0.7-1.1-1.4-2.2-2.2-3.1c-0.1-0.2-0.3-0.3-0.5-0.5c-0.3-0.2-0.6-0.4-0.8-0.7c-0.2-0.3-0.5-0.5-0.9-0.6
		c-0.3-0.1-0.6-0.4-0.9-0.5c0,0-0.1-0.1-0.1-0.1c-0.1-0.1-0.3-0.2-0.4-0.2c-0.9,0.2-1.5-0.8-2.3-0.5c-0.2,0-0.4,0.1-0.5,0
		c-1-0.5-2-0.3-3-0.2c-1.3,0.1-2.6,0.4-3.9,0.9c-0.3,0.1-0.5,0.3-0.7,0.4c-0.5,0.2-0.9,0.6-1.5,0.7c-0.4,0.1-0.7,0.4-1.1,0.6
		c-0.7,0.5-1.4,0.4-2-0.1c-0.1-0.1-0.3-0.2-0.4-0.4c-0.3-0.4-0.5-0.9-0.8-1.2c-0.3-0.4-0.8-0.5-1.1-1c-0.1-0.1-0.3-0.2-0.4-0.3
		c-0.4-0.3-0.8-0.5-1.1-0.8c-0.3-0.3-0.6-0.4-0.9-0.6c-0.2-0.1-0.5-0.1-0.6-0.3c-0.8-0.7-1.9-0.9-2.9-1.3c-0.3-0.1-0.7-0.1-1.1-0.2
		c-0.7-0.1-1.4-0.3-2.2-0.4c-0.5-0.1-1,0-1.5,0c-0.5,0-0.9,0.3-1.3,0.2c-0.4-0.1-0.8,0.1-1.2,0.1
		C294.9,170.2,293.9,170.7,292.9,171.6 M293.6,151.7c0,0.4,0,0.9-0.1,1.3c0,0,0.1,0,0.1,0C293.9,152.3,293.9,152.3,293.6,151.7
		c0-0.3,0.1-0.6,0.4-0.6c0.5-0.1,0.8-0.4,0.9-0.9c0.9-0.7,0.9-1.6,0.9-2.6c0-0.4-0.2-0.7-0.4-1c0.1-0.3,0.1-0.7,0.2-1.1
		c0.1-0.3,0.2-0.5,0.5-0.6c0.7-0.2,1-0.7,1.5-1.1c0.1-0.2,0.1-0.4,0.1-0.6c0.3-0.8,0.3-1.7,0-2.6c-0.2-0.6,0.1-1.3,0.2-1.9
		c0-0.1,0.2-0.2,0.3-0.3c0.6-0.3,0.9-0.7,1.3-1.2c0.1-0.6,0.2-1.2,0.3-1.8c0.2-0.9-0.3-1.5-0.9-2.1c-0.3,0.1-0.6,0.1-0.9,0.2
		c-0.3,0.1-0.6,0.3-0.8,0.4c-0.2,0.4-0.5,0.8-0.7,1.2c0,0.4,0.1,0.9,0,1.2c-0.3,0.8-0.1,1.4,0.5,1.9c0,0,0.1,0.1,0.1,0.1
		c0.6,0.7,0.2,2-0.7,2.3c-0.7,0.2-1.1,0.6-1.7,0.9c-0.4,1-0.7,2-0.5,2.9c0.2,0.3,0.5,0.4,0.6,0.7c0.1,0.3,0,0.5-0.2,0.8
		c-0.3,0.4-0.5,0.9-1,1.1c-0.6,0.4-1,1-1.3,1.6c0.3,0.7,0.2,1.5,0.3,2.2c0.2,0,0.3,0,0.5,0C293.3,151.3,293.2,151.6,293.6,151.7
		 M335.6,162.2c-0.3-0.4-0.7-0.5-1.1-0.6c-0.4-0.1-0.7-0.1-1.1-0.2c-0.9-0.2-1.5-1.1-1.4-2c0-0.2,0.1-0.4,0.2-0.5
		c0.8-0.8,1.3-1.7,2.5-2c0.6-0.1,1.1-0.5,1.7-0.4c0.1,0,0.3,0,0.4-0.1c0.5-0.3,1.1-0.2,1.6-0.3c0.6-0.1,1.2,0.1,1.7,0.2
		c0.6,0.1,0.9,0.3,1.1,0.9c0.1,0.2,0.2,0.3,0.2,0.5c0.3,0.5,0.2,0.9-0.1,1.3c-0.5,0.8-1,1.5-1.6,2.2c-0.2,0.2-0.5,0.3-0.9,0.6
		c0.6,0.5,0.6,1.3,1.2,1.7c0.2,0.1,0.2,0.4,0.3,0.6c0.1,0.2,0.2,0.5,0.4,0.7c0.6,0.6,1,1.4,1.3,2.1c0.3,0.6,0.6,1.1,1.3,1.3
		c0.1,0.3,0.1,0.6,0.2,0.9c0.1-0.6,0.3-1,0.8-1.3c0.4-0.2,0.5-0.6,0.4-1.1c0-0.1,0-0.3-0.1-0.4c-0.4-0.7-0.5-1.6-1-2.3
		c-0.6-0.8-0.5-1.8-0.3-2.6c0.3-0.9,0.6-1.7,0.5-2.6c0-0.2,0.1-0.3,0.2-0.5c0.1-0.3,0.2-0.5,0.3-0.7c-0.5-0.5-0.5-0.5-0.7-1.2
		c-0.1-0.2-0.2-0.4-0.3-0.6c-0.2-0.8-0.6-1.5-1.4-1.9c-0.1,0-0.1-0.1-0.2-0.3c0.1-0.4,0.2-0.8,0.2-1.3c0.1-1.1,0-2.1-0.2-3.2
		c0-0.3-0.2-0.5-0.3-0.7c-0.5-0.7-1-1.3-1.4-1.9c0.5-2.8,0.6-4-1.8-6.7c0-0.4,0.1-0.7,0.1-1.1c0-0.4,0-0.8,0-1.2
		c-0.2-0.3-0.4-0.6-0.6-0.9c-0.3-0.7-0.8-1.4-1.5-1.6c0-0.2-0.1-0.3-0.1-0.3c0-0.2,0.1-0.4,0.1-0.7c0.1-0.6,0-1.2-0.2-1.8
		c-0.3-0.7-0.8-1.2-1.2-1.9c-0.3-0.6-0.8-0.8-1.4-0.9c-0.6-0.1-1.2-0.1-1.8,0.1c-0.8,0.2-0.8,0.2-1.7-0.1c0.1,0.4,0.1,0.7-0.3,1
		c-0.5,0.3-0.7,0.9-0.9,1.3c-0.4,0.8-0.5,1.7-0.1,2.5c0.1,0.2,0.3,0.5,0.4,0.7c0.2,0.3,0.3,0.7,0.1,1.1c-0.1,0.2-0.2,0.4-0.3,0.6
		c-0.6,1.4-0.5,3.1,0.3,4.5c0.2,0.4,0.3,0.8,0.2,1.2c-0.1,0.4-0.1,0.8-0.2,1.2c-0.2,1-0.1,1.9,0.2,2.8c0.2,0.6,0.4,1.3,0.6,1.9
		c-0.2,0.2-0.3,0.4-0.4,0.6c-0.5,0.8-0.7,1.6-0.5,2.5c0.1,0.5,0.2,0.9,0.4,1.4c0.4,0.8,0.8,1.8,1.2,2.7c-0.2,0.3-0.4,0.6-0.6,0.9
		c-0.1,0.2-0.3,0.5-0.4,0.7c-0.2,0.6-0.4,1.1-0.5,1.7c0.3,0.5-0.2,0.9-0.1,1.5c0.1,0.9-0.4,1.5-1.2,1.7c-0.2,0.1-0.4,0.2-0.5,0.3
		c0,0,0,0.1,0,0.1c0.8-0.2,1.6-0.3,2.4-0.5c0.1,0.1,0.2,0.2,0.3,0.3c0.2,0.4,0.7,0.4,0.8,0.9c0.1,0.5,0.8,0.4,1.1,0.7
		c0.3,0.2,0.5,0.5,0.4,0.8c-0.3,1.4-0.2,2.8-0.8,4.1c-0.1,0.1-0.1,0.3-0.1,0.4c-0.2,0.7,0,1.2,0.7,1.6c0,0.3,0,0.5,0.1,1.1
		c0.3-0.8,0.6-1.2,0.8-1.7c0.2-0.5,0.6-0.9,0.6-1.5c0.1-0.5,0.3-1.1,0.3-1.6c0-0.7,0.2-1.3,0.5-2c0.2-0.5,0.4-1,0.7-1.5
		C335.6,163.1,335.7,162.6,335.6,162.2 M339.9,128c-0.1-0.2-0.3-0.4-0.4-0.6c-0.3-0.4-0.6-0.4-0.9-0.2c-0.3,0.2-0.5,0.4-0.7,0.6
		c-0.2,0.3-0.4,0.7-0.5,1.1c-0.1,0.3-0.2,0.6-0.1,0.9c0.2,0.8,0.2,1.7,0.3,2.6c0.8,0.1,1.8,0,2.2,1.1c-0.4,0.7-0.3,1.5-0.2,2.2
		c0.1,1.3,0.5,2.4,1.8,3c0.1,0,0.1,0.1,0.2,0.3c0.1,1.1,0.2,2.2,0.3,3.3c0,0.8,0.4,1.4,0.9,2c0.3,0.3,0.6,0.6,0.9,0.8
		c0.8,0.8,0.8,0.9,0.3,1.9c0,0.1-0.1,0.2-0.1,0.2c0.2,0.9,0.2,0.9,0,1.6c-0.1,0.4-0.2,0.9,0,1.2c0.5,1,0.8,2.2,1.9,2.8
		c0.3,0.2,0.3,0.4,0.3,0.7c0,0.2,0,0.4-0.1,0.5c-0.3,0.7-0.3,1.5-0.3,2.3c0,0.2,0,0.4,0,0.5c-0.2,0.1-0.4,0.2-0.6,0.2
		c0.5,0,0.8,0.3,0.8,0.7c0,1,0.6,1.8,0.9,2.7c0.3,0.8,1,1.3,1.6,1.9c0.1,0.1,0.3,0.1,0.6,0.1c0.3-0.3,0.6-0.5,0.9-0.8
		c0.1-0.1,0.3-0.3,0.3-0.4c0.1-0.6,0.6-0.9,1-1.3c0.2-0.2,0.5-0.4,0.7-0.7c0.4-0.5,0.8-1,1.5-1.2c0.5-0.1,0.9-0.5,1-1.1
		c-0.2-0.2-0.5-0.5-0.7-0.7c-0.7,0.3-1.3,0.5-1.9,0.7c-0.7,0.3-1.4,0.1-2-0.2c-0.7-0.4-1.1-1-0.8-1.8c0.2-0.7,0.3-1.3,0.8-1.9
		c0.4-0.5,0.4-1.2,1.1-1.5c0.1,0,0.1-0.2,0.2-0.4c0.1-0.6,0.1-1.1-0.3-1.5c-0.5-0.2-0.9,0-1.3,0.1c-1.1,0.3-2,0.2-2.7-0.9
		c-0.1-0.1-0.2-0.2-0.2-0.3c0-0.5,0.2-0.8,0.4-1.2c0.5-1.1,1.3-2.1,1.6-3.3c-0.2-0.4-0.4-0.8-0.6-1.1c-0.2-0.3-0.5-0.6-0.9-0.6
		c-0.5-0.1-0.9-0.2-1.3-0.2c-0.7-0.1-1-0.5-1-1.1c0-0.7-0.1-1.4,0.3-2c0.2-0.3,0.3-0.7,0.4-1c-0.3-1.1-0.9-1.7-1.9-2
		c-0.4-0.1-0.9-0.3-1.2-0.8c0-0.3,0-0.7,0.1-1c0.3-0.7,0.2-1.4,0.2-2c0-0.8-0.3-1.4-1.1-1.7c-0.2-0.1-0.4-0.2-0.6-0.2
		c-0.5-0.2-0.7-0.6-0.6-1.1C339.7,129.1,339.8,128.6,339.9,128 M318.9,157.7c-0.2-0.5-0.5-1-0.6-1.4c-0.1-0.6-0.1-1.3-0.1-1.9
		c0.1-0.6,0.2-1.3,0.5-1.8c0.3-0.5,0.4-1,0.6-1.5c-0.1-0.4-0.3-0.9-0.4-1.3c-0.4-1-0.4-1-0.4-1.9c0-0.9,0-1.8,0.6-2.5
		c0.1-0.1,0.1-0.3,0.1-0.4c0.1-0.4,0.3-0.7,0.6-0.9c0.5-0.4,0.8-0.9,0.9-1.5c-0.8-1.1-0.6-2.3-0.9-3.5c0.2-0.3,0.4-0.7,0.5-1
		c0.4-0.8,0.6-1.7,0.2-2.5c-0.3-0.7-0.4-1.5-0.7-2.2c-0.2-0.5-0.3-1-0.8-1.2c-0.7,0.9-2.2,2.4-3,3c0.1,0.7,0.1,1.4,0.5,1.9
		c0.2,0.2,0.1,0.5,0.2,0.8c0,0.4-0.1,0.7,0,1.1c0,0.4-0.1,0.8-0.3,1.2c-0.4,0.8-0.8,1.5-1,2.4c0.5,0.4,0.8,0.9,0.8,1.6
		c0,0.4,0.3,0.8,0.2,1.2c-0.1,0.6-0.3,1.2-0.1,1.9c0,0.1,0,0.3-0.1,0.4c-0.3,0.5-0.4,1-0.7,1.5c-0.4,0.7-0.7,1.5-0.1,2.3
		c0.2,0.2,0.2,0.5,0.2,0.8c0.1,0.5,0.1,1.1,0.2,1.6c0,0.6,0.1,1.1-0.2,1.6c-0.5,0.7-0.7,1.5-0.9,2.3c0.5,0.6,0.6,1.4,0.7,2.2
		c0.1,0.7-0.1,1.5,0,2.2c0.1,0.9-0.7,1.4-0.7,2.2c0.7,0.5,0.9,1.3,1.3,2c0.8-0.2,1-0.9,1.3-1.2c0.1-0.6,0.3-1.1,0.2-1.4
		c-0.2-0.6,0-1.2,0.2-1.7c0-0.1,0.1-0.2,0-0.3c-0.3-0.4,0-0.8,0.2-1.2c0.3-0.7,0.4-1.5,1-2.1C318.8,158.3,318.8,158,318.9,157.7
		 M291.8,154c-0.4,0.4-0.7,0.7-1,1c-0.2,0.2-0.5,0.6-0.5,0.8c0.1,0.7-0.3,1.4,0,2.1c0.4,0.3,0.8,0.6,1.2,0.9
		c0.1-0.1,0.3-0.3,0.5-0.3c0.5-0.2,1-0.5,1.3-1c0.4-0.8,1-1.7,0.8-2.7c-0.3-0.3-0.7-0.5-0.6-1c0,0-0.1-0.1-0.1-0.1
		c-0.1,0.2-0.2,0.4-0.3,0.6C292.7,154.1,292.3,154.1,291.8,154 M300.7,131.9c0.8-0.4,1.2-1.2,1.6-1.9c0-0.8,0.8-1.6,0.2-2.6
		c-0.4-0.2-0.9-0.3-1.3-0.5c-0.1,0.1-0.2,0.2-0.3,0.3c-0.4,0.3-0.7,0.5-1.1,0.8c-0.4,0.7-0.6,1.4-0.8,2.2c-0.1,0.4,0,0.7,0.3,0.9
		C299.8,131.4,300.2,131.6,300.7,131.9 M303.4,120.3c-0.2,0.3-0.4,0.6-0.6,0.7c-0.4,0.2-0.2,0.7-0.5,0.9c-0.7,0.4-0.7,1.1-0.9,1.8
		c-0.2,0.7-0.1,1.4,0.7,1.7c0.2,0.1,0.3,0.2,0.4,0.3c0.7-0.2,1.2-0.7,1.6-1c0.5-0.8,0.2-1.6,0.6-2.3c-0.1-0.5-0.3-1.1-0.4-1.6
		C304,120.7,303.7,120.5,303.4,120.3"/>
	<path class="st0" d="M180.3,56.3c1-0.7,2.1-0.6,3.2-0.6c0.2,0,0.4,0.1,0.6,0.2c0.8,0.4,1.6,0.5,2.5,0.1c0.6-0.3,1.2-0.3,1.9-0.4
		c0.2,0,0.4,0.1,0.6,0.2c0.3-0.5,0.8-0.3,1.3-0.3c0.4-0.1,0.8-0.2,1.2-0.2c0.5,0.1,1-0.2,1.5-0.3c0.6-0.1,1.2-0.2,1.8,0
		c0.3,0.1,0.7,0.1,1.1,0.1c1.1,0,2.3,0.1,3.4,0.1c0.1,0,0.2,0,0.3,0c0.5,0.3,1.1,0.2,1.6,0.3c0.5,0.1,1.1,0.3,1.6,0.4
		c0.1,0,0.3,0,0.4,0.1c1,0.6,2.3,0.7,3.4,1.2c0.5,0.2,1,0.3,1.4,0.6c0.6,0.3,1,0.8,1.7,0.9c0,0,0.1,0,0.1,0.1c1.4,1.1,3,1.9,4.4,3.1
		c0.8,0.8,1.7,1.6,2.4,2.5c1,1.1,1.9,2.2,2.8,3.4c1.5,2,2.9,4,4,6.3c0.2,0.5,0.8,0.8,0.9,1.4c0.9,1.3,1.6,2.7,2.5,4
		c0.5,0.8,0.9,1.6,1.4,2.4c0.6,0.8,0.8,1.7,1,2.6c-0.3,0.6-0.7,1-1.2,1.4c-0.7,0.5-1.4,1.1-2.2,1.7c-0.3,0.2-0.7,0.5-1.1,0.6
		c-0.9,0.4-1.7,0.9-2.4,1.5c-0.9,0.8-1.9,1.4-2.9,2c-1.5,0.9-3.1,1.8-4.6,2.7c-0.3,0.2-0.6,0.4-0.9,0.6c-1.2,0.6-2.3,1.3-3.4,2.1
		c-1.1,0.8-2.3,1.4-3.5,2.1c-1.2,0.6-2.4,1.2-3.5,1.9c-0.2,0.1-0.4,0.2-0.6,0.3c-1.3,0.7-2.7,1.3-4.2,1.7c-0.6,0.2-1.2,0.4-1.9,0.6
		c-0.2-0.3-0.4-0.6-0.6-0.8c0.1-0.9,0.1-1.7,0.2-2.6c0-0.4-0.1-0.8-0.2-1.2c0-0.4,0-0.8,0-1.2c-0.1-0.6-0.1-1.2,0.1-1.8
		c0.2-0.6,0.1-1.2,0-1.8c-0.1-0.7-0.4-1.4-0.3-2c0-0.9,0.1-1.7-0.2-2.6c0.1-0.7,0-1.4-0.2-2c-0.1-0.7,0-1.4,0-2.1
		c0-0.3,0-0.6-0.1-0.8c-0.2-0.5-0.2-0.9,0-1.3c0-0.1,0-0.2,0-0.3c-0.1-0.9-0.1-1.8-0.3-2.7c-0.1-0.5-0.4-0.9-0.6-1.4
		c-0.5-0.2-1-0.3-1.4-0.5c-0.3-0.1-0.6-0.2-0.9-0.3c-0.5-0.2-0.9-0.6-1-1.1c-0.1-0.4-0.2-0.8-0.5-1.1c-0.3-0.3-0.3-0.6-0.4-1
		c-0.2-0.9-0.8-1.5-1.3-2.1c-0.5,0.2-0.5,0.6-0.5,0.9c0.1,0.5,0.1,1.1,0.3,1.6c0.4,1.2,0.6,2.4,0.6,3.6c0,0.8,0,1.7,0.3,2.5
		c0.1,0.3,0,0.6-0.1,0.9c0,0.9-0.3,1.7,0.1,2.6c-0.1,0.7-0.4,1.3-0.4,2c0,0.5-0.2,1-0.8,1.2c-0.1,0-0.2,0-0.3-0.1
		c-0.9-0.8-1.8-1-2.9-0.5c-0.2,0.1-0.3,0.1-0.5,0.2c0,0-0.1,0.1-0.2,0.1c-0.1,0.3-0.3,0.6-0.4,0.9c-0.4,0.7-0.3,1.4,0.1,2.1
		c0.3,0.7,0.8,1.2,1.5,1.5c1.1,0.4,2,1,2.8,1.8c0.2,0.2,0.5,0.2,0.6,0.4c0.3,0.8,1.2,1.2,1.5,2c0.1,0.4,0.3,0.8,0.4,1.2
		c0,0.1,0,0.3,0.1,0.4c0.5,1.1,0.4,2.3,0.4,3.5c0,1.1,0,2.2,0,3.3c0,0.5-0.1,0.9-0.2,1.4c-0.2,0.9-0.2,1.7,0.1,2.6
		c0.3,1.1,0.9,1.5,1.9,1.7c0.1,0,0.2,0,0.3,0c0.3-0.1,0.7-0.3,1.1-0.5c0.3-0.4,0.6-1,0.9-1.5c0-1.1,0.8-1.5,1.5-1.9
		c0.9-0.4,1.8-0.7,2.6-1.3c0.2-0.2,0.5-0.2,0.8-0.3c0.3-0.1,0.5-0.1,0.8-0.3c1.2-0.7,2.6-1,3.9-1.6c0.4-0.2,0.7-0.4,1.1-0.5
		c0.5,0,0.5-0.5,0.9-0.6c0.3-0.1,0.7-0.1,1.1-0.3c0.3-0.1,0.7-0.3,1-0.5c0.4-0.2,0.8-0.4,1.2-0.7c0.4-0.3,0.8-0.6,1.3-0.7
		c0.1,0,0.3-0.1,0.4-0.2c1-0.6,1.9-1.3,2.9-1.9c0.1-0.1,0.2-0.2,0.3-0.3c1.2-0.3,1.9-1.2,2.9-1.8c1.4-0.8,2.6-1.8,4-2.7
		c0.1-0.1,0.2-0.2,0.3-0.2c1.2-1.1,2.6-1.9,4.1-2.8c0.7-0.4,1.4-1,2.1-1.5c0.3-0.2,0.3-0.2,1-0.2c0.4,0.4,0.4,0.9,0.3,1.4
		c-0.2,0.8-0.2,1.5,0.1,2.3c0.2,0.5,0.2,1,0.3,1.5c0,0.2,0.1,0.4,0.2,0.7c0.1,0.4,0.3,0.9,0.4,1.3c0.2,1.1-0.1,3.2-0.5,4.1
		c-0.1,0.2-0.2,0.4-0.3,0.6c-0.6,0.5-1.1,1.1-1.7,1.6c-0.1,0.1-0.2,0.2-0.4,0.2c-1.1,0.4-2.3,0.7-3.5,0.5c-0.8-0.2-1.6-0.3-2.4-0.5
		c-0.1,0.1-0.2,0.1-0.2,0.2c0,1.4-1,2.2-1.7,3.2c-0.3,0.4-0.7,0.7-1.2,1.2c-1.4,0.6-3.2,0.2-4.9,0.4c-0.2,0.3-0.4,0.6-0.6,1
		c-0.2,0.6-0.6,1.1-1,1.6c-0.4,0.5-0.8,0.8-1.4,1.1c-0.6,0.3-1.1,0.6-1.8,0.6c-0.6,0-1.2,0.1-1.8-0.1c-0.8-0.2-1.5-0.1-2.4-0.1
		c-0.3,0.5-0.6,0.9-0.7,1.3c-0.5,1.2-1.3,1.8-2.5,2c-0.6,0.1-1.1,0.2-1.7,0c-0.5-0.2-1-0.2-1.5-0.5c-0.8-0.4-1.8-0.7-2.7-1.1
		c0,0.1-0.1,0.3-0.1,0.4c-1.1,1.1-2,2.3-3,3.6c-0.1,0.1-0.1,0.2-0.2,0.2c-1.2,0.8-2.2,1.8-3.6,2.2c-0.2,0.1-0.4,0.1-0.5,0.1
		c-0.6,0-1.3,0-1.9-0.1c-1-0.1-1.9-0.3-2.6-1.1c-0.4-0.4-0.9-0.7-1.3-1.2c-1.3-1.9-1.2-1.5-1.3-3.7c0-0.7-0.1-1.4,0.2-2.1
		c0.1-0.2,0.1-0.5,0.1-0.7c0.1-0.5,0.2-1,0.5-1.4c0.1-0.2,0.2-0.4,0.4-0.6c0.6-1,1.3-1.9,2.2-2.6c0.7-0.5,1.1-1.2,1.5-2
		c0.2-0.4,0.2-0.9,0.2-1.4c-0.1-0.1-0.3-0.2-0.4-0.3c-0.3-0.3-0.7-0.4-1.1-0.3c-0.8,0.2-1.5,0.3-2.3,0.4c-0.2,0-0.4,0-0.5-0.1
		c-0.4-0.1-0.7-0.2-1.1-0.2c-0.8,0-1.5-0.2-2.3-0.5c-0.3-0.1-0.6-0.2-0.9-0.2c-1.1,0.5-1.3,1.8-2.5,2.4c-1,0.1-2.1,0.4-3.1,1.1
		c-0.5,0.3-1.1,0.4-1.7,0.6c-1.4,0.3-3-0.7-3.3-2.2c-0.1-0.3-0.1-0.5-0.2-0.8c-0.6-1.7-0.4-3.3,0.2-5c0.2-0.6,0.2-1.3,0.4-1.9
		c0.2-0.6,0.5-1.1,0.7-1.6c0.3-0.8,0.6-1.7,0.6-2.5c0-1,0.4-2,0.1-3.1c-0.2-0.7,0-1.4,0-2.2c-0.1-0.6-0.1-1.3-0.3-1.9
		c-0.2-0.7-0.3-1.3-0.1-2c0.1-0.5,0.1-1,0.2-1.5c0.1-1.9,0.9-3.6,2.1-4.9c1.2-1.3,2.5-2.6,4-3.5c0.3-0.6,0.6-1.1,1-1.8
		c0-0.5,0-1.2,0-1.9c0-0.8,0.2-1.6-0.5-2.2c-0.1-0.8-0.6-1.4-1-2.1c-0.6-1-1.4-1.7-2.2-2.4c-0.5-0.4-1-0.8-1.5-1.2
		c-0.4-0.3-0.6-0.7-0.5-1.2c0-0.4,0.1-0.7,0.2-1.1c0.2-1.1,0.8-2,1.4-3c0.5-0.8,1.4-1.2,2.3-1.4c1.5-0.3,2.9-0.1,4.1,0.8
		C178.3,55.4,179.2,55.8,180.3,56.3 M181.8,80.5c-0.5,0-1,0.2-1.3,0.6c-1.3,1.3-2.4,2.8-3.1,4.5c-0.5,1.3-0.9,2.7-1.6,4
		c-0.2,0.3-0.1,0.6,0,0.9c0,0.3-0.3,0.5-0.3,0.8c0,0.5-0.1,1-0.1,1.5c-0.1,0.9,0,1.8,0,2.7c0,0.1,0.1,0.1,0.1,0.2
		c0.4,0.1,0.6,0,0.8-0.3c0.3-0.3,0.5-0.7,0.7-1c0.8-1.2,1.5-2.5,2.1-3.9c0.3-0.9,0.6-1.9,0.9-2.9c0.3-0.9,0.7-1.8,0.9-2.7
		c0.7-0.9,0.6-2.1,0.9-3.1C182,81.5,182.1,81,181.8,80.5 M187.1,115.8c0.4-0.5,0.7-1,1-1.4c0.1-0.2,0.2-0.4,0.2-0.6
		c-0.1-0.7-0.2-1.4-0.6-2c-0.3-0.5-0.6-1.1-0.7-1.6c-0.1-0.9-0.6-1.6-0.8-2.5c0-0.1-0.2-0.1-0.3-0.2c-0.1,0.2-0.3,0.3-0.4,0.4
		c-0.8,0.9-1,2-1.5,3.1c-0.2,0.4-0.1,0.9-0.2,1.3c-0.1,0.4,0.2,0.8,0.2,1.2c0,0.6,0.3,1,0.6,1.5c0.4,0.7,1,0.9,1.7,0.9
		C186.5,115.9,186.8,115.8,187.1,115.8 M212.9,80.7c-0.3-0.3-0.6-0.6-1-1c-0.4,0-0.7,0-1.1,0c-0.5,0-0.8,0.2-1,0.6
		c-0.3,0.5-0.4,1-0.4,1.6c0,0.9,0.4,1.4,1.2,1.6c0.2,0,0.3,0.1,0.5,0.1c0.9-0.4,1.1-0.5,1.3-1.1C212.7,81.9,212.8,81.3,212.9,80.7
		 M189.1,67.1c0.4,0.3,0.7,0.6,1,0.9c0.3,0.3,0.7,0.3,1,0.1c0.6-0.3,1-0.7,1.3-1.4c0.2-0.5-0.1-1,0-1.5c0-0.1,0-0.2-0.1-0.2
		c-0.4-0.3-0.7-0.7-1.3-0.7c-0.6-0.1-1.1,0.1-1.4,0.5C189.1,65.4,189.2,66.2,189.1,67.1 M198.6,59.4c-0.3-0.1-0.6-0.2-0.9-0.3
		c-0.3-0.1-0.6-0.1-0.9,0c-0.8,0.2-1.4,1.7-1,2.4c0.5,0.2,0.3,0.8,0.7,1.2c0.3,0,0.7,0,1.1,0c0.6-0.1,1-0.3,1.3-0.9
		C199.1,61,199.1,60.3,198.6,59.4 M203,97.4c0-0.5,0-1,0-1.5c0-0.4-0.2-0.7-0.6-0.9c-0.5-0.2-1-0.3-1.4,0.1
		c-0.4,0.3-0.7,0.6-1.1,0.9c0,0.8,0,1.5,0.1,2.2c0,0.3,0.4,0.6,0.7,0.6c0.3,0,0.5,0,0.8-0.1C202.1,98.5,202.6,98.1,203,97.4
		 M204.7,74.4c0.2,0.4,0.3,0.8,0.5,1.2c0.3,0.1,0.4,0.3,0.7,0.4c0.2,0.1,0.4,0.2,0.5,0.2c0.4-0.3,0.8-0.5,1.1-0.7
		c0.5-0.4,0.9-1.5,0.8-2.2c-0.1-0.4-0.4-0.8-0.7-0.8c-0.6,0-1.2-0.1-1.7,0.2c-0.5,0.3-0.8,0.7-1,1.3C204.8,74,204.7,74.1,204.7,74.4
		 M217.7,79c0.5,0.2,1.1,0.8,1.8,0.6c0.3-0.4,0.6-0.8,0.8-1.2c0.5-1.2,0.4-2.2-0.9-2.7c-0.2-0.1-0.4-0.1-0.6-0.2
		c-0.7,0.2-0.9,0.7-1.3,1.1C217.4,77.5,217.3,78.2,217.7,79 M204.3,87.5c1-1.2,1-1.2,0.8-3c-0.3-0.3-0.6-0.5-0.8-0.8
		c-0.9,0.1-1.4,0.6-1.9,1.3c-0.4,0.5-0.2,1.1-0.2,1.7c0,0.5,0.3,0.8,0.9,0.8C203.5,87.6,203.9,87.5,204.3,87.5 M210.4,64.5
		c-0.3-0.5-0.6-1-0.9-1.6c-0.3-0.5-0.7-0.6-1.2-0.3c-0.7,0.5-1.2,1.1-1.5,2c0.2,0.5,0.5,0.9,0.7,1.4c0.4,0.2,0.6,0.3,0.9,0.5
		C209.4,66.2,210.2,65.8,210.4,64.5 M207.2,93.5c0.3,0.7,0.9,1,1.5,1.1c0.4-0.2,0.8-0.4,1.2-0.7c0.2-0.4,0.3-0.7,0.5-1.1
		c-0.1-0.5-0.2-1-0.2-1.4c-0.6-0.5-1.2-0.8-2-0.5c-0.3,0.3-0.5,0.7-0.8,1.1C207.3,92.5,207.3,93,207.2,93.5 M192.1,72.3
		c0.1,0.5,0.1,0.8,0.2,1.2c0.1,0.2,0.2,0.4,0.4,0.5c0.4,0.3,1,0.3,1.4,0.1c0.5-0.2,0.8-0.5,0.9-1.1c0.1-0.5,0.2-1,0-1.5
		c-0.1-0.3-0.1-0.6-0.2-0.9c-0.6-0.4-0.6-0.4-1-0.2c-0.6,0.2-1.1,0.5-1.4,1.2C192.4,71.8,192.2,72.1,192.1,72.3 M199.9,69.3
		c0.3,0.1,0.5,0.3,0.8,0.4c1.1,0.5,2.3-0.4,2.1-1.6c0-0.2-0.1-0.5-0.1-0.7c0-0.6-0.4-0.9-0.9-1.1c-0.6-0.3-1.2-0.1-1.6,0.2
		C199.8,67.4,199.9,68.3,199.9,69.3 M198.4,79.9c0.3,0.2,0.6,0.3,0.9,0.1c0.9-0.4,1.4-1.2,1.5-2.1c0.1-0.6-0.2-1.1-0.7-1.4
		c-0.5-0.3-1-0.4-1.5-0.2c-0.2,0.4-0.5,0.7-0.6,1c-0.3,0.5-0.4,1.1-0.1,1.7C198.1,79.3,198.3,79.6,198.4,79.9 M218.3,88.3
		c-0.2-0.3-0.4-0.6-0.6-0.8c-0.5-0.7-1.4-0.7-2-0.2c-0.2,0.2-0.3,0.4-0.5,0.6c-0.3,0.4-0.3,0.8-0.1,1.2c0.2,0.6,0.6,1,1.1,1.4
		c0.1,0.1,0.3,0.1,0.4,0.1c0.7-0.2,1.4-0.5,1.6-1.3C218.2,88.9,218.2,88.6,218.3,88.3 M215.6,69.7c0-0.3-0.1-0.4-0.1-0.6
		c-0.1-0.6-0.5-0.9-1-0.9c-0.7,0-1.4,0.2-1.7,1c-0.1,0.2-0.2,0.3-0.3,0.4c0,0.8-0.1,1.5,0.5,2.2c0.6,0.2,1.2,0,1.8-0.4
		C215,70.8,215.3,70.3,215.6,69.7 M189.1,57.2c-0.2,0.3-0.4,0.6-0.6,0.9c-0.1,0.2-0.3,0.4-0.3,0.6c-0.1,0.7-0.2,1.3,0,2
		c0.8,0.6,1.7,0.4,2.5,0.1c0.1-0.3,0.2-0.6,0.4-0.9c-0.4-0.7,0-1.6-0.8-2.2C190,57.4,189.4,57.8,189.1,57.2 M224.8,85.5
		c0.2-0.6,0-1-0.1-1.5c-0.3-1.4-0.9-1.6-2-0.7c-0.3,0.3-0.6,0.6-0.6,1c0,0.5,0,1-0.1,1.5c0.5,0.3,1,0.6,1.7,0.4
		C224.1,86.1,224.5,85.8,224.8,85.5"/>
	<path class="st0" d="M297.7,48.8c-0.5,0.3-1.1,0.2-1.7,0.1c-0.9-0.2-1.8-0.5-2.7-0.5c-0.1,0-0.3,0-0.4,0c-0.6-0.6-1.4-0.4-2.1-0.6
		c-0.7-0.2-1.4-0.3-2.2-0.4c-0.2,0-0.4-0.1-0.5-0.1c-0.7-0.3-1.5-0.5-2.2-0.8c-0.6-0.3-1.2-0.6-1.8-1.2c0-0.2,0-0.5-0.1-0.8
		c0-0.2,0-0.4,0-0.5c-0.6-1.3-0.5-2.9-1.4-4.1c-0.1-0.2-0.2-0.4-0.3-0.6c0-0.1,0-0.3-0.1-0.4c-0.7-0.8-0.8-1.8-1.3-2.7
		c-0.4-0.7-1-1.4-1.6-2.1c-0.4-0.5-0.8-0.9-1.2-1.4c-0.3-0.4-0.7-0.9-0.6-1.5c-0.4-1.1-0.2-2.4-0.7-3.5c0-0.1-0.1-0.2-0.1-0.3
		c0-1-0.4-2-0.5-3c-0.1-0.9-0.4-1.7-0.7-2.5c-0.2-0.5-0.6-1.1-0.4-1.7c0.4-0.3,0.8-0.3,1.1-0.1c0.8,0.5,1.6,0.8,2.5,1.1
		c0.6,0.2,1.1,0.7,1.9,0.7c0.6,0,1.2,0.4,1.8,0.5c0.7,0.2,1.3,0.3,2,0.3c0.3,0,0.6,0.1,0.9,0.2c1.2,0.3,2.4,0.5,3.6,0.8
		c0.3,0.1,0.5,0,0.8,0c0.1,0,0.3-0.1,0.4,0c1,0.6,2.2,0.3,3.2,0.7c0.1,0,0.2,0.1,0.3,0c0.7-0.1,1.5-0.1,2.2,0c0.7,0.1,1.3,0.2,2,0.2
		c0.6,0,1.2-0.1,1.8-0.2c0.3,0,0.5-0.1,0.8,0c0.2,0.1,0.4,0.1,0.5,0.1c1.3-0.1,2.5,0.3,3.8,0.2c0.1,0,0.3,0,0.4,0
		c0.5,0.3,1.1,0.3,1.7,0.4c0.8,0.1,1.5,0.1,2.3,0.2c1.1,0.2,2.2,0.1,3.3,0c0.8-0.1,1.6,0.1,2.4-0.2c0,0,0.1,0,0.1,0
		c0.7,0,1.4,0.3,2.1,0c0.7-0.3,1.5-0.2,2.1-0.4c0.5-0.2,1-0.1,1.5-0.1c1.4-0.2,2.9-0.3,4.4-0.4c0.5,0,1,0,1.5,0.1
		c0.9,0.2,1.8,0.2,2.7,0.1c0.2,0,0.4-0.1,0.7,0c1.2,0.2,2.4,0.1,3.6,0.1c0.1,0,0.2,0,0.3,0c1.2,0.3,2.4,0.2,3.6,0.4
		c0.1,0,0.3,0.1,0.4,0c0.8-0.1,1.5,0.1,2.3,0.3c1.3,0.3,2.7,0.6,4,1c1.7,0.5,3.5,1,5.3,1.4c0.1,0,0.3,0.1,0.4,0.2
		c0.5,0.5,1.1,0.4,1.7,0.3c0.3,0.2,0.7,0.4,1.1,0.6c0.3,0.2,0.7,0.4,1,0.4c0.9,0.1,1.6,0.6,2.5,0.8c0.2,0,0.3,0.1,0.5,0.3
		c0.3,0.3,0.8,0.5,1.2,0.6c1.5,0.5,3.7,1.6,5.1,2.5c0.1,0,0.1,0.1,0.2,0.2c1.5,0.3,2.7,1.5,4.3,1.8c0.2,0,0.4,0.2,0.6,0.3
		c1.9,0.8,3.8,1.6,5.5,2.7c0.1,0.1,0.2,0.2,0.3,0.2c1.1,0.4,1.9,1.1,2.8,1.7c0.4,0.3,0.8,0.6,1.3,0.7c0.2,0,0.4,0.1,0.5,0.2
		c0.6,0.7,1.5,1,2.2,1.6c0.7,0.6,1.4,1,2.1,1.6c0.1,0.1,0.2,0.2,0.3,0.2c1.5,0.7,2.7,1.7,4.1,2.6c0.9,0.6,1.8,1.3,2.7,1.9
		c0.8,0.5,1.6,1.1,2.4,1.6c0.4,0.3,0.9,0.5,1.3,0.8c1.1,0.7,2.3,1.2,3.5,1.4c0.5,0.1,1,0.2,1.4,0.6c-0.1,0.2-0.1,0.4-0.2,0.5
		c-0.5,0.4-1.1,0.8-1.9,0.7c-0.6-0.1-1.2,0.1-1.7,0.2c-0.9,0.2-1.8,0.5-2.6,0.8c-0.3,0.1-0.6,0.1-0.9,0.2c-0.4,0.1-0.8,0.1-1.1,0.2
		c-1.3,0.5-2.7,0.4-4.1,0.2c-0.5-0.1-1.1-0.1-1.6,0c-1,0.2-2,0-3-0.1c-1-0.1-2-0.2-3-0.4c-1.3-0.2-2.7-0.2-3.9-0.9
		c-0.3-0.1-0.6-0.1-0.9-0.1c-0.9,0-1.7-0.2-2.5-0.5c-0.5-0.2-1-0.5-1.6-0.4c-0.2,0-0.3-0.1-0.5-0.2c-0.4-0.1-0.8-0.3-1.2-0.4
		c-1.3-0.1-2.4-0.7-3.6-1.1c-0.4-0.1-0.8-0.3-1.2-0.3c-0.7-0.1-1.3-0.4-2-0.6c-0.6-0.2-1.3-0.5-1.9-0.6c-0.7-0.2-1.3-0.3-2-0.5
		c-0.5-0.1-1-0.2-1.5-0.3c-1.3-0.2-2.5-0.6-3.8-0.7c-1.2-0.1-2.4-0.4-3.7-0.3c-0.7,0.1-1.4-0.1-2-0.2c-1.4-0.3-2.9-0.1-4.3-0.2
		c-0.2,0-0.5,0-0.7,0.1c-0.5,0.1-0.9,0.1-1.4,0c-0.3-0.1-0.6-0.1-0.9-0.1c-0.8,0.2-1.6,0-2.4,0.2c-0.3,0.1-0.7,0-1-0.1
		c-0.3-0.1-0.6-0.1-0.9,0c-0.3,0.1-0.7,0-1.1,0c-0.3,0-0.6,0.2-0.9,0.3c-0.2,0-0.5,0-0.7,0c-0.7,0-1.4,0-2,0.2
		c-0.3,0.1-0.8,0.1-1.1,0c-0.4-0.2-0.8,0-1.2,0c-0.8,0-1.5,0.3-2.3,0.3c-0.8-0.1-1.5,0.2-2.3,0.2c-0.6,0-1.2,0.2-1.9,0.2
		c-0.6,0-1.3,0-1.9,0.1c-1.1,0.2-2.2,0.1-3.3,0.3c-0.5,0.1-1,0-1.5,0.1c-0.4,0.1-0.9,0-1.4,0c-0.5,0-1,0.1-1.5,0
		c-1.1-0.3-2.3-0.2-3.4-0.2c-0.7,0-1.5-0.2-2.2-0.2c-0.7,0-1.3-0.2-2-0.1c-0.6,0.1-1.3,0-1.9,0c-1.1,0.1-2.2-0.2-3.3-0.3
		C298.5,49.2,298.2,49,297.7,48.8 M319.2,30.7c-0.7,0.3-1.2,0.6-1.7,0.9c-1.1,0.6-1.7,1.6-2.1,2.8c-0.5,1.4-0.3,2.7-0.2,4.1
		c0,0.4,0.3,0.7,0.3,1.2c-0.1,0.9,0.3,1.8,0.7,2.6c0.5,1.1,1.4,1.6,2.6,1.6c1.2,0,2.1-0.5,2.9-1.3c0.4-0.5,0.6-1.1,1.1-1.5
		c0.2-0.1,0.2-0.4,0.2-0.6c0.1-0.6,0.2-1.1,0.3-1.6c0.1-0.6,0.2-1.2,0.1-1.8c-0.1-0.3,0-0.7-0.1-1.1c-0.1-1,0-2-0.8-2.8
		c-0.3-0.4-0.5-0.9-0.8-1.4C321,31.4,320.1,31.1,319.2,30.7 M303.6,30.1c-0.2,0.5-0.3,1-0.2,1.5c0.1,0.7-0.1,1.4,0.2,2
		c-0.1,0.6-0.1,1.2,0.1,1.8c0,0.1,0,0.3-0.1,0.4c-0.1,0.3,0,0.6,0,1c0,0.4,0.1,0.7,0,1.1c-0.2,1.4-0.1,2.8-0.1,4.2
		c0,0.3-0.3,0.6,0,0.9c0.9,0.3,1.1,0.3,2,0.1c0.3-0.6,0.5-1.2,0.5-1.8c0-0.4-0.2-0.7-0.1-1.1c0.1-0.4,0-0.7,0-1.1
		c0-0.2,0.1-0.4,0.1-0.5c0.9-0.4,1-0.4,1.4-0.2c0.4,0.2,0.7,0.6,0.9,1c0.1,0.2,0.1,0.4,0.2,0.5c0.4,0.9,0.6,1.8,0.8,2.7
		c0.4,0.5,1,0.7,1.5,0.7c0.5,0,0.9-0.4,0.8-0.9c-0.1-0.4-0.3-0.7-0.4-1c-0.1-0.3-0.3-0.6-0.3-0.9c0-0.8-0.2-1.5-0.7-2.2
		c-0.2-0.3-0.2-0.7-0.1-1c0.2-0.3,0.4-0.6,0.6-0.9c0.5-0.7,0.7-1.4,0.6-2.2c-0.1-0.6-0.3-1.1-0.8-1.6c-0.3-0.3-0.4-0.6-0.7-0.8
		c-1.1-0.4-2.3-0.8-3.5-0.8C305.5,30.7,304.6,30.4,303.6,30.1 M328.5,31.1c-0.1,0.5-0.1,1,0.1,1.5c0.1,0.2,0.2,0.5,0.1,0.7
		c-0.3,1.3,0.1,2.5-0.1,3.8c-0.1,1.1,0,2.3-0.2,3.4c-0.1,0.5-0.1,1.1,0.2,1.6c0.5,0.1,0.9,0,1.4-0.1c0.5,0,0.8-0.3,0.9-0.7
		c0.3-0.6,0.3-1.2,0.3-1.9c0-0.4-0.1-0.8,0.1-1.2c0.6-0.4,1.1-0.3,1.7-0.1c0.7,0.2,1.1,0.5,1.2,1.3c0,0.2,0.2,0.4,0.3,0.6
		c0.1,1,0.7,1.7,1.5,2.2c0.2,0,0.4-0.1,0.5-0.1c0.1,0,0.2,0.3,0.5,0c0-0.6,0-1.2-0.2-1.8c-0.2-0.6-0.4-1.3-0.4-2
		c-0.1-0.6-0.8-1-0.7-1.8c0.5-0.4,0.7-1,0.6-1.8c0.3-0.4-0.1-0.8-0.2-1.2c-0.2-1.7-0.9-2-2.3-2.3c-0.9-0.1-1.9-0.4-2.9-0.3
		c-0.2,0-0.4,0-0.5-0.1C329.8,30.7,329.2,30.8,328.5,31.1 M294.2,37.2c0.4-0.2,0.8,0,1.1,0c1,0.1,1.9-0.2,2.6-1
		c0.7-0.9,0.7-0.9,0.7-2.2c0-0.1,0-0.2,0-0.3c0.1-0.4-0.1-0.8-0.1-1.2c0-0.5-0.1-0.9-0.2-1.3c-0.2-0.7-0.7-1.1-1.3-1.5
		c-0.1,0-0.2-0.1-0.3,0c-0.4,0.2-0.7,0-1-0.1c-0.3-0.1-0.7-0.2-0.9-0.1c-0.4,0.2-0.8,0-1.2,0c-0.7-0.1-1.3-0.5-2-0.2
		c-0.1,0-0.2-0.1-0.3-0.1c-0.2-0.1-0.5-0.1-0.7,0.2c-0.1,1.2-0.1,2.4,0,3.6c0,0.4,0.1,0.7,0.1,1.1c-0.1,0.4,0,0.8,0.1,1.2
		c0,0.6,0.1,1.1,0.1,1.7c0,0.6,0.3,1.1,0.2,1.8c-0.1,0.6,0,1.3,0,1.9c0,0.2,0.1,0.4,0.1,0.6c0.6,0.2,1.1,0.3,1.6,0.5
		c0.3-0.2,0.6-0.5,1-0.8c-0.1-0.5-0.1-1.1-0.2-1.6C293.9,38.6,293.8,37.9,294.2,37.2 M366,41.8c-0.7-0.5-1.1-1.1-1.3-1.8
		c0-0.2-0.1-0.4-0.3-0.5c-0.4-0.3-0.6-0.7-0.7-1.2c-0.2-0.7-0.7-1-1.1-1.5c-0.2-0.3-0.5-0.3-0.9-0.1c0,0.7-0.1,1.4-0.1,2.1
		c0,1.1,0,2.2,0,3.3c0,0.4,0,0.7,0.1,1.1c0.1,0.4,0.1,0.7,0,1.1c-0.1,0.4-0.1,0.8,0.1,1.2c0.2,0.4,0.6,0.5,1,0.7
		c0.2-0.1,0.5-0.2,0.8-0.4c-0.3-0.7,0.1-1.3,0-2c0-0.2,0.2-0.4,0.3-0.6c0.2-0.1,0.5-0.2,0.8-0.2c0.4,0.7,0.3,1.7,1.4,1.8
		c0.3-0.7,1-1,1.7-1.3c0.1,0.2,0.1,0.3,0.1,0.5c-0.1,0.8-0.1,1.5-0.1,2.3c0,0.2,0,0.5-0.1,0.7c-0.2,0.6-0.1,1.3,0,1.9
		c0.5,0.3,0.9,0.5,1.3,0.8c0.1,0,0.2,0,0.4,0c0.2-0.4,0.3-0.8,0.3-1.2c0.2-1.6,0.2-3.2,0-4.8c-0.1-0.9-0.2-1.8,0.1-2.7
		c0-0.2,0-0.4,0-0.5c-0.5-1.2-1.4-1.3-2.2-0.4c-0.1,0.1-0.1,0.2-0.2,0.2C367,40.7,366.5,41.3,366,41.8 M351.9,33.8
		c-0.2,0.2-0.4,0.3-0.4,0.4c-0.1,0.3-0.3,0.7-0.3,1.1c0,1.8-0.2,3.6,0.4,5.3c0,0.1,0.1,0.3,0.1,0.4c0,0.9,0.4,1.6,0.9,2.3
		c0.5,0.9,1.5,1,2.3,1.3c0.1,0,0.2,0,0.3,0c0.7,0,1.2-0.4,1.7-0.8c0.4-0.3,0.5-0.7,0.7-1.2c0.1-0.2,0.1-0.4,0.3-0.6
		c0.2-0.3,0.2-0.6,0.1-0.9c-0.1-0.8-0.2-1.6-0.2-2.3c0-1-0.4-1.9-0.8-2.7c-0.1-0.2-0.3-0.3-0.5-0.5c-0.3-0.2-0.6,0-0.6,0.2
		c0,0.5-0.1,1,0,1.5c0.2,1,0,2-0.1,3c-0.1,0.6-0.4,1.1-0.9,1.4c-0.7-0.6-1.1-1.3-1.3-2.1c-0.1-0.6-0.2-1.2-0.2-1.8
		c0-0.6,0-1.3-0.1-1.9C352.9,35.1,352.7,34.4,351.9,33.8 M340.8,40c0.1,0.4,0.1,0.8,0.2,1.1c1.5,1.4,1.5,1.4,2.6,1.7
		c0.9-0.2,1.6-0.8,2.4-1.2c0.2-0.1,0.3-0.2,0.4-0.4c0.7-1.1,0.8-1.7,0.5-3c-0.1-0.2-0.2-0.4-0.2-0.7c-0.1-0.4-0.3-0.8-0.7-1
		c-0.5-0.3-0.9-0.6-1.4-0.8c-0.7-0.3-1-0.8-1.1-1.5c0-0.3,0.3-0.5,0.5-0.5c0.2,0,0.4,0.1,0.5,0.2c0.3,0.2,0.6,0.5,0.8,0.7
		c0.2,0,0.3,0,0.4,0c0.7-0.3,0.9-0.6,0.7-1.2c-0.1-0.2-0.2-0.4-0.3-0.6c-0.8-0.3-1.5-0.6-2.1-0.9c-0.6,0.1-0.9,0.1-1.3,0.2
		c-0.8,0.2-1.4,0.6-1.6,1.5c0,0.3-0.1,0.5-0.2,0.8c0.4,0.7,0.8,1.3,1.3,2c0.1,0.2,0.2,0.4,0.4,0.5c0.7,0.6,1.4,1.2,2.2,1.8
		c0,0.4,0,0.7-0.1,1.1c0,0.3-0.4,0.6-0.6,0.5c-0.7-0.1-1.3-0.3-2-0.5c-0.1,0-0.1-0.2-0.2-0.3c-0.1-0.1-0.2-0.2-0.4-0.4
		C341.3,39.5,341,39.7,340.8,40"/>
	<path class="st0" d="M269.7,45.1c-0.4-0.1-0.7-0.2-1-0.3c-0.8-0.4-1.8-0.4-2.6-0.8c-0.8-0.3-1.7-0.4-2.6-0.5
		c-0.4,0-0.7-0.2-1.1-0.2c-0.4,0-0.7,0.1-1.1-0.1c-0.4-0.2-0.9,0.2-1.3-0.1c-0.4-0.2-0.8,0-1.2,0c-0.7,0.1-1.5,0.1-2.2,0
		c-0.9-0.1-1.7-0.1-2.6-0.1c-1.4,0-2.8,0.1-4.1,0c-0.4,0-0.7,0-1.1,0.1c-0.4,0.1-0.8,0.1-1.2,0c-0.4-0.1-0.8-0.1-1.2,0
		c-0.5,0.1-1.1,0.2-1.6,0.3c-1.4,0.4-2.9,0.4-4.4,0.6c-0.4,0.1-0.8,0-1.2,0c-0.2,0-0.4,0-0.5,0.1c-0.6,0.4-1.4,0.4-2.1,0.6
		c-0.6,0.1-1-0.1-1.1-0.7c-0.2-1,0-2,0.4-3.1c0.3-0.2,0.6-0.4,0.9-0.6c0.3-0.2,0.6-0.4,1-0.4c0.2,0,0.5-0.1,0.7-0.2
		c0.5-0.3,1-0.4,1.6-0.4c0.2,0,0.5,0,0.7-0.1c0.5-0.2,0.9-0.5,1.4-0.5c0.4,0,0.9,0.1,1.3,0c0.5-0.1,1-0.1,1.5-0.2
		c1.1-0.2,2.2-0.5,3.4-0.7c0.5-0.1,1-0.2,1.6-0.1c1.3,0.1,2.6,0.2,3.8-0.1c0.8-0.2,1.6-0.1,2.5-0.2c0.1,0,0.3,0.1,0.4,0.1
		c0.4,0.1,0.9,0.2,1.3,0.1c0.5,0,1.1,0.1,1.6,0.2c0.4,0.1,0.7,0.2,1.1,0c0.2-0.1,0.4-0.1,0.5,0c0.8,0.2,1.5,0.2,2.3,0.2
		c0.3,0,0.5,0.1,0.8,0.2c-0.1-0.7-0.4-1.2-1-1.6c-0.9-0.5-1.7-1.1-2.8-1.1c-0.2,0-0.4-0.1-0.6-0.3c-0.3-0.2-0.3-0.6,0-0.8
		c1-0.8,2-1.5,3.2-1.9c0.3-0.1,0.6-0.2,0.9-0.3c1.2-0.8,2.6-0.9,4-0.9c2.1-0.1,4.2,0.3,6.1,1.2c1.4,0.6,2.7,1.4,3.8,2.4
		c1.6,1.4,2.7,3.1,3.5,5.1c0.1,0.2,0.2,0.3,0.2,0.5c0,0.5,0.3,1,0.5,1.4c0.6,1.2,0.8,2.6,0.7,4c0,0.5-0.1,1,0,1.5
		c0.1,0.5,0,0.9-0.1,1.3c-0.1,0.4-0.4,0.8-0.3,1.2c0,0.4-0.1,0.7-0.2,1.1c-0.3,0.9-0.7,1.7-1.5,2.3c-0.1,0.1-0.2,0.1-0.2,0.2
		c-0.6,0.9-1.6,1.5-2.4,2.3c-0.6,0.7-1.4,1.1-2.2,1.4c-0.5,0.2-0.9,0.4-1.5,0.7c-0.2,0-0.6-0.2-0.8-0.5c-0.3-0.3-0.6-0.7-0.8-1.1
		c-0.5-0.8-0.9-1.6-1.5-2.3c-0.2,0.2-0.3,0.4-0.4,0.6c-0.3,1.1-0.7,2.2-1,3.3c-0.3,1.2-0.7,2.4-0.8,3.6c0,0.3-0.1,0.5-0.2,0.8
		c-0.4,0.9-0.6,1.8-1,2.7c-0.3,0.6-0.5,1.3-0.7,1.9c-0.3,0.9-0.5,1.8-0.9,2.6c-0.4,0.8-0.5,1.6-1.1,2.3c-0.4,0.4-0.5,1.1-0.7,1.6
		c-0.4,1.2-1.1,2.2-2,3.1c0,0.8,0,1.7,0.2,2.5c0.2,0.8,0.5,1.6,0.1,2.4c-0.1,0.2,0,0.4,0,0.7c0,0.3,0.1,0.6,0,0.8
		c-0.1,0.3,0,0.5,0.1,0.6c0.3,0.4,0.7,0.8,0.9,1c1.4,0.4,2.6,0,3.8,0c1.4-0.1,2.7,0.1,4,0.7c0.7,0.3,1.4,0.6,2.1,0.9
		c0.3,0.1,0.7,0.3,1,0.4c0.6,0.1,1.2,0.2,1.7,0.5c0.2,0.1,0.4,0.1,0.7,0.1c0.2,0,0.4-0.1,0.5,0c0.9,0.3,1.7,0.1,2.6,0
		c0.4,0,0.8-0.1,1.2-0.3c0.2-0.2,0.5-0.2,0.8-0.1c0.1,0,0.3,0,0.4-0.1c0.5-0.3,1.1-0.5,1.7-0.5c0.1,0,0.3,0,0.4-0.1
		c0.5-0.5,1.1-0.3,1.7-0.3c0.3,0,0.6,0.1,1,0.1c0.9,0.1,1.6,0.5,2.1,1.1c0.1,0.1,0.2,0.2,0.2,0.3c0.3,1.1,0.8,2.2,0.9,3.3
		c0,0.5,0,0.9,0.2,1.3c0.1,0.1,0.1,0.3,0,0.4c-0.3,0.8-0.3,1.7-0.8,2.5c-0.5,0.8-1.1,1.5-1.7,2.2c-0.4,0.5-0.8,0.9-1.1,1.4
		c-0.6,0.9-1.3,1.7-2.1,2.5c-0.1,0.1-0.2,0.3-0.3,0.4c-0.7,1-1.4,2-2.2,3c-0.3,0.4-0.6,0.8-1,1.1c-0.4,0.3-0.7,0.6-0.9,1
		c0,0.1-0.1,0.2-0.2,0.2c-0.2,0-0.4,0.1-0.5,0c-0.1,0-0.2-0.2-0.2-0.3c0.1-0.3,0.2-0.6,0.3-1c-0.1-0.2-0.2-0.5-0.3-0.7
		c-0.2-0.8-0.4-1.6-0.7-2.5c-0.2-0.2-0.4-0.4-0.7-0.7c-0.7-1-1.7-1.6-2.8-2c-0.7-0.2-1.3-0.6-2.1-0.3c-0.2,0.1-0.5-0.1-0.8-0.1
		c-0.7-0.1-1.3-0.1-1.9,0.3c-0.3,0.2-0.7,0.3-1,0.4c-0.8,0.2-1.6,0.6-2.3,1.1c-0.3,0.3-0.7,0.5-1.1,0.6c-0.6,0.1-1.1,0.5-1.5,1
		c-0.5,0.5-1.2,0.9-1.5,1.6c0,0.1-0.1,0.1-0.2,0.2c-0.4,0.3-0.9,0.5-1.3,0.8c-0.4,0.3-0.6,0.8-1,1.1c-0.6,0.5-1.1,1-1.5,1.6
		c-0.4,0.5-0.9,0.7-1.6,0.9c0-0.4,0-0.8,0.1-1.1c0-0.2,0.1-0.4,0.2-0.6c0.6-1.6,0.6-3.3,0.8-5c0.1-0.5,0-1.1,0.1-1.6
		c0.1-0.5,0-1,0-1.5c0-0.6-0.2-1.3,0-1.9c0-0.1-0.1-0.3-0.2-0.3c-0.1-0.1-0.3,0-0.4,0c-0.3,0.4-0.4,0.9-0.9,1.2
		c-0.1,0.1-0.1,0.2-0.2,0.4c-0.2,0.5-0.5,1.1-0.9,1.5c-0.2,0.2-0.3,0.4-0.4,0.6c-0.3,0.7-0.6,1.3-0.9,2c-0.1,0.3-0.1,0.6-0.3,0.9
		c-0.2,0.4-0.3,0.7-0.6,1.1c-0.9,1.3-1.3,2.8-1.8,4.3c-0.2,0.6-0.4,1.1-0.7,1.6c-0.3,0.5-0.6,1.1-0.7,1.7c0,0.7-0.3,1.3-0.5,2
		c-0.1,0.4-0.5,0.7-0.3,1.2c0.1,0.4-0.2,0.8-0.2,1.2c0,0.5,0,1-0.3,1.5c0,0,0,0.1,0,0.1c0.1,0.9-0.3,1.7-0.4,2.5
		c-0.1,0.4,0,0.9-0.1,1.4c-0.1,0.5,0,0.9,0,1.4c0,0.7,0.1,1.5-0.2,2.2c-0.1,0.2-0.2,0.3-0.3,0.5c-0.7,0-1.3-0.2-1.9-0.2
		c-0.6,0-1.2-0.2-1.7-0.4c-1.1-0.4-2.3-0.7-3.4-1c-0.2,0-0.4,0-0.5,0c-0.7,0.1-1.3,0-1.9-0.2c-0.7-0.2-1.3-0.4-2-0.4
		c-0.5,0-0.9-0.2-1.1-0.8c0.4-0.7,0.4-1.7,1-2.4c0.1-0.1,0.1-0.2,0.1-0.3c-0.1-0.8,0.6-1.2,0.7-1.9c0.2-0.6,0.5-1.2,0.8-1.7
		c0.5-0.8,0.9-1.7,1.1-2.7c0.1-0.5,0.5-0.9,0.7-1.5c0.1-0.4,0.6-0.8,0.9-1.2c0.2-0.2,0.4-0.4,0.5-0.6c0.2-0.3,0.3-0.7,0.5-1
		c0.4-0.5,1-1,1.4-1.5c0.6,0.2,0.8,0.4,0.6,0.7c-0.3,0.6-0.2,1.3-0.2,1.9c-0.1,1,0.2,1.8,0.9,2.5c0.3,0,0.6-0.2,0.8-0.4
		c0.4-0.7,0.8-1.3,1.2-2c0.5-0.8,0.9-1.7,1.4-2.5c0.1-0.1,0.2-0.3,0.2-0.4c-0.1-0.9,0.5-1.5,0.8-2.2c0.5-1.2,1.1-2.3,1.7-3.4
		c0.1-0.3,0.3-0.6,0.5-0.8c0.2-0.2,0.3-0.4,0.4-0.7c0-0.1,0.1-0.3,0.1-0.4c0.7-0.7,0.9-1.7,1.5-2.4c0.3-0.5,0.6-1.1,0.9-1.6
		c0.7-1.3,1.5-2.6,2.4-3.9c0.5-0.7,0.8-1.4,1.2-2.1c0-0.1,0.1-0.2,0.1-0.3c0-1,0.6-1.8,0.5-2.8c0-0.3,0.2-0.5,0.2-0.8
		c0.1-0.5,0.2-1,0.3-1.5c0-0.1-0.1-0.2-0.2-0.4c-0.7,0-1.3,0.2-1.8,0.5c-0.3,0.4-0.2,0.9-0.6,1.2c0,0.4-0.3,0.7-0.5,1.1
		c-0.2,0.3-0.3,0.6-0.5,1c-0.3,0.7-0.5,1.4-1.1,1.9c-0.5,0.6-0.8,1.3-1.2,2c-1,1.7-2.3,3.2-3.4,4.8c-0.4,0.6-0.8,1.1-1.2,1.7
		c-0.4,0.6-0.8,1.3-1.4,1.7c-0.1,0.1-0.2,0.2-0.3,0.3c-0.2,1-1.1,1.5-1.6,2.4c-0.2,0.4-0.6,0.5-1,0.4c-0.5-0.1-1.1-0.1-1.5-0.5
		c0-0.6,0.2-1,0.5-1.4c0.3-0.5,0.7-1,1-1.5c0.2-0.4,0.5-0.7,0.8-1.1c0.3-0.4,0.5-0.7,0.9-1c0.5-0.5,0.8-1.1,1.2-1.6
		c0.1-0.1,0.2-0.3,0.3-0.5c1.2-1.3,2-2.9,3-4.4c0.2-0.3,0.3-0.7,0.5-1.1c0.6-0.9,1.1-1.9,1.7-2.8c0.1-0.2,0.3-0.5,0.4-0.7
		c0.6-1.3,1.3-2.4,2.1-3.5c0.4-0.7,0.8-1.3,1.2-2c0.7-1.2,1.4-2.5,2.4-3.6c0.1-0.1,0.2-0.2,0.2-0.3c0.7-1.7,1.7-3.2,2.6-4.8
		c0.2-0.4,0.5-0.9,0.6-1.4c0.2-0.6,0.4-1.2,0.7-1.8c0.2-0.6,0.5-1.2,0.7-1.8c0.3-0.8,0.7-1.6,1-2.4c0.4-0.8,0.7-1.6,0.9-2.4
		c0-0.1,0-0.3,0.1-0.4c0.7-1.2,0.7-2.6,1.1-3.8c0.5-1.5,0.7-3.1,0.9-4.7c0-0.4,0.2-0.7,0.3-1.1c0.1-0.4,0.3-0.9,0.2-1.3
		c0-0.3,0.1-0.5,0.2-0.8c0.1-0.4,0.1-0.7,0.1-1.1c0-0.6,0.1-1.3,0.1-1.9c0-0.2,0.1-0.3,0.2-0.5C269.5,46.3,269.8,45.8,269.7,45.1
		 M280.2,45.6c-0.1-0.3-0.3-0.6-0.4-0.9c-0.2-0.8-0.3-1.6-0.4-2.4c-0.1-1-0.5-1.8-1.1-2.6c-0.3-0.3-0.5-0.6-0.7-1
		c-0.5-1-1.5-1.3-2.5-1.6c-0.4-0.1-0.8,0.4-0.7,0.8c0.1,0.4,0.3,0.9,0.6,1.2c0.5,0.8,1.2,1.5,1.7,2.3c0.5,0.8,1.2,1.5,1.2,2.6
		c0,0.1,0.1,0.2,0.1,0.2c0.2,0.5,0.5,1,0.6,1.5c0.1,0.5,0.2,1.1,0.3,1.6c0,0.1,0.1,0.3,0.1,0.4c0.1,0.2,0.2,0.4,0.5,0.3
		C280.1,47.3,279.9,46.4,280.2,45.6"/>
	<path class="st0" d="M359.4,173.1c0.3,0.2,0.7,0.3,0.9,0.6c1,1.1,2.3,1.7,3.5,2.4c0.6,0.3,1.2,0.6,1.9,0.7c2,0.5,4,0.9,6,1.3
		c0.5,0.1,1,0.2,1.6,0.2c0.2,0,0.4,0.1,0.5,0c1.2-0.2,1.2-0.2,2.3,0c0.3,0.1,0.6,0.1,0.9,0.1c0.6,0,1.3-0.1,1.9-0.2
		c0.2,0,0.5-0.1,0.7-0.2c0.2-0.1,0.4-0.1,0.7-0.1c0.7,0.1,1.4,0.1,2-0.1c2.2-0.6,3.9,0.2,5.5,1.7c0.7,1.2,1.4,2.4,2.1,3.6
		c0,0.6,0.4,1.1,0.6,1.7c0.1,0.3,0.3,0.7,0.3,1.1c0,0.4,0.3,0.8,0.2,1.2c0,0.3,0.3,0.6,0.4,1c0.2,0.4,0.3,0.8,0.5,1.1
		c0.1,0.3,0.2,0.6,0.3,0.9c0.2,0.4,0.3,0.9,0.5,1.3c0.1,0.2,0.2,0.3,0.2,0.5c0.1,0.9,0.6,1.6,0.9,2.4c0.1,0.3,0.2,0.5,0.3,0.8
		c0.3,0.9,0.7,1.7,1.3,2.4c0.5,0.7,1,1.4,1.4,2.2c0.2,0.5,0.4,1,0.8,1.5c0.3,0.3,0.4,0.8,0.6,1.2c0.4,1,1,1.8,1.8,2.5
		c1,0.8,1.9,1.8,2.6,3.1c0,0.2,0,0.5-0.1,0.8c0.8,0,1.5,0.4,2,1c0.3,0.4,0.7,0.6,1.1,1c0.2,0.1,0.6,0.2,0.9,0.2
		c0.7,0.1,1.5,0.2,2.1-0.4c1.1-0.4,2-1.1,3-1.7c0.1-0.1,0.3-0.2,0.5-0.3c0.8-0.2,1.5-0.5,2.2-0.5c0.1,0,0.1,0,0.2,0.1
		c0.8,0.4,1.3,1,2,1.4c0.7,0.4,1.2,0.9,1.8,1.4c0.4,0.4,0.9,0.8,1.4,1.2c0.2,0.1,0.3,0.3,0.5,0.5c0.3,0.4,0.7,0.7,1.1,1
		c1,0.8,1.8,1.8,2.6,2.8c0.7,0.9,1.1,1.9,1.8,2.7c0.3,0.3,0.5,0.7,0.8,1c0.1,0.2,0.4,0.3,0.4,0.5c0.4,1.1,1.3,1.8,1.9,2.8
		c0,0.1,0,0.3,0,0.5c0,0.6-0.4,1-1,1.2c-1.4,0.4-2.8,1-4.3,0.8c-0.4,0-0.8,0.1-1.2,0.1c-0.4-0.3-0.7-0.6-1-1c-1-1.5-2.1-2.9-3.1-4.4
		c-0.2-0.2-0.4-0.4-0.6-0.6c-0.4,0.1-0.8,0.2-1.2,0.2c-0.5,0-0.8,0.6-0.6,1c0.4,0.7,0.3,1.6,0.9,2.1c0.2,0.1,0.2,0.4,0.2,0.6
		c0.4,0.9,0.2,1.5-0.7,1.9c-1,0.4-2,1-3.2,0.6c-0.1,0-0.3-0.1-0.4,0c-1.1,0.3-2-0.3-3-0.6c-0.2-0.1-0.3-0.3-0.5-0.4
		c-1.3-1.4-2.5-2.9-3.7-4.4c-0.5-0.6-0.8-1.2-1-2c-0.2-0.9-0.8-1.5-1.4-2.2c-0.1-0.1-0.2-0.1-0.4-0.2c-1.2-0.3-2.3-1-3.3-1.6
		c-0.7-0.4-1.3-1-1.8-1.7c-0.5-0.6-1-1.3-1.6-1.9c-0.5-0.4-0.8-1-1.1-1.6c-0.3-0.6-0.7-1.2-1.2-1.7c-0.7-0.7-1.4-1.5-2-2.3
		c-0.4-0.5-0.6-1.2-0.9-1.8c-0.2-0.4-0.2-1-0.5-1.3c-0.5-0.5-0.6-1.2-1-1.8c-0.3-0.5-0.4-1-0.7-1.5c-0.3-0.5-0.7-0.8-1.1-1.3
		c-0.1-0.1-0.2-0.3-0.3-0.5c-0.4-0.8-0.9-1.5-1.8-1.9c0,0-0.1,0-0.1-0.1c-0.4-0.8-1.3-1-2-1.4c-0.6-0.4-1.2-0.8-1.8-1.3
		c-0.7-0.6-1.4-0.8-2.3-0.8c-0.6,0-1.1,0.1-1.7,0.1c-0.2,0-0.3-0.2-0.5-0.3c-0.4,0.2-0.9,0.5-1.5,0.5c-0.2,0-0.4,0.1-0.5,0.1
		c-1.2-0.3-2.2,0.3-3.4,0.2c-0.9,0.4-1.8,0.7-2.6,1.1c-0.5,0.2-0.9,0.4-1.4,0.5c-0.1,0-0.2,0-0.3,0c-0.9,0.5-1.8,0.5-2.8,0.8
		c-0.6,0.2-1.2,0.3-1.9,0.3c-0.8,0-1.5,0.2-2.3,0.3c-0.5,0.1-0.9,0.1-1.3,0.1c-0.4,0-0.9,0.3-1.3,0.3c-1,0-2,0.3-3,0.1
		c-0.5-0.1-1.1,0-1.7,0c-0.7,0-1.4-0.2-2.2-0.2c-0.7,0-1.5-0.2-2.2-0.2c-0.4,0-0.7-0.1-1-0.3c-0.3-0.2-0.8-0.1-1.2-0.2
		c-0.6-0.1-1.1-0.3-1.7-0.4c-0.3,0-0.6,0-0.9-0.1c-0.3-0.1-0.5-0.3-0.7-0.3c-1.8-0.6-3.5-1.2-5.1-2.4c-0.8-0.6-1.5-1.2-2.1-2
		c-0.1-0.1-0.3-0.3-0.3-0.4c-0.6-1.2-1.2-2.5-1.8-3.7c0-0.1,0-0.2,0-0.3c0.4-0.5,0.9-0.8,1.6-0.9c1.3-0.2,2.5-0.5,3.8-0.7
		c0.9-0.2,1.7-0.7,2.5-1.2c0.4-0.2,0.7-0.3,1.1-0.5c0.7-0.3,1.5-0.3,2.2-0.7c0.9-0.5,2-0.6,2.8-1.4c1.4-0.5,2.6-1.6,4-2
		c0.9-0.7,2.1-1.1,2.9-2.1c0.2-0.2,0.4-0.4,0.6-0.6c0.8-0.5,1.5-1.2,2-2c0.1-0.1,0.3-0.3,0.4-0.3
		C358.3,173.9,358.7,173.4,359.4,173.1 M386.9,192.3c-0.3,0.8-0.3,0.8,0,1.2c0.3,0.3,0.6,0.6,0.9,0.9c0.1,0.2,0.3,0.4,0.4,0.6
		c0.1,0.4,0.3,0.7,0.6,0.9c0.5,0.4,0.9,0.9,1.4,1.3c0.3,0.2,0.5,0.5,0.6,0.9c0.2,0.6,0.6,1.1,0.9,1.5c0.4,0,0.2-0.3,0.3-0.4
		c0.1-0.2,0.3-0.3,0.2-0.8c-0.6-1.3-1.5-2.8-2.5-4c-0.6-0.2-0.8-0.8-1.3-1.2C388,192.7,387.5,192.4,386.9,192.3"/>
	<path class="st0" d="M397.7,127.8c0.6,0.2,1,0.4,1.5,0.6c0.1,0.3,0.2,0.5,0.2,0.8c0.7-0.1,0.7-0.1,1.4,0.2c0.4,0.1,0.8,0.4,1.1,0.4
		c0.5-0.1,0.8,0.4,1.1,0.3c0.5,0,1,0.1,1.5,0.2c0.5,0.1,1,0.3,1.5,0.2c0.5,0,1,0,1.5,0c0,0,0.1,0,0.1,0c1-0.4,2.1-0.2,3.1,0
		c0.1,0,0.2,0,0.3,0c1.7-0.1,3.1,0.5,4.6,1.2c0.7,0.3,1.4,0.7,2.1,1c1,0.4,1.8,1,2.7,1.6c0.5,0.3,1,0.8,1.5,1.2
		c0.4,0.3,0.8,0.7,1.1,1.2c0.4,0.6,0.9,1.1,1.4,1.7c0.1,0.1,0.2,0.3,0.3,0.5c0.2,0.4-0.2,0.9-0.6,0.8c-0.5-0.1-1-0.3-1.4-0.6
		c-0.7-0.5-1.4-0.7-2.2-0.8c-1.1-0.2-2.2-0.5-3.3-0.8c-0.6-0.2-1.2-0.2-1.7-0.1c-1,0.2-1.9,0.2-2.9,0.1c-1.1,0-2.1,0-3.1,0.4
		c-1,0.3-2,0.5-2.9,0.8c-0.3,0.1-0.7,0.3-1,0.4c-1.1,0.7-2.4,1.1-3.5,1.7c-0.8,0.4-1.6,0.8-2.2,1.3c-0.3,0.3-0.7,0.4-1.1,0.6
		c-0.1,0.1-0.3,0.2-0.5,0.4c0.5,0.1,0.9,0,1.3,0c0.7-0.1,1.4-0.2,2,0.1c0.1,0.1,0.3,0.1,0.4,0.1c0.5-0.4,1.1,0,1.6-0.1
		c0.5-0.1,1.1-0.1,1.6-0.2c0.4-0.1,0.9,0.2,1.4-0.1c0.1,0,0.2,0,0.2,0c0.9,0.5,2,0.2,3,0.5c1.1-0.3,1.9,0.2,2.9,0.6
		c0.4,0.1,0.7,0.4,1.2,0.3c0.1,0,0.3,0,0.4,0.1c1.1,0.5,2.2,0.9,3.3,1.4c0.4,0.2,0.8,0.6,1.2,0.9c1.1,0.9,2.3,1.6,3.3,2.7
		c0.5,0.5,0.8,1.1,1.4,1.5c0.5,0.4,0.8,1.1,1.3,1.6c1,1,1.7,2.2,2,3.5c0.2,0.6,0.5,1.1,0.7,1.6c0.3,1,0.6,2,0.9,3c0,0.2,0,0.4,0,0.5
		c0,0.2-0.4,0.4-0.5,0.3c-0.2-0.1-0.4-0.2-0.5-0.4c-0.4-0.5-0.8-1.1-1.2-1.7c-0.8-1.1-1.8-2.1-2.7-3.1c-1-0.5-1.9-1.2-3.1-1.5
		c-0.1,0-0.3,0-0.4-0.1c-0.9-0.7-2-0.6-3-0.9c-0.3-0.1-0.6-0.2-0.9-0.2c-0.8,0-1.6,0-2.4-0.4c-0.1-0.1-0.3-0.1-0.4,0
		c-0.7,0.1-1.5-0.1-2.1-0.2c-0.5,0.1-0.9,0.3-1.4,0.4c-0.3,0.1-0.6,0-1,0.1c-0.5,0.1-1.1,0.2-1.5,0.5c-0.4,0.3-1,0.3-1.4,0.7
		c0.1,0.4,0.4,0.7,0.7,0.8c0.6,0.3,1.3,0.5,1.9,0.8c0.3,0.1,0.6,0.3,0.9,0.4c0.6,0.3,1.1,0.6,1.7,0.8c0.5,0.2,0.8,0.6,1.3,0.7
		c0.5,0.2,0.9,0.5,1.3,0.7c0.5,0.3,0.9,0.6,1.5,0.8c0.2,0,0.3,0.1,0.5,0.3c0.8,0.8,1.6,1.5,2.2,2.4c0.1,0.2,0.1,0.4,0.1,0.6
		c-0.2,0.3-0.4,0-0.6,0.1c-0.9,0.3-1.6-0.1-2.3-0.5c-0.3-0.2-0.6-0.3-1-0.4c-0.4,0-0.7-0.1-1.1-0.3c-0.6-0.3-1.2-0.4-1.8-0.3
		c-0.2,0-0.5,0-0.7,0c-1.1-0.4-2.2-0.2-3.2-0.4c-1.1-0.1-2.2,0-3.3,0.1c-1.2,0.1-2.5,0.3-3.7,0.4c-0.6,0.1-1.2,0.2-1.8,0.3
		c-1.8,0.4-3.5,0.1-5.1-0.6c-1.8-0.7-3.3-1.8-4.6-3.2c-0.6-0.6-1.2-1.1-1.6-1.9c-0.7-0.4-1-1.2-1.4-1.8c-0.6-0.7-1.1-1.4-1.6-2.2
		c-0.2-0.3-0.5-0.7-0.6-1c-0.3-0.9-0.9-1.6-1.4-2.3c-0.1-0.1-0.1-0.2-0.1-0.2c-0.7-1.5-1.7-2.9-2.2-4.4c-0.1-0.4-0.3-0.8-0.6-1.1
		c-0.3-0.4-0.2-0.8-0.6-1.2c-0.3-0.3-0.3-0.8-0.6-1.1c-0.7-0.9-1.3-2-2.2-2.8c-0.5-0.4-0.9-1-1.6-1.2c-0.4-0.1-0.7-0.4-1-0.7
		c-0.3-0.4-0.7-0.7-1.2-0.9c-1.1-0.4-2.1-1-3.2-1.2c-0.5-0.1-0.6-0.2-1.3-0.9c-0.2-0.9-0.5-1.7-0.7-2.6c-0.1-0.3-0.1-0.5-0.1-0.8
		c0-0.8-0.2-1.5-0.4-2.3c-0.2-0.8-0.4-1.6-0.5-2.4c-0.1-0.4-0.1-0.7-0.2-1.1c0.5-0.6,1-1.3,1.6-1.8c0.8-0.7,1.8-1.3,2.8-1.8
		c0.6-0.3,1.1-0.8,1.8-0.9c0.6-0.1,1.2-0.4,1.8-0.7c0.2-0.1,0.4-0.1,0.5-0.1c0.6,0.1,1.2-0.1,1.8-0.2c0.9-0.2,1.7-0.4,2.6-0.5
		c0.4-0.1,1-0.1,1.4,0c0.9,0.4,1.8,0.2,2.7,0.4c0.4,0.1,0.9,0.1,1.3,0.4c0.2,0.1,0.4,0.2,0.6,0.2c0.8,0,1.5,0.3,2.2,0.7
		c0.2,0.1,0.6,0.1,0.7,0.3c0.5,0.5,1.1,0.7,1.7,0.9c0.8,0.4,1.6,0.7,2.3,1.2c0.6,0.5,1.3,0.9,2,1.5c0.7,0.6,1.3,1.1,1.9,1.8
		c0.5,0.5,1.1,1,1.8,1.3C397.2,127,397.5,127.3,397.7,127.8 M378.4,128.3c-0.3,0.6-0.1,1,0.4,1.3c0.2,0.1,0.4,0.2,0.6,0.3
		c0.7,0.4,1.5,0.7,2.1,1.3c0.1,0.1,0.3,0.2,0.5,0.3c0.4,0.1,0.7,0.3,1,0.6c0.3,0.3,0.8,0.5,1.1,0.8c0.8,1,1.7,1.8,2.2,3
		c0.4,0.8,1,1.4,1.7,2c0.8,0.7,1.7,1.3,2.6,2.1c0.7,0.6,1.6,0.9,2.5,1c0.1,0,0.1-0.1,0.3-0.2c-0.2-0.3-0.4-0.6-0.5-0.9
		c-0.2-0.3-0.4-0.6-0.5-1c-0.1-0.5-0.4-0.9-0.6-1.3c-0.3-0.5-0.8-1-0.8-1.7c0-0.1-0.1-0.3-0.2-0.4c-1.1-1.1-1.8-2.5-3.2-3.4
		c-0.8-1-2-1.3-2.9-2c-0.3-0.2-0.7-0.3-1-0.4c-0.3-0.2-0.7-0.4-0.9-0.6c-0.3-0.3-0.7,0-1-0.2c-0.5-0.3-1-0.6-1.5-0.8
		C379.4,128.1,378.9,128.2,378.4,128.3 M373.9,131.5c0.1,0.1,0.2,0.3,0.3,0.4c0.6,0.4,1.2,0.7,1.6,1.3c0.1,0.1,0.3,0.2,0.5,0.3
		c0.5,0.3,1.2,0.6,1.6,1c1,1.1,2.2,2,3.1,3.2c0.3,0.4,0.7,0.8,0.9,1.4c0.6,0.6,1,1.3,1.3,2.1c0.5,1.1,1.3,2.1,2.1,3.1
		c0.1,0.1,0.2,0.3,0.4,0.4c1.2,1,2.5,2,3.7,3c0.6,0.5,1.2,1,1.9,1.5c0.1,0,0.4,0.1,0.6,0.1c0.3,0,0.5-0.1,0.5-0.4
		c-0.7-0.7-1.3-1.3-2-1.9c-0.6-0.6-1.4-1.1-1.7-1.9c-0.8-1-1.4-2.2-2.3-3.2c-0.5-0.6-0.9-1.3-1.4-1.9c-0.7-0.9-1.5-1.7-2.2-2.6
		c-0.4-0.5-0.7-0.9-1-1.5c-0.2-0.3-0.4-0.6-0.8-0.7c-0.5-0.2-0.8-0.5-1.2-0.9c-0.4-0.4-0.8-0.8-1.4-1c-0.8-0.3-1.5-0.9-2.2-1.4
		c-0.4-0.3-0.8-0.5-1.2-0.6C374.4,130.8,374.1,131.1,373.9,131.5"/>
	<path class="st0" d="M246.1,10.8c0.2,0.5,0.3,1,0.2,1.4c-0.1,0.3-0.2,0.7-0.1,1.1c0.1,0.3-0.2,0.7-0.2,1.1
		c-0.1,1.6-0.5,3.1-0.8,4.7c-0.1,0.5-0.3,1-0.1,1.5c0.1,0.2-0.1,0.5-0.1,0.8c-0.2,0.9-0.3,1.7-0.5,2.6c-0.1,0.4-0.2,0.8-0.3,1.1
		c-0.4,0.3-0.7,0.3-1,0.2c-0.8-0.3-1.5-0.6-2.4-0.8c-0.8-0.2-1.5-0.3-2.3-0.5c-1.5-0.3-2.9-0.7-4.5-0.8c-0.3,0-0.5-0.1-0.8-0.1
		c-0.7,0.1-1.3-0.3-2-0.1c-0.6,0.2-1.4,0-2,0c-1.7,0-3.4,0.3-5,0.6c-1.2,0.3-2.4,0.5-3.4,1.3c-1,0.3-1.8,1.2-2.8,1.5
		c-0.2,0.1-0.3,0.2-0.5,0.3c-0.6,0.6-1.3,1-2,1.4c-0.6,0.4-1.1,0.8-1.6,1.3c-0.4,0.4-0.9,0.6-1.3,1c-0.3,0.2-0.6,0.5-1,0.5
		c-0.5,0-1.2,0-1.6-0.4c-0.7-0.7-1.6-0.9-2.4-1.3c-1.2-0.6-2.5-1.1-3.6-1.9c-0.5-0.4-1.1-0.6-1.7-0.9c-1.1-0.6-2.2-1.3-3.3-1.9
		c-1.1-0.6-2.2-1.2-3.4-1.7c-0.9-0.3-1.6-0.9-2.4-1.3c-0.8-0.3-1.6-0.7-2.3-1.2c-0.2-0.1-0.4-0.1-0.6-0.2c-0.2-0.1-0.5-0.1-0.6-0.3
		c-0.3-0.4-0.8-0.5-1.2-0.6c-1.6-0.6-3.2-1.1-4.8-1.7c-0.7-0.3-1.4-0.6-2.1-1c-0.8-0.4-1.7-0.8-2.5-1.1c-0.5-0.2-0.9-0.4-1.3-0.7
		c-0.6-0.4-0.7-0.9-0.4-1.5c0.3-0.6,0.6-1.1,1.1-1.6c0.4-0.3,0.7-0.6,1-0.9c0.5-0.6,1.1-1.1,1.8-1.5c0.4-0.2,0.9-0.5,1.2-0.9
		c0.1-0.1,0.3-0.3,0.4-0.4c1.2-0.7,2.4-1.5,3.6-2.2c0.2-0.1,0.4-0.2,0.6-0.3c1.1-0.5,2.3-0.9,3.4-1.4c0.3-0.1,0.5-0.2,0.7-0.4
		c0.6-0.4,1.2-0.7,2-0.8c0.4,0,0.8-0.3,1.1-0.4c0.7-0.4,1.5-0.6,2.4-0.7c0.6-0.1,1.2-0.3,1.9-0.5c0.8-0.2,1.6-0.3,2.5-0.4
		c0.8-0.1,1.5-0.2,2.3-0.4c0.8-0.3,1.7-0.3,2.6-0.4c0.3,0,0.6,0,0.8,0.1c0.5,0.2,1.1,0.2,1.6,0.1c1.8-0.4,3.5,0,5.3,0.1
		c0.3,0,0.6,0,1,0c0.2,0,0.5-0.1,0.7,0c0.8,0.3,1.6,0.2,2.3,0.2c0.7-0.1,1.4,0.2,2,0.3c1.5,0.2,3,0.4,4.4,0.8
		c0.5,0.1,1.1,0.2,1.6,0.3c1.5,0.2,2.9,0.8,4.3,1.3c1.5,0.6,2.9,1.4,4.4,2c0.5,0.2,1.1,0.4,1.6,0.6c0.6,0.2,1.3,0.4,1.9,0.8
		c0.2,0.1,0.4,0.2,0.6,0.3c0.4,0.2,0.8,0.4,1.3,0.5c0.4,0.1,0.8,0.3,1.1,0.6c0.1,0.1,0.2,0.2,0.4,0.2C242.7,9,244.4,9.9,246.1,10.8
		 M203.8,22.5c-0.4,0.2-0.7,0.4-1,0.6c0.1,0.4,0.1,0.8,0.2,1.1c0.5,0.3,0.9,0.7,1.4,0.9c0.5,0.2,1.1,0.1,1.6,0.1
		c0.5-0.4,0.9-0.8,1.3-1.2c0.3-0.4,0.6-0.8,0.9-1.2c0.3-0.3,0.4-0.7,0.4-1.1c0.1-0.8,0.3-1.6,0.4-2.4c0.1-0.7,0.1-1.4-0.1-2.2
		c-0.2-1.3-1-2.2-1.5-3.3c0-0.1-0.1-0.2-0.2-0.2c-0.5-0.3-1-0.6-1.5-0.9c-0.3-0.2-0.5-0.3-0.8-0.5c-0.1-0.1-0.3-0.3-0.4-0.3
		c-1.3-0.5-2.5-1.2-3.9-1.3c-0.5,0-1-0.1-1.5-0.2c-0.6,0-1.1-0.3-1.3-0.9c-0.1-0.4-0.4-0.6-0.7-0.8c-0.7-0.7-1.5-1.2-2.5-1.4
		c-0.2,0-0.4-0.2-0.6-0.3c-0.2-0.1-0.4-0.2-0.6-0.3c-0.9-0.1-1.9-0.2-2.8,0c-0.9,0.2-1.6,0.6-2.4,1c-0.3,0.2-0.7,0.3-0.9,0.6
		c-0.9,1-1.6,2.1-2.2,3.3c-0.1,0.2-0.1,0.4-0.1,0.5c0,0.7-0.1,1.5-0.1,2.1c0.4,0.5,0.7,1,1.1,1.4c0.1,0.2,0.2,0.2,0.4,0.3
		c0.2,0,0.5,0.2,0.7,0.3c0.6-0.5,1.1-1,1.7-1.5c0.6,0.2,1.2,0.3,1.7,0.5c1.7,0.7,3.3,1.4,4.9,2c0.1,0,0.2,0,0.3,0.1
		c0.5,0.5,1.2,0.6,1.7,0.9c0.6,0.3,1.3,0.6,2,0.9c0.2,0.1,0.4,0.2,0.6,0.3c0.3,0.2,0.6,0.4,1,0.5c0.7,0.3,1.4,0.7,2,1.1
		C203.5,21.4,203.9,21.7,203.8,22.5"/>
	<path class="st0" d="M269.5,176.6c-0.4,0.1-0.8,0.2-1.2,0.1c-0.6-0.2-1.3-0.2-1.9-0.4c-0.6-0.1-1.3,0-1.9-0.2c-0.1-0.1-0.3,0-0.4,0
		c-0.7,0.1-1.5,0.1-2.2-0.2c-0.3-0.1-0.7-0.1-1.1,0c-0.6,0.2-1.3,0.2-2,0.2c-1.1-0.1-2.3,0.1-3.3,0.6c-0.4,0.2-0.9,0.3-1.4,0.4
		c-0.5-0.3-0.5-0.7-0.3-1c0.1-0.3,0.4-0.5,0.3-0.8c0.6-0.5,0.4-1.2,0.9-1.8c0.4-0.5,0.6-1.2,0.9-1.8c0.1-0.2,0.2-0.5,0.3-0.8
		c0.1-0.2,0.1-0.5,0.2-0.6c0.6-0.9,0.9-1.9,1.4-2.8c0.3-0.6,0.4-1.2,0.8-1.7c0.2-0.3,0.4-0.7,0.7-0.8c0.4-0.3,0.5-0.6,0.7-1
		c0.5-1.1,0.9-2.2,1.5-3.2c0.4-0.5,0.6-1.1,0.8-1.7c0.5-1.3,1.2-2.5,1.8-3.7c0.6-1.1,1.1-2.2,1.5-3.4c0.3-0.8,0.7-1.6,1.2-2.3
		c0.3-0.4,0.5-0.9,0.7-1.3c0.2-0.7,0.7-1.4,0.6-2.2c0-0.1,0.1-0.2,0.2-0.4c0.1-0.2,0.3-0.5,0.5-0.7c0.4-0.7,0.8-1.3,1.4-1.8
		c0.8-0.7,1.5-1.5,2.2-2.3c0.4-0.5,0.7-1,0.9-1.7c0.1-0.4,0.3-0.8,0.6-1.1c0.5-0.5,0.5-1.2,0.2-1.7c-0.4-0.7-0.6-1.5-1-2
		c0-0.2,0-0.3,0.1-0.3c0.5-0.7,0.7-1.5,0.3-2.3c-0.2-0.3-0.1-0.7-0.1-1c0.3-0.6,0.8-1,1.2-1.4c0.4-0.5,1.1-0.6,1.4-1.3
		c0.3-0.6,0.7-1,1.1-1.5c0.5-0.8,1.1-1.5,1.3-2.4c0.1-0.2,0.2-0.4,0.3-0.6c0.3-0.5,0.6-0.9,0.7-1.5c0-0.1,0-0.3,0.1-0.4
		c0.6-0.9,0.7-2.1,1.3-3c0.1-0.2,0.2-0.4,0.3-0.6c0.1-0.4,0.1-1,0.4-1.3c0.3-0.4,0.5-0.7,0.8-1.1c0.2-0.3,0.3-0.6,0.4-0.9
		c0.4-1.3,1-2.6,1.8-3.7c0.4-0.5,0.7-1,0.9-1.5c0.3-0.8,0.8-1.5,1.2-2.2c0.5-0.8,0.8-1.7,1.6-2.4c0.2-0.9,1-1.5,1.5-2.3
		c0.7-1,1.5-2,2.4-2.8c0.1-0.1,0.2-0.2,0.3-0.3c0.7-1,1.7-1.8,2.5-2.8c0.2-0.2,0.4-0.4,0.6-0.6c1.1-0.5,1.9-1.4,2.7-2.3
		c0.3-0.4,0.6-0.7,1.2-0.9c0,0.3,0.1,0.5,0,0.7c-0.2,0.5-0.5,1.1-0.8,1.6c-0.4,0.5-0.7,0.9-0.9,1.5c-0.1,0.3-0.3,0.7-0.5,1
		c-0.8,1.5-1.2,3-1.7,4.6c-0.4,1.3-0.5,2.6-0.8,3.9c0,0.2-0.1,0.4-0.2,0.5c-0.7,0.7-0.6,1.6-0.8,2.4c-0.2,0.7-0.3,1.5-0.6,2.2
		c-0.2,0.4-0.4,0.9-0.3,1.5c0,0.1,0,0.3-0.1,0.4c-0.7,1.3-0.9,2.8-1.7,4.1c-0.5,0.9-0.7,2-1,3c-0.4,1.1-0.8,2.2-1.4,3.3
		c-0.2,0.4-0.3,0.9-0.5,1.3c-0.3,0.7-0.5,1.5-1,2.1c-0.1,0.1-0.1,0.2-0.2,0.4c-0.7,1.8-1.8,3.4-2.9,5c-0.2,0.3-0.4,0.6-0.7,0.8
		c-0.1,0.1-0.2,0.2-0.3,0.3c-0.8,1.5-2.2,2.2-3.6,2.9c0,0-0.1,0-0.1,0.1c-1.4,0.6-1.8,1.7-1.8,3.1c0,0.4,0.1,0.7,0.3,1
		c0.4,0.7,0.7,1.5,0.8,2.3c0,0.1,0.1,0.3,0.1,0.4c-0.1,1.1,0,2.1-0.2,3.2c-0.2,1.3-0.5,2.7-0.9,4c-0.6,1.8-1.4,3.6-2,5.4
		c-0.1,0.2-0.2,0.4-0.3,0.6c-0.2,0.9-0.5,1.7-1,2.4c-0.1,0.1-0.1,0.2-0.1,0.2c-0.2,1-0.7,1.9-1.2,2.7c-0.5,0.8-0.9,1.7-1.4,2.5
		c-0.1,0.2-0.3,0.5-0.4,0.7c-0.5,1-0.5,1,0.5,1.8c0.3,0.1,0.5-0.3,0.8,0c0.2,0.2,0.4,0.1,0.7,0c1.1-0.3,2.2,0.1,3.3,0.2
		c0.1,0,0.2,0.2,0.3,0.2c0.1,0.1,0.3,0.2,0.5,0.1c0.2-0.1,0.5-0.2,0.7-0.1c1.5,0.5,3,0.8,4.5,1.4c1.4,0.5,2.7,1.2,4,1.8
		c0.5,0.2,1,0.6,1.6,0.9c0.8,0.4,1.7,0.8,2.5,1.1c0.9,0.4,1.8,0.5,2.7,0.4c0.5,0,1,0,1.5,0.2c0.8,0.3,1.7,0.3,2.6,0.3
		c0.6,0.1,1.3,0.1,1.9,0.1c0.2,0,0.4,0,0.5,0.1c0.6,0.2,0.8,0.7,0.3,1.1c-0.1,0.1-0.3,0.3-0.4,0.3c-0.8,0.3-1.6,0.6-2.5,0.9
		c-0.8,0.3-1.6,0.6-2.4,0.7c-0.9,0.1-1.7,0.4-2.5,0.6c-0.5,0.2-1.1,0.3-1.6,0.2c-0.3-0.1-0.5,0.1-0.8,0.1c-0.6,0-0.9,0.6-1.6,0.4
		c-0.5-0.1-1,0.1-1.5,0.1c-1.1,0.1-2.2,0.1-3.2,0.3c-0.2,0-0.5,0.1-0.7,0c-0.7-0.1-1.3,0-2,0.2c-0.8,0.2-1.8,0.1-2.6,0
		c-0.5-0.1-1-0.1-1.5-0.2c-0.4-0.1-0.8-0.1-1.2-0.2c-0.7-0.2-1.3-0.4-2-0.3c0,0-0.1,0-0.1,0c-1.1-0.5-2.2-0.6-3.3-0.8
		C269.9,177.1,269.7,176.8,269.5,176.6"/>
	<path class="st0" d="M308.4,82.1c0.2,0.5,0.2,1-0.2,1.5c-0.2,0.3-0.4,0.7-0.5,1.1c-0.2,0.8-0.8,1.3-1.2,1.9c-1.2-0.2-2.3-0.6-3.4-1
		c-0.7-0.3-1.4-0.4-2-1c-0.1-0.1-0.3-0.2-0.5-0.2c-0.4-0.1-0.7-0.3-1.1-0.6c-0.8-0.5-1.6-1.1-2.6-1.3c-0.7-0.2-1.4-0.6-2.1-0.9
		c-0.7-0.3-1.5-0.6-2.3-1c-0.5-0.7-0.7-1.6-0.7-2.6c0-1.1-0.3-1.6-1.1-2.7c-0.2-0.4-0.3-0.8-0.5-1.2c-0.3-0.8-0.8-1.5-1.5-2.1
		c-0.2-0.1-0.3-0.4-0.4-0.6c-0.6,0.1-0.9,0.4-0.9,1c0,0.5-0.1,0.9-0.3,1.3c-0.1,0.3-0.1,0.5-0.1,0.8c0.1,0.4-0.1,0.8-0.2,1.2
		c-0.1,0.4,0,0.8-0.3,1.2c-0.1,0.1-0.1,0.3-0.1,0.4c0,1.2-0.6,2.3-0.9,3.5c-0.1,0.5-0.4,0.9-0.8,1.2c-1.2,0.8-2.3,1.7-3.8,1.8
		c-0.9,0.1-1.8,0.4-2.7-0.1c-1.8-0.3-3.4-1.2-4.9-2c-0.3-0.1-0.6-0.3-0.9-0.3c-0.8,0-3.1-0.7-4-1c-0.9,0-1.8,0.5-2.6,0.8
		c-0.4-0.1-0.5-0.3-0.5-0.6c0-0.6,0.1-1.1,0.4-1.6c0.5-0.7,0.7-1.5,0.9-2.3c0.1-0.3,0.2-0.5,0.3-0.8c0.4-0.7,0.9-1.4,0.9-2.3
		c0.5-0.8,0.7-1.8,1.1-2.7c0.1-0.3,0.3-0.7,0.4-1c0.4-1.7,1.2-3.3,1.8-4.9c0.2-0.5,0.5-0.9,0.7-1.3c1.3-0.8,2.5-1.8,3.8-2.5
		c1.2-0.7,2.3-1.7,3.5-2.4c0.5-0.3,0.9-0.6,1.2-1.1c0.4-0.5,0.9-0.9,1.3-1.4c0.2-0.2,0.3-0.6,0.5-0.8c0.4-0.4,0.8-0.8,1.3-1.3
		c1-0.2,2,0,2.9,0.6c0.7,0.4,1.5,0.8,2.2,1.1c0.5,0.2,0.8,0.5,1.2,0.9c0.7,0.6,1.4,1.2,2,1.9c0.4,0.4,0.8,0.8,1.3,1.3
		c0.4,0.5,0.9,0.9,1.3,1.4c0.4,0.5,0.6,1.1,1.2,1.5c0.1,0.1,0.1,0.2,0.2,0.4c0.1,0.4,0.4,0.7,0.7,1c0.7,0.7,1.3,1.5,1.7,2.3
		c0.2,0.5,0.5,0.9,0.8,1.3c0.8,1.4,1.4,2.9,2.1,4.3c0.2,0.4,0.2,0.9,0.4,1.3c0.5,1.3,1.1,2.5,1.7,3.8c0.5,0.8,1.2,1.3,1.9,2
		c0.4,0,0.5,0.3,0.7,0.5C306.7,80.7,307.5,81.4,308.4,82.1"/>
	<path class="st0" d="M216,47.6c0.6-1.1,1.6-1.3,2.3-1.9c0.5-0.1,1.1-0.2,1.6-0.2c0.8,0.1,1.6,0.3,2.2,1c0.4,0.5,0.9,0.8,1.1,1.5
		c0.1,0.3,0.4,0.6,0.6,1c0.7,0.2,1.4,0.5,2.2,0.6c1,0.1,1.8,0.6,2.4,1.1c0.9,0.7,1.7,1.5,2.2,2.6c0.4,0.8,0.6,1.7,0.9,2.6
		c0.7,1.8,0.7,3.8,0.5,5.7c-0.1,1.4-0.2,2.7-0.5,4.1c0.1,1.5-0.7,2.8-0.8,4.3c-0.5,1.1-1,2.2-1.5,3.2c-0.2,0.4-0.4,0.8-0.7,1.2
		c-0.3,0.4-0.8,0.4-1.1,0c-0.1-0.1-0.2-0.2-0.3-0.3c-0.4-0.8-0.8-1.5-1.2-2.3c-0.4-0.8-0.8-1.5-1.4-2.2c-0.3-0.4-0.5-0.8-0.7-1.2
		c-0.3-0.7-0.5-1.4-0.2-2.3c0.3-0.8,0.5-1.6,0.4-2.4c0-0.2-0.1-0.4,0-0.5c0.4-0.7,0.1-1.6,0.3-2.3c0-0.2-0.1-0.3-0.1-0.5
		c-0.1-0.3-0.2-0.5-0.2-0.8c0-0.2,0-0.4-0.2-0.5c-0.2-0.1-0.6,0.1-0.7,0.3c-0.1,0.1-0.1,0.3-0.1,0.4c-0.5,1.1-1,2.2-1.6,3.2
		c-0.3,0.6-0.8,0.7-1.4,0.2c-0.1-0.1-0.3-0.2-0.4-0.4c-0.4-0.6-0.9-1.2-1.6-1.5c-0.7-0.9-1.8-1.5-2.2-2.7c0.7-1.1,0.4-2.4,0.5-3.6
		c-0.3-0.2-0.4-0.1-0.6,0c-0.4,0.3-0.7,0.6-1,0.9c-0.6,0.7-1.5,0.9-2.4,0.9c-0.9,0-1.8-0.4-2.5-1.1c-0.8-0.7-1.2-1.7-1.6-2.7
		c-0.2-0.5-0.4-0.9-0.5-1.4c-0.1-0.5-0.3-0.9-0.9-1.1c-0.1,0.1-0.3,0.3-0.5,0.5c-0.7,0.7-1.6,1.3-2.4,1.9c-0.1,0.1-0.2,0.2-0.4,0.2
		c-0.9,0.1-1.9,0.2-2.6-0.5c-0.9-0.7-1.5-1.6-2-2.6c-0.3-0.7-0.7-1.3-1-1.8c-0.4-0.1-0.4,0.1-0.5,0.3c-0.3,0.7-0.8,1.3-1.2,1.9
		c-0.7,1-1.7,1.5-2.9,1.6c-0.3,0-0.6-0.1-0.9-0.1c-0.5-0.1-0.8-0.5-0.9-0.9c-0.1-0.3-0.3-0.6-0.4-0.8c-0.1-0.1-0.3-0.2-0.4-0.3
		c-0.5,0.2-1,0.3-1.4,0.6c-0.9,0.7-1.9,1.2-2.9,1.8c-0.9,0.1-1.8,0.3-2.6-0.2c-1.3-0.8-2.3-1.8-3.3-2.9c-0.5-0.6-0.9-1.2-1.4-1.7
		c-1-0.9-1-2.3-0.6-3.3c0.3-0.6,0.5-1.3,0.8-1.9c0.4-0.9,1.1-1.7,2.1-2c0.2-0.1,0.3-0.1,0.5-0.2c0.8-0.4,1.5-0.4,2.4-0.1
		c0.8,0.3,1.6,0.7,2.3,1.2c0.1,0.1,0.3,0.2,0.4,0.3c0.5,0.3,0.8,0.2,1.2-0.3c0.1-0.2,0.2-0.3,0.2-0.5c0.5-1.1,1.5-1.5,2.5-2
		c0.3-0.1,0.7-0.2,1.1-0.1c1,0.2,2.1,0.5,2.7,1.4c0.3,0.4,0.3,0.4,1,0.6c0.1-0.1,0.3-0.2,0.4-0.3c0.5-0.5,1.1-1,1.9-1.1
		c1.1-0.7,2.3-0.4,3.5-0.7c0.2-0.1,0.5,0.1,0.8,0.2c1.1,0.5,1.8,1.4,2.4,2.4c0.1,0.7,0.7,1.1,0.8,1.8c0.3,0,0.6,0,0.7-0.1
		c1-0.9,2.2-1.3,3.4-1.6c0.1,0,1.9,0,2,0.1c0.5,0.2,1,0.4,1.3,0.7c0.5,0.5,1,1,1.3,1.6c0.5,0.8,0.9,1.7,1.1,2.7
		C215.6,46.6,215.7,46.9,216,47.6"/>
	<path class="st0" d="M239.4,101.1c-0.4-0.6-0.9-1.1-1.1-1.6c-0.4-1.2-1.2-2.1-1.6-3.1c-0.3-0.9-0.9-1.7-1.3-2.6
		c-0.2-0.4-0.3-0.8-0.4-1.2c-0.4-1.1-0.8-2.3-1.1-3.4c-0.5-2-1.2-4.1-1.3-6.2c-0.4-1.4-0.3-2.8-0.8-4.2c0-0.1-0.1-0.2,0-0.3
		c0.4-0.9-0.2-1.8-0.1-2.7c0.1-0.7,0-1.4,0.2-2c0.1-0.4,0-0.9,0-1.5c0.2-0.3,0.5-0.8,0.9-1.1c1-1,2-2.1,2.9-3.1
		c0.5-0.6,1.1-1.1,1.5-1.8c0.7-0.9,1.1-2,1.1-3.2c0-0.6,0.1-1.3-0.2-1.9c-0.6-1.5-1.6-2.3-3.1-2.5c-0.2,0-0.5,0-0.7-0.1
		c-0.6,0-1.1-0.4-0.9-0.9c0.1-0.7,0-1.5,0-2.2c0-0.7,0.2-1.5,0.3-2.2c0.1-0.4,0.2-0.7,0.1-1.1c0-0.3,0-0.5,0.1-0.8
		c0.2-0.7,0.2-1.4,0.2-2.2c0-1,0.2-1.4,1.3-1.8c1-0.4,2-0.6,3-1.1c0.4-0.2,0.9-0.2,1.3-0.2c0.5-0.1,1.1-0.3,1.6-0.4
		c0.5-0.2,1.1-0.3,1.6-0.3c0.5,0,1-0.1,1.4-0.5c0.8,0.5,1.5,0.1,2.3,0.1c1,0,2-0.4,3-0.2c0.9-0.3,1.9-0.1,2.9-0.1c1,0,2,0,3,0.1
		c0.2,0,0.5,0,0.7,0c0.4-0.1,0.8,0.1,1.2,0.1c1.3,0.1,2.6,0.4,3.9,0.6c0.4,0.1,0.7,0.1,1.1,0.1c0.4,0,0.7,0.2,1,0.4
		c0.2-0.1,0.5-0.2,0.8-0.3c0.6,0.4,1.4,0.5,2,1.1c0.4,0.4,0.7,0.8,0.4,1.4c-0.1,0.2-0.2,0.5-0.1,0.8c0.1,0.5-0.1,1-0.2,1.5
		c-0.1,0.4-0.1,0.9-0.4,1.3c-0.1,0.1,0,0.3-0.1,0.4c-0.1,0.8-0.1,1.6-0.6,2.2c0.1,0.7-0.2,1.3-0.2,2c0,0.3-0.1,0.6-0.2,0.9
		c-0.4,1-0.8,2.1-1.1,3.1c-0.3,0.9-0.7,1.8-0.9,2.7c-0.4,0.5-0.5,1-0.6,1.6c-0.1,0.5-0.4,1-0.6,1.5c-0.5,1.4-1.2,2.8-1.8,4.2
		c-0.1,0.2-0.2,0.4-0.3,0.6c-0.2,0.3-0.4,0.5-0.5,0.8c-0.9,2.1-2.2,3.9-3.2,5.9c-0.5,1-1,1.9-1.6,2.9c-0.2,0.3-0.2,0.6-0.4,0.9
		c-0.1,0.3-0.3,0.5-0.6,0.5c-0.1,0-0.3,0.1-0.3,0.2c-0.3,0.7-0.6,1.3-0.9,2c-0.3,0.5-0.5,1.1-0.9,1.6c-0.9,1.4-1.8,2.8-2.7,4.1
		c-0.2,0.2-0.3,0.4-0.5,0.6c-0.3,0.4-0.7,0.8-1,1.3c-0.5,0.8-1,1.5-1.7,2.1c-0.2,0.1-0.3,0.4-0.4,0.6c-0.3,0.6-0.6,1.1-1.2,1.5
		c-0.2,0.1-0.3,0.3-0.4,0.5c-0.4,0.7-0.9,1.4-1.5,2c-0.6,0.7-1.1,1.5-1.7,2.2C240.1,101.1,239.9,101.2,239.4,101.1 M235.4,78.2
		c0,0.2,0,0.4,0,0.5c-0.2,0.5-0.1,1,0,1.5c0.2,0.7,0.3,1.5,0.8,2.2c0,0.6,0.4,1,0.7,1.4c0.7,0.7,1.1,1.7,2.2,2c0,0,0.1,0.1,0.1,0.1
		c0.1,0.4,0.4,0.3,0.6,0.3c0.4,0,0.7,0.1,1.1,0.2c0.7,0.2,1.5,0.4,2.3,0.4c0.8,0,1.6-0.3,2.4-0.3c0.5-0.5,1.2-0.3,1.8-0.7
		c0.5-0.3,1.1-0.5,1.5-0.9c0.9-0.7,1.8-1.3,2.4-2.2c0.2-0.3,0.2-0.8,0.7-1c0.4-0.2,0.4-0.8,0.8-1c0.3-0.2,0.4-0.6,0.5-1
		c0.1-0.6,0.3-1.2,0.7-1.6c0.4-0.5,0.6-1.1,0.7-1.8c0.1-0.6,0.5-1.1,0.6-1.7c0.2-1.1,0.4-2.3,0.1-3.4c-0.1-0.2-0.1-0.5-0.1-0.7
		c0-1.2-0.1-2.4-0.8-3.4c-0.2-0.2-0.2-0.5-0.3-0.8c-0.3-0.6-0.6-1.2-1-1.8c-0.2-0.3-0.4-0.6-0.6-0.9c-0.2-0.3-0.4-0.6-0.6-0.8
		c0-0.6,0.4-0.9,0.7-1.3c0.4-0.5,0.9-1,1.2-1.7c0.4-0.9,0.4-1.9,0.8-2.8c0.1-0.4-0.1-0.9-0.1-1.4c0-0.7,0-1.3,0-2.1
		c-0.4-0.4-0.7-0.9-0.8-1.5c-0.1-0.6-0.4-1.2-1-1.6c-0.3-0.2-0.6-0.5-0.8-0.8c-0.6-0.9-1.5-1.3-2.5-1.5c-0.7-0.1-1.5-0.4-2.2-0.3
		c-0.6,0.1-1.2,0-1.7,0c-0.4,0.2-0.8,0.3-1.2,0.5c-0.5,0.2-0.9,0.4-1.3,0.7c-0.7,0.6-1.4,1.3-2.1,1.9c-0.2,0.2-0.4,0.5-0.5,0.8
		c-0.2,0.4-0.3,0.8-0.5,1.1c0.2,0.8,0.5,1.6,1.5,1.7c0.3,0,0.4,0.3,0.5,0.6c0,0.2,0,0.4,0,0.5c-0.1,1-0.3,2.1-0.2,3.2
		c0,0.1,0,0.3-0.1,0.4c-0.4,1.7-0.5,3.3-0.6,5c0,0.7-0.1,1.4-0.2,2c-0.1,0.5-0.1,1-0.1,1.5c0,1.1,0.1,2.1-0.5,3.1
		c-0.5,0.1-0.9,0.4-1.3,0.8c-0.1,0.2-0.3,0.4-0.5,0.5c-0.9,0.6-1.7,1.4-2.4,2.2c-0.3,0.3-0.5,0.7-0.6,1.1c-0.1,0.4-0.2,0.7-0.3,1.1
		c-0.2,0.3-0.8,0.3-0.7,0.9C234.9,78,235.1,78.1,235.4,78.2"/>
	<path class="st0" d="M307.8,17.9c0.1,0.3,0.3,0.6,0.4,0.8c-0.2,0.5-0.5,0.7-0.8,0.8c-0.5,0-1-0.1-1.4-0.1c-0.6,0-1.3,0-1.9-0.1
		c-0.4-0.1-0.7-0.1-1.1,0c-0.8,0-1.5-0.1-2.3-0.4c-0.3-0.1-0.6-0.3-1.1-0.2c-0.3,0.1-0.5-0.4-0.9-0.2c-0.1,0.1-0.3,0-0.4,0
		c-1.1-0.5-2.2-1-3.3-1.6c-0.6-0.3-1.1-0.7-1.7-1.1c-0.5-0.3-1.1-0.6-1.4-1.2c-0.3-0.5-1-0.7-1.3-1.2c-0.6-1-1.5-1.6-2.3-2.3
		c-0.5-0.4-1-0.9-1.5-1.2c-0.6-0.3-1.2-0.5-1.9-0.9c0,0.8,0.1,1,0.5,1.6c0.3,0.5,0.5,1,0.7,1.3c-0.1,0.6-0.1,1-0.2,1.4
		c0,0.2-0.2,0.5-0.3,0.6c-0.7,0.5-1.6,0.5-2.5,0.7c-0.4-0.2-0.9-0.3-1.3-0.5c-0.4-0.2-0.9-0.5-1.4-0.6c-0.1,0-0.2,0-0.3-0.1
		c-0.6-0.4-1.2-0.7-1.7-1.2c-0.8-0.8-1.8-1-2.9-1.2c-0.3,0-0.5-0.1-0.8-0.1c-0.8-0.1-1.4-0.4-2-0.9c-0.3-0.2-0.5-0.4-0.8-0.5
		c-0.9-0.4-1.8-0.9-2.6-1.5c-0.7-0.5-1.6-0.9-2.4-1.2c-0.8-0.3-1.4-0.9-1.7-1.6c0-0.5,0.3-0.7,0.6-0.9c0.8-0.4,1.6-0.8,2.4-1.1
		c0.2-0.1,0.4-0.1,0.7-0.2c0.4-0.1,0.7-0.1,1.1-0.3c0.4-0.2,0.9-0.3,1.3-0.3c0.5,0,1-0.2,1.4-0.4c0.5-0.2,0.9-0.4,1.5-0.2
		c0.1,0.1,0.4,0,0.5-0.1c0.2,0,0.5-0.1,0.7-0.1c1.2,0.1,2.4-0.3,3.5-0.5c0.7-0.1,1.4-0.1,2.1-0.1c0.9,0,1.7,0,2.6,0
		c0.8,0,1.7-0.2,2.6,0.2c1.1-0.1,2,0.5,3.1,0.4c0.1,0,0.3,0,0.4,0.1c1.3,0.5,2.8,0.7,4.1,1c0.6,0.1,1.1,0.5,1.7,0.3
		c0.1,0,0.3,0,0.4,0.1c1.2,0.7,2.6,1,3.8,1.5c1,0.4,2,0.8,3.1,1.1c1,0.3,2,0.6,3,0.9c1.2,0.4,4.2,0.9,5.4,1c0.5,0,1-0.2,1.5-0.3
		c0.2,0,0.4-0.2,0.5-0.2c1.1,0.3,2.1-0.6,3.2-0.5c0.6,0,1.1,0.5,1.3,1.2c0.1,0.2,0.3,0.4,0.5,0.6c0.8-0.1,1.5-0.5,2.2-0.8
		c0.7-0.3,1.4-0.5,2.2-0.8c0.2-0.2,0.3-0.5,0.6-0.6c0.5-0.2,1-0.4,1.5-0.6c0.4-0.1,0.6,0.1,0.7,0.5c0,0.4,0,0.7,0,1.1
		c0,0.6,0.2,1.1,0.7,1.4c1,0.4,1.7-0.2,2.4-0.7c0.4,0.1,0.7,0.3,0.8,0.6c0.1,0.3,0.1,0.6,0,0.9c-0.2,0.3-0.3,0.6-0.5,0.8
		c-0.6,0.9-1.2,1.7-1.9,2.5c-0.1,0.1-0.2,0.3-0.4,0.4c-1,1-2.1,2-3.3,2.8c-0.7,0.5-1.3,1.1-2.2,1.1c-0.5,0.7-1.5,0.4-2.1,0.9
		c-0.2,0.1-0.4,0.1-0.7,0.1c-0.6,0-1.3,0-1.9,0c-1.5,0-3-0.4-4.4-0.8c-0.2,0-0.4-0.1-0.5-0.2c-1.5-0.9-2.9-1.9-4.2-3.1
		c-0.4-0.3-0.7-0.7-1-1.1c-0.9-1-2.2-1.5-3.3-2.3c-0.2-0.1-0.5-0.2-0.7-0.4c-1.9-1.4-2.6-1.8-4.9-2.4c-0.5-0.1-1,0.2-1.1,0.8
		c-0.1,0.7,0.3,1.3,0.8,1.6c0.2,0.2,0.4,0.3,0.5,0.6c0,0.2,0.2,0.4,0.3,0.4c0.8,0.2,1.1,1,1.8,1.4c0.6,0.4,1,1,1.5,1.5
		c0.4,0.4,0.9,0.8,1.4,1c0.4,0.2,0.9,0.5,1.3,0.8c0.7,0.6,1.6,0.8,2.5,1.1C306.8,17.6,307.2,17.7,307.8,17.9"/>
	<path class="st0" d="M224.5,158.3c0.3-1.3,1.3-1.8,2.1-2.6c0,0,0.1,0,0.1-0.1c0.6-0.3,0.9-0.9,1.5-1.3c0.6-0.3,1.1-0.6,1.6-1.1
		c0.2-0.2,0.6-0.3,0.8-0.4c0.2-0.1,0.3-0.3,0.4-0.5c-0.2-0.9-1.2-1.2-1.3-2.2c0.3-0.9,1.4-1,1.9-1.8c0-0.4-0.3-0.7-0.6-0.8
		c-0.4-0.1-0.9-0.3-1.3-0.4c0-0.6,0.2-1,0.6-1.2c0.5-0.3,1-0.7,1.4-1.1c0.2-0.2,0.4-0.4,0.6-0.6c-0.2-0.6-0.8-0.7-1.1-1.1
		c-0.6,0.1-1.1,0.4-1.7,0.1c-0.1-0.6-0.1-1.3-0.2-1.9c0-0.6,0.3-1.2-0.1-1.7c-0.5,0-0.9,0.2-1.1,0.7c-0.2,0.6-0.8,1-0.9,1.7
		c0,0.3-0.5,0.4-0.8,0.4c-0.6-0.4-0.4-1.2-0.9-1.7c-0.4-0.5-0.8-1-1.2-1.6c-0.2,0.3-0.4,0.6-0.6,0.9c0,0.6,0.1,1.1,0.1,1.7
		c0.1,0.6,0,1.1-0.1,1.6c-0.1,0.4-0.1,0.9-0.2,1.4c0,0.3-0.4,0.5-0.6,0.4c-0.2-0.1-0.6-0.3-0.6-0.5c-0.1-0.7-0.7-1-1.2-1.5
		c-0.2,0.1-0.5,0.2-0.8,0.3c0,0.3,0.1,0.6,0.1,0.8c0,0.2-0.1,0.4-0.1,0.7c-0.1,0.7-0.2,1.4-0.1,2.2c0,0.4,0,0.7,0,1.1
		c-0.1,0.2-0.2,0.5-0.4,0.7c-0.5-0.2-0.4-0.7-0.6-0.9c-0.2-0.3-0.4-0.6-0.7-0.9c-0.4,0-0.5,0.3-0.5,0.6c-0.1,1.6-0.2,3.1-0.5,4.6
		c-0.1,0.7-0.3,1.3-0.6,2c-0.1,0.4-0.2,0.4-0.8,0.9c-0.9-0.1-1.6-0.4-2.3-0.8c-0.6-0.3-1.2-0.6-1.9-0.8c-1-0.3-1.9-0.6-2.7-1.4
		c0-0.2,0-0.5,0.1-0.7c0.5-1,0.9-2,1.2-3.1c0.1-0.2,0.1-0.5,0.3-0.6c0.3-0.4,0.4-0.8,0.5-1.3c0.2-0.7,0.3-1.3,0.7-1.9
		c0.2-0.2,0.2-0.6,0.2-0.9c0.1-0.4,0.1-0.8,0.4-1c0.7-0.8,1-1.8,1.5-2.7c0.5-0.8,0.8-1.8,1.5-2.6c0.4-0.4,0.6-0.9,0.8-1.4
		c0.3-1,1-1.9,1.4-2.8c0.4-0.9,0.9-1.7,1.3-2.6c0.4-0.9,1.1-1.6,2.1-2c0.7,0.3,1.5,0.6,2.3,0.9c0.6,0.3,1.1,0.5,1.7,0.4
		c0.4,0,0.7,0.1,1,0.3c0.6,0.4,1.3,0.6,2,0.9c1.3,0.5,2.6,0.8,3.9,1.4c0.1,0.1,0.3,0.1,0.4,0.1c0.9,0.1,1.6,0.5,2.3,0.9
		c0.6,0.3,1.3,0.6,1.9,0.8c0.5,0.2,0.9,0.4,1.4,0.7c0.8,0.5,1.5,1,2.4,1.4c0.6,0.3,1.1,0.6,1.5,1.1c0.1,0.2,0.3,0.3,0.5,0.5
		c0.2,0.8,0.1,1.6-0.2,2.4c-0.1,0.3-0.2,0.5-0.3,0.8c-0.5,1.2-0.5,2.4-0.8,3.6c-0.4,1.5-0.6,3-1.1,4.5c-0.6,1.6-1,3.3-1.4,5
		c-0.2,1.3-0.4,2.5-0.6,3.8c-0.1,0.7-0.2,1.4-0.4,2.2c-0.3,0.5-0.8,0.9-1.5,1c-0.5,0.1-0.9,0.2-1.3,0.3c-0.5,0.1-1,0.3-1.5,0.7
		c-0.4,0.3-0.8,0.6-1.3,0.8c-0.3,0.2-0.7,0.2-1,0c-0.5-0.3-0.9-0.6-1.4-0.9c-0.7-0.4-1.4-0.9-2.1-1.3c-0.2-0.1-0.4-0.1-0.5-0.3
		c-0.5-0.6-1-0.9-1.7-1c-0.2,0-0.3-0.2-0.4-0.3C224.8,158.8,224.7,158.5,224.5,158.3"/>
	<path class="st0" d="M198.1,150.3c-0.1-0.3-0.1-0.5-0.2-0.7c1.7-1.8,3.6-3.3,5.8-4.3c-0.1-0.3-0.2-0.6-0.2-0.9
		c-0.4-0.4-1.1,0.1-1.3-0.7c0.1-0.1,0.2-0.2,0.3-0.3c0.7-0.6,1.5-1.2,2.3-1.8c0,0,0.1,0,0.1-0.1c0.4-0.3,0.4-0.7-0.1-0.8
		c-0.5-0.2-1-0.5-1.3-1c0.6-1.1,1.3-2.1,1.6-3.3c-0.3-0.2-0.6-0.2-0.9-0.1c-0.8,0.3-1.6,0.7-2.4,1c-0.3-0.1-0.5-0.4-0.5-0.8
		c0-0.3,0-0.6,0.1-0.8c0.2-0.5-0.1-0.9-0.3-1.3c-0.1-0.1-0.4-0.2-0.5-0.1c0,0-0.1,0-0.1,0.1c-0.4,1-1.4,1.6-1.7,2.6
		c-0.1,0.3-0.3,0.5-0.7,0.5c-0.2-0.8-0.8-1.5-1-2.3c0-0.1-0.1-0.2-0.2-0.3c-0.3-0.3-0.6-0.4-0.9-0.3c-0.3,0.2-0.4,0.4-0.5,0.8
		c0,1.3-0.1,2.6-0.2,3.9c-0.2,0.1-0.3,0.2-0.5,0.3c-0.4-0.3-0.8-0.7-1.3-1.1c-0.2,0-0.4,0-0.7,0c-0.1,0-0.3,0.1-0.4,0.1
		c0,0.6,0.1,1.3,0.1,1.9c0.1,1.1,0.3,2.2,0.2,3.3c0,0.2,0,0.4-0.1,0.5c-0.1,0.3-0.5,0.4-0.7,0.3c-0.3-0.2-0.5-0.4-0.7-0.6
		c-0.1-0.1-0.3-0.2-0.4-0.2c-0.5,0.2-0.7,0.6-0.6,1c0,0.5,0.2,1,0.3,1.5c0.1,0.7,0.3,1.3,0.4,2c0.1,0.4,0.1,0.7,0.2,1.1
		c0,0.3,0,0.6,0,0.8c0,0.3-0.3,0.6-0.5,0.6c-0.9,0-1.7,0.3-2.6,0.2c-1-0.1-1.9,0.2-2.7,0.7c-0.2,0.1-0.3,0.2-0.5,0.4
		c-0.8-0.2-1.6-0.3-2.3-0.6c-0.5-0.2-1-0.4-1.6-0.5c-0.6-0.1-1.1-0.3-1.7-0.5c-0.8-0.3-1.6-0.4-2.4-0.5c-0.7-0.1-1.5,0-2.2-0.2
		c-0.3-0.1-0.6,0.1-0.9,0.1c-0.3,0-0.5,0.1-0.8,0.1c-0.1,0-0.3-0.1-0.5-0.1c-0.1-0.2-0.2-0.4-0.2-0.6c0-0.3,0.2-0.5,0.4-0.7
		c0.8-0.6,1.6-1.2,2.3-1.9c0.8-0.8,1.7-1.4,2.3-2.3c0.1-0.1,0.2-0.2,0.3-0.3c0.9-0.5,1.6-1.4,2.3-2.2c0.9-1,1.7-2,2.7-2.9
		c0.2-0.2,0.3-0.3,0.5-0.5c0.7-1.2,1.7-2.3,2.6-3.3c0.1-0.1,0.1-0.2,0.2-0.4c0.3-0.5,0.6-1,0.9-1.5c0.3-0.5,0.6-0.9,1-1.3
		c0.7-0.8,1-1.8,1.5-2.6c0.6-1.1,1.2-2.3,1.9-3.3c0.3-0.4,0.7-0.7,1.3-0.7c0.7,0,1.4-0.1,2-0.2c0.2,0,0.5,0,0.7,0
		c0.8,0.3,1.6,0.1,2.3,0.2c0.4,0,0.8,0.1,1.2,0.1c0.4,0,0.7,0.1,1.1,0.1c0.5,0,0.9,0,1.4,0.2c0.3,0.1,0.7,0.1,1.1,0.1
		c0.5,0,1,0,1.5,0.1c0.8,0.2,1.6,0.2,2.5,0.3c0.6,0.1,1.3,0.1,1.9,0.3c0.2,0.1,0.4,0,0.7,0c0.1,0,0.3,0,0.4,0
		c0.8,0.4,1.6,0.3,2.4,0.5c1.2,0.3,2.4,0.4,3.6,0.8c0.3,0.1,0.7,0.3,1,0.4c0.3,0.1,0.5,0.4,0.6,0.8c-0.2,0.4-0.4,0.9-0.7,1.3
		c-0.6,0.5-0.9,1.3-1.5,1.8c-0.9,0.7-1.3,1.8-1.8,2.7c-0.8,1.4-1.5,2.8-2.2,4.3c-0.5,1.1-1.2,2.1-1.7,3.1c-0.3,0.6-0.7,1.2-0.9,1.8
		c-0.2,0.4-0.3,0.8-0.7,1c-0.1,0.1-0.2,0.2-0.2,0.3c-0.1,0.8-0.7,1.3-0.8,2c-0.1,0.6-0.5,1.1-0.8,1.6c-0.4,0.8-0.9,1.5-1.3,2.2
		c-0.4,0.2-0.8,0.2-1.2,0c-1.2-0.5-2.4-1-3.7-0.9C199.1,150.4,198.6,150.3,198.1,150.3"/>
	<path class="st0" d="M406,228.3c-0.6,0.7-1.1,1-1.9,0.9c-0.5,0-0.9,0-1.4,0c-2,0-3.9-0.4-5.7-1.2c-0.7-0.3-1.3-0.6-1.9-1
		c-0.2-0.1-0.4-0.2-0.6-0.3c-0.5-0.3-1.1-0.5-1.7-0.8c-0.6,0.4-1.4,0.5-2.1,0.9c-0.1,0.1-0.4,0.1-0.5,0.1c-1.6-0.1-3-0.6-4.1-1.6
		c-0.7-0.6-1.3-1.3-1.7-2.1c-0.6-1.2-1.1-2.4-1.2-3.8c-0.3-0.1-0.6-0.3-0.9-0.2c-1.4,0.1-2.6-0.5-3.6-1.3c-0.3-0.3-0.6-0.6-1-0.8
		c-0.6-0.5-1.2-1-1.7-1.6c-0.1-0.1-0.2-0.2-0.3-0.3c-0.3-0.2-0.6-0.4-0.9-0.6c-0.3-0.9-1-1.6-1.2-2.5c-0.2-1.3-0.5-2.6-0.2-4
		c0.1-0.3,0.1-0.6,0.1-0.8c-0.1-0.4-0.2-0.7,0-1.1c0.1-0.3-0.1-0.7,0.1-1.1c0.1-0.3,0.2-0.7,0.1-0.9c-0.2-0.9,0-1.8,0.2-2.6
		c0.3-0.9,0.1-1.7,0.1-2.5c0-0.6-0.1-1.2-0.2-1.8c0.2-0.3,0.4-0.5,0.7-0.7c0.3-0.3,0.7-0.5,1.2-0.5c1.8-0.2,3.4,0.3,4.9,1.2
		c0.6,0.4,1.2,0.6,1.8,1c1.5,1,2.7,2.4,3.7,3.8c0.9,1.3,1.7,2.6,2.4,4c0.6,1.1,1.4,2.1,2.1,3.2c0.5,0.8,1,1.5,1.5,2.3
		c0.6,0.8,1.2,1.6,1.8,2.4c0.4,0.5,0.8,0.9,1.2,1.3c0.9,1.1,1.9,2.1,3.2,2.8c0.9,0.5,1.7,1.1,2.4,1.8c0.7,0.6,1.2,1.4,1.2,2.3
		c0,0.3,0.1,0.5,0.3,0.7c0.3,0.4,0.5,0.8,0.7,1.2c0.4,1,1.1,1.7,1.7,2.5c0.1,0.1,0.3,0.3,0.4,0.4C405.6,227.3,405.8,227.8,406,228.3
		"/>
	<path class="st0" d="M246.9,24.9c-0.4-1.1,0-1.9,0.4-2.7c0.6-0.7,1.4-0.9,2.2-0.9c0.8,0,1.6-0.1,2.5-0.2c0.6,0,1.3,0.1,1.9,0.2
		c0.6,0.1,1.2,0.1,1.8,0.2c0.7,0.1,1.5,0.1,2.2-0.1c0.2-0.1,0.3-0.2,0.5-0.3c-0.2-0.9-0.8-1.3-1.5-1.6c-0.4-0.2-0.9-0.3-1.3-0.3
		c-1.3-0.2-2.7-0.5-4-0.5c-0.8,0-1.6,0.1-2.4,0.5c-0.2,0.1-0.4,0.1-0.6,0.1c-0.4-0.3-0.5-0.6-0.4-1c0.2-0.9,0.3-1.7,0.5-2.6
		c0.1-0.3,0.2-0.5,0.3-0.8c0.6-1.6,1.7-2.9,2.7-4.3c0.8-1.1,2-1.8,3.1-2.7c1.1-0.4,2.1-0.9,3.2-1.1c1.5-0.3,3.1-0.4,4.7,0
		c1.6,0.4,3.1,1,4.4,2.1c1.2,1,2.2,2.2,3.1,3.5c1.6,2.2,1.8,2.8,2.6,4.9c0.8,1,0.7,2.3,1,3.4c0.5,1.8,0.9,3.5,1.2,5.3
		c0.1,0.5,0.1,0.9,0.1,1.4c0,0.3-0.2,0.6-0.5,0.6c-0.5,0.1-1,0.3-1.5,0.2c-0.5-0.1-1.1-0.1-1.6-0.2c-0.5,0-0.9-0.2-1.3-0.5
		c-0.7-0.5-1.5-0.8-2.4-0.9c-0.7-0.1-1.4-0.4-2.2-0.1c-0.1,0-0.2,0-0.3,0c-0.8-0.1-1.7-0.3-2.6-0.1c-0.8,0.2-1.6,0.2-2.4,0.5
		c-0.2,0.1-0.4,0.1-0.5,0.1c-0.5-0.2-1,0-1.5,0.1c-0.7,0.2-1.4,0.3-2.2,0.1c-0.4-0.1-0.9-0.1-1.4-0.1c-1.3,0-2.6-0.2-3.8-0.6
		c-0.3-0.1-0.7-0.3-1.1-0.3C248.8,26.2,247.8,25.7,246.9,24.9"/>
	<path class="st0" d="M340.9,121.4c0.2-0.1,0.3-0.1,0.4-0.1c0.1,0,0.2,0.1,0.2,0.1c0.6,0.7,1.4,1.2,2.2,1.7c0.5,0.3,0.9,0.7,1.3,1
		c0.4,0.3,0.8,0.7,1.2,0.9c0.6,0.4,1.2,0.9,1.9,1.4c1.5,1.1,3.1,2.2,4.4,3.6c0.8,0.8,1.5,1.6,2.3,2.3c0.6,0.6,1.2,1.3,1.7,1.9
		c1.2,1.3,2.3,2.7,3.2,4.1c0.6,0.9,1.2,1.7,1.8,2.6c1,1.4,1.8,2.9,2.6,4.3c0.2,0.8,0.7,1.4,0.9,2.1c0,0.3,0.2,0.5,0.4,0.7
		c0.7,1.2,1.1,2.5,1.4,3.8c0.1,0.4,0.2,0.9,0.4,1.3c0.3,0.5,0.4,1.1,0.5,1.7c0,0.2,0,0.4,0.1,0.5c0.6,1,0.9,2.1,1,3.2
		c0.4,2.5,0.5,3.6,0.5,5.7c0,0.7,0.1,1.5,0.1,2.2c0,0.4-0.3,0.5-0.7,0.4c-0.4-0.2-0.7-0.6-0.9-1c-0.8-1.6-1.7-3.1-2.7-4.6
		c-0.3-0.5-0.7-0.9-0.9-1.3c-0.2-0.5-0.5-0.9-0.7-1.3c-0.8-1.4-1.8-2.7-2.5-4.1c-0.6-1.1-1.3-2.2-2-3.3c-0.4-0.6-1-1.2-1.3-2
		c-0.2-0.5-0.6-0.9-1-1.3c-0.1-0.1-0.3-0.3-0.3-0.5c-0.1-0.8-0.7-1.4-1.1-2c-0.5-0.7-1-1.3-1.2-2.1c-0.1-0.2-0.1-0.4-0.2-0.5
		c-1.1-1.3-1.5-2.9-2.6-4.2c-0.3-0.3-0.4-0.8-0.7-1.2c-0.2-0.4-0.3-0.9-0.8-1.1c-0.1-0.1-0.2-0.2-0.2-0.3c-0.5-1-1.1-1.9-1.6-2.9
		c-0.6-1.2-1.5-2.2-2.1-3.4c-0.2-0.4-0.4-0.9-0.7-1.3c-0.3-0.4-0.5-0.9-0.7-1.3c-0.3-0.7-0.6-1.3-1.1-1.9c-0.5-0.6-0.8-1.2-1.2-1.8
		c-0.2-0.4-0.4-0.8-0.8-1.1C341.2,122.3,341.1,121.8,340.9,121.4"/>
	<path class="st0" d="M300.4,110.3c0.1-0.3,0.1-0.6,0.2-0.8c0.5-0.7,0.7-1.5,1-2.3c0.2-0.5,0.3-0.9,0.8-1.3c1.3,0.5,2.7,0.3,4,0.9
		c0.1,0.1,0.3,0.1,0.4,0.1c0.6,0,1.1,0.3,1.6,0.3c0.2,0,0.4,0,0.7,0c0.2,0,0.5-0.1,0.7,0c0.9,0.4,1.8,0.2,2.7,0.2
		c0.6,0,1.2,0,1.8,0.2c0.2,0.1,0.5,0.1,0.7,0.1c0.4,0,0.7-0.2,1.1-0.2c0.3,0,0.6,0.1,1,0.1c0,0.1,0.1,0.3,0.2,0.5
		c0.1,0.2,0.4,0.3,0.6,0.3c0.3,0.1,0.3-0.2,0.4-0.4c0.2-0.3,0.4-0.5,0.9-0.4c0.3,0.1,0.6,0.1,1,0.1c1.2-0.2,2.4,0,3.5,0.2
		c0.2,0,0.4,0.1,0.5,0.1c0.6-0.2,1.1,0.1,1.6,0.2c0.2,0,0.3,0.3,0.4,0.3c0.2-0.1,0.3-0.3,0.6-0.3c0.2,0,0.4,0.1,0.5,0.1
		c0.6-0.3,1.2-0.2,1.8-0.1c0.8,0.1,1.5,0,2.3,0.2c0.3,0.1,0.6,0.2,0.9,0.3c0.2,0.1,0.4,0.2,0.5,0.2c1.3-0.2,2.4,0.6,3.6,0.7
		c0.3,0.3,0.8,0.2,1.2,0.3c0.3,0.1,0.6,0.1,0.9,0.2c1.3,0.6,2.8,0.8,4.1,1.5c0.4,0.2,0.9,0.1,1.3,0.3c0.6,0.3,1.3,0.5,1.9,0.9
		c0.6,0.3,1.2,0.6,1.9,0.8c1,0.3,2,0.8,2.8,1.4c0.3,0.2,0.6,0.4,0.9,0.6c1.1,0.5,1.9,1.2,2.9,1.8c0.6,0.4,1,0.9,1.6,1.3
		c0.6,0.4,1.2,0.8,1.6,1.3c0.4,0.5,1,0.8,1.5,1.3c0.8,0.8,1.5,1.6,2.3,2.4c0.6,0.6,0.9,1.4,1,2.2c0.1,1.1,0.4,2.2,0.6,3.2
		c0.1,0.2,0.1,0.5,0.1,0.7c0,1.1,0.3,2.1,0.5,3.1c0,0.1,0.1,0.3,0.1,0.4c0,0.2-0.1,0.3-0.2,0.5c-0.1,0.1-0.5,0-0.6-0.2
		c-0.2-0.3-0.4-0.5-0.5-0.8c-0.1-0.6-0.4-1-0.8-1.4c-0.7-0.9-1.3-1.8-2.2-2.5c-0.5-0.4-0.9-0.9-1.3-1.4c-0.6-0.6-1.1-1.2-1.8-1.7
		c-1.2-1-2.4-2.1-3.8-3c-0.7-0.4-1.3-1-2-1.5c-0.2-0.1-0.3-0.3-0.5-0.4c-0.9-0.4-1.6-0.9-2.3-1.6c-0.3-0.2-0.6-0.4-0.9-0.5
		c-0.8-0.4-1.6-0.7-2.1-1.4c-0.5-0.3-1,0-1.4-0.3c-0.3-0.2-0.7-0.3-1.1-0.5c-1.2-0.7-2.6-1.2-3.9-1.5c0,0-0.1,0-0.1-0.1
		c-0.5-0.2-1.1-0.6-1.6-0.7c-0.6-0.1-1.1-0.4-1.7-0.5c-0.8-0.3-1.6-0.6-2.5-0.6c-0.1,0-0.3,0-0.4-0.1c-0.6-0.5-1.3-0.3-1.9-0.6
		c-0.8-0.4-2.4-0.6-3.5-0.7c-0.1,0-0.2,0-0.3,0c-0.5-0.3-1-0.5-1.7-0.4c-0.5,0.1-1.1-0.1-1.6-0.2c-0.6-0.1-1.2-0.2-1.9-0.1
		c-0.6,0.1-1.2-0.1-1.8-0.2c-1-0.2-2.1-0.1-3.1-0.3c-0.7-0.1-1.5-0.1-2.3-0.1c-1.1,0-2.1-0.1-3.1-0.1c-0.9,0-1.8,0-2.8,0
		c-0.4,0-0.8,0.1-1.2,0.2c-0.7,0.1-1.4,0.1-2.1-0.1c-0.4-0.1-0.7-0.1-1,0.2c-0.3,0.2-0.7,0.2-1.1,0.2c-0.4-0.1-0.9-0.1-1.3-0.1
		C300.8,110.6,300.6,110.4,300.4,110.3"/>
	<path class="st0" d="M231.4,100.3c0.3,0.2,0.6,0.3,0.7,0.5c0.5,0.7,1.2,1.3,1.5,2.2c-0.2,0.6-0.4,1.2-0.7,1.8
		c-0.6,1.2-1,2.5-1.6,3.8c-0.3,0.8-0.5,1.6-0.6,2.4c-0.3,1.6-0.4,3.2-0.7,4.8c-0.2,0.9,0.1,1.6,0.1,2.5c0,0.4,0.1,0.8-0.1,1.2
		c-0.1,0.3-0.1,0.5-0.1,0.8c0,0.5-0.3,0.7-0.8,1c-0.7,0-1.6,0-2.4-0.2c-1.1-0.2-2.2-0.3-3.3-0.4c-0.4-0.1-0.9,0.1-1.4-0.1
		c-0.8-0.3-1.5-0.2-2.3-0.2c-0.5,0-1.1,0-1.6-0.2c-0.5-0.2-1.1,0.1-1.6-0.2c-1,0.1-2-0.2-3-0.1c-0.8,0-1.5,0.1-2.3-0.2
		c-0.6-0.2-1.3-0.1-1.9-0.1c-0.7,0-1.4,0-2.1,0c-0.8,0.1-1.5,0-2.3-0.2c-0.3-0.1-0.6,0.1-0.9,0.1c-0.5,0.1-1,0.1-1.5-0.1
		c-0.6-0.2-1.3-0.1-1.9-0.2c-0.6-0.1-1.2-0.1-1.8,0c-0.4,0.1-0.9,0.1-1.4,0.1c-0.4-0.1-0.8-0.1-1.2,0c-0.3,0.1-0.5,0-0.8-0.1
		c-0.4-0.2-0.5-0.5-0.2-0.9c0.2-0.2,0.4-0.4,0.6-0.7c0.4,0,0.9,0,1.3,0.2c0.5,0.1,1.1,0.2,1.6,0.3c0.2,0,0.4-0.1,0.7-0.1
		c0.5-0.2,1-0.3,1.4-0.5c0.6-0.3,1.3-0.4,2-0.5c1-0.2,1.9-0.1,2.5,0.8c0,0.1,0.1,0.1,0.2,0.2c0.2,0,0.4,0.1,0.7,0.1
		c1.2-0.4,1.7-1.4,2-2.6c0.3-0.2,0.6-0.4,0.9-0.5c0.9-0.2,1.7-0.6,2.6-1c0.4-0.2,0.9-0.4,1.3-0.2c0.4,0.2,0.1,0.6,0.2,0.9
		c0.2,0.3,0.4,0.5,0.6,0.8c0.1,0,0.2,0,0.2,0c0.8,0.2,1.2-0.1,1.5-0.8c0.2-0.4,0.3-0.9,0.5-1.3c0.3-0.9,0.8-1.6,1.7-2
		c0.7-0.3,1.3-0.7,1.9-1.1c0.3-0.2,0.4-0.2,1.2-0.3c0.4,0.6,0.2,1.5,0.9,2c0.4-0.1,0.6-0.4,0.8-0.8c0.2-0.4,0.3-0.9,0.5-1.3
		c0.1-0.4,0.2-0.8,0.3-1.2c0.2-0.7,0.4-1.3,1-1.7c0.2-0.8,0.9-1.1,1.4-1.6c0.3-0.3,0.6-0.6,1-0.7c0.7-0.4,1.3-0.9,1.7-1.5
		C229.4,101.9,230.4,101.2,231.4,100.3"/>
	<path class="st0" d="M426.2,73.5c-0.7,0.2-1.3,0.4-2,0.2c-1.1-0.2-2.3-0.3-3.4-0.3c0,0-0.1,0-0.1,0c-1.3,0.3-2.4-0.2-3.7-0.3
		c-0.5-0.1-1.1-0.2-1.6-0.2c-0.6,0-1.2-0.2-1.8-0.5c-0.6-0.2-1.2-0.3-1.8-0.7c-0.5-0.4-1.1-0.7-1.6-1.1c-0.1-0.1-0.3-0.3-0.4-0.4
		c-0.5-0.8-1.2-1.5-2-2.1c-0.4-0.3-0.6-0.6-0.9-1c-0.3-0.5-0.8-0.9-1.3-1.3c-0.5-0.4-1-0.7-1.3-1.2c-0.1-0.2-0.4-0.4-0.6-0.6
		c-0.1-0.1-0.3-0.2-0.5-0.3c-0.3-0.3-0.5-0.6-0.8-0.9c-0.3-0.3-0.7-0.4-1-0.7c-0.3-0.2-0.6-0.4-0.9-0.6c-0.3-0.1-0.6-0.4-0.9-0.6
		c-0.7-0.6-1.5-1.2-2.4-1.7c-0.4-0.2-0.8-0.5-1.1-0.8c-0.5-0.4-1.1-0.9-1.8-1c-0.2,0-0.3-0.1-0.5-0.2c-0.4-0.3-0.4-0.7,0.1-0.9
		c0.6-0.3,1.1-0.7,1.8-0.7c0.1,0,0.2-0.1,0.3-0.1c0.9,0.2,1.8-0.3,2.7-0.4c0.7-0.1,1.4-0.1,2,0.1c0.5,0.2,1,0.3,1.5,0.3
		c0.8,0,1.5,0.1,2.3,0.5c0.2,0.1,0.4,0.1,0.7,0.1c1.5,0.3,2.8,0.9,4.1,1.6c0.4,0.2,0.8,0.3,1.2,0.6c0.3,0.3,0.8,0.4,1.2,0.7
		c0,0,0.1,0,0.1,0.1c0.5,0.3,1.1,0.2,1.5,0.6c0.4,0.5,1.1,0.5,1.5,0.9c0.4,0.3,0.9,0.6,1.4,0.9c1.4,1.1,2.9,1.9,4,3.3
		c0.1,0.1,0.3,0.3,0.4,0.4c0.6,0.4,1.3,0.9,1.6,1.6c0.1,0.2,0.2,0.3,0.4,0.4c1.2,0.8,1.9,2,2.6,3.2c0.3,0.6,0.6,1.1,1,1.7
		C426.2,72.6,426.3,73.1,426.2,73.5"/>
	<path class="st0" d="M271,123.4c-0.1-0.7-0.1-1.2,0.1-1.9c0.2-0.6,0.2-1.3,0.3-2c0.1-0.4,0.2-0.8,0.4-1.2c0.6-1.3,1.2-2.7,1.3-4.2
		c0.1-0.6,0.3-1.2,0.4-1.7c0-0.1,0-0.3,0-0.4c-0.5-0.2-0.8,0-1.1,0.3c-0.3,0.2-0.5,0.6-0.6,0.9c-0.4,0.8-1,1.5-1.5,2.3
		c-0.8,1.1-1.7,2.1-2.4,3.3c-0.4,0.6-0.9,1.1-1.4,1.7c-0.5,0.5-1,1-1.5,1.6c-0.2,0.1-0.5,0.1-0.8-0.1c-0.2-0.4-0.2-0.8,0-1.3
		c0.4-0.9,0.6-1.9,0.7-2.9c0-0.1,0-0.2,0-0.3c0-0.2-0.3-0.4-0.5-0.3c-0.3,0.1-0.7,0.2-0.8,0.6c-0.5,1.2-1.4,2.2-1.7,3.4
		c-0.1,0.3-0.5,0.5-0.5,0.9c-0.9,0.7-1,2-1.9,2.6c-0.4,1-1.2,1.2-2.1,1.3c-0.2,0-0.3,0.1-0.5,0.1c-0.5-0.2-0.6-0.6-0.5-0.9
		c0.4-1.5,0.2-3.1,0.6-4.6c0-0.2,0-0.4,0.1-0.5c0.2-0.5,0.6-0.9,0.7-1.3c0.1-0.5,0.2-0.9,0.5-1.3c0.2-0.4,0.5-0.8,0.4-1.3
		c0-0.1,0-0.3,0.1-0.4c0.6-0.7,0.8-1.5,1.3-2.3c0.4-0.7,0.9-1.4,1.3-2.1c0.1-0.2,0.3-0.5,0.5-0.6c0.9-0.8,1.6-1.9,2.4-2.8
		c0.5-0.6,1.1-1.1,1.8-1.5c0.6-0.3,1-0.7,1.5-1.2c0.6-0.5,1.2-0.9,1.9-1.1c0.8-0.3,1.6-0.7,2.5-0.6c0.3,0,0.5,0,0.8,0.1
		c0.2,0,0.4,0.2,0.7,0.2c1.1,0,1.9,0.6,2.6,1.4c0.9,1,1.7,2.2,1.9,3.6c0.1,0.5,0.2,1.1,0.3,1.6c0,0.2,0.1,0.5,0,0.7
		c-0.3,0.7-0.2,1.5-0.4,2.3c-0.2,0.9-0.6,1.7-1.1,2.5c-0.3,0.5-0.6,0.9-0.9,1.4c-0.2,0.3-0.3,0.7-0.6,0.9c-0.6,0.7-1.2,1.3-1.8,2
		c-0.4,0.5-0.8,1-1,1.6c-0.2,0.5-0.5,0.9-0.8,1.3C271.3,123.2,271.1,123.3,271,123.4"/>
	<path class="st0" d="M159.9,12.9c0.3-0.6,0.6-1.3,0.9-1.9c0.4-0.3,0.9-0.3,1.4,0c0.7,0.4,1.5,0.7,2.2,1.1c1.1,0.7,2.3,1,3.5,1.6
		c1.6,0.8,3.3,1.5,4.9,2.2c0.8,0.7,1.8,0.8,2.7,1.4c0.6,0.5,1.4,0.7,2.1,0.9c0.6,0.2,1.1,0.5,1.7,0.6c0.5,0.2,0.9,0.5,1.4,0.6
		c0.5,0.1,0.9,0.4,1.4,0.6c1.9,0.8,3.8,1.7,5.7,2.5c0.1,0,0.2,0.1,0.3,0.1c1.1,0.1,1.9,0.8,2.9,1.2c1,0.4,1.9,0.9,2.8,1.4
		c0.3,0.1,0.6,0.3,0.9,0.4c0.4,0.2,0.8,0.3,1.2,0.6c0.3,0.2,0.7,0.3,1.1,0.5c1.3,0.6,2.6,1.2,3.9,1.7c1.6,0.7,3.1,1.3,4.6,2.3
		c0.2,0.1,0.5,0.2,0.7,0.3c0.7,0.3,1.5,0.7,2.2,1.1c1.2,0.6,2.5,1.1,3.8,1.6c0.2,0.1,0.4,0.1,0.5,0.2c1.6,1.1,3.5,1.7,5.1,2.7
		c1.6,0.9,3.4,1.5,4.9,2.5c0.1,0.1,0.3,0.1,0.4,0.2c0.9,0.3,1.6,0.8,2.4,1.3c1,0.6,2,1.2,3.1,1.7c0.5,0.2,0.9,0.4,1.4,0.6
		c0.4,0.2,0.9,0.3,1.4,0.6c0.3,0.2,0.5,0.4,0.6,0.8c-0.1,0.2-0.3,0.4-0.5,0.6c-0.4,0.3-0.8,0.6-1.2,0.9c-0.4,0.3-0.9,0.3-1.3,0.1
		c-0.7-0.3-1.4-0.7-2.1-0.9c-0.7-0.3-1.3-0.8-2.1-1c-0.6-0.6-1.5-0.9-2.2-1.3c-1.2-0.7-2.4-1.4-3.6-1.9c-1.6-0.6-3-1.6-4.6-2.2
		c-0.7-0.6-1.6-0.8-2.3-1.2c-1-0.6-2.1-1.1-3.2-1.5c-1.4-0.5-2.7-1.2-4.1-1.9c-0.5-0.3-1.1-0.5-1.6-0.7c-0.8-0.4-1.6-0.7-2.3-1.1
		c-0.6-0.4-1.2-0.6-1.9-0.9c-1.3-0.6-2.6-1.3-4-1.9c-1.7-0.7-3.2-1.5-4.8-2.3c-0.9-0.5-2-0.8-2.9-1.1c-0.2-0.1-0.4-0.1-0.5-0.2
		c-0.7-0.7-1.6-0.9-2.4-1.3c-0.8-0.4-1.5-0.9-2.3-1.2c-0.9-0.3-1.7-0.7-2.6-1c-0.9-0.3-1.7-0.8-2.5-1.1c-0.2-0.1-0.3-0.2-0.5-0.2
		c-0.7-0.2-1.5-0.3-2.1-1c-0.9-0.2-1.6-0.7-2.4-1.1c-1.5-0.7-3-1.5-4.5-2.1c-1.1-0.4-2.1-1.1-3.3-1.3c-0.1,0-0.3-0.1-0.3-0.2
		c-0.2-0.4-0.7-0.3-0.9-0.6c-0.2-0.2-0.6-0.2-0.9-0.3C161,13.9,160.3,13.5,159.9,12.9"/>
	<path class="st0" d="M201.9,122.6c-0.7,0.3-1.4,0.2-2.1,0.1c-1.1-0.2-2.2-0.4-3.3-0.2c-0.4,0.1-0.8,0-1.2-0.1
		c-0.4-0.1-0.9-0.2-1.3-0.3c-0.2-0.4-0.2-0.6,0.1-1c0.7,0,1.5-0.2,2.3-0.5c0.2-0.1,0.5-0.1,0.7-0.1c1.3,0,2.6,0.1,3.9,0.2
		c0.1,0,0.2,0,0.3,0c1.2-0.3,2.4,0,3.5,0.1c0.8,0.1,1.7,0,2.5,0.3c0.2,0.1,0.5,0,0.7,0c0.7,0,1.5-0.1,2.2,0.2
		c0.2,0.1,0.4,0.1,0.5,0.1c1-0.1,1.9,0.1,2.9,0.1c0.3,0,0.6,0,0.9,0.1c0.9,0.3,1.9,0.3,2.8,0.3c0.3,0,0.6,0.1,1,0.1
		c0.2,0,0.4,0.1,0.5,0.1c1.2-0.1,2.3,0.3,3.5,0.5c0.4,0.1,0.7,0.1,1.1,0c0.4-0.2,0.8-0.1,1.2,0c0.6,0.2,1.2,0.3,1.9,0.4
		c1,0.1,1.9,0.6,2.9,0.9c1,0.3,2,0.5,3,0.6c1.2,0.1,2.4,0.5,3.6,0.8c0.6,0.1,1.2,0.3,1.9,0.4c0.3,0.1,0.7,0.1,0.9,0.2
		c1.5,0.7,3.2,0.9,4.7,1.6c0.7,0.3,1.3,0.6,2,1c0.5,0.3,0.7,0.7,0.6,1.3c0,0.1,0,0.2-0.1,0.3c-0.2,1-0.5,2-0.6,3.1
		c-0.1,0.6-0.6,0.9-1.2,0.7c-0.2-0.1-0.4-0.4-0.7-0.4c-0.9-0.1-1.4-0.7-2.3-0.9c-0.7-0.2-1.4-0.6-2.1-0.9c-0.3-0.2-0.7-0.3-1-0.3
		c-0.3,0-0.5-0.1-0.8-0.2c-1.4-0.4-2.9-0.9-4.3-1.4c-1.4-0.5-2.7-1-4.2-1.3c-0.2,0-0.4,0-0.5-0.1c-0.7-0.6-1.6-0.6-2.4-0.9
		c-0.5-0.1-1,0.1-1.5-0.1c-0.5-0.2-1-0.3-1.5-0.3c-0.4,0-0.7-0.2-1.1-0.2c-0.6-0.1-1.2-0.4-1.9-0.2c-0.3,0.1-0.7-0.1-1.1-0.2
		c-0.6-0.2-1.3-0.4-2-0.5c-0.1,0-0.2,0-0.3,0c-0.7-0.4-1.6-0.4-2.4-0.6c-0.7-0.2-1.5-0.4-2.3-0.4c-1-0.4-2.1-0.4-3.2-0.7
		c-1.1-0.2-2.2-0.2-3.3-0.4c-0.4-0.1-0.9,0-1.3-0.4c-0.1-0.1-0.2-0.1-0.3-0.1C203.2,123.3,202.5,122.9,201.9,122.6"/>
	<path class="st0" d="M362.9,109.8c0.3,0,0.5,0,0.7,0.1c1.1,0.6,2.4,0.6,3.3,1.7c0.1,0.8-0.3,1.5-0.9,2c-0.3,0.3-0.7,0.3-1,0.1
		c-0.2-0.1-0.4-0.3-0.6-0.4c-1.3-0.8-2.8-1.4-4.2-2c-0.6-0.2-1.2-0.5-1.7-0.9c-0.8-0.5-1.6-0.8-2.4-1.4c-0.8-0.6-1.7-0.9-2.6-1.3
		c-0.5-0.2-0.9-0.4-1.3-0.7c-0.5-0.4-1.1-0.6-1.7-0.8c-0.6-0.2-1.1-0.5-1.6-0.8c-0.5-0.3-1-0.6-1.6-0.8c-0.7-0.3-1.4-0.7-2.1-1
		c-0.7-0.3-1.4-0.8-2.1-1.1c-0.8-0.4-1.5-1-2.5-1.2c-0.9-0.9-2.2-1-3.3-1.7c-0.5-0.3-1-0.6-1.6-0.9c-0.4-0.2-0.7-0.5-1.1-0.4
		c-0.1,0-0.3-0.1-0.5-0.2c-1.7-1-3.3-2.1-5.1-2.8c-1.1-0.5-2.2-1.1-3.2-1.7c-1.2-0.8-2.6-1.3-3.9-1.9c-0.6,0-1-0.4-1.5-0.7
		c-1.7-0.9-3.6-1.7-5.3-2.7c-0.2-0.1-0.5-0.2-0.8-0.3c-0.7-0.3-1.4-0.4-2-0.9c-0.1-0.1-0.3-0.2-0.5-0.2c-0.6-0.1-1.1-0.5-1.6-0.9
		c0.1-0.9,0.7-1.5,1.2-2.2c0.7,0.1,1.3,0.3,1.9,0.6c0.6,0.3,1.4,0.5,1.9,1c1.8,0.6,3.4,1.6,5.1,2.5c0.3,0.2,0.7,0.2,1,0.4
		c1.8,0.9,3.6,1.8,5.4,2.7c1.3,0.7,2.5,1.6,3.9,1.9c1.5,0.8,3.1,1.4,4.5,2.4c0.1,0.1,0.3,0.2,0.5,0.3c2.1,0.8,4,1.9,6,2.9
		c0.7,0.4,1.4,0.7,2.2,1.1c0.7,0.4,1.4,0.6,2.1,1c0.7,0.3,1.3,0.7,1.9,1c0.3,0.2,0.6,0.3,0.9,0.4c0.7,0.3,1.3,0.8,2,1.1
		c1.1,0.5,2.2,1.2,3.3,1.7c1.9,1,3.8,2,5.7,3c0.3,0.1,0.6,0.4,0.9,0.4C361.8,108.7,362.4,109.1,362.9,109.8"/>
	<path class="st0" d="M307.1,178.2c1.1,0.1,2.1,0.4,3.1,0.7c0.8,0.2,1.7,0.5,2.6,0.5c0.3,0,0.6,0.1,0.9,0.2c0.5,0.2,1.1,0.2,1.6,0
		c0.3-0.1,0.6-0.1,0.9-0.2c1.1-0.4,2.2-0.2,3.3-0.5c0.1,0,0.3-0.1,0.4,0c0.9,0.3,1.9,0.1,2.8,0.5c0.6,0.2,1.2,0.6,1.9,0.5
		c0.1,0,0.3,0.1,0.4,0.1c0.7,0.4,1.4,0.8,2.2,1.2c0.9,0.4,1.5,1.2,2.1,2c0.7,0.9,1.2,1.9,1.6,2.9c0.4,1,0.6,2.1,0.1,3.2
		c-0.1,0.2-0.2,0.5-0.4,0.7c-0.3,0.2-0.6,0.4-0.9,0.7c-0.6,0.5-1.4,0.6-2.1,0.4c-0.4-0.1-0.8-0.1-1.2-0.2c-0.9-0.1-1.8-0.5-2.6-0.8
		c-1.1-0.4-2.1-1.1-3.1-1.7c-0.2-0.1-0.3-0.2-0.4-0.3c-0.3-0.4-0.6-0.6-1-0.8c-0.4-0.2-0.7-0.5-1-0.7c-0.2-0.2-0.4-0.3-0.7-0.5
		c-0.2-0.1-0.4-0.3-0.6-0.4c-0.6-0.1-1-0.5-1.4-0.8c-0.4-0.3-0.6-0.7-1.2-0.7c-0.1,0-0.2-0.1-0.2-0.1c-0.2-0.5-0.8-0.6-1.2-0.9
		c-0.4-0.3-0.9-0.5-1.3-0.7c-0.2-0.1-0.3-0.2-0.5-0.3c-1.3-1-2.2-1.3-4-1.6c-0.3,0-0.5-0.1-0.8-0.2c-0.3,0-0.6,0-0.8,0.1
		c-0.9,0.5-2,0.5-3,0.9c-0.1,0-0.2,0-0.3,0c-0.2,0-0.5-0.1-0.6-0.3c-0.1-0.2-0.1-0.6,0-0.8c0.4-0.5,0.7-1.2,1.5-1.3
		c0.4-0.5,1-0.5,1.6-0.5c0.3,0,0.6-0.1,0.9-0.2C306.2,178.3,306.7,178.3,307.1,178.2"/>
	<path class="st0" d="M137.8,0.7c0.4-0.1,0.5-0.2,0.7-0.2c0.4,0,0.9,0.1,1.3,0.2c0.7,0.2,1.4,0.2,2.1,0.4c0.6,0.2,1.3,0.3,2,0.4
		c2.4,0.5,4.7,0.9,7.1,1.4c0.8-0.1,1.6,0.3,2.4,0.3c0,0,0.1,0,0.1,0c0.8,0.5,1.8,0.3,2.7,0.6c0.9,0.3,1.8,0.4,2.7,0.5
		c0.5,0.1,1,0.1,1.5,0.3c0.4,0.1,0.6,0.5,0.4,0.8c-0.6,1.1-0.9,2.4-1.7,3.4c-0.4,0.5-0.6,1.2-1.1,1.7c0,0.5-0.3,0.9-0.6,1.4
		c-0.7,1-1.1,2.2-1.6,3.3c-0.2,0.5-0.2,0.5-0.9,0.8c-0.4-0.4-0.8-0.7-1.2-1.1c-1-0.9-1.9-1.7-2.9-2.6c-0.3-0.2-0.6-0.5-0.9-0.7
		c-0.9-0.7-1.7-1.6-2.6-2.4c-0.9-0.8-1.9-1.6-2.8-2.4c-1.8-1.7-3.8-3.1-5.6-4.9c-0.2-0.2-0.4-0.2-0.6-0.4
		C138.3,1.3,138.1,1.1,137.8,0.7"/>
	<path class="st0" d="M385.2,175.2c-0.2,0.7-0.6,1-1.1,1c-0.4,0-0.7,0.1-1.1,0.1c-0.4,0.1-0.9,0-1.4,0.1c-0.6,0-1.1,0.2-1.6,0.2
		c-0.5,0-1,0-1.5,0.1c-0.6,0.1-1.3,0.1-1.9-0.1c-0.9-0.3-1.9-0.1-2.8-0.4c-0.7,0.1-1.5-0.1-2.2-0.1c-0.9,0-1.7-0.5-2.6-0.4
		c-0.4,0-0.6-0.5-1.1-0.5c-0.4,0-0.8,0.1-1.2-0.1c-0.5-0.2-1-0.5-1.4-0.7c-0.1-0.4,0.2-0.5,0.3-0.8c0.2-0.1,0.5-0.2,0.8-0.2
		c1,0,1.8-0.6,2.6-1.2c0.4-0.3,0.6-0.8,1.2-0.9c0.5-0.1,0.7-0.6,1.1-0.8c0.4-0.2,0.6-0.5,1-0.8c0.6-0.5,1.2-1.1,1.9-1.6
		c0.4-0.3,0.9-0.4,1.4-0.4c0.9-0.1,1.8,0,2.7,0c0.6,0.5,1.1,0.9,1.7,1.3c0.6,0.4,1,0.9,1.4,1.5c0.3,0.4,0.6,0.8,1,1.1
		c0.4,0.3,0.8,0.8,1.1,1.2C384,173.7,384.6,174.4,385.2,175.2"/>
	<path class="st0" d="M268.4,29.1c-0.6,0.4-1.1,0.8-1.7,0.5c-0.6,0.2-1.2,0.3-1.9,0.5c-0.5,0.1-1,0.3-1.5,0.3
		c-1.2,0.1-2.3,0.6-3.4,1.1c-1.2,0.6-2.4,1.2-3.7,1.8c-0.5,0.3-1.1,0.4-1.7,0.4c-1.4,0.2-2.7,0.2-4.1,0.4c-1,0.1-2.1-0.1-3.1-0.1
		c-0.8,0-1.6,0.1-2.3-0.2c-0.3-0.1-0.6,0-1,0c-0.3,0-0.6,0-1-0.1c-0.5-0.1-0.7-0.8-0.3-1.1c0.8-0.6,1.1-1.6,2-2.1
		c0.3-0.2,0.4-0.6,0.5-0.9c0.1-0.6,0.6-0.9,1.2-1c0.3-0.1,0.6-0.1,0.8-0.1c1.1,0.1,2.2,0.1,3.3,0.4c1,0.3,2,0.6,3.1,0.3
		c0.1,0,0.3,0,0.4,0c1.2,0.2,1.2,0.2,2.7-0.3c0.1,0,0.2-0.1,0.3,0c0.7,0.3,1.3,0,1.8-0.3c0.7-0.3,1.5-0.4,2.3-0.5
		c0.7,0,1.4,0,2.1-0.1c0.5,0,0.9-0.1,1.3,0c0.3,0.1,0.5,0,0.8,0c0.1,0,0.3-0.1,0.4-0.1c0.7,0.4,1.5,0.4,2.2,0.6
		C268.1,28.8,268.2,28.9,268.4,29.1"/>
	<path class="st0" d="M167.8,64.6c0.5,0.2,0.9,0.3,1.4,0.5c0,0.3,0,0.6,0,0.8c-0.1,0.4-0.2,0.7-0.3,1.1c-0.4,1.5-0.7,2.9-0.8,4.5
		c0,0.5-0.2,1.1-0.3,1.6c-0.1,0.3-0.5,0.5-0.8,0.3c-0.2-0.1-0.5-0.3-0.7-0.4c-0.7-0.4-1.3-0.9-2-1.2c-0.7-0.3-1.3-0.7-2-0.9
		c-0.7-0.1-1.4-0.5-2-0.8c-1.8-0.7-3.5-1.5-5.3-2.2c-0.8-0.3-1.5-0.5-2.3-0.9c-0.4-0.2-0.7-0.4-1.1-0.6c-0.1-0.1-0.2-0.3-0.1-0.5
		c0.1-0.1,0.3-0.2,0.4-0.2c0.2,0,0.5,0.2,0.6,0.1c0.9-0.3,1.8-0.2,2.7-0.2c0.5,0,0.9,0,1.4-0.1c1.1-0.3,2.2-0.3,3.3-0.3
		c0.1,0,0.3,0,0.4-0.1c0.8-0.4,1.7-0.3,2.6-0.3c1.5,0,3,0,4.5-0.2C167.6,64.7,167.7,64.6,167.8,64.6"/>
	<path class="st0" d="M175.1,43.6c-0.3,0.1-0.5,0.2-0.7,0.4c-0.9-0.4-1.6-0.9-2.6-0.9c-0.1,0-0.2,0-0.3-0.1
		c-0.5-0.2-1.1-0.5-1.6-0.8c-0.5-0.2-1.1-0.3-1.7-0.5c-0.6-0.3-1.3-0.6-2-0.9c-0.4-0.2-0.8-0.4-1.3-0.6c-0.3-0.1-0.6-0.3-0.9-0.4
		c-0.7-0.1-1.2-0.4-1.7-0.8c0-0.3,0.1-0.4,0.3-0.6c1.6-0.9,3.4-1.5,5.2-1.6c0.8,0,1.5-0.3,2.3,0.1c0.1,0.1,0.3-0.1,0.5-0.1
		c0.3-0.1,0.6-0.2,0.9,0c0.3,0.2,0.7,0.2,1.1,0.2c0.6-0.1,1.1,0.1,1.6,0.2c0.5,0.1,0.7,0.7,1.2,0.4c0.4,0.2,0.7,0.3,1.1,0.5
		c0.2,0.1,0.3,0.3,0.3,0.6c0,0.2,0,0.5-0.1,0.7c-0.4,1-0.8,2-1.3,3C175.4,42.9,175.2,43.2,175.1,43.6"/>
	<path class="st0" d="M439.9,83.8c-0.8-0.1-1.4-0.2-2-0.3c-1-0.1-1.9-0.3-2.6-1c-0.1-0.1-0.3-0.2-0.5-0.1c-0.1,0-0.3,0-0.4-0.1
		c-0.8-0.8-1.9-1.3-2.9-1.9c-1-0.6-2.1-1.1-3.2-1.6c-0.2-0.1-0.3-0.2-0.5-0.2c-1.1,0-1.9-0.6-2.5-1.5c0,0-0.1-0.1-0.1-0.1
		c0.1-0.4,0.3-0.7,0.8-0.6c0.8,0.1,1.5-0.3,2.3-0.1c0.7-0.3,1.5-0.1,2.2-0.3c0.7-0.1,1.3-0.1,1.9,0c0.5,0.1,1.1,0.4,1.6,0.2
		c0.1,0,0.2,0.1,0.4,0.2c0.2,0.1,0.4,0.2,0.6,0.3c1.1,0.4,2,1.1,2.7,2c0.1,0.1,0.3,0.3,0.4,0.4c0.5,1.2,1.2,2.1,1.9,3.2
		C440.1,82.9,440.1,83.3,439.9,83.8"/>
	<path class="st0" d="M162.2,41.6c0.4,0.2,0.9,0.3,1.3,0.6c0.4,0.4,1,0.4,1.4,0.7c0.4,0.4,0.9,0.5,1.4,0.6c0.1,0,0.2,0.1,0.3,0.2
		c1,0.8,2.2,1.4,3.3,1.9c0.4,0.2,0.7,0.4,1.1,0.6c0.4,0.3,0.5,0.7,1,0.9c0.5,0.6,0.7,1.2,0.4,1.9c-0.1,0.3-0.3,0.6-0.4,0.9
		c-0.6,1-1.5,1.2-2.5,1.1c-0.5-0.1-1.1-0.1-1.5-0.7c-1.5-0.7-2.4-2.1-3.4-3.3c-0.3-0.3-0.5-0.6-0.8-0.9c-0.3-0.3-0.6-0.6-0.7-1
		c0-0.1-0.1-0.2-0.1-0.2c-0.8-0.5-0.8-1.4-1.1-2.2C161.7,42.4,161.7,42,162.2,41.6"/>
	<path class="st0" d="M424.2,145.5c-0.3,0.3-0.7,0.3-1,0.1c-1-0.6-2.1-1-3-1.7c-1-0.7-2.1-0.9-3.2-1.2c-1.1-0.3-2.2-0.3-3.2-0.6
		c-0.6,0.4-1.1-0.1-1.7-0.2c-0.2,0-0.4,0-0.5,0c-1.2,0.1-2.4,0.1-3.5,0.5c-0.4-0.2-0.8-0.4-1.2-0.6c-0.1-0.2-0.1-0.4-0.2-0.6
		c-0.1-0.3,0-0.5,0.3-0.7c0.2-0.1,0.4-0.3,0.6-0.3c0.6-0.1,1.3,0,1.8-0.4c0.6,0,1.2,0,1.8,0c0.6,0.1,1.3-0.1,1.9,0.1
		c0.6,0.2,1.2,0.2,1.7,0.4c0.3,0.1,0.6,0.1,1,0.1c1-0.1,1.9,0.2,2.8,0.6c1,0.5,2.1,1.1,3.1,1.8c0.4,0.3,0.8,0.5,1,0.9
		c0.3,0.3,0.6,0.6,0.9,0.8C424,144.7,424.1,145,424.2,145.5"/>
	<path class="st0" d="M232.9,118.5c-0.3-0.1-0.5-0.3-0.4-0.5c0.2-1,0.2-2.1,0.2-3.1c0-0.4,0.1-0.7,0.3-1.1c0.3-0.7,0.4-1.4,0.5-2.1
		c0.1-0.6,0.3-1.1,0.4-1.7c0-0.3,0-0.6,0.3-0.9c0.5-0.5,0.5-1.3,1-1.9c0.2,0,0.5,0,0.7,0.1c1,0.5,2,1.1,3,1.7c0.1,0,0.1,0.1,0.2,0.2
		c0.2,0.2,0.2,0.6,0,0.8c-0.1,0.1-0.2,0.2-0.3,0.3c-1.1,0.9-2.1,1.9-2.8,3.2c-0.2,0.4-0.6,0.8-0.9,1.2c-0.4,0.5-0.8,1.1-1,1.8
		C233.7,117.1,233.3,117.8,232.9,118.5"/>
	<path class="st0" d="M332.7,151.3c0-0.1,0-0.2,0-0.2c0.2-1.1,1-1.8,2.1-2.1c0.2-0.1,0.4-0.2,0.6-0.3c1.2-0.5,2.3-0.4,3.4,0.3
		c0.4,0.3,0.7,0.5,1,1c-0.2,0.4-0.3,0.9-0.5,1.3c-1.1,0.9-2.4,1-3.6,1.4c-0.2,0.1-0.5,0.1-0.7,0.1
		C333.4,152.8,333.2,152.7,332.7,151.3"/>
	<path class="st0" d="M331.8,144.1c0.3-0.4,0.7-0.8,1-1.1c0.9-0.2,1.8-0.4,2.6-0.6c0.3,0,0.5,0,0.8,0c0.4,0.1,0.8,0.3,1.3,0.5
		c0.1,0.3,0.2,0.6,0.2,0.9c-0.5,0.8-1.1,1.4-1.9,2c-0.2,0.2-1.4,0.2-1.9,0.1c-0.5-0.1-1-0.2-1.5-0.4
		C332.2,145.2,331.8,144.8,331.8,144.1"/>
	<path class="st0" d="M335.5,138.7c-0.2,0.2-0.5,0.3-0.7,0.6c-0.4,0.3-0.8,0.5-1.2,0.4c-0.4-0.1-0.7,0.3-1.1,0.1
		c-0.4-0.2-0.8-0.4-1.1-0.9c0.2-1.1,0.9-1.6,1.9-1.8c0.4-0.1,0.8-0.2,1.2-0.2C335.5,137,335.4,137.9,335.5,138.7"/>
	<path class="st0" d="M334.2,132.3c-0.3,1.2-1.4,1.3-2.2,1.7c-0.5-0.2-1-0.3-1.4-0.7c0.2-0.9,0.4-1.1,0.9-1.4
		c0.4-0.2,0.7-0.3,1.1-0.4c0.4-0.1,0.7,0,1,0.2C333.9,131.9,334,132,334.2,132.3"/>
	<path class="st0" d="M318.9,40.4c-0.5-0.6-0.8-1.1-0.8-1.7c0-0.2,0-0.4,0-0.7c0-0.2,0.1-0.5,0.1-0.7c-0.2-0.7,0-1.3,0.1-2
		c0.1-0.8,0.9-1.3,1.6-1c0.5,0.2,0.8,0.6,0.9,1.1c0.1,0.8,0.2,1.6,0.2,2.3c0,0.7-0.3,1.4-0.5,2.1c-0.1,0.3-0.4,0.5-0.8,0.5
		C319.4,40.4,319.2,40.4,318.9,40.4"/>
	<path class="st0" d="M305.8,33.1c1.1-0.3,1.9,0,2.6,0.7c0.3,0.5,0,1-0.3,1.4c-0.3,0.4-0.7,0.6-1.2,0.5c-0.9,0-1.7-1-1.4-1.9
		C305.5,33.5,305.7,33.3,305.8,33.1"/>
	<path class="st0" d="M334,34.1c-0.1,1-0.3,1.2-1.1,1.4c-0.2,0-0.4,0.1-0.7,0.1c-0.4,0-0.8-0.2-1.1-0.5c-0.4-0.5-0.5-1.1-0.4-1.8
		C332,32.6,333,33.2,334,34.1"/>
	<path class="st0" d="M296.5,32.3c0.1,0.5,0.1,1,0.2,1.6c-0.2,0.1-0.4,0.2-0.6,0.2c-0.6,0-1.2,0-1.8,0c-0.4,0-0.7-0.3-0.7-0.7
		c-0.1-0.4-0.2-0.7,0.1-1.1c0.5-0.2,1-0.3,1.6-0.1C295.6,32.2,296,32.2,296.5,32.3"/>
	<path class="st0" d="M200.7,14c1.3-0.3,2.7-0.2,3.6,0.9c0.7,0.9,1.3,2,0.4,3.9c-0.9,0.3-1.7-0.1-2.4-0.4c-0.9-0.4-1.7-0.9-2.6-1.3
		c-1.1-0.5-1.2-1.4-0.3-2.2C199.8,14.5,200.3,14.3,200.7,14"/>
	<path class="st0" d="M188.9,11.5c0.1-0.5,0.1-0.9,0.2-1.3c0.3-0.4,0.7-0.6,1.1-0.8c0.8-0.4,1.5-0.3,2.2,0.1
		c0.4,0.2,0.9,0.5,1.3,0.8c0.1,0.1,0.3,0.2,0.4,0.4c0.6,1,0.6,2.1,0.1,3.1c-1,0.2-1.8-0.1-2.6-0.5C190.6,12.7,189.6,12.4,188.9,11.5
		"/>
	<path class="st0" d="M239.6,77.2c0,0.5,0,0.9,0,1.3c0.1,0.4,0.2,0.8,0.3,1.2c0.2,0.6,0.6,1.2,1.2,1.5c0.5,0.2,0.9,0.5,1.4,0.6
		c0.5,0.1,1.1,0.2,1.6-0.1c0.7-0.5,1.4-0.9,2.1-1.3c0.1-0.1,0.3-0.3,0.3-0.4c0.3-0.6,0.7-1.1,0.9-1.7c0.1-0.3,0.2-0.7,0.2-1.1
		c0-0.5,0-1.1-0.1-1.6c-0.1-0.9-0.3-1.8-1-2.5c-0.2-0.2-0.4-0.5-0.6-0.8c-0.4-0.1-0.7-0.3-1.1-0.4c-0.1-0.7-0.4-1.4,0-2
		c-0.2-0.5,0.1-1.1,0.1-1.6c0-0.1-0.1-0.2-0.1-0.3c0.1-0.5,0.4-1,0.3-1.6c-0.1-0.5,0-1,0.1-1.5c0-0.6,0.4-0.7,0.9-0.6
		c1.5,0.4,2.8,1.1,3.9,2.2c0.1,0.1,0.3,0.2,0.3,0.3c0.4,1,1.2,1.8,1.5,2.8c0.3,0.9,0.6,1.7,0.6,2.7c-0.1,1.1-0.2,2.2-0.4,3.3
		c-0.1,0.5-0.2,1-0.4,1.4c-0.2,0.4-0.4,0.8-0.6,1.2c-0.3,0.6-0.6,1.2-0.8,1.9c-0.3,0.7-0.8,1.4-1.5,1.8c-0.5,0.3-0.7,0.9-1.4,1.1
		c-0.5,0.1-0.9,0.5-1.3,0.7c-0.2,0.1-0.3,0.1-0.5,0.2c-1.2,0.1-2.5,0.2-3.7,0c-0.7-0.1-1.4-0.3-2.1-0.7c-0.5-0.3-1-0.8-1.4-1.3
		c-0.1-0.1-0.2-0.2-0.2-0.3c-0.1-0.7-0.3-1.5-0.3-2.2c0-0.6,0.3-1.3,0.4-1.9c0.1-0.2,0.2-0.4,0.4-0.5
		C239.1,76.9,239.4,77,239.6,77.2"/>
	<path class="st0" d="M250.3,55.4c0,0.1-0.1,0.2-0.1,0.3c0,1.2-0.6,2.1-1.1,3c-0.1,0.2-0.3,0.5-0.5,0.6c-0.6,0.5-1.3,0.9-2,1.1
		c-0.5,0.1-0.9-0.2-0.8-0.6c0.2-1,0.1-2.1,0.2-3.1c0.1-0.8,0.2-1.6,0.2-2.4c0-0.8,0.2-1.5,0.3-2.3c0-0.1,0.1-0.1,0.2-0.3
		c1.4,0.1,2.4,0.8,3,2.2C249.9,54.4,250,54.8,250.3,55.4"/>
	<path class="st0" d="M245.1,74.2c0.2,0.2,0.3,0.2,0.3,0.3c0.5,0.9,0.3,2.5-0.4,3.2c-0.2,0.2-0.6,0.3-0.9,0.2
		c-0.2-0.1-0.4-0.2-0.4-0.5C243.8,76.2,244,75,245.1,74.2"/>
</g>
<g>
	<path class="st0" d="M76.3,315.6c-3.3-4.5-8.9-6.7-11.7-7.2c-0.6,0-0.6-1.1,0-1.1c2.8-2.8,12.2-12.2,12.2-25.6
		c0-15.6-4.5-21.7-4.5-21.7c-8.9-12.2-19.5-12.2-19.5-12.2H0v3.9c1.1,0,11.7,0.6,11.7,12.8v90.2c0,10-11.7,11.1-11.7,11.1v5h59
		c1.7,0,3.9-0.6,5.6-1.1h0.6c3.9-1.7,7.2-3.9,10.6-7.2c3.3-3.9,7.2-13.9,7.2-23.9C83,326.2,80.2,320.6,76.3,315.6 M30.6,260.5
		c0-4.5,6.1-5,6.1-5h3.3c6.1,0,12.8,3.9,15.6,9.5c2.8,7.8,2.8,17.3,2.2,23.4c-0.6,4.5-2.2,8.9-5,12.8c-1.1,1.7-2.8,2.8-3.9,3.3
		c-1.7,1.1-3.3,1.1-5,1.1h-6.7c-2.2,0-3.9-1.1-5.6-2.8l0,0c-0.6-1.1-1.1-1.7-1.1-2.8V260.5z M62.9,349c-2.2,7.8-8.4,14.5-15,14.5
		H36.7c-2.2,0-3.3-1.7-5-3.3l0,0c-0.6-1.1-1.1-1.7-1.1-2.8v-39.5c0-4.5,6.1-5,6.1-5h10.6c6.1,0,11.7,3.9,13.9,9.5
		C65.1,330.1,64.6,342.9,62.9,349"/>
	<path class="st0" d="M154.8,365.7v4.5h-22.3c-1.1,0-1.7-1.1-1.7-1.7V364c-2.2,1.7-5.6,3.9-10.6,5c-2.8,0.6-6.1,1.1-9.5,1.1
		c-14.5,0-14.5-16.1-14.5-16.1v-44c0-1.1-0.6-2.8-1.1-3.9c-1.1-1.7-3.9-2.8-7.2-2.8V300l25.1-3.3v55.7c0,3.9,3.3,6.7,6.1,6.7
		c3.9,0,8.9-3.3,11.7-5.6V310c0-1.1-0.6-2.8-1.1-3.9c-1.1-1.7-3.9-2.8-7.2-2.8V300l25.1-3.3v58.5c0,2.2,0.6,3.9,1.7,6.1
		C149.8,363.5,151.4,365.7,154.8,365.7"/>
	<path class="st0" d="M212.1,307.8l-0.6,6.7c0,2.2-1.1,5-3.3,6.1l-6.1,4.5c-1.1,0.6-2.2,0-2.2-1.1s0-2.2,0-3.3c0-2.2,0-4.5-0.6-6.7
		c-0.6-1.7-1.7-3.3-3.3-3.9c-2.2-1.1-4.5,0-6.1,1.7c-0.6,0.6-1.7,1.1-2.2,2.2c-0.6,0.6-1.1,1.1-1.7,1.7v41.2c0,2.2,1.1,5,2.2,6.7
		c1.7,2.2,5.6,3.3,8.9,3.3v4.5h-35.6v-4.5c3.3,0,5-2.2,6.1-3.9c1.1-1.7,1.7-3.9,1.7-6.1v-45.7c0-1.1-0.6-2.2-1.1-2.8
		c-1.1-1.7-3.9-2.8-7.2-2.8v-3.9l8.4-1.1l16.7-2.2v8.9l9.5-7.2c0,0,3.3-3.3,7.8-3.3C208.2,296.1,212.1,300.6,212.1,307.8"/>
	<path class="st0" d="M252.8,297.2c-7.8,0-12.8,3.9-15.6,6.7v-53.4l-25.1,3.3v3.9c3.9,0,6.1,1.7,7.2,2.8c0.6,1.1,1.1,2.2,1.1,3.9
		V369h3.3c0,0,2.8-4.5,8.4-1.1c6.1,3.9,11.7,3.9,15.6,4.5c12.2,1.1,30.1-7.2,30.1-38.4C277.8,306.1,264.4,297.2,252.8,297.2
		 M260.5,339.5c0,16.7-4.5,23.9-11.7,24.5h-2.8c-5,0-9.5-5-9.5-13.9v-23.9c0-11.1,5.6-19.5,11.1-19.5h1.1c5.6,0,11.7,6.7,11.7,21.2
		V339.5z"/>
	<path class="st0" d="M397.5,307.8l-0.6,6.7c0,2.2-1.1,5-3.3,6.1l-6.1,4.5c-1.1,0.6-2.2,0-2.2-1.1s0-2.2,0-3.3c0-2.2,0-4.5-0.6-6.7
		c-0.6-1.7-1.7-3.3-3.3-3.9c-2.2-1.1-4.5,0-6.1,1.7c-0.6,0.6-1.7,1.1-2.2,2.2c-0.6,0.6-1.1,1.1-1.7,1.7v41.2c0,2.2,1.1,5,2.2,6.7
		c1.7,2.2,5.6,3.3,8.9,3.3v4.5h-35.6v-4.5c3.3,0,5-2.2,6.1-3.9c1.1-1.7,1.7-3.9,1.7-6.1v-45.7c0-1.1-0.6-2.2-1.1-2.8
		c-1.1-1.7-3.9-2.8-7.2-2.8v-3.9l8.4-1.1l16.7-2.2v8.9l9.5-7.2c0,0,3.3-3.3,7.8-3.3C393.6,296.1,397.5,300.6,397.5,307.8"/>
	<path class="st0" d="M455.4,307.8l-0.6,6.7c0,2.2-1.1,5-3.3,6.1l-6.1,4.5c-1.1,0.6-2.2,0-2.2-1.1s0-2.2,0-3.3c0-2.2,0-4.5-0.6-6.7
		c-0.6-1.7-1.7-3.3-3.3-3.9c-2.2-1.1-4.5,0-6.1,1.7c-0.6,0.6-1.7,1.1-2.2,2.2c-0.6,0.6-1.1,1.1-1.7,1.7v41.2c0,2.2,1.1,5,2.2,6.7
		c1.7,2.2,5.6,3.3,8.9,3.3v4.5h-35.6v-4.5c3.3,0,5-2.2,6.1-3.9c1.1-1.7,1.7-3.9,1.7-6.1v-45.7c0-1.1-0.6-2.2-1.1-2.8
		c-1.1-1.7-3.9-2.8-7.2-2.8v-3.9l8.4-1.1l16.7-2.2v8.9l9.5-7.2c0,0,3.3-3.3,7.8-3.3C451.5,296.1,455.4,300.6,455.4,307.8"/>
	<path class="st0" d="M340.2,325.6c-1.1-11.7-7.2-23.4-18.4-27.8c-10.6-3.9-21.7,3.3-27.8,11.7c-7.2,10-7.8,23.4-5.6,35.6
		c0.6,4.5,2.2,8.9,4.5,12.8c3.3,5.6,7.8,10.6,14.5,12.8c6.1,2.2,13.4,2.2,19.5-0.6c2.8-1.1,5.6-3.3,7.8-6.1c1.1-1.1,2.2-2.2,2.8-3.9
		c0-0.6,0.6-0.6,0.6-1.1v-0.6v-3.9c0-0.6-0.6-1.1-1.1-1.1s-1.1,0-1.1,0.6c-1.1,1.1-3.3,3.9-7.2,6.1c-1.7,1.1-3.3,1.7-5.6,1.7
		c-13.9,1.1-17.8-15-18.4-25.6h33.4c1.1,0,2.2-1.1,2.2-2.2C340.2,330.6,340.2,326.7,340.2,325.6 M305.1,326.7
		c0-3.9,0.6-7.2,1.1-11.1c1.1-5,3.3-10,8.4-10.6c7.2-1.1,9.5,8.9,9.5,13.4v7.2c0,0.6-0.6,1.1-1.1,1.1H305.1z"/>
	<path class="st0" d="M504.4,298.3v3.3c0,0,5.6,1.1,7.2,6.7c0,0,1.7,5.6-0.6,11.1l-11.1,30.1l-10-30.1c-2.2-5.6-0.6-11.1-0.6-11.1
		c1.7-5.6,7.2-6.7,7.2-6.7v-3.3h-34.5v3.3c0,0,5.6,0.6,6.7,5l21.7,67.4c-0.6,3.9-3.3,13.9-8.9,16.1c0,0-5,1.1-7.8-0.6
		c-2.2-1.7-3.3-5.6-3.3-7.8c0-2.8,0.6-5.6,1.7-8.4c0-0.6,0-0.6,0-1.1l0,0v-0.6c0-0.6-0.6-1.1-1.1-1.1h-0.6c0,0,0,0-0.6,0
		c-1.1,0.6-10.6,5-10.6,15.6c0,13.9,8.4,16.7,11.7,16.7c6.7,0,13.4,0.6,25.1-29.5l23.9-65.7c1.7-5,8.4-6.1,8.4-6.1v-3.3L504.4,298.3
		z"/>
	<path class="st0" d="M573.4,335.1c-2.8-3.3-6.7-6.1-15-11.1c-7.2-4.5-11.1-6.1-12.2-10c-0.6-2.8-0.6-6.1,1.7-8.4
		c2.8-2.8,6.7-2.8,8.4-2.2c5.6,0.6,8.9,3.9,10,5c4.5,5,4.5,11.1,4.5,12.8h3.3V300h-3.9c0,0,0,1.7-1.1,2.2c-0.6,0-1.1,0-1.1,0
		c-1.1-0.6-1.7-0.6-2.8-1.1c-4.5-2.8-8.9-2.8-10-2.8c-1.7,0-6.1-0.6-10.6,2.2c-6.7,3.3-9.5,9.5-10,11.7c-0.6,1.1-3.3,8.9,0.6,17.3
		c2.8,6.1,8.4,9.5,12.2,11.7c1.1,0.6,7.2,3.9,13.4,7.8c1.1,0.6,2.8,1.7,3.9,3.9c1.7,2.8,1.1,6.1,1.1,7.2c0,1.1-0.6,4.5-3.9,6.7
		c-2.8,2.2-5.6,1.7-7.2,1.7c-4.5,0-7.8-2.2-8.9-2.8c-3.9-2.2-5.6-5.6-7.2-9.5c-1.7-3.3-2.8-6.7-3.9-8.9h-3.3v22.8h3.9
		c0,0,0-1.7,1.1-2.2c0.6,0,1.1,0,1.1,0c1.1,0.6,1.1,0.6,2.2,1.1c1.7,1.1,5,3.3,9.5,4.5c2.2,0.6,10,1.7,17.8-2.8
		c1.1-0.6,8.4-5.6,10.6-14.5C579.6,344.5,574,336.7,573.4,335.1"/>
</g>
</svg>
