<svg enable-background="new 0 0 170.1 132.9" viewBox="0 0 170.1 132.9" xmlns="http://www.w3.org/2000/svg"><path d="m59.4 44.9c-.1 0-.2-.1-.4-.1l1.2-3.4c.9.3 1.4 1.1 1.2 2-.1 1.1-.9 1.7-2 1.5zm5.6-14.2c-.7-.1-.9 0-1.1.6l-1 2.8c.4.5.9.9 1.4 1 1.3.2 2.2-.8 2.4-1.9.1-.6 0-1.1-.2-1.5-.3-.6-.8-.9-1.5-1zm-2.5 4.4-2 5.6c1.5.5 2.3 1.9 2.1 3.3-.2 1-.6 1.7-1.3 2.2-.6.5-1.4.6-2.3.5-1.2-.2-2.1-.8-2.6-1.6l-.1-.2.3-.1c.5-.1.9-.5 1.1-1.2l.8-2.3c-1.9.4-2.8 2.1-3.1 3.5-.4 2.5 1.2 4 3.1 4.3 1.2.2 2.3 0 3.3-.7 1.9-1.3 3-4 3.3-5.9.6-3.4-.3-5.9-2.6-7.4zm13.2-5.6c-.3 1.2-1.4 5.7-4.9 13.3-5.8 12.5-14.5 16-14.5 16s-.3.1-.7 0c-.3-.1-.5-.4-.5-.4s-1.8-2.7-2.9-8.8c-.7-4-.6-8.6-.6-8.6.6-.3 3.6-2 4.5-2.7 1-.8 1.5-2.3.6-3.6-.7-1-1.7-1-2.4-.6 0 0 0 0-.1 0-.7.3-1.3.7-1.3.7s-.2.1-.4.1c-.1 0-.1-.1-.1-.1l1.4-6.7s1.5-2.2 8.6-2c4.9.1 11.5 2.4 13 3 .1.1.1.1.2.2s.1.2.1.2zm-10.8.1c-.4-.1-.8-.1-1.2-.1-2.1-.1-4.4.6-4.8 2.6-.1.8 0 1.4.5 1.7h.1.1c.5 0 1.2-.4 1.3-1.1 0-.1 0-.2 0-.3v-.2l-.2.1h-.1c-.1-.1-.1-.3 0-.5.2-.9 1.1-1.3 1.4-1.2.2 0 .2.1.2.3 0 .1-.1.2-.1.3v.1s-2.8 7.9-3.2 9c-2.5-.1-4.5 1.4-5 3.8-.2 1.2.1 2.5.8 3.5.8 1.2 2.2 2.1 3.7 2.3 1.7.3 3.5-.1 5-1.2 1.8-1.3 3.1-3.3 3.5-5.5.5-2.9 0-5-1.7-7 0-.1 0-.1 0-.1h.1c1.3.1 2.8-.6 3.1-2.4.3-2.2-.9-3.7-3.5-4.1zm-32.1-22.8c-.9-.2-1.4.2-1.6.6l2.5 1.8c.7-.2.9-.4 1-.8.1-.6-.7-1.4-1.9-1.6zm5.5 2.6c-1.4-.3-2.5-.2-3.8.3 1.3.9 6.5 4.6 6.5 4.6.4.3.6.4 1 .5.5.1.9 0 1.2-.2.2-.1.3-.3.4-.6.1-.5-.1-1.1-.5-1.7-.9-1.3-3-2.6-4.8-2.9zm24.3 1.1v.1c-.6.5-2 1.6-2.1 3 0 .3.1.6.2.8v.2c0 .1-.1.1-.2.1h-.8s-.1 0-.1.1-.1.1-.1.2c0 0 .2 1.3.1 1.6-.1.4-1.1 1.2-1.3 1.8-.1.3 0 .7 0 1 0 .1 0 .1-.1.2-.1 0-.1 0-.2 0-1.5-.9-6.3-3.4-10.7-2.8-6.1.8-8 2.8-8 2.8l-17.7-9.7c-.1-.1-.1-.2-.1-.3s.1-.2.2-.2c.7-.2 1.4-.4 2.5-1.3 1.6-1.3 8.9-7 20-5.1 9.6 1.6 16.5 5.7 18.3 6.9 0 .3.1.5.1.6zm-18 .3c-1-1.4-2.9-2.2-4.4-2.4-1.4-.3-3-.2-4.2 0 .1-.1.1-.3.2-.4.1-.3 0-.7-.3-1.1-.4-.6-1.1-1-1.9-1.1s-2.7-.3-3.7 1c0 0-.3.4-.3.4-.7.6-1.1 1.3-1.2 2-.3 1.6.8 3 2.4 3.3 1.2.2 1.6-.2 1.8-.7 0-.6-.6-1.2-1.2-1.3h-.1-.2v.2.1c0 .1-.1.3-.4.2-.6-.1-1.4-1-1.3-1.8 0-.1.1-.2.2-.3s.2-.1.4-.1.5.2.8.4c0 0 7.1 5 7.1 5 1 .6 1.2 1 1.3 1.2 0 .1-.1.2-.2.3 0 .1-.1.1-.1.2 0 .2 0 .3.1.4s.2.2.3.2h.1.1c.7-.5 1.5-.7 2.4-.9.4-.1.8-.2 1.1-.3.8-.3 1.6-.6 1.9-2.1 0-.8-.2-1.6-.7-2.4zm111.9 120.5s-.4.8-1 .9c-.7.1-1.3-.5-2.9-.9-1.2-.3-2.3-.1-2.9.2s-1.1.9-2.2 1.1c-1.5.2-2.6-2.2-3.1-2.9-.3-.4-.7-.8-1.2-1.1 0-.1-.1-.2-.1-.3s.1-.1.1-.2c0 0 1.6-.6.3-1.5-.9-.6-1 .7-2 .9s-3.3-2.4-3.3-2.4-1-3.8-2.7-8.1c-1.9-4.7-4-6.5-5.7-6.9-1.3-.4-9.4 2.3-17.3.8-9.2-1.8-12.2-5.3-13.3-6.8-.2-.3-.2-.4-.4-.5s-.5 0-.5 0l-2 .8s-.1 0-.2 0-.1-.1-.1-.1c-.1-.4-.7-1.8-1.6-2.8-.7-.8-1.7-1.6-2.4-2 0-.1-.1-.2-.1-.2 0-.1.1-.2.2-.2.4 0 .6 0 1.2.2 1.2.4 1.9 1 1.9 1s1.1-1 3.6-.6c3.6.7 5.4 3.5 6 4.3 0 0 .1.1.2.1h.2c.6-.5 2.3-2.1 4.8-2 2.8.2 4.2 1.1 4.7 1.6h.2c.1 0 .2-.1.2-.1.4-1 1.5-3.4 4.5-3.8 1.7-.3 3 .5 3 .5s-.4.4.8 1.5c1.2 1 2.8.6 4.2.9 1.4.2 1.9 1 3.9 1 1.8.1 2.4-.7 3.7-.1.6.3.7 1.3 1.2 1.9s1.4.8 1.4.8-.1 2.3 1.8 6.6 3.6 7.1 3.6 7.1l1.3.7 2.1 2.2-.2 1.5s-.5 0-.8.5c-.4.8.3 1.3 1 1.3.6 0 1-1.3 1.2-1.8 0 0 .1-.1.1-.1h.1c.2.1.6.2 1.1.2.6 0 1.7-.7 1.7-.7s2.2 1.1 4.1 3.3c1.4 1.9 1.6 4.2 1.6 4.2zm-1.4-1.1c-.1-.4-.5-1.4-1.4-2.7-.5-.8-1.1-1.3-1.6-1.7-.1 0-.1 0-.2.1 0 .1-.1.1-.1.2.3.4.7 1 1 1.5.7 1.4 1.1 2.7 1.1 2.7l.9.1c.1 0 .1 0 .1-.1.2 0 .2 0 .2-.1zm-101.1-39.4-1.5 2s-2.8-.5-4.1-.6c-1.8-.1-5.3 0-5.3 0l-4.9 1.6c-.1.1-.1.1-.1.2s.1.3.2.3l2.4.6s.1.6-1.2 1c-1.3.3-7.7-1.2-7.7-1.2s-1.5.9-4.1.9c-2.6-.1-10.2-2.7-10.2-2.7s-1-.5-1.3-.1c-.6.6.1 1.5.1 1.5l4.6 5.7 2.2.6s2.4 1.9 2.3 2.3-1.2.1-1.2.4.2.8.5 1c.8.5 2.1-.3 2.2-.5.2-.2-.8-.9-.6-1.3.2-.3 3.4-.5 3.4-.5s2.6 1.3 4.2 2.8c1 1 1.5 2.7 1.7 3.7s.1.5-.1.8c-.1.1-.2.2-.3.2l-2.7.1s-1.4.6-1.8.3c-.3-.2-.2-2-.5-2.5-.2-.3-.4-.5-.7-.6-.1 0-.1-.1-.3 0-.1.1-.1.2-.1.2.2.9.6 2.6-.1 3.3-.9.9-2.9-1-2.9-1s-2.1-.9-2.2-1.1c-.1-.4.7-.7.6-1.2 0-.4-.6-.5-.6-.5s-1.4 1.3-2.1 1.2c-.4 0-3.7-2-3.7-2s-5.3-8.1-6.2-9.6-2.7-2-2.7-2-.6-1.9-1.2-2.9 2-4.9 2.6-5.4c.7-.5 4.8.1 4.8.1l8.8-.8 5.6-.7 3.2 1.8h.3c.1-.1.2-.2.2-.3.1-.9-.5-2.4-2.6-2.9-1.6-.3-14.3 1.5-14.3 1.5l-.4-.9s5.8-4.1 8.3-3.8 3.3 1.7 3.5 2.3h.3c.8-.5 3.1-1.8 5.1-.9 2.2 1 2.8 2.6 2.9 3.3 0 0 .1.1.1.1h.3c.9-.6 3.6-2 6.1-.9s3.8 4.7 3.8 4.7 3.1-1.1 5.3 0c1.6.9 2.1 2.4 2.1 2.4zm-39.4 3.3s-.3.8-.1 1.6c.3.8 3.8 4.7 4.2 5.1.4.3 1.6.4 1.6.4l-1.4-1.7-2.4-2.7zm18.7-2.1-1.7.2s-4.4.4-7.5-.1-6.1-2-7-2.1c-.9-.2-1.4 0-1.4 0l-.6.7s0 .3.9 0c1-.3 3.2 1.5 6.8 2.2 4.4.9 8.9.2 9.5.1.6 0 1-1 1-1zm-14.1 15.6-1.9-.9-3.7-5.9-3.5-4.8-1.1.5-.8-2.1s-1.6-3.2-1.7-3.7 1-2.3 1-2.3l1.8-3.5 1.7-.7 3.8.3c.1-.1.1-.2 0-.3l-.3-.8 1-1.7v-.1c-.1-.1-.2-.2-.3-.3l-3.6-.2s-3.5-1.1-4.4-1.1-2.6 2.5-2.6 2.5l-1.6 3.2 1.9 7 1.5 9.7s1.5 1.9 2.2 1.7c.2-.1.3-.5.3-.7 0 0 .1-.1.1-.1h.1l.9.1s1.2.8 1.2 1-.5.3-.5.5c0 .5 2.3 3.2 2.3 3.2s1 .9 1.8 1c.6.1 1-.6 1.3-.6.2 0 2.2.3 2.5.1.5-.2.6-.8.6-1zm127.5-23.2v.2c.4.3 1 .6 1.7.6 2.1 0 3.6-1.5 6.4-.4 2.2.9 3.4 3.6 4.2 4.3.6.6 1.4.6 1.8.6 0 0 .1.1.1.1v.1c-.3.3-.9.8-1.6.6-1.7-.5-2.3-2.3-4.9-3.3-2.2-.8-3.8 1.6-7.2.4-1-.3-2.1-1.3-2.8-2-.1 0-.1 0-.2 0 0 0-.1.1-.1.1.2.7.6 1.8 1.7 2.5 3.9 2.8 5.7-.7 9.3 1.4 2 1.2 1.7 3.2 3.2 4.4.7.6 1.4.8 1.9.8v.1.2c-.6.2-1.5.4-2.2.1-1.5-.6-2.2-2.7-4.5-3.1-1.5-.2-2.3.8-4.6 1-1.7.1-3.4-.4-4.1-.7-.1 0-.1 0-.1.1v.1c.2.5 1.2 1.5 2.5 1.7 2.6.3 3.4 2 3.7 2.8 0 0 0 .1-.1.1h-.1c-.4-.4-1.4-1.2-2.3-1.3-1.8-.3-2.4.1-4.1-.1-2.4-.2-5.7-1.9-8.4-5-4.2-4.8-2.4-11-7.4-12.9-2.6-1-4.6 0-4.6 0s-1-.3-2.1-1.3c-.8-.8-.7-1.6-.7-1.6s1.4.2 3.6-.5c1.1-.4 5.6-1.6 8.5-1.2 7 1.1 10 7.5 13.6 8.2 3.9.8 5.6-1.9 8.5-1 2.4.7 3 3.1 4.8 3.4.6.1 1 .1 1.3.1 0 0 .1.1.1.1v.1c-.4.3-1 .9-2 .9-1.5 0-3.4-2-5.3-2.5s-3.9 1-5.9 1.4c-.7.1-1.1.1-1.4 0-.1.3-.1.3-.2.4zm-11.4-8.3c.3.2.7.5 1.1.8 1.4 1.2 1.5 2.6 3.1 3.7.9.6 1.7 1 2.2 1.2 0 0 .1-.1.1-.1v-.1c-.3-.3-.7-.6-1.1-1-1.5-1.6-1.5-2.6-3.7-4-.7-.5-1.3-.7-1.7-.8 0 0-.1.1-.1.1.1.1.1.2.1.2zm7.4 15.8c0-.1 0-.1-.1-.2-.9-.3-2.7-.9-3.9-2.1-1.2-1.1-2.4-3.9-3.1-5.4 0 0-.1 0-.2 0h-.1c.3 1.4.8 3.9 1.8 5.2 2 2.6 4.4 2.7 5.5 2.5 0 .1.1 0 .1 0zm-38.5-74.9c0-.1 0-.1 0-.2-.2-.4-.7-1.1-1.4-.8l-.4.2c-.2-1.1.6-.7 1.3-1.9 1-1.7.4-3.6-1.1-4.2-1-.4-1.7.2-1.7.2s.5 1-.2 1.3c-.2.1-.2-.1-.4-.3-.3-.3-1.3-1.2-2.4-.5-.3.2-.5.4-.5.6v.1s0 .1.1.1c.3 0 1 .1 1.3.6s.3 1.5-.8 1.6c-1.9.2-3.7-1.9-4.8-3-3.7-3.4-6.2-2.3-6.9-1.9v.1.2c.1.2.5.6.1 1-.4.2-.9-.2-.9-.2-.1-.2-.4-.4-.8-.8-2.9-2.5-5.3-1.8-6.3-1.3v.1s0 .1.1.1c.4.1.6.1 1 .4.3.2.5.6.3.9-.2.2-.5.1-1.6-.3-1.4-.6-4.3-1.6-6.6-.3-1.2.7-1.8 1.5-2.1 2.2-.1.1-.1.1-.2.2h-.1c-5.1-1.1-6.3 1.5-6.5 1.9-.3.5-.6 1.4-.5 1.5.2.1 1.2.3 1.7.3.6 0 1.4-.2 1.6-.4.3-.2.9-1.3 1.2-1.5s2.1 0 2.5.6.5 1.9.5 1.9-1.8.5-2 1.5c-.2.7-.2 1.5-.1 1.9 0 .1.1.1.1.2 0 0 .1.1.2.1.4-.1 1.3-.2 2.9 1.2 2.5 2.1 4.9 2.9 5.6 3 0 0 .1 0 .1-.1v-.1c-.6-.6-1.8-1.8-2-2.8-.3-1.3.5-1.9 1-3.3.3-1 .4-3.8-4-5.3 0 0-.1-.1-.1-.1v-.1l.4-.7s1.6-.9 4.1.1c3 1.1 4.2 4.2 6.9 5.3h.1s.1 0 .1-.1l.4-1.4 2 .1s.1 0 .1-.1c0 0 0-.1 0-.2l-1.7-1.6s-.4-.4-.2-.8.7-.3.7-.3.9.1 1.5.6c1.3 1.1.5 2.3.5 2.3 1.5 1.5 3.7 1.3 4.8.1.6-.7.1-1.3-.2-1.6s0 0-.1 0c0 0 0 0-.1 0-.1-.1-.1-.1-.1-.2s0-.3.1-.3c.7-.6 1.5.1 1.9.8 3.7 7 10 5 10 5s-.1-.7.2-1.1c.4-.7 1-.5 1.4-.5zm-3.5 8.8h-1c.2.3.6.7.8 1.1l.2.3h1.1c.2 0 .4-.1.5-.2s.1-.2.1-.4-.1-.3-.2-.4c-.4-.3-1.1-.4-1.5-.4zm-12.5-.8c-.3-.1-.6-.1-1.1-.2l1 1.7c.3.1.9.2 1.2.2.2 0 .4 0 .5-.1s.1-.2.1-.3c.1-.7-1.1-1.1-1.7-1.3zm5.9.8c-.2 0-.3 0-.4.1s-.1.2-.1.3c.1 1.2 2.4 3.4 3.4 3.6.4 0 .5 0 .6-.1 0 0 .1-.2.1-.3-.1-1.3-2.3-3.5-3.6-3.6zm-12-1.7c-.1 0-.1 0 0 0zm66.5 17.1c0 .1 0 .1-.1.2-.6-.1-1.5-.2-2.5-.3-1.7-.1-4.9.3-10.6-.6-5.7-.8-9.1-4.1-12-5.3-4.8-1.9-18.3-1.7-24.9-1.5-12.3.4-17.7-3.3-17.9-4.6-.6-3.5-3.4-4.7-3.4-4.7s0-.3.7-.3.6.1.7-.5c0-.8-1.3-.7-2.4-2.2-.8-1.2-.7-1.9-.2-2.7.3-.5.4-1.3.4-1.7 0-.1.1-.1.1-.2h.2c1.5.8 7.4 3.9 15.4 4.5 4.4.3 14.3 0 16.9.3 11.6 1.3 23.7 12.8 27.5 15.1 3.3 1.9 8.2 2.9 9.7 3.4.9.3 1.7.7 2.2 1 .2 0 .2.1.2.1zm-63.4-12.4c-.2-.2-.3-.4-.6-.7-.6-.8-1.2-1.7-1.8-2.6.3.1.4.2.8.3.5.1 1.2-.1 1.2-.8 0-1.6-2.2-2.9-4-3.9-1.1-.6-2.1-1.1-3-1.7h-.1s0 .1-.1.1c.2.4.5 1 1.2 1.9 1.3 2 2.6 3.9 4 5.7.1.1.3.4.4.7.5.4 1.1.7 1.8 1h.1c0 .1 0 0 .1 0zm8.9 1.7c-.3-.1-.7-.4-.9-.6-.8-.7-1.5-1.4-2.3-2.1.4-.3.6-.6.6-1.2.1-1.7-2.1-2.5-3.4-2.7-.8-.2-1.5-.3-2.9-.7 0 0-.1 0-.2.1v.1c.3.5.9 1.7 2.3 4.1.4.7.8 1.4 1.2 2 .1.2.3.5.3.7.3.1 1.1.3 1.6.3h.1v-.1c-.2-.2-.4-.4-.6-.8-.4-.6-.7-1.1-1.1-1.7.3.1.6.1.9.2.6.7 1.3 1.3 1.9 2 .2.3.5.5.5.8.4 0 1.4.1 1.9.1 0-.4 0-.4.1-.5zm5-.9c0-1.2-.9-2.4-1.9-3.4-.8-.8-1.9-1.4-2.8-1.6-.2 0-.4-.1-.6-.1-.8 0-1.7.2-1.6 1.3.2 2.1 3 5 5.1 5.2 1.2.1 1.8-.4 1.8-1.4zm7.3.8c-.4-.2-.8-.5-.9-.6-.8-.6-1.5-1.2-2.3-1.7.3-.2.6-.7.6-1.2 0-1.5-1.7-2.1-3.1-2.1-.6 0-1.2 0-1.8.1-.4 0-.8 0-1.3 0v.1c.2.3.8 1.1 1.5 2 .4.6.7 1.1 1.1 1.7s.7 1.1 1.1 1.7c.2.3.2.4.2.4h1.5s0-.1 0-.2c0 0-.1-.1-.1-.2-.3-.4-.7-1-1-1.3-.2-.2-.3-.5-.5-.7h.8c.7.6 1.4 1.2 2.1 1.8.2.1.4.4.4.5.3 0 1.2-.1 1.8-.1-.2-.1-.1-.2-.1-.2zm1.9-3.4c-.2 0-.3-.1-.5-.1-1.7-.4-2.5-.5-2.4-1.2 0-.3.4-.5.9-.5.6 0 1 .4 1.3.7h.1.1c.2-.3.4-.6.7-.9-.2-.1-.3-.1-.4-.2-.3-.2-.8-.4-1.7-.5-1.1-.1-2.1.4-2.1 1.4 0 1.5 1.7 1.8 3.2 2.1.2 0 .4.1.6.1.9.2 2.4.5 2.3 1.3 0 .4-.4.6-.9.5-.7-.1-1.3-.5-1.6-.9h-.1-.1c-.2.3-.5.7-.7 1 .1 0 .3.1.4.2.5.3 1.1.6 2.1.7.9.1 1.9-.3 2.1-1.3 0-1.6-2-2.1-3.3-2.4zm8.7 1.7c-.2-.2-.3-.4-.5-.6-.5-.7-1.3-1.6-1.8-2.2-.2-.2-.3-.4-.4-.6-.2-.1-1-.3-1.4-.3v.1c.5.5.9 1 1.5 1.8.5.7 1.1 1.3 1.6 2 .6.8.2 1.2-.4 1.1s-1.2-.2-2.4-1.9c-.2-.3-.5-.6-.7-1-.4-.5-.9-1.1-1.4-1.8-.2-.2-.3-.5-.4-.7-.3-.1-1.2-.2-1.7-.2v.1c.9.9 1.2 1.3 2.4 2.8.2.3.5.7.7 1 1 1.3 1.8 2.4 3.8 2.6 1.2.5 2.5-.4 1.1-2.2zm9.7 6.7c-.3-.6-1.2-2-3.6-5.7-.5-.7-.7-1.1-1.1-1.7-.3-.2-1-.6-1.4-.8h-.1v.1c.2.4.2.6.3 1s.2.8.3 1.1h-.1c-.9-.9-1.9-1.8-2.8-2.6-.5-.4-.6-.6-.7-.8-.3-.1-1.2-.4-1.8-.6h-.1v.1c.6.6.8.9 1.7 2 .6.8 1.2 1.6 1.8 2.4s1.1 1.5 1.3 1.9c.4.1 1 .4 1.5.7h.1v-.1c-.2-.4-.4-.6-.9-1.3-.2-.3-1-1.5-1.2-1.8 0 0 0-.1.1-.1s2.8 2.7 2.8 2.7h.1s0-.1.1-.1l-.5-2s0 0 .1-.1c.5.7 1.3 1.9 1.7 2.6.5.8 1.3 2.1 1.3 2.1.4.2.8.5 1.3.9-.3.2-.3.2-.2.1 0 .1 0 .1 0 0zm-43.5-11s.1-.1.1-.2c0-.5-.9-1.3-2.6-2.1l1.4 2c.2.1.5.3.7.3.2.1.3.1.4 0zm29.3 59.1s-1 .5-1.4.7c-2.3 1.3-3.1 2.4-3.8 3.1 0 .7.1 1.1.1 1.7v1.5 1.5s.1.1.1.1h.1s1.4-1.4 3-2.3c1.6-1 2.9-1.4 2.9-1.4s-.2-1.5-.4-2.6c-.2-1-.6-2.3-.6-2.3zm-23.6 2.8c-.4.9-.6 1.4-1 2.2 1.2.3 3.9 1.1 7.6 2.9h.1s.1-.1.1-.1.2-.7.5-1.8c.3-1.2.7-3.2.7-3.2-3.8-2.1-6.4-2.9-6.8-3-.2.8-1.2 3-1.2 3zm25 6c-.1-.8-.1-1.3-.2-2.1-.5.2-1.1.4-1.6.7-2.9 1.5-4.1 3-4.7 3.5 0 0 0 .9-.1 1.7s-.2 2.2-.2 2.2.1.1.1.1h.1c1-.6 2.2-1.5 4.7-2.5.7-.3 1.3-.5 2-.7 0-.7-.1-1.1-.1-1.8zm-16.5-13.3c-3-1.9-5.2-2.7-5.8-2.9-.1.9-.2 1.5-.4 2.4l-.2.9c-.2.9-.4 1.6-.7 2.5.9.2 3.3.9 6.5 2.7h.1c.1 0 .1-.1.1-.1s.1-.7.3-2.2c.2-1.4.1-2.9.1-3.3zm15.7 2.1c.1.3.2.5.3.5 1.9-.6 3.4-.6 4.1-.7-1.3-3.7-2.7-5.1-3.3-6 0 0-.1-.1-.1-.1-1.3-.9-2.7-1.6-5.2-2.3-.1 0-.1 0-.2.1s-.1.2-.1.3c1.3 1.6 2.9 3.8 4.5 8.2zm-7.4 15c.1-.8.1-1.6.1-1.6-.9-1.2-2.7-3.8-5.7-6.2-.7-.5-1.7-1.2-1.7-1.2s-.2 1.3-.5 2.4c-.2 1-.6 2.6-.6 2.6.5.3 1 .5 1.5.8 3.9 2.3 5.6 4.5 6.4 5.4h.1.1s.2-1.4.3-2.2zm.1-7.3c0-.7-.1-1-.1-1.8-.8-1.2-2.4-3.6-5.1-6-.5-.4-1.3-1.1-1.3-1.1h-.1c-.1.1-.2.1-.2.2 0 .8 0 1.1-.1 1.8l-.1 1.3c-.1.8-.2 1.4-.3 2.1 0 0 .7.5 1.5 1.1 2.6 1.9 4.7 4.6 5.6 5.7h.1s.1 0 .1-.1c0-.6 0-.9 0-1.5zm19 .1c-.7-4.4-2.1-7-2.1-7s-.9-.1-1.5-.5c-1.7-1.1-2.9-3.2-2.9-3.2-.1 0-.1 0-.2 0-.1.1-.2.2-.2.3.8 1.6 1.3 2.9 2 5.6 1.6 5.5 1.9 11 1.9 13.3 0 0 0 0 .1.1h.2c.4-.5.7-1.2 1.4-1.4.9-.3 1.8 0 1.8 0s.1-3.7-.5-7.2zm-31 9.2c.1 0 .1-.1 0 0 .5-1.1 1-2.7 1.7-5-4.4-2.2-7.6-2.9-8.1-3-1 2.1-2 3.5-2.7 4.7 0 .1 0 .2.1.2 0 0 .1.1.1.1 1.1-.3 2.5-.4 4.8.2 2.1.6 3.5 2 4.1 2.9 0-.1 0-.1 0-.1zm-2.1-23.3c.8.2 2.7.8 5.5 2.4h.1c.1 0 .1-.1.1-.1-.3-4.5-1.4-6.4-1.9-7.2-1.4-.1-2.5-.1-3.8-.2-.1 0-.1 0-.2.1 0 .1-.1.1-.1.2.2.7.4 1.6.2 4.3.1.2.1.3.1.5zm28.2 16.7c-.1-.8-.2-1.4-.4-2.2-.9 0-2.5.1-4.6.7.1.8.2 1.4.2 2.1l.1 1c0 .8.1 1.2.1 1.9 2.3-.4 4.2-.5 4.9-.5 0-.7-.1-1.2-.2-2.1zm-29.9-21.7c-2.2 0-3.5 0-3.5 0s-1.7 4.7-4.3 10c-1.8 3.6-5.5 10.7-6.5 12.4 0 .1 0 .1.1.2 0 0 .1.1.1.1.8-.3 2.7-.7 4.5.4 1.2.7 1.6 1.6 1.9 2.2h.1c.1 0 .1 0 .2-.1 2.1-3.1 6.9-11.2 7.6-20.2.3-3.6 0-4.5-.2-5zm30.3 26.2c-.9 0-2.7.1-4.9.5v3.6s0 .1.1.1h.2c.6-.8 1.5-1.7 3-2 .9-.2 1.4-.1 1.8 0-.1-.5-.2-1.1-.2-2.2zm-6.4 5.3c.1 0 .1-.1.1-.2 0-1.1.1-2.4 0-4.4-.7.2-1.2.4-1.8.6-3.2 1.2-4.9 2.5-5.6 2.9-.1.4-.1.4-.2.7 0 0 0 .1.1.1h.1c.8-.4 1.6-.7 3.3-.7 2 0 3 .5 3.7.9.2.1.3.1.3.1zm-9.3.2s.1 0 .1-.1c.1-.4.2-.7.3-1.3-.9-1.1-2.7-3.3-6.5-5.5-.6-.4-.9-.7-1.5-1-.5 1.8-.9 3.1-1.2 4.1 0 0 0 .1.1.1 0 .1.1.1.2.1 1-.3 1.9-.4 3.9.2 2.4.7 3.9 2.5 4.5 3.4zm7.3-20.3c-2.2-6-4.9-8.6-5.8-9.6-1.3-.3-2-.7-3.5-.9 0 0-.1.1-.1.1v.2c1 1.3 2.6 3.9 3.9 9.9.4 1.7.6 2.7.8 4.3 0 0 .1.1.1.1h.1c.8-.7 1.6-1.6 3.6-2.7.4-.2.7-.5 1.2-.6-.2-.4-.2-.4-.3-.8zm-6.5 2.9s.1 0 .1-.1c-.2-1.2-.4-1.8-.6-3.1-1.4-6.8-3.7-9.5-4.5-10.5-.3 0-.5-.1-.8-.1-.8-.1-1.2-.2-2.1-.3-.1 0-.1.1-.2.1v.2c.5.9 1.3 2.5 1.6 5.9.1.6.1 1.1.1 1.7 0 0 .8.5 1.5 1.1 2.2 2 3.9 3.9 4.9 5.1-.1 0-.1 0 0 0zm9.2 2.1c.2 1.1.4 2 .4 2s1.4-.3 2.3-.4 2.1-.2 2.1-.2-.3-1.3-.7-2.8c-.3-1.3-.7-2.2-.7-2.2s-1.1 0-2.1.1c-1 .2-1.9.5-1.9.5s.3 1.6.6 3zm-24-18s-1.1-.5-1.3-.7-.6-1-.7-1.1c-.2-.1-.7 0-.7 0l-.9 1.9c0 .1 0 .2.1.2 0 0 .1.1.2.1h3.3c0-.1.1-.1.1-.2-.1-.1-.1-.2-.1-.2zm9.1.1c-.4-.7-1.1-1.2-1.1-1.2s-.6-.1-.8.1-.6.6-.8.7-1.5.4-1.5.4v.1.2l4.2.4c.1.1.3-.2 0-.7zm-6.2-.5c1.5 0 3-.7 3-1.1.1-.4-1.4-1.3-3.1-1.3-1.7-.1-3.3.7-3.3 1 .1.3 1.2 1.5 3.4 1.4zm66.2-16.8c0-.1 0-.1 0-.2-.4-.2-1-.4-1.8-1-1.5-1.1-1.6-4.4-6.3-6.5-3.6-1.6-7.2-1.3-8.6-1 0 .1-.1.1-.1.2v.1c1 .3 3 1.1 4.4 2.3 1.8 1.5 4.2 4.3 6.5 5.6 1.8.9 4.5.7 5.8.5.1.1.1 0 .1 0zm10.4 6v-.1c-.4-.1-.9-.4-1.5-.7-1.1-.8-1.1-2.5-3.4-3.8-1.9-1.1-3.6-.5-5.2-.3-.3 0-.8.1-1.2.1-.1.1-.1.1-.1.2v.1c.7.2 1.5.6 2.1 1.1 1.2.9 1.6 2.1 3.8 3.3 1.9 1.1 4.3.7 5.3.4.1-.1.2-.2.2-.3zm-82.7-14.3c-1.1-1.5-1.1-3.2-2.4-5.2-.6-.9-1.1-1.3-1.5-1.7h-.1c-.1 0-.1.1-.1.1 0 .3.3 2.9.3 3.4 0 0-.7 2.8-.7 2.9v2.1c.1 0 .1.1.2.1s.2 0 .3-.1c0 0 .5-1.2 1.8-.9 1.7.3 2 2.1 2 2.1s.4.5 1.1.3c.6-.2.7-.9.7-.9-.5-.9-.6-.8-1.6-2.2zm-4.4-4.4s.1 0 0 0zm26.5 21.5s-17.7-10-21-12.2c-1.7-1.1-3-2.6-3-2.6s-.7.2-1.1.5c-.5.4-1 1-1.1 1.7-.1.8 0 1.3 0 1.3s1.8.4 2.6.8c.4.2 40.5 21.6 40.5 21.6s.4 0 .6-.4 0-.7 0-.7zm-48.9-42.2c-.3.6-1.1 1.6-1.2 1.8s.1.6.2.6c.2 0 .8-1 2.1-1.2s3.4.3 4.1.4c.1 0 .2 0 .1-.2-.1-.4-.3-1.3-.1-2.2.2-1.2 2.1-1.9 2.2-2s-.1-.5-.2-.6-.8-.4-1-.2c-.3.2 0 1-1.2 1.7-1.6.8-4.6.2-4.8.4-.1.2.2.9-.2 1.5zm8 4.2-.4-.2.2-.9s0-.1-.1-.1h-.1l-1.8.1s-1.9-.9-4.3-.8c-.9.1-1.3.6-1.3.6l-.5 1.3c0 .1 0 .1.1.1.1.1.1.1.2.1.4-.3.9-.6 1.4-.7 2.1-.4 3.7.2 4.1.3 0 0 .6 1 1.2.9.4 0 1.1-.4 1.4-.6v-.1c0 .1 0 0-.1 0zm-2.9 1.4-.7-.7s-2-.3-2.8-.1c-.9.2-1.7.9-1.3 1.5.3.5 2.6.2 2.6.2l.6.9h.1c.1 0 .1 0 .2-.1l.4-.8 1.1-.7s0-.1 0-.2c-.1.1-.1 0-.2 0zm8.2 23.6c.1 0 .1-.1.1-.2 0 0-.3-3.7-.5-4-.1-.2-.8-.2-.8-.2s-.7 1.7-1.2 2.7c-.2.4-.7 1.2-.7 1.2v.6s0 0 .1.1h.1c.3-.1.9-.4 1.3-.4.3.1 1.1.1 1.6.2-.1 0-.1 0 0 0zm13.8 11.5c-1.1 0-2 1.5-2 1.5s.5.5-.4 2.6-4.8 4.8-4.8 4.8l-1 2.3c0 .1 0 .1.1.2.1 0 .1.1.2.1.7-.5 1.8-1.4 3-2.6 1.5-1.5 1.5-1.8 1.5-1.8s1.1.3 1.4.3 1.6-.9 1.6-.9.7-1.2 1.1-2c.5-1 .6-3 .6-3s.8-1.1.8-1.2c-.1-.1-1-.3-2.1-.3zm-6.1 6.6c1-.4 2.9-3.3 2.9-3.6.1-.2-.3-1.5-.2-1.7s1.9-2.7 2.1-2.8 3.2.5 3.4.4 1.3-1.5-.3-2.1c-.7-.2-3.2-.2-4.2.5-1.7 1.2-2.8 4.6-2.8 4.6s-.4 3-.5 3.2-1.5 1.1-1.5 1.1 0 .8 1.1.4zm4.5 2.3c-.1-.2-1.2 0-1.4.2-.1.1-2.9 3.6-2.9 3.6l-1.5-.3s-1.2.6-1.4 2.2c-.3 2.5 1.3 3.1-.6 3.6-1.1.3-1-1.2-.9-2.1 0 0 0-.1-.1-.1s-.1 0-.2 0c-.5.8-1.4 2.3-1.4 2.7.1.5.7 2.2 3.5 1.2 2.9-1 3.1-2.1 3.4-3.2.4-1.1 1.1-3.7 2-5 .8-1.3 1.5-2.6 1.5-2.8zm-1.2-14.6c-.1-.9-.9-1.6-1.3-2h-.1c-.1 0-.1.1-.1.1l-.1 4.8s0 .1.1.1h.2l1.2-1.1c-.1.1.3-.6.1-1.9zm-10.6-3.9c0-.1 0-.1 0-.2 0 0-.1-.1-.1-.1l-1.6-.3-1.5.2.2 6.4-3.4 5.5s.1.1.1.2h.1c.4-.4.7-.7 1.4-1.2 1.4-.9 2.9-1.3 2.9-1.3s.2-1.5.6-2.1.8-.9.9-1.2-.2-.8-.5-2.3c-.1-1 .6-3 .9-3.6zm-7.3 17.3c-.4 1.5-.8 4.7-.8 4.7l-.5 1.1 1.2.4s1-1.1 1.5-1.4 2-1 2-1 1.1-3.8 2.7-6.9 3.1-5.7 3.1-5.7-1.3-1.1-2-.5c-.6.5-.7 2.2-.7 2.2s-2.5.7-3.5 1.7c-1.9 1.8-2.6 4-3 5.4zm9.7-9.8c.1 0 .1-.1.1-.2v-1.2l-.2-4.2-1.4.2s-.3.9-.3 1.3c0 .3.8 2.2.8 2.4s-.5.7-.5.9.9.6 1.4.9c0 0 .1 0 .1-.1zm5.5-5.7-2.2-.3-2.2.3.3 5.7s1.7-.5 2-.5 2 .3 2 .3zm-8 21.5c-3.5-2.3-6.7 1.8-7 1.9-.2 0-2.1-.8-2.3-.8-.2.1-1.6 1.4-1.1 2.4s.6 1.1.7 1.2 2.7-.8 2.9-.7 2 2.9 2.4 3.2c.4.2 2.8 1.3 3.7.1.8-1.2-.4-3.7-.4-3.7s2.9-2.4 1.1-3.6zm5.9 8c-.1-.1-.2-.1-.2-.1-1.4.2-5.3.7-7.4 2.4-2.8 2.3-3.1 6.3-3.1 6.3l-1.2 1v.2c0 .1.1.1.2.2l6.4.7 5.5-10.4c-.1-.2-.1-.3-.2-.3zm-9.5 1c-.1-.3-1.1.1-1.5-.1-1-.6-1.9-3.2-2.3-3.4s-2 .6-2 .6l-2.3 3.5-4.1 11.2-.7 1c0 .1-.1.2-.1.3 0 0 0 .1.1.1l2.9 1.8 1.2 1.7s0 0 .1.1h.1l.8-.2s0-.1.1-.1c0-.1 0-.2-.1-.2 0 0-1.1-2.4-.2-3.7 1-1.4 5.1-5.9 6-7.7.6-1 2.2-4.6 2-4.9zm-4.7-26 .4-2.2s0-.1-.1-.1c0 0 0 0-.1 0 0 0-1.5 2.1-2.7 3.1-1.2 1.1-2.8 2.2-2.8 2.2v.2s.1.1.1.1l2.8.8 2.5-3.3zm.7 8c-.1-.1-.2-.1-.3-.2-1.5.4-5.7 1.9-5.9 4.1-.2 2.3 1.9 3.8 2.9 4.4.1 0 .1 0 .2-.1 0 0 .1-.1.1-.1-.3-.8-.8-2.5-.2-3.5.8-1.5 2.7-2.7 2.7-2.7zm-11.1-1.7c0-.1-.1-.2-.1-.2l-1.5-1-1.1-2.1s-.1-.1-.2-.1-.1 0-.2 0c-.9.8-3.9 3.8-3.1 5.2.8 1.3 5-1 6.1-1.6.1-.1.1-.1.1-.2zm-5.1 3.6c-.4.2-.5.8-.5.8l5.7 2.3s.3 0 .3-.2c0-.1-.5-1.5-.4-1.7 0-.2 1.1-2.6 1.1-2.8 0-.3-.1-.3-.1-.3l-4 1.7s-1.7 0-2.1.2zm5.1 4.8c-3.6-1.7-10.2-4.8-18.6-5-4.5-.1-7.8 1.1-7.8 1.1l-.9-.2-1.3 2 3 .9s4-1 7.9-1 10.8 2.5 14.1 3.9c3 1.3 8.2 4.2 8.2 4.2l1.3-2.4c-.1-.2-2.8-2-5.9-3.5zm6.9 6.2s-.1-.1-.2-.1-.1 0-.2.1l-2.6 6.2 1.4.5 2.3-4.9zm-3.6 7.4-1.2 2.8.2.9c0 .1.1.1.2.1h.1l.8-.4 1.3-3zm-.1 17.1c.4.3 1.2.9 1.7.4 1.6-1.3 0-2.9-.6-3.4l-2.1-1.4h-.1c-.1 0-.1.1-.1.1l-.7 3.2zm-8.5-4c.1 0 .2-.2.2-.2l1.3-1.8s.1-.1 0-.2c-.1-.2-.2-.2-.2-.2s-4.8-.8-6.6-.7c-.7.1-1.9.3-2.5.5 0 .1-.1.1-.1.2s.1.2.2.3l3.7.9 3.8 1.1c-.1.1.1.1.2.1zm-39.4-91.2s-.4-.3-1-.8c-.4-.3-.3-1.6-.3-1.6l-.4-.3s-.7.5-1.8.2c-2-.4-7.1-2.7-7.1-2.7l-.2.5s4.3 3.3 5.5 4.9c.6.8.9 1.8.9 1.8l.4.2s.9-.5 1.2-.5c1 0 1.6.3 1.6.3zm41.8 23.2-41.1-22.2-.6 1.2 41.2 22.8zm-26.1 15.9c-.6.8-1.3 2.8-1.3 2.8l-2 3.9s-.7 1.5-2.4 2.3c-1.9.9-7.4-.6-7.4-.6l2.4-12.3-.8-2-8.4-3.7v-.5l8.6 1.1.9-1s.3-1.8.5-2.5c.4-1.3 1.7-3 1.7-3s.2 0 .2.1c.1.3.2.8.5 1.2.5.5 1.2.8 1.2.8l1.1.2 3.7.4s3.4 1.4 3.9 3.7c1.4 4.9-1.8 8.3-2.4 9.1zm-6.3-6.6s-1.2.4-1.8-.2c-.6-.5-.5-1.2-.5-1.2l-1-.4s-1 1-.4 2.2c.9 2 2.8 1 2.8 1zm5.8-1.4-1-1.6-4.3 15 .6.4zm1.8 14.4c.1-.1.1-.2.1-.2l.4-3.6s0-.1-.1-.1-.2.1-.2.1l-2.7 2v1.8h2.5c0 .1 0 .1 0 0zm23.9 3.6h-.1c-.5.2-1.8.9-2.2 1.2-.5.4-1.3 1.7-2.1 2.2-.9.7-2.6 1.1-3.5 1.6s-1.8 1.7-3.5 2.5c-2.2 1-5.5 1.4-7.3.3-.9-.6-.8-2.1-.8-2.1l-.8-.1-2.2 4.1.3.3s4.6-1.1 9.5-.7c4.6.4 7.7 1.4 7.7 1.4l.8-1.1s-.9-1.3.6-3.7c1.5-2.3 4.1-4.2 4.1-4.2l-.4-1.7zm-3.6-7.2c-.3.2-4 3.3-7.1 5.1-2.5 1.5-8.6 4.7-9.2 5-.1 0-.2 0-.2 0-.1 0-.1-.1-.2-.2-.2-.9-.8-2.2-.7-4.1.2-4.7 3.3-8.4 2.7-12.3-.2-1.2-.6-2.1-.6-2.1l.8-4.8-.7-2.3.1-.2s7.3-.5 10.8 4.1c1.2 1.6 2.7 5 2.7 5l.4 4.2 1.2 2.3s.2.2 0 .3zm-7-10.5c0 .5.4.9.9.9s.9-.4.9-.9-.4-.9-.9-.9-.9.4-.9.9zm-2.9-2.1c0 .5.4.8.8.8.5 0 .8-.4.8-.8 0-.5-.4-.8-.8-.8s-.8.3-.8.8zm-.1 4.5c0 .5.4.9.9.9s.9-.4.9-.9-.4-.9-.9-.9-.9.4-.9.9zm-4.2 15.2c0-.5-.4-.9-.9-.9s-.9.4-.9.9.4.9.9.9c.6 0 .9-.4.9-.9zm.4-4.1c0-.5-.4-.8-.8-.8-.5 0-.8.4-.8.8 0 .5.4.8.8.8.5 0 .8-.3.8-.8zm1.7-4.9c0-.5-.4-.8-.8-.8-.5 0-.8.4-.8.8 0 .5.4.8.8.8.5.1.8-.3.8-.8zm.1-3.9c0-.5-.4-.8-.8-.8-.5 0-.8.4-.8.8 0 .5.4.8.8.8.5 0 .8-.3.8-.8zm0-3.9c0-.5-.4-.8-.8-.8s-.8.4-.8.8c0 .5.4.8.8.8.5 0 .8-.3.8-.8zm.4-4c0-.5-.4-.8-.8-.8-.5 0-.8.4-.8.8 0 .5.4.8.8.8s.8-.3.8-.8zm1.5 18.5c0-.5-.4-.9-.9-.9s-.9.4-.9.9.4.9.9.9.9-.4.9-.9zm.5-4.1c0-.5-.4-.9-.9-.9s-.9.4-.9.9.4.9.9.9.9-.4.9-.9zm1.5-4.9c0-.5-.4-.9-.9-.9s-.9.4-.9.9.4.9.9.9c.5-.1.9-.4.9-.9zm2.3 6.4c0-.5-.4-.9-.9-.9s-.9.4-.9.9.4.9.9.9c.6 0 .9-.4.9-.9zm.4-4.1c0-.5-.4-.9-.9-.9s-.9.4-.9.9.4.9.9.9.9-.4.9-.9zm1.5-5.5c0-.5-.4-.9-.9-.9s-.9.4-.9.9.4.9.9.9.9-.4.9-.9zm.7 4.1c.5 0 .9-.4.9-.9s-.4-.9-.9-.9-.9.4-.9.9.4.9.9.9zm1.2 2.8c0-.5-.4-.9-.9-.9s-.9.4-.9.9.4.9.9.9.9-.4.9-.9zm-23.9 7.4h-.1c-.5.2-1.6.7-2.9.7-1.5 0-3.3-.3-3.9-.5-.1 0-.1.1-.2.1v.1c.1.5.5 1.5 1.6 1.9 1.7.5 3.2-.6 3.2-.6s1.4.5 1.9 0c.3-.4.5-1.1.5-1.5-.1-.2-.1-.2-.1-.2zm7.4-23.4c0-.1 0-.2 0-.2-.6-.8-2.8-3.6-4.8-5.3-.9-.7-1.7-.1-1.7-.1l2.3 5.4s.9.7 2.1.7c.8 0 1.5-.3 2.1-.5-.1.1-.1.1 0 0zm3.1-1c.1-.6-.6-1.4-.6-1.4l-3.1-4.4s-.3-.4-.5-.5c-.4-.3-1-.1-1-.1s-1.1.3-1.3.6c-.4.4-.2.8-.2.8s1.8 1.6 3.5 3.7c.6.8 1.7 2.1 1.7 2.1l1.1-.2c-.1 0 .3-.2.4-.6zm3.6-.7-3.2-5.4s-.3-.5-1-.6c-.5-.1-1 .1-1 .1s-.4.1-.5.5c-.1.5.2.9.2.9s3.2 4.2 3.4 4.7c.1.4.1.8 0 .9 0 0 0 .1.1.1 0 0 .1 0 .1.1l1.5.1s.5-.1.6-.5c.1-.5-.2-.9-.2-.9zm3.1 1.1-.9-4.5s-.1-.6-.3-1c-.3-.5-.8-.6-.8-.6l-1.4-.6s-.5-.1-.8.2-.1.7-.1.7 2.3 4.2 2.5 4.6c.1.3 0 .9 0 1.2 0 .1 0 .1.1.2.4.1 1.1.3 1.4.3.4 0 .3-.5.3-.5zm2.7-4.2c-.2-.4-.7-.6-.7-.6l-1-.3s-.4-.2-.6.3c-.1.3 0 1.2 0 1.2l.9 5 1 .4h.1c.1 0 .1-.1.2-.1l.4-4.9c-.1-.1 0-.6-.3-1zm3.6 2.1c-.2-.6-.7-.8-.7-.8l-.5-.2s-.6-.3-.9.1c-.3.2-.3 1-.3 1l-.3 4.9 1 .9h.2c.1 0 .1-.1.1-.1l1.5-4.9c-.1 0 .1-.5-.1-.9zm4 2-1.4-.7s-.5-.3-1 0c-.4.3-.6.6-.6.6l-1.7 5.4.8 1.2s.1.1.1.1c.1 0 .1 0 .2-.1.8-1.1 3.6-4.8 3.7-5.1.5-.9-.1-1.4-.1-1.4zm1.9 1.9c-.5-.1-.8.4-.8.4l-4.1 5.7.6 1.2s.1.1.2.1h.2l3.8-2.9.6-4c-.1-.1-.3-.4-.5-.5zm3.2 5.8s-.1-1.1-.4-1.4c-.5-.6-1-.5-1-.5l-1.4 1.8-4.4 3 .3 3s.1.1.1.1h.2l1.7-1.1-.1-1.8zm-5.5 8.9c.1 0 .1 0 0 0l.9-.6-.2-1.8c0-.1-.1-.1-.2-.1 0 0 0 0-.1 0l-1.3.8zm1.2 1c0-.1-.1-.1-.2-.1s-.1 0-.2 0c-1.2 1-5.9 4.5-10.7 7.3-3.8 2.2-6.2 3.2-7 3.6-.1 0-.1.1-.1.2v.3l1.2.7s-.2 1 0 1.3c.1.2 1.5 1.1 3.1.5.8-.3.4-1.4.8-1.8.5-.3 1.3-.8 1.8-.8.9 0 .8 1.4 1.6 1.2.7-.2 1.7-.8 2.1-1.5.4-.6-.1-1.2 0-1.6.2-.4 1.8-1.3 2.1-1.3.9.1.6.8 1.3.7.7 0 1.3-.5 1.9-1.4.5-.8-.1-1.2.1-1.7.2-.4 1.3-1.1 1.6-1 .5.1.3.8.7.8.3 0 .7-.6.7-.6zm70 30c-1.2-1.4-.9-2.3-.9-2.3s-3-2.6-6.9-4.2c-4.4-1.9-9.8-2.8-11.5-3.1-.1 0-.1 0-.2.1 0 0-.1.1-.1.2l.6 1.1s8 1.4 12.4 3.8 6.6 6.2 7.8 6.9c1.9 1.2 2-.7 2-.7s-2-.4-3.2-1.8zm-47.6-54.3c0-.1 0-.1 0-.2-.8-.3-2.1-.7-4.3.1-3.3 1.2-3.3 2.3-3.3 2.3l2.1.3s.2-.5.8-.8c1.1-.6 2.2-.9 2.2-.9l.3-.5 1.1-.2 1.1-.1c-.1 0-.1 0 0 0zm-41.7 14.6c.1-.2.9-4.3.9-4.3s-.5-1.8-.7-2c-.2-.1-2.8.8-2.8.8s.1.1.2.2c.2.2.7.8 1.1 1.6 1.1 2.3.6 5.2-.1 7.2-.5 1.7-1.8 3-1.8 3l1 2.1s.1.1.1.1h.1c.6-.3 2.5-1.4 2.8-4.7.2-2.1-.9-3.8-.8-4zm50.9 19.7c-.2-.3-2.6-.7-3.7 0-1.3.8-2.9 3.7-4 5.7-1.4 2.6-2.6 6.6-2.6 6.6s1.1.1 1.8.4 1.5.9 1.5.9.6-.7 1.7-2c1.5-2 2.6-5 2.6-5s1.3-.9 1.4-1.1c.1-.1.3-2.6.5-3.3.1-.5.9-1.9.8-2.2zm8.1 40.2c.1-.1.1-.2 0-.3-.4-.4-1.2-.9-2.8-1.2-1.8-.3-4.6.7-5.2 1h-.1c-.1 0-.1-.1-.2-.1 0 0 0-.1-.1-.1-.4-.9-1.7-2.9-3.1-3.1-2.3-.4-4.4 1-4.4 1l-1.3-.8 1-1.7v-.1c0-.1-.1-.1-.1-.1l-5.5-.6-3.9 2.8-.1 1.5c0 .1 0 .2.1.2 0 0 .1 0 .1.1 0 0 5 .8 5.1.7.2-.2-.1-.6.2-.7.4-.2.6.3.8.3s.5-.4.9-.2c.3.2 0 .7 0 .9s.4.5.3.8c-.2.3-.7 0-.9.1s-.4.6-.8.5-.2-.6-.4-.7-5.4.8-5.4.8c-.1 0-.1.1-.1.2v.2c1.4.5 4.9 1.7 8 1.8 3.6.1 7.8-1.7 10.6-2.4 2.3-.7 6-.7 7.3-.8-.1.1 0 .1 0 0zm39.1 2.3c-.9-.6-2.8.1-3.6.3-.4.1-.6.3-.8.4 0 .1-.1.2 0 .3 0 .1.1.1.2.1.8 0 2.3.1 3.3.4 1.4.4 1.9.8 1.9.8s.7-1.1-1-2.3zm-72.4-11.5-5.9 9.2v.1s0 .1.1.1l.7.3 3 1.2.5.2 2.7-10.8zm25.2-41.2-.4-1.4.1-5.7.3-2.3.1-3.8-.8-1.8-.7-.2s.2 1.7-.8 3.6c-1.3 2.5-3.5 3.1-3.5 3.1l-.7 1.2c-1.3.4-2.3.4-2.3.4l-.4.4v.2s0 0 .1.1c.8.1 3.4.3 5.6-1 1.2-.8 1.8-1.4 2-1.7h.1.1l.1 1.2-.5.6v4.7l-.6.4-.4-.2v-3.8s0-.1-.1-.1-.1 0-.1 0-.3.6-2.7 1.1c-.7.2-1.4.2-1.5.2 0 0 0 0-.1.1v.1l.5 4.1c0 .1 0 .2.1.2 0 0 .1.1.1.1.3.1.5.1.6.1.1-.1.4-.6 1.4-.8.6-.2 1.2.4 1.6.6v.1s-.1.1-.1.1c-.4 0-.8.1-1.2.3-1 .5-1 1.1-1.1 1.1-.1.1-.8-.2-.9-.2s-.3.9-.3.9c0 .1 0 .1.1.1 0 0 .1 0 .1.1l4.1-.6 2.8.2s.1 0 .1-.1c0 0 .1-.1.1-.2zm55.7 79c-1.3-1.6-1.1-3-1.1-3s-1.2-1.1-2.1-1c-.5.1-.6.6-.7 1-.1.3-.5.7-1 .2-1.2-1.1.2-1.5.5-1.9s.1-1.2.1-1.2-1-.7-2.1-4.2c-.8-2.5-.5-3.8-.5-3.8s-.6-.6-.8-.7c-.2 0-.6.3-1.1.9-.6.7 0 4.2.4 5 .1.3.4.6.6.7v.3c0 .1-.1.1-.1.1l-1.5-.1c-.1 0-.1-.1-.2-.1v-.1c.1-.1.1-.4.1-.7 0-.7-.6-2.4-.7-3.7s.3-1.8.3-2-.5-.6-.5-.6-1.1.3-1.4.4c-.2.1-.4.3-.5.5-.1.1.7 2.1.9 3.9s-.1 4.7.2 5.9c.2 1.2.7 2.2 1.2 2.7.7.8 2.5 1 3.2 1.7s.8 2.4 1.8 3c.7.4 1.6-.1 1.6-.1s-.3-.7-.2-.9.8-.5 1-.6.9.4.9.5c0 .2-.2.6-.2.6l-.3.2s-.1.1-.1.1c0 .1 0 .2.1.3 0 0 .1 0 .1.1.4.3 2.1 2.3 2.7 2.7.5.4.9.4 1.6-.1.6-.4.7-3.9.7-3.9s-1.6-.5-2.9-2.1zm-68.2-77.9c-.1 0-.1 0-.2 0l-1.3 1.9s-.9 3.9-.9 4.3c0 .2.5.5.5.9s-2.8 4.1-2.8 4.1l-5.1 2.4s-1.7 1.7-2 3.2c-.5 2.1.5 3.4 1.2 4 .1 0 .2 0 .3-.1 0 0 .1-.1.1-.1-.4-1.1-1-3.8.9-5.3 1.8-1.3 5.8-2.9 5.8-2.9s2.6-3.7 3.3-6.2c.7-2.2.3-5.3.2-6.2zm-47.5-23.3c-.3-.8-4.7-3.1-5.9-3.7-.2-.1-.2.1-.2.1l.2 1.4.4 2.3 2.3 2.7h.1.2l1.4-.4.8-1h.3c.1 0 .1.1.1.1l-.5 3.1s.1.3.2.2c.5-.1 1.4-.3 1.7-.5s-.7-3.4-1.1-4.3zm51.3-.8c-2.8 0-3.7.9-4.2 1.4v.2c0 .1.1.2.2.2l4 1.1 3.5 1.2s.1.1.2.2c.1.2 0 .3 0 .3l-1.4 4.9s.2.7 0 2c-.1.6-.3 1.5-.4 1.8 0 .1.1.1.1.1h.1c-.1 0 2.3-2 2.6-6 .1-1.2-.3-2-.3-2 0-.2.1-.5.3-.6s.3 0 .4.1c.8 1.8.8 3.1.5 4.4 0 .1.1.3.3.4s.4 0 .4-.1c.1-.4.3-.9.3-1.4.3-5-2.3-8.2-6.6-8.2zm-43.7 35s-1.2.7-1.4.7-1.1-.1-1-1.1c0-.8 1.9-1.3 1.9-1.3l-.3-1.1s-2.1.6-3 1.6c-.5.6-.5 1.2-1 1-.5-.1-.6-.5-.6-.9.5-2.1 4.8-2 4.4-4.6-.4-3.3-5.3-1.3-5.3-1.3s-.1.1-.1.1v.3l.6.7s1.2-.3 1.5-.4c.3 0 1.3-.1 1.5.9.4 2-5.4 1.7-4.5 5.3.6 2.3 6.1 3.1 6.1 3.1l1.4-2.2zm23 13.8c-2.3-1-5.9-2.1-5.9-2.1l-5.8 9.1h-1l5.1-9.7s-3.7-1.4-6.7-1.6c-3.6-.2-9 1-9 1l-3.4-1-3.5 5-5.5 7.1.7.3s3.8-3.2 7.7-2.7c2.2.3 3.1 1.6 3.3 2h.1.1c.1-.1.3-.1.5-.2l1.5-1.9-3.5-3.9.9-.3 3.5 3.1 1.3-1.7-2.5-3.4.7-.2 2.6 2.6 1.1-1.5-1.4-2.3.7-.2 1.4 1.6 1.4-1.9h.8l-1.1 1.8 2.3-.3.3.6-3.4.9-.8 1.3 4-.2.3.6-5.2 1-.9 1.5 5.6-.4.4.8-6.9 1-.5.9c.7 0 1.4.1 2.2.4 1.9.8 2.5 2 2.6 2.6 0 0 .1.1.1.1h.2c.8-.5 3.2-1.6 6.3-.2 1.3.6 2.1 1.4 2.7 2.3v.1l.9-1.4-3.7-4.7h1.1l3.4 3.5 1.1-1.8-2.6-4 1.1.1 2.4 2.6 1-1.6-1.3-2.5.9.1 1.1 1.4 1-1.7.6.6-.7 1.4 1.7.1.3.7-2.6.2-.9 1.8 3.4.3.5.9h-4.5l-1.1 2.2 5.4.3.5.8-6.1-.1-1.1 2.3s.1 0 .1.1c1-.2 3-.5 4.7.6 1 .6 1.5 1.3 1.7 1.7.1 0 .1.1.2.1h.1l2.5-4.7.3-2.1 1.9-5.7c0-.1-3.9-2.3-6.7-3.5z" fill="#fff"/></svg>