<?xml version="1.0" encoding="utf-8"?>
<!-- Generator: Adobe Illustrator 21.1.0, SVG Export Plug-In . SVG Version: 6.00 Build 0)  -->
<svg version="1.1" id="EKD" xmlns="http://www.w3.org/2000/svg" xmlns:xlink="http://www.w3.org/1999/xlink" x="0px" y="0px"
	 viewBox="0 0 170.1 132.9" style="enable-background:new 0 0 170.1 132.9;" xml:space="preserve">
<style type="text/css">
	.st0{fill:none;}
	.st1{fill:#F7BC60;}
	.st2{fill:#FFFFFF;}
</style>
<pattern  x="-48.2" y="195.1" width="69" height="69" patternUnits="userSpaceOnUse" id="Unnamed_Pattern" viewBox="2.1 -70.9 69 69" style="overflow:visible;">
	<g>
		<rect x="2.1" y="-70.9" class="st0" width="69" height="69"/>
		<rect x="2.1" y="-70.9" class="st1" width="69" height="69"/>
		<g>
			<path class="st2" d="M61.8-71.7c0,0.1,0,0.1,0,0.2c-0.1,0.1-0.1,0.1-0.2,0.1c-0.1,0.1-0.1,0.3-0.1,0.4c-0.2,0.1,0,0.2,0,0.3
				c0,0,0,0.1,0,0.2c0,0.1,0,0.3,0.1,0.4c0.1,0.2,0.3,0.4,0.4,0.5c0.2,0.1,0.4,0.6,0.6,0.6c0.2,0,0.4-0.1,0.5-0.1
				c0.2,0,0.4,0,0.6-0.1c0.2-0.1,0.1-0.3,0.3-0.5c0.1-0.1,0.3,0,0.4-0.1c0.2-0.1,0.3-0.3,0.4-0.5c0-0.1,0-0.1,0-0.2
				c0-0.1,0.1-0.2,0.1-0.3c0-0.1-0.1-0.1-0.1-0.2c0-0.1,0-0.2,0-0.3c0-0.2,0-0.4-0.1-0.5c-0.4-0.7-1.2-0.9-2-0.8
				c-0.2,0-0.3,0.1-0.4,0.2c-0.2,0.1-0.1,0.2-0.3,0.2c-0.1,0-0.2,0.1-0.2,0.2C61.8-71.7,61.8-71.7,61.8-71.7
				C61.8-71.6,61.8-71.6,61.8-71.7"/>
			<path class="st2" d="M54.1-71.7c0,0.1,0,0.1,0,0.2c-0.1,0.1-0.1,0.1-0.2,0.1c-0.1,0.1-0.1,0.3-0.1,0.4c-0.2,0.1,0,0.2,0,0.3
				c0,0,0,0.1,0,0.2c0,0.1,0,0.3,0.1,0.4c0.1,0.2,0.3,0.4,0.4,0.5c0.2,0.1,0.4,0.6,0.6,0.6c0.2,0,0.4-0.1,0.5-0.1
				c0.2,0,0.4,0,0.6-0.1c0.2-0.1,0.1-0.3,0.3-0.5c0.1-0.1,0.3,0,0.4-0.1c0.2-0.1,0.3-0.3,0.4-0.5c0-0.1,0-0.1,0-0.2
				c0-0.1,0.1-0.2,0.1-0.3c0-0.1-0.1-0.1-0.1-0.2c0-0.1,0-0.2,0-0.3c0-0.2,0-0.4-0.1-0.5c-0.4-0.7-1.2-0.9-2-0.8
				c-0.2,0-0.3,0.1-0.4,0.2c-0.2,0.1-0.1,0.2-0.3,0.2c-0.1,0-0.2,0.1-0.2,0.2C54.1-71.7,54.1-71.7,54.1-71.7
				C54.1-71.6,54.1-71.6,54.1-71.7"/>
			<path class="st2" d="M46.4-71.7c0,0.1,0,0.1,0,0.2c-0.1,0.1-0.1,0.1-0.2,0.1c-0.1,0.1-0.1,0.3-0.1,0.4c-0.2,0.1,0,0.2,0,0.3
				c0,0,0,0.1,0,0.2c0,0.1,0,0.3,0.1,0.4c0.1,0.2,0.3,0.4,0.4,0.5c0.2,0.1,0.4,0.6,0.6,0.6c0.2,0,0.4-0.1,0.5-0.1
				c0.2,0,0.4,0,0.6-0.1c0.2-0.1,0.1-0.3,0.3-0.5c0.1-0.1,0.3,0,0.4-0.1c0.2-0.1,0.3-0.3,0.4-0.5c0-0.1,0-0.1,0-0.2
				c0-0.1,0.1-0.2,0.1-0.3c0-0.1-0.1-0.1-0.1-0.2c0-0.1,0-0.2,0-0.3c0-0.2,0-0.4-0.1-0.5c-0.4-0.7-1.2-0.9-2-0.8
				c-0.2,0-0.3,0.1-0.4,0.2c-0.2,0.1-0.1,0.2-0.3,0.2c-0.1,0-0.2,0.1-0.2,0.2C46.4-71.7,46.4-71.7,46.4-71.7
				C46.4-71.6,46.4-71.6,46.4-71.7"/>
			<path class="st2" d="M38.8-71.7c0,0.1,0,0.1,0,0.2c-0.1,0.1-0.1,0.1-0.2,0.1c-0.1,0.1-0.1,0.3-0.1,0.4c-0.2,0.1,0,0.2,0,0.3
				c0,0,0,0.1,0,0.2c0,0.1,0,0.3,0.1,0.4c0.1,0.2,0.3,0.4,0.4,0.5c0.2,0.1,0.4,0.6,0.6,0.6c0.2,0,0.4-0.1,0.5-0.1
				c0.2,0,0.4,0,0.6-0.1c0.2-0.1,0.1-0.3,0.3-0.5c0.1-0.1,0.3,0,0.4-0.1c0.2-0.1,0.3-0.3,0.4-0.5c0-0.1,0-0.1,0-0.2
				c0-0.1,0.1-0.2,0.1-0.3c0-0.1-0.1-0.1-0.1-0.2c0-0.1,0-0.2,0-0.3c0-0.2,0-0.4-0.1-0.5c-0.4-0.7-1.2-0.9-2-0.8
				c-0.2,0-0.3,0.1-0.4,0.2c-0.2,0.1-0.1,0.2-0.3,0.2c-0.1,0-0.2,0.1-0.2,0.2C38.8-71.7,38.8-71.7,38.8-71.7
				C38.8-71.6,38.8-71.6,38.8-71.7"/>
			<path class="st2" d="M31.1-71.7c0,0.1,0,0.1,0,0.2c-0.1,0.1-0.1,0.1-0.2,0.1c-0.1,0.1-0.1,0.3-0.1,0.4c-0.2,0.1,0,0.2,0,0.3
				c0,0,0,0.1,0,0.2c0,0.1,0,0.3,0.1,0.4c0.1,0.2,0.3,0.4,0.4,0.5c0.2,0.1,0.4,0.6,0.6,0.6c0.2,0,0.4-0.1,0.5-0.1
				c0.2,0,0.4,0,0.6-0.1c0.2-0.1,0.1-0.3,0.3-0.5c0.1-0.1,0.3,0,0.4-0.1c0.2-0.1,0.3-0.3,0.4-0.5c0-0.1,0-0.1,0-0.2
				c0-0.1,0.1-0.2,0.1-0.3c0-0.1-0.1-0.1-0.1-0.2c0-0.1,0-0.2,0-0.3c0-0.2,0-0.4-0.1-0.5c-0.4-0.7-1.2-0.9-2-0.8
				c-0.2,0-0.3,0.1-0.4,0.2c-0.2,0.1-0.1,0.2-0.3,0.2c-0.1,0-0.2,0.1-0.2,0.2C31.1-71.7,31.1-71.7,31.1-71.7
				C31.1-71.6,31.1-71.6,31.1-71.7"/>
			<path class="st2" d="M23.4-71.7c0,0.1,0,0.1,0,0.2c-0.1,0.1-0.1,0.1-0.2,0.1c-0.1,0.1-0.1,0.3-0.1,0.4c-0.2,0.1,0,0.2,0,0.3
				c0,0,0,0.1,0,0.2c0,0.1,0,0.3,0.1,0.4c0.1,0.2,0.3,0.4,0.4,0.5c0.2,0.1,0.4,0.6,0.6,0.6c0.2,0,0.4-0.1,0.5-0.1
				c0.2,0,0.4,0,0.6-0.1c0.2-0.1,0.1-0.3,0.3-0.5c0.1-0.1,0.3,0,0.4-0.1c0.2-0.1,0.3-0.3,0.4-0.5c0-0.1,0-0.1,0-0.2
				c0-0.1,0.1-0.2,0.1-0.3c0-0.1-0.1-0.1-0.1-0.2c0-0.1,0-0.2,0-0.3c0-0.2,0-0.4-0.1-0.5c-0.4-0.7-1.2-0.9-2-0.8
				c-0.2,0-0.3,0.1-0.4,0.2c-0.2,0.1-0.1,0.2-0.3,0.2c-0.1,0-0.2,0.1-0.2,0.2C23.4-71.7,23.4-71.7,23.4-71.7
				C23.4-71.6,23.4-71.6,23.4-71.7"/>
			<path class="st2" d="M15.8-71.7c0,0.1,0,0.1,0,0.2c-0.1,0.1-0.1,0.1-0.2,0.1c-0.1,0.1-0.1,0.3-0.1,0.4c-0.2,0.1,0,0.2,0,0.3
				c0,0,0,0.1,0,0.2c0,0.1,0,0.3,0.1,0.4c0.1,0.2,0.3,0.4,0.4,0.5c0.2,0.1,0.4,0.6,0.6,0.6c0.2,0,0.4-0.1,0.5-0.1
				c0.2,0,0.4,0,0.6-0.1c0.2-0.1,0.1-0.3,0.3-0.5c0.1-0.1,0.3,0,0.4-0.1c0.2-0.1,0.3-0.3,0.4-0.5c0-0.1,0-0.1,0-0.2
				c0-0.1,0.1-0.2,0.1-0.3c0-0.1-0.1-0.1-0.1-0.2c0-0.1,0-0.2,0-0.3c0-0.2,0-0.4-0.1-0.5c-0.4-0.7-1.2-0.9-2-0.8
				c-0.2,0-0.3,0.1-0.4,0.2c-0.2,0.1-0.1,0.2-0.3,0.2c-0.1,0-0.2,0.1-0.2,0.2C15.8-71.7,15.8-71.7,15.8-71.7
				C15.8-71.6,15.8-71.6,15.8-71.7"/>
			<path class="st2" d="M8.1-71.7c0,0.1,0,0.1,0,0.2C8-71.4,8-71.4,7.9-71.3c-0.1,0.1-0.1,0.3-0.1,0.4c-0.2,0.1,0,0.2,0,0.3
				c0,0,0,0.1,0,0.2c0,0.1,0,0.3,0.1,0.4c0.1,0.2,0.3,0.4,0.4,0.5c0.2,0.1,0.4,0.6,0.6,0.6c0.2,0,0.4-0.1,0.5-0.1
				c0.2,0,0.4,0,0.6-0.1c0.2-0.1,0.1-0.3,0.3-0.5c0.1-0.1,0.3,0,0.4-0.1c0.2-0.1,0.3-0.3,0.4-0.5c0-0.1,0-0.1,0-0.2
				c0-0.1,0.1-0.2,0.1-0.3c0-0.1-0.1-0.1-0.1-0.2c0-0.1,0-0.2,0-0.3c0-0.2,0-0.4-0.1-0.5c-0.4-0.7-1.2-0.9-2-0.8
				c-0.2,0-0.3,0.1-0.4,0.2c-0.2,0.1-0.1,0.2-0.3,0.2c-0.1,0-0.2,0.1-0.2,0.2C8.1-71.7,8.1-71.7,8.1-71.7
				C8.1-71.6,8.1-71.6,8.1-71.7"/>
			<path class="st2" d="M0.4-71.7c0,0.1,0,0.1,0,0.2c-0.1,0.1-0.1,0.1-0.2,0.1c-0.1,0.1-0.1,0.3-0.1,0.4c-0.2,0.1,0,0.2,0,0.3
				c0,0,0,0.1,0,0.2c0,0.1,0,0.3,0.1,0.4c0.1,0.2,0.3,0.4,0.4,0.5C0.8-69.4,1-69,1.2-68.9c0.2,0,0.4-0.1,0.5-0.1
				c0.2,0,0.4,0,0.6-0.1c0.2-0.1,0.1-0.3,0.3-0.5c0.1-0.1,0.3,0,0.4-0.1c0.2-0.1,0.3-0.3,0.4-0.5c0-0.1,0-0.1,0-0.2
				c0-0.1,0.1-0.2,0.1-0.3c0-0.1-0.1-0.1-0.1-0.2c0-0.1,0-0.2,0-0.3c0-0.2,0-0.4-0.1-0.5c-0.4-0.7-1.2-0.9-2-0.8
				c-0.2,0-0.3,0.1-0.4,0.2c-0.2,0.1-0.1,0.2-0.3,0.2c-0.1,0-0.2,0.1-0.2,0.2C0.4-71.7,0.4-71.7,0.4-71.7
				C0.4-71.6,0.4-71.6,0.4-71.7"/>
		</g>
		<g>
			<path class="st2" d="M69.4-71.7c0,0.1,0,0.1,0,0.2c-0.1,0.1-0.1,0.1-0.2,0.1c-0.1,0.1-0.1,0.3-0.1,0.4c-0.2,0.1,0,0.2,0,0.3
				c0,0,0,0.1,0,0.2c0,0.1,0,0.3,0.1,0.4c0.1,0.2,0.3,0.4,0.4,0.5c0.2,0.1,0.4,0.6,0.6,0.6c0.2,0,0.4-0.1,0.5-0.1
				c0.2,0,0.4,0,0.6-0.1c0.2-0.1,0.1-0.3,0.3-0.5c0.1-0.1,0.3,0,0.4-0.1c0.2-0.1,0.3-0.3,0.4-0.5c0-0.1,0-0.1,0-0.2
				c0-0.1,0.1-0.2,0.1-0.3c0-0.1-0.1-0.1-0.1-0.2c0-0.1,0-0.2,0-0.3c0-0.2,0-0.4-0.1-0.5c-0.4-0.7-1.2-0.9-2-0.8
				c-0.2,0-0.3,0.1-0.4,0.2c-0.2,0.1-0.1,0.2-0.3,0.2c-0.1,0-0.2,0.1-0.2,0.2C69.4-71.7,69.4-71.7,69.4-71.7
				C69.4-71.6,69.4-71.6,69.4-71.7"/>
		</g>
		<path class="st2" d="M0.5-71.7c0,0.1,0,0.1,0,0.2c-0.1,0.1-0.1,0.1-0.2,0.1c-0.1,0.1-0.1,0.3-0.1,0.4c-0.2,0.1,0,0.2,0,0.3
			c0,0,0,0.1,0,0.2c0,0.1,0,0.3,0.1,0.4c0.1,0.2,0.3,0.4,0.4,0.5C0.9-69.4,1-69,1.3-68.9c0.2,0,0.4-0.1,0.5-0.1c0.2,0,0.4,0,0.6-0.1
			c0.2-0.1,0.1-0.3,0.3-0.5c0.1-0.1,0.3,0,0.4-0.1c0.2-0.1,0.3-0.3,0.4-0.5c0-0.1,0-0.1,0-0.2c0-0.1,0.1-0.2,0.1-0.3
			c0-0.1-0.1-0.1-0.1-0.2c0-0.1,0-0.2,0-0.3c0-0.2,0-0.4-0.1-0.5c-0.4-0.7-1.2-0.9-2-0.8c-0.2,0-0.3,0.1-0.4,0.2
			c-0.2,0.1-0.1,0.2-0.3,0.2c-0.1,0-0.2,0.1-0.2,0.2C0.5-71.7,0.5-71.7,0.5-71.7C0.5-71.6,0.5-71.6,0.5-71.7"/>
		<g>
			<g>
				<path class="st2" d="M69.4-64c0,0.1,0,0.1,0,0.2c-0.1,0.1-0.1,0.1-0.2,0.1c-0.1,0.1-0.1,0.3-0.1,0.4c-0.2,0.1,0,0.2,0,0.3
					c0,0,0,0.1,0,0.2c0,0.1,0,0.3,0.1,0.4c0.1,0.2,0.3,0.4,0.4,0.5c0.2,0.1,0.4,0.6,0.6,0.6c0.2,0,0.4-0.1,0.5-0.1
					c0.2,0,0.4,0,0.6-0.1c0.2-0.1,0.1-0.3,0.3-0.5c0.1-0.1,0.3,0,0.4-0.1c0.2-0.1,0.3-0.3,0.4-0.5c0-0.1,0-0.1,0-0.2
					c0-0.1,0.1-0.2,0.1-0.3c0-0.1-0.1-0.1-0.1-0.2c0-0.1,0-0.2,0-0.3c0-0.2,0-0.4-0.1-0.5c-0.4-0.7-1.2-0.9-2-0.8
					c-0.2,0-0.3,0.1-0.4,0.2c-0.2,0.1-0.1,0.2-0.3,0.2c-0.1,0-0.2,0.1-0.2,0.2C69.4-64,69.4-64.1,69.4-64C69.4-64,69.4-64,69.4-64"
					/>
				<path class="st2" d="M61.8-64c0,0.1,0,0.1,0,0.2c-0.1,0.1-0.1,0.1-0.2,0.1c-0.1,0.1-0.1,0.3-0.1,0.4c-0.2,0.1,0,0.2,0,0.3
					c0,0,0,0.1,0,0.2c0,0.1,0,0.3,0.1,0.4c0.1,0.2,0.3,0.4,0.4,0.5c0.2,0.1,0.4,0.6,0.6,0.6c0.2,0,0.4-0.1,0.5-0.1
					c0.2,0,0.4,0,0.6-0.1c0.2-0.1,0.1-0.3,0.3-0.5c0.1-0.1,0.3,0,0.4-0.1c0.2-0.1,0.3-0.3,0.4-0.5c0-0.1,0-0.1,0-0.2
					c0-0.1,0.1-0.2,0.1-0.3c0-0.1-0.1-0.1-0.1-0.2c0-0.1,0-0.2,0-0.3c0-0.2,0-0.4-0.1-0.5c-0.4-0.7-1.2-0.9-2-0.8
					c-0.2,0-0.3,0.1-0.4,0.2c-0.2,0.1-0.1,0.2-0.3,0.2c-0.1,0-0.2,0.1-0.2,0.2C61.8-64,61.8-64.1,61.8-64C61.8-64,61.8-64,61.8-64"
					/>
				<path class="st2" d="M54.1-64c0,0.1,0,0.1,0,0.2c-0.1,0.1-0.1,0.1-0.2,0.1c-0.1,0.1-0.1,0.3-0.1,0.4c-0.2,0.1,0,0.2,0,0.3
					c0,0,0,0.1,0,0.2c0,0.1,0,0.3,0.1,0.4c0.1,0.2,0.3,0.4,0.4,0.5c0.2,0.1,0.4,0.6,0.6,0.6c0.2,0,0.4-0.1,0.5-0.1
					c0.2,0,0.4,0,0.6-0.1c0.2-0.1,0.1-0.3,0.3-0.5c0.1-0.1,0.3,0,0.4-0.1c0.2-0.1,0.3-0.3,0.4-0.5c0-0.1,0-0.1,0-0.2
					c0-0.1,0.1-0.2,0.1-0.3c0-0.1-0.1-0.1-0.1-0.2c0-0.1,0-0.2,0-0.3c0-0.2,0-0.4-0.1-0.5c-0.4-0.7-1.2-0.9-2-0.8
					c-0.2,0-0.3,0.1-0.4,0.2c-0.2,0.1-0.1,0.2-0.3,0.2c-0.1,0-0.2,0.1-0.2,0.2C54.1-64,54.1-64.1,54.1-64C54.1-64,54.1-64,54.1-64"
					/>
				<path class="st2" d="M46.5-64c0,0.1,0,0.1,0,0.2c-0.1,0.1-0.1,0.1-0.2,0.1c-0.1,0.1-0.1,0.3-0.1,0.4c-0.2,0.1,0,0.2,0,0.3
					c0,0,0,0.1,0,0.2c0,0.1,0,0.3,0.1,0.4c0.1,0.2,0.3,0.4,0.4,0.5c0.2,0.1,0.4,0.6,0.6,0.6c0.2,0,0.4-0.1,0.5-0.1
					c0.2,0,0.4,0,0.6-0.1c0.2-0.1,0.1-0.3,0.3-0.5c0.1-0.1,0.3,0,0.4-0.1c0.2-0.1,0.3-0.3,0.4-0.5c0-0.1,0-0.1,0-0.2
					c0-0.1,0.1-0.2,0.1-0.3c0-0.1-0.1-0.1-0.1-0.2c0-0.1,0-0.2,0-0.3c0-0.2,0-0.4-0.1-0.5c-0.4-0.7-1.2-0.9-2-0.8
					c-0.2,0-0.3,0.1-0.4,0.2c-0.2,0.1-0.1,0.2-0.3,0.2c-0.1,0-0.2,0.1-0.2,0.2C46.5-64,46.5-64.1,46.5-64C46.5-64,46.5-64,46.5-64"
					/>
				<path class="st2" d="M38.8-64c0,0.1,0,0.1,0,0.2c-0.1,0.1-0.1,0.1-0.2,0.1c-0.1,0.1-0.1,0.3-0.1,0.4c-0.2,0.1,0,0.2,0,0.3
					c0,0,0,0.1,0,0.2c0,0.1,0,0.3,0.1,0.4c0.1,0.2,0.3,0.4,0.4,0.5c0.2,0.1,0.4,0.6,0.6,0.6c0.2,0,0.4-0.1,0.5-0.1
					c0.2,0,0.4,0,0.6-0.1c0.2-0.1,0.1-0.3,0.3-0.5c0.1-0.1,0.3,0,0.4-0.1c0.2-0.1,0.3-0.3,0.4-0.5c0-0.1,0-0.1,0-0.2
					c0-0.1,0.1-0.2,0.1-0.3c0-0.1-0.1-0.1-0.1-0.2c0-0.1,0-0.2,0-0.3c0-0.2,0-0.4-0.1-0.5c-0.4-0.7-1.2-0.9-2-0.8
					c-0.2,0-0.3,0.1-0.4,0.2c-0.2,0.1-0.1,0.2-0.3,0.2c-0.1,0-0.2,0.1-0.2,0.2C38.8-64,38.8-64.1,38.8-64C38.8-64,38.8-64,38.8-64"
					/>
				<path class="st2" d="M31.1-64c0,0.1,0,0.1,0,0.2c-0.1,0.1-0.1,0.1-0.2,0.1c-0.1,0.1-0.1,0.3-0.1,0.4c-0.2,0.1,0,0.2,0,0.3
					c0,0,0,0.1,0,0.2c0,0.1,0,0.3,0.1,0.4c0.1,0.2,0.3,0.4,0.4,0.5c0.2,0.1,0.4,0.6,0.6,0.6c0.2,0,0.4-0.1,0.5-0.1
					c0.2,0,0.4,0,0.6-0.1c0.2-0.1,0.1-0.3,0.3-0.5c0.1-0.1,0.3,0,0.4-0.1c0.2-0.1,0.3-0.3,0.4-0.5c0-0.1,0-0.1,0-0.2
					c0-0.1,0.1-0.2,0.1-0.3c0-0.1-0.1-0.1-0.1-0.2c0-0.1,0-0.2,0-0.3c0-0.2,0-0.4-0.1-0.5c-0.4-0.7-1.2-0.9-2-0.8
					c-0.2,0-0.3,0.1-0.4,0.2c-0.2,0.1-0.1,0.2-0.3,0.2c-0.1,0-0.2,0.1-0.2,0.2C31.1-64,31.1-64.1,31.1-64C31.1-64,31.1-64,31.1-64"
					/>
				<path class="st2" d="M23.5-64c0,0.1,0,0.1,0,0.2c-0.1,0.1-0.1,0.1-0.2,0.1c-0.1,0.1-0.1,0.3-0.1,0.4c-0.2,0.1,0,0.2,0,0.3
					c0,0,0,0.1,0,0.2c0,0.1,0,0.3,0.1,0.4c0.1,0.2,0.3,0.4,0.4,0.5c0.2,0.1,0.4,0.6,0.6,0.6c0.2,0,0.4-0.1,0.5-0.1
					c0.2,0,0.4,0,0.6-0.1c0.2-0.1,0.1-0.3,0.3-0.5c0.1-0.1,0.3,0,0.4-0.1c0.2-0.1,0.3-0.3,0.4-0.5c0-0.1,0-0.1,0-0.2
					c0-0.1,0.1-0.2,0.1-0.3c0-0.1-0.1-0.1-0.1-0.2c0-0.1,0-0.2,0-0.3c0-0.2,0-0.4-0.1-0.5c-0.4-0.7-1.2-0.9-2-0.8
					c-0.2,0-0.3,0.1-0.4,0.2c-0.2,0.1-0.1,0.2-0.3,0.2c-0.1,0-0.2,0.1-0.2,0.2C23.5-64,23.5-64.1,23.5-64C23.5-64,23.5-64,23.5-64"
					/>
				<path class="st2" d="M15.8-64c0,0.1,0,0.1,0,0.2c-0.1,0.1-0.1,0.1-0.2,0.1c-0.1,0.1-0.1,0.3-0.1,0.4c-0.2,0.1,0,0.2,0,0.3
					c0,0,0,0.1,0,0.2c0,0.1,0,0.3,0.1,0.4c0.1,0.2,0.3,0.4,0.4,0.5c0.2,0.1,0.4,0.6,0.6,0.6c0.2,0,0.4-0.1,0.5-0.1
					c0.2,0,0.4,0,0.6-0.1c0.2-0.1,0.1-0.3,0.3-0.5c0.1-0.1,0.3,0,0.4-0.1c0.2-0.1,0.3-0.3,0.4-0.5c0-0.1,0-0.1,0-0.2
					c0-0.1,0.1-0.2,0.1-0.3c0-0.1-0.1-0.1-0.1-0.2c0-0.1,0-0.2,0-0.3c0-0.2,0-0.4-0.1-0.5c-0.4-0.7-1.2-0.9-2-0.8
					c-0.2,0-0.3,0.1-0.4,0.2c-0.2,0.1-0.1,0.2-0.3,0.2c-0.1,0-0.2,0.1-0.2,0.2C15.8-64,15.8-64.1,15.8-64C15.8-64,15.8-64,15.8-64"
					/>
				<path class="st2" d="M8.2-64c0,0.1,0,0.1,0,0.2C8.1-63.7,8-63.7,8-63.7c-0.1,0.1-0.1,0.3-0.1,0.4c-0.2,0.1,0,0.2,0,0.3
					c0,0,0,0.1,0,0.2c0,0.1,0,0.3,0.1,0.4C8-62.2,8.2-62,8.3-61.9c0.2,0.1,0.4,0.6,0.6,0.6c0.2,0,0.4-0.1,0.5-0.1
					c0.2,0,0.4,0,0.6-0.1c0.2-0.1,0.1-0.3,0.3-0.5c0.1-0.1,0.3,0,0.4-0.1c0.2-0.1,0.3-0.3,0.4-0.5c0-0.1,0-0.1,0-0.2
					c0-0.1,0.1-0.2,0.1-0.3c0-0.1-0.1-0.1-0.1-0.2c0-0.1,0-0.2,0-0.3c0-0.2,0-0.4-0.1-0.5c-0.4-0.7-1.2-0.9-2-0.8
					c-0.2,0-0.3,0.1-0.4,0.2c-0.2,0.1-0.1,0.2-0.3,0.2c-0.1,0-0.2,0.1-0.2,0.2C8.2-64,8.2-64.1,8.2-64C8.1-64,8.1-64,8.2-64"/>
				<path class="st2" d="M0.5-64c0,0.1,0,0.1,0,0.2c-0.1,0.1-0.1,0.1-0.2,0.1c-0.1,0.1-0.1,0.3-0.1,0.4c-0.2,0.1,0,0.2,0,0.3
					c0,0,0,0.1,0,0.2c0,0.1,0,0.3,0.1,0.4c0.1,0.2,0.3,0.4,0.4,0.5c0.2,0.1,0.4,0.6,0.6,0.6c0.2,0,0.4-0.1,0.5-0.1
					c0.2,0,0.4,0,0.6-0.1c0.2-0.1,0.1-0.3,0.3-0.5C2.8-62,3-61.9,3.1-62c0.2-0.1,0.3-0.3,0.4-0.5c0-0.1,0-0.1,0-0.2
					c0-0.1,0.1-0.2,0.1-0.3c0-0.1-0.1-0.1-0.1-0.2c0-0.1,0-0.2,0-0.3c0-0.2,0-0.4-0.1-0.5c-0.4-0.7-1.2-0.9-2-0.8
					c-0.2,0-0.3,0.1-0.4,0.2c-0.2,0.1-0.1,0.2-0.3,0.2c-0.1,0-0.2,0.1-0.2,0.2C0.5-64,0.5-64.1,0.5-64C0.5-64,0.5-64,0.5-64"/>
			</g>
			<g>
				<path class="st2" d="M69.4-56.3c0,0.1,0,0.1,0,0.2c-0.1,0.1-0.1,0.1-0.2,0.1c-0.1,0.1-0.1,0.3-0.1,0.4c-0.2,0.1,0,0.2,0,0.3
					c0,0,0,0.1,0,0.2c0,0.1,0,0.3,0.1,0.4c0.1,0.2,0.3,0.4,0.4,0.5c0.2,0.1,0.4,0.6,0.6,0.6c0.2,0,0.4-0.1,0.5-0.1
					c0.2,0,0.4,0,0.6-0.1c0.2-0.1,0.1-0.3,0.3-0.5c0.1-0.1,0.3,0,0.4-0.1c0.2-0.1,0.3-0.3,0.4-0.5c0-0.1,0-0.1,0-0.2
					c0-0.1,0.1-0.2,0.1-0.3c0-0.1-0.1-0.1-0.1-0.2c0-0.1,0-0.2,0-0.3c0-0.2,0-0.4-0.1-0.5c-0.4-0.7-1.2-0.9-2-0.8
					c-0.2,0-0.3,0.1-0.4,0.2c-0.2,0.1-0.1,0.2-0.3,0.2c-0.1,0-0.2,0.1-0.2,0.2C69.4-56.4,69.4-56.4,69.4-56.3
					C69.4-56.3,69.4-56.3,69.4-56.3"/>
				<path class="st2" d="M61.8-56.3c0,0.1,0,0.1,0,0.2c-0.1,0.1-0.1,0.1-0.2,0.1c-0.1,0.1-0.1,0.3-0.1,0.4c-0.2,0.1,0,0.2,0,0.3
					c0,0,0,0.1,0,0.2c0,0.1,0,0.3,0.1,0.4c0.1,0.2,0.3,0.4,0.4,0.5c0.2,0.1,0.4,0.6,0.6,0.6c0.2,0,0.4-0.1,0.5-0.1
					c0.2,0,0.4,0,0.6-0.1c0.2-0.1,0.1-0.3,0.3-0.5c0.1-0.1,0.3,0,0.4-0.1c0.2-0.1,0.3-0.3,0.4-0.5c0-0.1,0-0.1,0-0.2
					c0-0.1,0.1-0.2,0.1-0.3c0-0.1-0.1-0.1-0.1-0.2c0-0.1,0-0.2,0-0.3c0-0.2,0-0.4-0.1-0.5c-0.4-0.7-1.2-0.9-2-0.8
					c-0.2,0-0.3,0.1-0.4,0.2c-0.2,0.1-0.1,0.2-0.3,0.2c-0.1,0-0.2,0.1-0.2,0.2C61.8-56.4,61.8-56.4,61.8-56.3
					C61.8-56.3,61.8-56.3,61.8-56.3"/>
				<path class="st2" d="M54.1-56.3c0,0.1,0,0.1,0,0.2C54-56.1,54-56.1,53.9-56c-0.1,0.1-0.1,0.3-0.1,0.4c-0.2,0.1,0,0.2,0,0.3
					c0,0,0,0.1,0,0.2c0,0.1,0,0.3,0.1,0.4c0.1,0.2,0.3,0.4,0.4,0.5c0.2,0.1,0.4,0.6,0.6,0.6c0.2,0,0.4-0.1,0.5-0.1
					c0.2,0,0.4,0,0.6-0.1c0.2-0.1,0.1-0.3,0.3-0.5c0.1-0.1,0.3,0,0.4-0.1c0.2-0.1,0.3-0.3,0.4-0.5c0-0.1,0-0.1,0-0.2
					c0-0.1,0.1-0.2,0.1-0.3c0-0.1-0.1-0.1-0.1-0.2c0-0.1,0-0.2,0-0.3c0-0.2,0-0.4-0.1-0.5c-0.4-0.7-1.2-0.9-2-0.8
					c-0.2,0-0.3,0.1-0.4,0.2c-0.2,0.1-0.1,0.2-0.3,0.2c-0.1,0-0.2,0.1-0.2,0.2C54.1-56.4,54.1-56.4,54.1-56.3
					C54.1-56.3,54.1-56.3,54.1-56.3"/>
				<path class="st2" d="M46.5-56.3c0,0.1,0,0.1,0,0.2c-0.1,0.1-0.1,0.1-0.2,0.1c-0.1,0.1-0.1,0.3-0.1,0.4c-0.2,0.1,0,0.2,0,0.3
					c0,0,0,0.1,0,0.2c0,0.1,0,0.3,0.1,0.4c0.1,0.2,0.3,0.4,0.4,0.5c0.2,0.1,0.4,0.6,0.6,0.6c0.2,0,0.4-0.1,0.5-0.1
					c0.2,0,0.4,0,0.6-0.1c0.2-0.1,0.1-0.3,0.3-0.5c0.1-0.1,0.3,0,0.4-0.1c0.2-0.1,0.3-0.3,0.4-0.5c0-0.1,0-0.1,0-0.2
					c0-0.1,0.1-0.2,0.1-0.3c0-0.1-0.1-0.1-0.1-0.2c0-0.1,0-0.2,0-0.3c0-0.2,0-0.4-0.1-0.5c-0.4-0.7-1.2-0.9-2-0.8
					c-0.2,0-0.3,0.1-0.4,0.2c-0.2,0.1-0.1,0.2-0.3,0.2c-0.1,0-0.2,0.1-0.2,0.2C46.5-56.4,46.5-56.4,46.5-56.3
					C46.5-56.3,46.5-56.3,46.5-56.3"/>
				<path class="st2" d="M38.8-56.3c0,0.1,0,0.1,0,0.2c-0.1,0.1-0.1,0.1-0.2,0.1c-0.1,0.1-0.1,0.3-0.1,0.4c-0.2,0.1,0,0.2,0,0.3
					c0,0,0,0.1,0,0.2c0,0.1,0,0.3,0.1,0.4c0.1,0.2,0.3,0.4,0.4,0.5c0.2,0.1,0.4,0.6,0.6,0.6c0.2,0,0.4-0.1,0.5-0.1
					c0.2,0,0.4,0,0.6-0.1c0.2-0.1,0.1-0.3,0.3-0.5c0.1-0.1,0.3,0,0.4-0.1c0.2-0.1,0.3-0.3,0.4-0.5c0-0.1,0-0.1,0-0.2
					c0-0.1,0.1-0.2,0.1-0.3c0-0.1-0.1-0.1-0.1-0.2c0-0.1,0-0.2,0-0.3c0-0.2,0-0.4-0.1-0.5c-0.4-0.7-1.2-0.9-2-0.8
					c-0.2,0-0.3,0.1-0.4,0.2c-0.2,0.1-0.1,0.2-0.3,0.2c-0.1,0-0.2,0.1-0.2,0.2C38.8-56.4,38.8-56.4,38.8-56.3
					C38.8-56.3,38.8-56.3,38.8-56.3"/>
				<path class="st2" d="M31.1-56.3c0,0.1,0,0.1,0,0.2c-0.1,0.1-0.1,0.1-0.2,0.1c-0.1,0.1-0.1,0.3-0.1,0.4c-0.2,0.1,0,0.2,0,0.3
					c0,0,0,0.1,0,0.2c0,0.1,0,0.3,0.1,0.4c0.1,0.2,0.3,0.4,0.4,0.5c0.2,0.1,0.4,0.6,0.6,0.6c0.2,0,0.4-0.1,0.5-0.1
					c0.2,0,0.4,0,0.6-0.1c0.2-0.1,0.1-0.3,0.3-0.5c0.1-0.1,0.3,0,0.4-0.1c0.2-0.1,0.3-0.3,0.4-0.5c0-0.1,0-0.1,0-0.2
					c0-0.1,0.1-0.2,0.1-0.3c0-0.1-0.1-0.1-0.1-0.2c0-0.1,0-0.2,0-0.3c0-0.2,0-0.4-0.1-0.5c-0.4-0.7-1.2-0.9-2-0.8
					c-0.2,0-0.3,0.1-0.4,0.2c-0.2,0.1-0.1,0.2-0.3,0.2c-0.1,0-0.2,0.1-0.2,0.2C31.1-56.4,31.1-56.4,31.1-56.3
					C31.1-56.3,31.1-56.3,31.1-56.3"/>
				<path class="st2" d="M23.5-56.3c0,0.1,0,0.1,0,0.2c-0.1,0.1-0.1,0.1-0.2,0.1c-0.1,0.1-0.1,0.3-0.1,0.4c-0.2,0.1,0,0.2,0,0.3
					c0,0,0,0.1,0,0.2c0,0.1,0,0.3,0.1,0.4c0.1,0.2,0.3,0.4,0.4,0.5c0.2,0.1,0.4,0.6,0.6,0.6c0.2,0,0.4-0.1,0.5-0.1
					c0.2,0,0.4,0,0.6-0.1c0.2-0.1,0.1-0.3,0.3-0.5c0.1-0.1,0.3,0,0.4-0.1c0.2-0.1,0.3-0.3,0.4-0.5c0-0.1,0-0.1,0-0.2
					c0-0.1,0.1-0.2,0.1-0.3c0-0.1-0.1-0.1-0.1-0.2c0-0.1,0-0.2,0-0.3c0-0.2,0-0.4-0.1-0.5c-0.4-0.7-1.2-0.9-2-0.8
					c-0.2,0-0.3,0.1-0.4,0.2c-0.2,0.1-0.1,0.2-0.3,0.2c-0.1,0-0.2,0.1-0.2,0.2C23.5-56.4,23.5-56.4,23.5-56.3
					C23.5-56.3,23.5-56.3,23.5-56.3"/>
				<path class="st2" d="M15.8-56.3c0,0.1,0,0.1,0,0.2c-0.1,0.1-0.1,0.1-0.2,0.1c-0.1,0.1-0.1,0.3-0.1,0.4c-0.2,0.1,0,0.2,0,0.3
					c0,0,0,0.1,0,0.2c0,0.1,0,0.3,0.1,0.4c0.1,0.2,0.3,0.4,0.4,0.5c0.2,0.1,0.4,0.6,0.6,0.6c0.2,0,0.4-0.1,0.5-0.1
					c0.2,0,0.4,0,0.6-0.1c0.2-0.1,0.1-0.3,0.3-0.5c0.1-0.1,0.3,0,0.4-0.1c0.2-0.1,0.3-0.3,0.4-0.5c0-0.1,0-0.1,0-0.2
					c0-0.1,0.1-0.2,0.1-0.3c0-0.1-0.1-0.1-0.1-0.2c0-0.1,0-0.2,0-0.3c0-0.2,0-0.4-0.1-0.5c-0.4-0.7-1.2-0.9-2-0.8
					c-0.2,0-0.3,0.1-0.4,0.2c-0.2,0.1-0.1,0.2-0.3,0.2c-0.1,0-0.2,0.1-0.2,0.2C15.8-56.4,15.8-56.4,15.8-56.3
					C15.8-56.3,15.8-56.3,15.8-56.3"/>
				<path class="st2" d="M8.2-56.3c0,0.1,0,0.1,0,0.2C8.1-56.1,8-56.1,8-56c-0.1,0.1-0.1,0.3-0.1,0.4c-0.2,0.1,0,0.2,0,0.3
					c0,0,0,0.1,0,0.2c0,0.1,0,0.3,0.1,0.4c0.1,0.2,0.3,0.4,0.4,0.5c0.2,0.1,0.4,0.6,0.6,0.6c0.2,0,0.4-0.1,0.5-0.1
					c0.2,0,0.4,0,0.6-0.1c0.2-0.1,0.1-0.3,0.3-0.5c0.1-0.1,0.3,0,0.4-0.1c0.2-0.1,0.3-0.3,0.4-0.5c0-0.1,0-0.1,0-0.2
					c0-0.1,0.1-0.2,0.1-0.3c0-0.1-0.1-0.1-0.1-0.2c0-0.1,0-0.2,0-0.3c0-0.2,0-0.4-0.1-0.5c-0.4-0.7-1.2-0.9-2-0.8
					c-0.2,0-0.3,0.1-0.4,0.2c-0.2,0.1-0.1,0.2-0.3,0.2c-0.1,0-0.2,0.1-0.2,0.2C8.2-56.4,8.2-56.4,8.2-56.3
					C8.1-56.3,8.1-56.3,8.2-56.3"/>
				<path class="st2" d="M0.5-56.3c0,0.1,0,0.1,0,0.2c-0.1,0.1-0.1,0.1-0.2,0.1c-0.1,0.1-0.1,0.3-0.1,0.4c-0.2,0.1,0,0.2,0,0.3
					c0,0,0,0.1,0,0.2c0,0.1,0,0.3,0.1,0.4c0.1,0.2,0.3,0.4,0.4,0.5c0.2,0.1,0.4,0.6,0.6,0.6c0.2,0,0.4-0.1,0.5-0.1
					c0.2,0,0.4,0,0.6-0.1c0.2-0.1,0.1-0.3,0.3-0.5c0.1-0.1,0.3,0,0.4-0.1c0.2-0.1,0.3-0.3,0.4-0.5c0-0.1,0-0.1,0-0.2
					c0-0.1,0.1-0.2,0.1-0.3c0-0.1-0.1-0.1-0.1-0.2c0-0.1,0-0.2,0-0.3c0-0.2,0-0.4-0.1-0.5c-0.4-0.7-1.2-0.9-2-0.8
					c-0.2,0-0.3,0.1-0.4,0.2c-0.2,0.1-0.1,0.2-0.3,0.2c-0.1,0-0.2,0.1-0.2,0.2C0.5-56.4,0.5-56.4,0.5-56.3
					C0.5-56.3,0.5-56.3,0.5-56.3"/>
			</g>
			<g>
				<path class="st2" d="M69.4-48.7c0,0.1,0,0.1,0,0.2c-0.1,0.1-0.1,0.1-0.2,0.1c-0.1,0.1-0.1,0.3-0.1,0.4c-0.2,0.1,0,0.2,0,0.3
					c0,0,0,0.1,0,0.2c0,0.1,0,0.3,0.1,0.4c0.1,0.2,0.3,0.4,0.4,0.5c0.2,0.1,0.4,0.6,0.6,0.6c0.2,0,0.4-0.1,0.5-0.1
					c0.2,0,0.4,0,0.6-0.1c0.2-0.1,0.1-0.3,0.3-0.5c0.1-0.1,0.3,0,0.4-0.1c0.2-0.1,0.3-0.3,0.4-0.5c0-0.1,0-0.1,0-0.2
					c0-0.1,0.1-0.2,0.1-0.3c0-0.1-0.1-0.1-0.1-0.2c0-0.1,0-0.2,0-0.3c0-0.2,0-0.4-0.1-0.5c-0.4-0.7-1.2-0.9-2-0.8
					c-0.2,0-0.3,0.1-0.4,0.2c-0.2,0.1-0.1,0.2-0.3,0.2c-0.1,0-0.2,0.1-0.2,0.2C69.4-48.7,69.4-48.8,69.4-48.7
					C69.4-48.7,69.4-48.7,69.4-48.7"/>
				<path class="st2" d="M61.8-48.7c0,0.1,0,0.1,0,0.2c-0.1,0.1-0.1,0.1-0.2,0.1c-0.1,0.1-0.1,0.3-0.1,0.4c-0.2,0.1,0,0.2,0,0.3
					c0,0,0,0.1,0,0.2c0,0.1,0,0.3,0.1,0.4c0.1,0.2,0.3,0.4,0.4,0.5c0.2,0.1,0.4,0.6,0.6,0.6c0.2,0,0.4-0.1,0.5-0.1
					c0.2,0,0.4,0,0.6-0.1c0.2-0.1,0.1-0.3,0.3-0.5c0.1-0.1,0.3,0,0.4-0.1c0.2-0.1,0.3-0.3,0.4-0.5c0-0.1,0-0.1,0-0.2
					c0-0.1,0.1-0.2,0.1-0.3c0-0.1-0.1-0.1-0.1-0.2c0-0.1,0-0.2,0-0.3c0-0.2,0-0.4-0.1-0.5c-0.4-0.7-1.2-0.9-2-0.8
					c-0.2,0-0.3,0.1-0.4,0.2c-0.2,0.1-0.1,0.2-0.3,0.2c-0.1,0-0.2,0.1-0.2,0.2C61.8-48.7,61.8-48.8,61.8-48.7
					C61.8-48.7,61.8-48.7,61.8-48.7"/>
				<path class="st2" d="M54.1-48.7c0,0.1,0,0.1,0,0.2c-0.1,0.1-0.1,0.1-0.2,0.1c-0.1,0.1-0.1,0.3-0.1,0.4c-0.2,0.1,0,0.2,0,0.3
					c0,0,0,0.1,0,0.2c0,0.1,0,0.3,0.1,0.4c0.1,0.2,0.3,0.4,0.4,0.5c0.2,0.1,0.4,0.6,0.6,0.6c0.2,0,0.4-0.1,0.5-0.1
					c0.2,0,0.4,0,0.6-0.1c0.2-0.1,0.1-0.3,0.3-0.5c0.1-0.1,0.3,0,0.4-0.1c0.2-0.1,0.3-0.3,0.4-0.5c0-0.1,0-0.1,0-0.2
					c0-0.1,0.1-0.2,0.1-0.3c0-0.1-0.1-0.1-0.1-0.2c0-0.1,0-0.2,0-0.3c0-0.2,0-0.4-0.1-0.5c-0.4-0.7-1.2-0.9-2-0.8
					c-0.2,0-0.3,0.1-0.4,0.2c-0.2,0.1-0.1,0.2-0.3,0.2c-0.1,0-0.2,0.1-0.2,0.2C54.1-48.7,54.1-48.8,54.1-48.7
					C54.1-48.7,54.1-48.7,54.1-48.7"/>
				<path class="st2" d="M46.5-48.7c0,0.1,0,0.1,0,0.2c-0.1,0.1-0.1,0.1-0.2,0.1c-0.1,0.1-0.1,0.3-0.1,0.4c-0.2,0.1,0,0.2,0,0.3
					c0,0,0,0.1,0,0.2c0,0.1,0,0.3,0.1,0.4c0.1,0.2,0.3,0.4,0.4,0.5c0.2,0.1,0.4,0.6,0.6,0.6c0.2,0,0.4-0.1,0.5-0.1
					c0.2,0,0.4,0,0.6-0.1c0.2-0.1,0.1-0.3,0.3-0.5c0.1-0.1,0.3,0,0.4-0.1c0.2-0.1,0.3-0.3,0.4-0.5c0-0.1,0-0.1,0-0.2
					c0-0.1,0.1-0.2,0.1-0.3c0-0.1-0.1-0.1-0.1-0.2c0-0.1,0-0.2,0-0.3c0-0.2,0-0.4-0.1-0.5c-0.4-0.7-1.2-0.9-2-0.8
					c-0.2,0-0.3,0.1-0.4,0.2c-0.2,0.1-0.1,0.2-0.3,0.2c-0.1,0-0.2,0.1-0.2,0.2C46.5-48.7,46.5-48.8,46.5-48.7
					C46.5-48.7,46.5-48.7,46.5-48.7"/>
				<path class="st2" d="M38.8-48.7c0,0.1,0,0.1,0,0.2c-0.1,0.1-0.1,0.1-0.2,0.1c-0.1,0.1-0.1,0.3-0.1,0.4c-0.2,0.1,0,0.2,0,0.3
					c0,0,0,0.1,0,0.2c0,0.1,0,0.3,0.1,0.4c0.1,0.2,0.3,0.4,0.4,0.5c0.2,0.1,0.4,0.6,0.6,0.6c0.2,0,0.4-0.1,0.5-0.1
					c0.2,0,0.4,0,0.6-0.1c0.2-0.1,0.1-0.3,0.3-0.5c0.1-0.1,0.3,0,0.4-0.1c0.2-0.1,0.3-0.3,0.4-0.5c0-0.1,0-0.1,0-0.2
					c0-0.1,0.1-0.2,0.1-0.3c0-0.1-0.1-0.1-0.1-0.2c0-0.1,0-0.2,0-0.3c0-0.2,0-0.4-0.1-0.5c-0.4-0.7-1.2-0.9-2-0.8
					c-0.2,0-0.3,0.1-0.4,0.2c-0.2,0.1-0.1,0.2-0.3,0.2c-0.1,0-0.2,0.1-0.2,0.2C38.8-48.7,38.8-48.8,38.8-48.7
					C38.8-48.7,38.8-48.7,38.8-48.7"/>
				<path class="st2" d="M31.1-48.7c0,0.1,0,0.1,0,0.2c-0.1,0.1-0.1,0.1-0.2,0.1c-0.1,0.1-0.1,0.3-0.1,0.4c-0.2,0.1,0,0.2,0,0.3
					c0,0,0,0.1,0,0.2c0,0.1,0,0.3,0.1,0.4c0.1,0.2,0.3,0.4,0.4,0.5c0.2,0.1,0.4,0.6,0.6,0.6c0.2,0,0.4-0.1,0.5-0.1
					c0.2,0,0.4,0,0.6-0.1c0.2-0.1,0.1-0.3,0.3-0.5c0.1-0.1,0.3,0,0.4-0.1c0.2-0.1,0.3-0.3,0.4-0.5c0-0.1,0-0.1,0-0.2
					c0-0.1,0.1-0.2,0.1-0.3c0-0.1-0.1-0.1-0.1-0.2c0-0.1,0-0.2,0-0.3c0-0.2,0-0.4-0.1-0.5c-0.4-0.7-1.2-0.9-2-0.8
					c-0.2,0-0.3,0.1-0.4,0.2c-0.2,0.1-0.1,0.2-0.3,0.2c-0.1,0-0.2,0.1-0.2,0.2C31.1-48.7,31.1-48.8,31.1-48.7
					C31.1-48.7,31.1-48.7,31.1-48.7"/>
				<path class="st2" d="M23.5-48.7c0,0.1,0,0.1,0,0.2c-0.1,0.1-0.1,0.1-0.2,0.1c-0.1,0.1-0.1,0.3-0.1,0.4c-0.2,0.1,0,0.2,0,0.3
					c0,0,0,0.1,0,0.2c0,0.1,0,0.3,0.1,0.4c0.1,0.2,0.3,0.4,0.4,0.5c0.2,0.1,0.4,0.6,0.6,0.6c0.2,0,0.4-0.1,0.5-0.1
					c0.2,0,0.4,0,0.6-0.1c0.2-0.1,0.1-0.3,0.3-0.5c0.1-0.1,0.3,0,0.4-0.1c0.2-0.1,0.3-0.3,0.4-0.5c0-0.1,0-0.1,0-0.2
					c0-0.1,0.1-0.2,0.1-0.3c0-0.1-0.1-0.1-0.1-0.2c0-0.1,0-0.2,0-0.3c0-0.2,0-0.4-0.1-0.5c-0.4-0.7-1.2-0.9-2-0.8
					c-0.2,0-0.3,0.1-0.4,0.2c-0.2,0.1-0.1,0.2-0.3,0.2c-0.1,0-0.2,0.1-0.2,0.2C23.5-48.7,23.5-48.8,23.5-48.7
					C23.5-48.7,23.5-48.7,23.5-48.7"/>
				<path class="st2" d="M15.8-48.7c0,0.1,0,0.1,0,0.2c-0.1,0.1-0.1,0.1-0.2,0.1c-0.1,0.1-0.1,0.3-0.1,0.4c-0.2,0.1,0,0.2,0,0.3
					c0,0,0,0.1,0,0.2c0,0.1,0,0.3,0.1,0.4c0.1,0.2,0.3,0.4,0.4,0.5c0.2,0.1,0.4,0.6,0.6,0.6c0.2,0,0.4-0.1,0.5-0.1
					c0.2,0,0.4,0,0.6-0.1c0.2-0.1,0.1-0.3,0.3-0.5c0.1-0.1,0.3,0,0.4-0.1c0.2-0.1,0.3-0.3,0.4-0.5c0-0.1,0-0.1,0-0.2
					c0-0.1,0.1-0.2,0.1-0.3c0-0.1-0.1-0.1-0.1-0.2c0-0.1,0-0.2,0-0.3c0-0.2,0-0.4-0.1-0.5c-0.4-0.7-1.2-0.9-2-0.8
					c-0.2,0-0.3,0.1-0.4,0.2c-0.2,0.1-0.1,0.2-0.3,0.2c-0.1,0-0.2,0.1-0.2,0.2C15.8-48.7,15.8-48.8,15.8-48.7
					C15.8-48.7,15.8-48.7,15.8-48.7"/>
				<path class="st2" d="M8.2-48.7c0,0.1,0,0.1,0,0.2C8.1-48.4,8-48.4,8-48.4c-0.1,0.1-0.1,0.3-0.1,0.4c-0.2,0.1,0,0.2,0,0.3
					c0,0,0,0.1,0,0.2c0,0.1,0,0.3,0.1,0.4c0.1,0.2,0.3,0.4,0.4,0.5C8.5-46.4,8.7-46,8.9-46c0.2,0,0.4-0.1,0.5-0.1
					c0.2,0,0.4,0,0.6-0.1c0.2-0.1,0.1-0.3,0.3-0.5c0.1-0.1,0.3,0,0.4-0.1c0.2-0.1,0.3-0.3,0.4-0.5c0-0.1,0-0.1,0-0.2
					c0-0.1,0.1-0.2,0.1-0.3c0-0.1-0.1-0.1-0.1-0.2c0-0.1,0-0.2,0-0.3c0-0.2,0-0.4-0.1-0.5c-0.4-0.7-1.2-0.9-2-0.8
					c-0.2,0-0.3,0.1-0.4,0.2c-0.2,0.1-0.1,0.2-0.3,0.2c-0.1,0-0.2,0.1-0.2,0.2C8.2-48.7,8.2-48.8,8.2-48.7
					C8.1-48.7,8.1-48.7,8.2-48.7"/>
				<path class="st2" d="M0.5-48.7c0,0.1,0,0.1,0,0.2c-0.1,0.1-0.1,0.1-0.2,0.1c-0.1,0.1-0.1,0.3-0.1,0.4c-0.2,0.1,0,0.2,0,0.3
					c0,0,0,0.1,0,0.2c0,0.1,0,0.3,0.1,0.4c0.1,0.2,0.3,0.4,0.4,0.5C0.9-46.4,1-46,1.3-46c0.2,0,0.4-0.1,0.5-0.1c0.2,0,0.4,0,0.6-0.1
					c0.2-0.1,0.1-0.3,0.3-0.5c0.1-0.1,0.3,0,0.4-0.1c0.2-0.1,0.3-0.3,0.4-0.5c0-0.1,0-0.1,0-0.2c0-0.1,0.1-0.2,0.1-0.3
					c0-0.1-0.1-0.1-0.1-0.2c0-0.1,0-0.2,0-0.3c0-0.2,0-0.4-0.1-0.5c-0.4-0.7-1.2-0.9-2-0.8c-0.2,0-0.3,0.1-0.4,0.2
					c-0.2,0.1-0.1,0.2-0.3,0.2c-0.1,0-0.2,0.1-0.2,0.2C0.5-48.7,0.5-48.8,0.5-48.7C0.5-48.7,0.5-48.7,0.5-48.7"/>
			</g>
			<g>
				<path class="st2" d="M69.4-41c0,0.1,0,0.1,0,0.2c-0.1,0.1-0.1,0.1-0.2,0.1c-0.1,0.1-0.1,0.3-0.1,0.4c-0.2,0.1,0,0.2,0,0.3
					c0,0,0,0.1,0,0.2c0,0.1,0,0.3,0.1,0.4c0.1,0.2,0.3,0.4,0.4,0.5c0.2,0.1,0.4,0.6,0.6,0.6c0.2,0,0.4-0.1,0.5-0.1
					c0.2,0,0.4,0,0.6-0.1c0.2-0.1,0.1-0.3,0.3-0.5c0.1-0.1,0.3,0,0.4-0.1c0.2-0.1,0.3-0.3,0.4-0.5c0-0.1,0-0.1,0-0.2
					c0-0.1,0.1-0.2,0.1-0.3c0-0.1-0.1-0.1-0.1-0.2c0-0.1,0-0.2,0-0.3c0-0.2,0-0.4-0.1-0.5c-0.4-0.7-1.2-0.9-2-0.8
					c-0.2,0-0.3,0.1-0.4,0.2c-0.2,0.1-0.1,0.2-0.3,0.2c-0.1,0-0.2,0.1-0.2,0.2C69.4-41.1,69.4-41.1,69.4-41C69.4-41,69.4-41,69.4-41
					"/>
				<path class="st2" d="M61.8-41c0,0.1,0,0.1,0,0.2c-0.1,0.1-0.1,0.1-0.2,0.1c-0.1,0.1-0.1,0.3-0.1,0.4c-0.2,0.1,0,0.2,0,0.3
					c0,0,0,0.1,0,0.2c0,0.1,0,0.3,0.1,0.4c0.1,0.2,0.3,0.4,0.4,0.5c0.2,0.1,0.4,0.6,0.6,0.6c0.2,0,0.4-0.1,0.5-0.1
					c0.2,0,0.4,0,0.6-0.1c0.2-0.1,0.1-0.3,0.3-0.5c0.1-0.1,0.3,0,0.4-0.1c0.2-0.1,0.3-0.3,0.4-0.5c0-0.1,0-0.1,0-0.2
					c0-0.1,0.1-0.2,0.1-0.3c0-0.1-0.1-0.1-0.1-0.2c0-0.1,0-0.2,0-0.3c0-0.2,0-0.4-0.1-0.5c-0.4-0.7-1.2-0.9-2-0.8
					c-0.2,0-0.3,0.1-0.4,0.2c-0.2,0.1-0.1,0.2-0.3,0.2c-0.1,0-0.2,0.1-0.2,0.2C61.8-41.1,61.8-41.1,61.8-41C61.8-41,61.8-41,61.8-41
					"/>
				<path class="st2" d="M54.1-41c0,0.1,0,0.1,0,0.2c-0.1,0.1-0.1,0.1-0.2,0.1c-0.1,0.1-0.1,0.3-0.1,0.4c-0.2,0.1,0,0.2,0,0.3
					c0,0,0,0.1,0,0.2c0,0.1,0,0.3,0.1,0.4c0.1,0.2,0.3,0.4,0.4,0.5c0.2,0.1,0.4,0.6,0.6,0.6c0.2,0,0.4-0.1,0.5-0.1
					c0.2,0,0.4,0,0.6-0.1c0.2-0.1,0.1-0.3,0.3-0.5c0.1-0.1,0.3,0,0.4-0.1c0.2-0.1,0.3-0.3,0.4-0.5c0-0.1,0-0.1,0-0.2
					c0-0.1,0.1-0.2,0.1-0.3c0-0.1-0.1-0.1-0.1-0.2c0-0.1,0-0.2,0-0.3c0-0.2,0-0.4-0.1-0.5c-0.4-0.7-1.2-0.9-2-0.8
					c-0.2,0-0.3,0.1-0.4,0.2c-0.2,0.1-0.1,0.2-0.3,0.2c-0.1,0-0.2,0.1-0.2,0.2C54.1-41.1,54.1-41.1,54.1-41C54.1-41,54.1-41,54.1-41
					"/>
				<path class="st2" d="M46.5-41c0,0.1,0,0.1,0,0.2c-0.1,0.1-0.1,0.1-0.2,0.1c-0.1,0.1-0.1,0.3-0.1,0.4c-0.2,0.1,0,0.2,0,0.3
					c0,0,0,0.1,0,0.2c0,0.1,0,0.3,0.1,0.4c0.1,0.2,0.3,0.4,0.4,0.5c0.2,0.1,0.4,0.6,0.6,0.6c0.2,0,0.4-0.1,0.5-0.1
					c0.2,0,0.4,0,0.6-0.1c0.2-0.1,0.1-0.3,0.3-0.5c0.1-0.1,0.3,0,0.4-0.1c0.2-0.1,0.3-0.3,0.4-0.5c0-0.1,0-0.1,0-0.2
					c0-0.1,0.1-0.2,0.1-0.3c0-0.1-0.1-0.1-0.1-0.2c0-0.1,0-0.2,0-0.3c0-0.2,0-0.4-0.1-0.5c-0.4-0.7-1.2-0.9-2-0.8
					c-0.2,0-0.3,0.1-0.4,0.2c-0.2,0.1-0.1,0.2-0.3,0.2c-0.1,0-0.2,0.1-0.2,0.2C46.5-41.1,46.5-41.1,46.5-41C46.5-41,46.5-41,46.5-41
					"/>
				<path class="st2" d="M38.8-41c0,0.1,0,0.1,0,0.2c-0.1,0.1-0.1,0.1-0.2,0.1c-0.1,0.1-0.1,0.3-0.1,0.4c-0.2,0.1,0,0.2,0,0.3
					c0,0,0,0.1,0,0.2c0,0.1,0,0.3,0.1,0.4c0.1,0.2,0.3,0.4,0.4,0.5c0.2,0.1,0.4,0.6,0.6,0.6c0.2,0,0.4-0.1,0.5-0.1
					c0.2,0,0.4,0,0.6-0.1c0.2-0.1,0.1-0.3,0.3-0.5c0.1-0.1,0.3,0,0.4-0.1c0.2-0.1,0.3-0.3,0.4-0.5c0-0.1,0-0.1,0-0.2
					c0-0.1,0.1-0.2,0.1-0.3c0-0.1-0.1-0.1-0.1-0.2c0-0.1,0-0.2,0-0.3c0-0.2,0-0.4-0.1-0.5c-0.4-0.7-1.2-0.9-2-0.8
					c-0.2,0-0.3,0.1-0.4,0.2c-0.2,0.1-0.1,0.2-0.3,0.2c-0.1,0-0.2,0.1-0.2,0.2C38.8-41.1,38.8-41.1,38.8-41C38.8-41,38.8-41,38.8-41
					"/>
				<path class="st2" d="M31.1-41c0,0.1,0,0.1,0,0.2c-0.1,0.1-0.1,0.1-0.2,0.1c-0.1,0.1-0.1,0.3-0.1,0.4c-0.2,0.1,0,0.2,0,0.3
					c0,0,0,0.1,0,0.2c0,0.1,0,0.3,0.1,0.4c0.1,0.2,0.3,0.4,0.4,0.5c0.2,0.1,0.4,0.6,0.6,0.6c0.2,0,0.4-0.1,0.5-0.1
					c0.2,0,0.4,0,0.6-0.1c0.2-0.1,0.1-0.3,0.3-0.5c0.1-0.1,0.3,0,0.4-0.1c0.2-0.1,0.3-0.3,0.4-0.5c0-0.1,0-0.1,0-0.2
					c0-0.1,0.1-0.2,0.1-0.3c0-0.1-0.1-0.1-0.1-0.2c0-0.1,0-0.2,0-0.3c0-0.2,0-0.4-0.1-0.5c-0.4-0.7-1.2-0.9-2-0.8
					c-0.2,0-0.3,0.1-0.4,0.2c-0.2,0.1-0.1,0.2-0.3,0.2c-0.1,0-0.2,0.1-0.2,0.2C31.1-41.1,31.1-41.1,31.1-41C31.1-41,31.1-41,31.1-41
					"/>
				<path class="st2" d="M23.5-41c0,0.1,0,0.1,0,0.2c-0.1,0.1-0.1,0.1-0.2,0.1c-0.1,0.1-0.1,0.3-0.1,0.4c-0.2,0.1,0,0.2,0,0.3
					c0,0,0,0.1,0,0.2c0,0.1,0,0.3,0.1,0.4c0.1,0.2,0.3,0.4,0.4,0.5c0.2,0.1,0.4,0.6,0.6,0.6c0.2,0,0.4-0.1,0.5-0.1
					c0.2,0,0.4,0,0.6-0.1c0.2-0.1,0.1-0.3,0.3-0.5c0.1-0.1,0.3,0,0.4-0.1c0.2-0.1,0.3-0.3,0.4-0.5c0-0.1,0-0.1,0-0.2
					c0-0.1,0.1-0.2,0.1-0.3c0-0.1-0.1-0.1-0.1-0.2c0-0.1,0-0.2,0-0.3c0-0.2,0-0.4-0.1-0.5c-0.4-0.7-1.2-0.9-2-0.8
					c-0.2,0-0.3,0.1-0.4,0.2c-0.2,0.1-0.1,0.2-0.3,0.2c-0.1,0-0.2,0.1-0.2,0.2C23.5-41.1,23.5-41.1,23.5-41C23.5-41,23.5-41,23.5-41
					"/>
				<path class="st2" d="M15.8-41c0,0.1,0,0.1,0,0.2c-0.1,0.1-0.1,0.1-0.2,0.1c-0.1,0.1-0.1,0.3-0.1,0.4c-0.2,0.1,0,0.2,0,0.3
					c0,0,0,0.1,0,0.2c0,0.1,0,0.3,0.1,0.4c0.1,0.2,0.3,0.4,0.4,0.5c0.2,0.1,0.4,0.6,0.6,0.6c0.2,0,0.4-0.1,0.5-0.1
					c0.2,0,0.4,0,0.6-0.1c0.2-0.1,0.1-0.3,0.3-0.5c0.1-0.1,0.3,0,0.4-0.1c0.2-0.1,0.3-0.3,0.4-0.5c0-0.1,0-0.1,0-0.2
					c0-0.1,0.1-0.2,0.1-0.3c0-0.1-0.1-0.1-0.1-0.2c0-0.1,0-0.2,0-0.3c0-0.2,0-0.4-0.1-0.5c-0.4-0.7-1.2-0.9-2-0.8
					c-0.2,0-0.3,0.1-0.4,0.2c-0.2,0.1-0.1,0.2-0.3,0.2c-0.1,0-0.2,0.1-0.2,0.2C15.8-41.1,15.8-41.1,15.8-41C15.8-41,15.8-41,15.8-41
					"/>
				<path class="st2" d="M8.2-41c0,0.1,0,0.1,0,0.2C8.1-40.8,8-40.8,8-40.7c-0.1,0.1-0.1,0.3-0.1,0.4c-0.2,0.1,0,0.2,0,0.3
					c0,0,0,0.1,0,0.2c0,0.1,0,0.3,0.1,0.4c0.1,0.2,0.3,0.4,0.4,0.5c0.2,0.1,0.4,0.6,0.6,0.6c0.2,0,0.4-0.1,0.5-0.1
					c0.2,0,0.4,0,0.6-0.1c0.2-0.1,0.1-0.3,0.3-0.5c0.1-0.1,0.3,0,0.4-0.1c0.2-0.1,0.3-0.3,0.4-0.5c0-0.1,0-0.1,0-0.2
					c0-0.1,0.1-0.2,0.1-0.3c0-0.1-0.1-0.1-0.1-0.2c0-0.1,0-0.2,0-0.3c0-0.2,0-0.4-0.1-0.5c-0.4-0.7-1.2-0.9-2-0.8
					c-0.2,0-0.3,0.1-0.4,0.2c-0.2,0.1-0.1,0.2-0.3,0.2c-0.1,0-0.2,0.1-0.2,0.2C8.2-41.1,8.2-41.1,8.2-41C8.1-41,8.1-41,8.2-41"/>
				<path class="st2" d="M0.5-41c0,0.1,0,0.1,0,0.2c-0.1,0.1-0.1,0.1-0.2,0.1c-0.1,0.1-0.1,0.3-0.1,0.4c-0.2,0.1,0,0.2,0,0.3
					c0,0,0,0.1,0,0.2c0,0.1,0,0.3,0.1,0.4c0.1,0.2,0.3,0.4,0.4,0.5c0.2,0.1,0.4,0.6,0.6,0.6c0.2,0,0.4-0.1,0.5-0.1
					c0.2,0,0.4,0,0.6-0.1c0.2-0.1,0.1-0.3,0.3-0.5C2.8-39,3-39,3.1-39c0.2-0.1,0.3-0.3,0.4-0.5c0-0.1,0-0.1,0-0.2
					c0-0.1,0.1-0.2,0.1-0.3c0-0.1-0.1-0.1-0.1-0.2c0-0.1,0-0.2,0-0.3c0-0.2,0-0.4-0.1-0.5c-0.4-0.7-1.2-0.9-2-0.8
					c-0.2,0-0.3,0.1-0.4,0.2c-0.2,0.1-0.1,0.2-0.3,0.2c-0.1,0-0.2,0.1-0.2,0.2C0.5-41.1,0.5-41.1,0.5-41C0.5-41,0.5-41,0.5-41"/>
			</g>
			<g>
				<path class="st2" d="M69.4-33.4c0,0.1,0,0.1,0,0.2c-0.1,0.1-0.1,0.1-0.2,0.1c-0.1,0.1-0.1,0.3-0.1,0.4c-0.2,0.1,0,0.2,0,0.3
					c0,0,0,0.1,0,0.2c0,0.1,0,0.3,0.1,0.4c0.1,0.2,0.3,0.4,0.4,0.5c0.2,0.1,0.4,0.6,0.6,0.6c0.2,0,0.4-0.1,0.5-0.1
					c0.2,0,0.4,0,0.6-0.1c0.2-0.1,0.1-0.3,0.3-0.5c0.1-0.1,0.3,0,0.4-0.1c0.2-0.1,0.3-0.3,0.4-0.5c0-0.1,0-0.1,0-0.2
					c0-0.1,0.1-0.2,0.1-0.3c0-0.1-0.1-0.1-0.1-0.2c0-0.1,0-0.2,0-0.3c0-0.2,0-0.4-0.1-0.5c-0.4-0.7-1.2-0.9-2-0.8
					c-0.2,0-0.3,0.1-0.4,0.2c-0.2,0.1-0.1,0.2-0.3,0.2c-0.1,0-0.2,0.1-0.2,0.2C69.4-33.4,69.4-33.5,69.4-33.4
					C69.4-33.4,69.4-33.4,69.4-33.4"/>
				<path class="st2" d="M61.8-33.4c0,0.1,0,0.1,0,0.2c-0.1,0.1-0.1,0.1-0.2,0.1c-0.1,0.1-0.1,0.3-0.1,0.4c-0.2,0.1,0,0.2,0,0.3
					c0,0,0,0.1,0,0.2c0,0.1,0,0.3,0.1,0.4c0.1,0.2,0.3,0.4,0.4,0.5c0.2,0.1,0.4,0.6,0.6,0.6c0.2,0,0.4-0.1,0.5-0.1
					c0.2,0,0.4,0,0.6-0.1c0.2-0.1,0.1-0.3,0.3-0.5c0.1-0.1,0.3,0,0.4-0.1c0.2-0.1,0.3-0.3,0.4-0.5c0-0.1,0-0.1,0-0.2
					c0-0.1,0.1-0.2,0.1-0.3c0-0.1-0.1-0.1-0.1-0.2c0-0.1,0-0.2,0-0.3c0-0.2,0-0.4-0.1-0.5c-0.4-0.7-1.2-0.9-2-0.8
					c-0.2,0-0.3,0.1-0.4,0.2c-0.2,0.1-0.1,0.2-0.3,0.2c-0.1,0-0.2,0.1-0.2,0.2C61.8-33.4,61.8-33.5,61.8-33.4
					C61.8-33.4,61.8-33.4,61.8-33.4"/>
				<path class="st2" d="M54.1-33.4c0,0.1,0,0.1,0,0.2c-0.1,0.1-0.1,0.1-0.2,0.1c-0.1,0.1-0.1,0.3-0.1,0.4c-0.2,0.1,0,0.2,0,0.3
					c0,0,0,0.1,0,0.2c0,0.1,0,0.3,0.1,0.4c0.1,0.2,0.3,0.4,0.4,0.5c0.2,0.1,0.4,0.6,0.6,0.6c0.2,0,0.4-0.1,0.5-0.1
					c0.2,0,0.4,0,0.6-0.1c0.2-0.1,0.1-0.3,0.3-0.5c0.1-0.1,0.3,0,0.4-0.1c0.2-0.1,0.3-0.3,0.4-0.5c0-0.1,0-0.1,0-0.2
					c0-0.1,0.1-0.2,0.1-0.3c0-0.1-0.1-0.1-0.1-0.2c0-0.1,0-0.2,0-0.3c0-0.2,0-0.4-0.1-0.5c-0.4-0.7-1.2-0.9-2-0.8
					c-0.2,0-0.3,0.1-0.4,0.2c-0.2,0.1-0.1,0.2-0.3,0.2c-0.1,0-0.2,0.1-0.2,0.2C54.1-33.4,54.1-33.5,54.1-33.4
					C54.1-33.4,54.1-33.4,54.1-33.4"/>
				<path class="st2" d="M46.5-33.4c0,0.1,0,0.1,0,0.2c-0.1,0.1-0.1,0.1-0.2,0.1c-0.1,0.1-0.1,0.3-0.1,0.4c-0.2,0.1,0,0.2,0,0.3
					c0,0,0,0.1,0,0.2c0,0.1,0,0.3,0.1,0.4c0.1,0.2,0.3,0.4,0.4,0.5c0.2,0.1,0.4,0.6,0.6,0.6c0.2,0,0.4-0.1,0.5-0.1
					c0.2,0,0.4,0,0.6-0.1c0.2-0.1,0.1-0.3,0.3-0.5c0.1-0.1,0.3,0,0.4-0.1c0.2-0.1,0.3-0.3,0.4-0.5c0-0.1,0-0.1,0-0.2
					c0-0.1,0.1-0.2,0.1-0.3c0-0.1-0.1-0.1-0.1-0.2c0-0.1,0-0.2,0-0.3c0-0.2,0-0.4-0.1-0.5c-0.4-0.7-1.2-0.9-2-0.8
					c-0.2,0-0.3,0.1-0.4,0.2c-0.2,0.1-0.1,0.2-0.3,0.2c-0.1,0-0.2,0.1-0.2,0.2C46.5-33.4,46.5-33.5,46.5-33.4
					C46.5-33.4,46.5-33.4,46.5-33.4"/>
				<path class="st2" d="M38.8-33.4c0,0.1,0,0.1,0,0.2c-0.1,0.1-0.1,0.1-0.2,0.1c-0.1,0.1-0.1,0.3-0.1,0.4c-0.2,0.1,0,0.2,0,0.3
					c0,0,0,0.1,0,0.2c0,0.1,0,0.3,0.1,0.4c0.1,0.2,0.3,0.4,0.4,0.5c0.2,0.1,0.4,0.6,0.6,0.6c0.2,0,0.4-0.1,0.5-0.1
					c0.2,0,0.4,0,0.6-0.1c0.2-0.1,0.1-0.3,0.3-0.5c0.1-0.1,0.3,0,0.4-0.1c0.2-0.1,0.3-0.3,0.4-0.5c0-0.1,0-0.1,0-0.2
					c0-0.1,0.1-0.2,0.1-0.3c0-0.1-0.1-0.1-0.1-0.2c0-0.1,0-0.2,0-0.3c0-0.2,0-0.4-0.1-0.5c-0.4-0.7-1.2-0.9-2-0.8
					c-0.2,0-0.3,0.1-0.4,0.2c-0.2,0.1-0.1,0.2-0.3,0.2c-0.1,0-0.2,0.1-0.2,0.2C38.8-33.4,38.8-33.5,38.8-33.4
					C38.8-33.4,38.8-33.4,38.8-33.4"/>
				<path class="st2" d="M31.1-33.4c0,0.1,0,0.1,0,0.2c-0.1,0.1-0.1,0.1-0.2,0.1c-0.1,0.1-0.1,0.3-0.1,0.4c-0.2,0.1,0,0.2,0,0.3
					c0,0,0,0.1,0,0.2c0,0.1,0,0.3,0.1,0.4c0.1,0.2,0.3,0.4,0.4,0.5c0.2,0.1,0.4,0.6,0.6,0.6c0.2,0,0.4-0.1,0.5-0.1
					c0.2,0,0.4,0,0.6-0.1c0.2-0.1,0.1-0.3,0.3-0.5c0.1-0.1,0.3,0,0.4-0.1c0.2-0.1,0.3-0.3,0.4-0.5c0-0.1,0-0.1,0-0.2
					c0-0.1,0.1-0.2,0.1-0.3c0-0.1-0.1-0.1-0.1-0.2c0-0.1,0-0.2,0-0.3c0-0.2,0-0.4-0.1-0.5c-0.4-0.7-1.2-0.9-2-0.8
					c-0.2,0-0.3,0.1-0.4,0.2c-0.2,0.1-0.1,0.2-0.3,0.2c-0.1,0-0.2,0.1-0.2,0.2C31.1-33.4,31.1-33.5,31.1-33.4
					C31.1-33.4,31.1-33.4,31.1-33.4"/>
				<path class="st2" d="M23.5-33.4c0,0.1,0,0.1,0,0.2c-0.1,0.1-0.1,0.1-0.2,0.1c-0.1,0.1-0.1,0.3-0.1,0.4c-0.2,0.1,0,0.2,0,0.3
					c0,0,0,0.1,0,0.2c0,0.1,0,0.3,0.1,0.4c0.1,0.2,0.3,0.4,0.4,0.5c0.2,0.1,0.4,0.6,0.6,0.6c0.2,0,0.4-0.1,0.5-0.1
					c0.2,0,0.4,0,0.6-0.1c0.2-0.1,0.1-0.3,0.3-0.5c0.1-0.1,0.3,0,0.4-0.1c0.2-0.1,0.3-0.3,0.4-0.5c0-0.1,0-0.1,0-0.2
					c0-0.1,0.1-0.2,0.1-0.3c0-0.1-0.1-0.1-0.1-0.2c0-0.1,0-0.2,0-0.3c0-0.2,0-0.4-0.1-0.5c-0.4-0.7-1.2-0.9-2-0.8
					c-0.2,0-0.3,0.1-0.4,0.2c-0.2,0.1-0.1,0.2-0.3,0.2c-0.1,0-0.2,0.1-0.2,0.2C23.5-33.4,23.5-33.5,23.5-33.4
					C23.5-33.4,23.5-33.4,23.5-33.4"/>
				<path class="st2" d="M15.8-33.4c0,0.1,0,0.1,0,0.2c-0.1,0.1-0.1,0.1-0.2,0.1c-0.1,0.1-0.1,0.3-0.1,0.4c-0.2,0.1,0,0.2,0,0.3
					c0,0,0,0.1,0,0.2c0,0.1,0,0.3,0.1,0.4c0.1,0.2,0.3,0.4,0.4,0.5c0.2,0.1,0.4,0.6,0.6,0.6c0.2,0,0.4-0.1,0.5-0.1
					c0.2,0,0.4,0,0.6-0.1c0.2-0.1,0.1-0.3,0.3-0.5c0.1-0.1,0.3,0,0.4-0.1c0.2-0.1,0.3-0.3,0.4-0.5c0-0.1,0-0.1,0-0.2
					c0-0.1,0.1-0.2,0.1-0.3c0-0.1-0.1-0.1-0.1-0.2c0-0.1,0-0.2,0-0.3c0-0.2,0-0.4-0.1-0.5c-0.4-0.7-1.2-0.9-2-0.8
					c-0.2,0-0.3,0.1-0.4,0.2c-0.2,0.1-0.1,0.2-0.3,0.2c-0.1,0-0.2,0.1-0.2,0.2C15.8-33.4,15.8-33.5,15.8-33.4
					C15.8-33.4,15.8-33.4,15.8-33.4"/>
				<path class="st2" d="M8.2-33.4c0,0.1,0,0.1,0,0.2C8.1-33.1,8-33.1,8-33.1c-0.1,0.1-0.1,0.3-0.1,0.4c-0.2,0.1,0,0.2,0,0.3
					c0,0,0,0.1,0,0.2c0,0.1,0,0.3,0.1,0.4c0.1,0.2,0.3,0.4,0.4,0.5c0.2,0.1,0.4,0.6,0.6,0.6c0.2,0,0.4-0.1,0.5-0.1
					c0.2,0,0.4,0,0.6-0.1c0.2-0.1,0.1-0.3,0.3-0.5c0.1-0.1,0.3,0,0.4-0.1c0.2-0.1,0.3-0.3,0.4-0.5c0-0.1,0-0.1,0-0.2
					c0-0.1,0.1-0.2,0.1-0.3c0-0.1-0.1-0.1-0.1-0.2c0-0.1,0-0.2,0-0.3c0-0.2,0-0.4-0.1-0.5c-0.4-0.7-1.2-0.9-2-0.8
					c-0.2,0-0.3,0.1-0.4,0.2c-0.2,0.1-0.1,0.2-0.3,0.2c-0.1,0-0.2,0.1-0.2,0.2C8.2-33.4,8.2-33.5,8.2-33.4
					C8.1-33.4,8.1-33.4,8.2-33.4"/>
				<path class="st2" d="M0.5-33.4c0,0.1,0,0.1,0,0.2c-0.1,0.1-0.1,0.1-0.2,0.1c-0.1,0.1-0.1,0.3-0.1,0.4c-0.2,0.1,0,0.2,0,0.3
					c0,0,0,0.1,0,0.2c0,0.1,0,0.3,0.1,0.4c0.1,0.2,0.3,0.4,0.4,0.5c0.2,0.1,0.4,0.6,0.6,0.6c0.2,0,0.4-0.1,0.5-0.1
					c0.2,0,0.4,0,0.6-0.1c0.2-0.1,0.1-0.3,0.3-0.5c0.1-0.1,0.3,0,0.4-0.1c0.2-0.1,0.3-0.3,0.4-0.5c0-0.1,0-0.1,0-0.2
					c0-0.1,0.1-0.2,0.1-0.3c0-0.1-0.1-0.1-0.1-0.2c0-0.1,0-0.2,0-0.3c0-0.2,0-0.4-0.1-0.5c-0.4-0.7-1.2-0.9-2-0.8
					c-0.2,0-0.3,0.1-0.4,0.2c-0.2,0.1-0.1,0.2-0.3,0.2c-0.1,0-0.2,0.1-0.2,0.2C0.5-33.4,0.5-33.5,0.5-33.4
					C0.5-33.4,0.5-33.4,0.5-33.4"/>
			</g>
			<g>
				<path class="st2" d="M69.4-25.7c0,0.1,0,0.1,0,0.2c-0.1,0.1-0.1,0.1-0.2,0.1c-0.1,0.1-0.1,0.3-0.1,0.4c-0.2,0.1,0,0.2,0,0.3
					c0,0,0,0.1,0,0.2c0,0.1,0,0.3,0.1,0.4c0.1,0.2,0.3,0.4,0.4,0.5c0.2,0.1,0.4,0.6,0.6,0.6c0.2,0,0.4-0.1,0.5-0.1
					c0.2,0,0.4,0,0.6-0.1c0.2-0.1,0.1-0.3,0.3-0.5c0.1-0.1,0.3,0,0.4-0.1c0.2-0.1,0.3-0.3,0.4-0.5c0-0.1,0-0.1,0-0.2
					c0-0.1,0.1-0.2,0.1-0.3c0-0.1-0.1-0.1-0.1-0.2c0-0.1,0-0.2,0-0.3c0-0.2,0-0.4-0.1-0.5c-0.4-0.7-1.2-0.9-2-0.8
					c-0.2,0-0.3,0.1-0.4,0.2c-0.2,0.1-0.1,0.2-0.3,0.2c-0.1,0-0.2,0.1-0.2,0.2C69.4-25.8,69.4-25.8,69.4-25.7
					C69.4-25.7,69.4-25.7,69.4-25.7"/>
				<path class="st2" d="M61.8-25.7c0,0.1,0,0.1,0,0.2c-0.1,0.1-0.1,0.1-0.2,0.1c-0.1,0.1-0.1,0.3-0.1,0.4c-0.2,0.1,0,0.2,0,0.3
					c0,0,0,0.1,0,0.2c0,0.1,0,0.3,0.1,0.4c0.1,0.2,0.3,0.4,0.4,0.5c0.2,0.1,0.4,0.6,0.6,0.6c0.2,0,0.4-0.1,0.5-0.1
					c0.2,0,0.4,0,0.6-0.1c0.2-0.1,0.1-0.3,0.3-0.5c0.1-0.1,0.3,0,0.4-0.1c0.2-0.1,0.3-0.3,0.4-0.5c0-0.1,0-0.1,0-0.2
					c0-0.1,0.1-0.2,0.1-0.3c0-0.1-0.1-0.1-0.1-0.2c0-0.1,0-0.2,0-0.3c0-0.2,0-0.4-0.1-0.5c-0.4-0.7-1.2-0.9-2-0.8
					c-0.2,0-0.3,0.1-0.4,0.2c-0.2,0.1-0.1,0.2-0.3,0.2c-0.1,0-0.2,0.1-0.2,0.2C61.8-25.8,61.8-25.8,61.8-25.7
					C61.8-25.7,61.8-25.7,61.8-25.7"/>
				<path class="st2" d="M54.1-25.7c0,0.1,0,0.1,0,0.2c-0.1,0.1-0.1,0.1-0.2,0.1c-0.1,0.1-0.1,0.3-0.1,0.4c-0.2,0.1,0,0.2,0,0.3
					c0,0,0,0.1,0,0.2c0,0.1,0,0.3,0.1,0.4c0.1,0.2,0.3,0.4,0.4,0.5c0.2,0.1,0.4,0.6,0.6,0.6c0.2,0,0.4-0.1,0.5-0.1
					c0.2,0,0.4,0,0.6-0.1c0.2-0.1,0.1-0.3,0.3-0.5c0.1-0.1,0.3,0,0.4-0.1c0.2-0.1,0.3-0.3,0.4-0.5c0-0.1,0-0.1,0-0.2
					c0-0.1,0.1-0.2,0.1-0.3c0-0.1-0.1-0.1-0.1-0.2c0-0.1,0-0.2,0-0.3c0-0.2,0-0.4-0.1-0.5c-0.4-0.7-1.2-0.9-2-0.8
					c-0.2,0-0.3,0.1-0.4,0.2c-0.2,0.1-0.1,0.2-0.3,0.2c-0.1,0-0.2,0.1-0.2,0.2C54.1-25.8,54.1-25.8,54.1-25.7
					C54.1-25.7,54.1-25.7,54.1-25.7"/>
				<path class="st2" d="M46.5-25.7c0,0.1,0,0.1,0,0.2c-0.1,0.1-0.1,0.1-0.2,0.1c-0.1,0.1-0.1,0.3-0.1,0.4c-0.2,0.1,0,0.2,0,0.3
					c0,0,0,0.1,0,0.2c0,0.1,0,0.3,0.1,0.4c0.1,0.2,0.3,0.4,0.4,0.5c0.2,0.1,0.4,0.6,0.6,0.6c0.2,0,0.4-0.1,0.5-0.1
					c0.2,0,0.4,0,0.6-0.1c0.2-0.1,0.1-0.3,0.3-0.5c0.1-0.1,0.3,0,0.4-0.1c0.2-0.1,0.3-0.3,0.4-0.5c0-0.1,0-0.1,0-0.2
					c0-0.1,0.1-0.2,0.1-0.3c0-0.1-0.1-0.1-0.1-0.2c0-0.1,0-0.2,0-0.3c0-0.2,0-0.4-0.1-0.5c-0.4-0.7-1.2-0.9-2-0.8
					c-0.2,0-0.3,0.1-0.4,0.2c-0.2,0.1-0.1,0.2-0.3,0.2c-0.1,0-0.2,0.1-0.2,0.2C46.5-25.8,46.5-25.8,46.5-25.7
					C46.5-25.7,46.5-25.7,46.5-25.7"/>
				<path class="st2" d="M38.8-25.7c0,0.1,0,0.1,0,0.2c-0.1,0.1-0.1,0.1-0.2,0.1c-0.1,0.1-0.1,0.3-0.1,0.4c-0.2,0.1,0,0.2,0,0.3
					c0,0,0,0.1,0,0.2c0,0.1,0,0.3,0.1,0.4c0.1,0.2,0.3,0.4,0.4,0.5c0.2,0.1,0.4,0.6,0.6,0.6c0.2,0,0.4-0.1,0.5-0.1
					c0.2,0,0.4,0,0.6-0.1c0.2-0.1,0.1-0.3,0.3-0.5c0.1-0.1,0.3,0,0.4-0.1c0.2-0.1,0.3-0.3,0.4-0.5c0-0.1,0-0.1,0-0.2
					c0-0.1,0.1-0.2,0.1-0.3c0-0.1-0.1-0.1-0.1-0.2c0-0.1,0-0.2,0-0.3c0-0.2,0-0.4-0.1-0.5c-0.4-0.7-1.2-0.9-2-0.8
					c-0.2,0-0.3,0.1-0.4,0.2c-0.2,0.1-0.1,0.2-0.3,0.2c-0.1,0-0.2,0.1-0.2,0.2C38.8-25.8,38.8-25.8,38.8-25.7
					C38.8-25.7,38.8-25.7,38.8-25.7"/>
				<path class="st2" d="M31.1-25.7c0,0.1,0,0.1,0,0.2c-0.1,0.1-0.1,0.1-0.2,0.1c-0.1,0.1-0.1,0.3-0.1,0.4c-0.2,0.1,0,0.2,0,0.3
					c0,0,0,0.1,0,0.2c0,0.1,0,0.3,0.1,0.4c0.1,0.2,0.3,0.4,0.4,0.5c0.2,0.1,0.4,0.6,0.6,0.6c0.2,0,0.4-0.1,0.5-0.1
					c0.2,0,0.4,0,0.6-0.1c0.2-0.1,0.1-0.3,0.3-0.5c0.1-0.1,0.3,0,0.4-0.1c0.2-0.1,0.3-0.3,0.4-0.5c0-0.1,0-0.1,0-0.2
					c0-0.1,0.1-0.2,0.1-0.3c0-0.1-0.1-0.1-0.1-0.2c0-0.1,0-0.2,0-0.3c0-0.2,0-0.4-0.1-0.5c-0.4-0.7-1.2-0.9-2-0.8
					c-0.2,0-0.3,0.1-0.4,0.2c-0.2,0.1-0.1,0.2-0.3,0.2c-0.1,0-0.2,0.1-0.2,0.2C31.1-25.8,31.1-25.8,31.1-25.7
					C31.1-25.7,31.1-25.7,31.1-25.7"/>
				<path class="st2" d="M23.5-25.7c0,0.1,0,0.1,0,0.2c-0.1,0.1-0.1,0.1-0.2,0.1c-0.1,0.1-0.1,0.3-0.1,0.4c-0.2,0.1,0,0.2,0,0.3
					c0,0,0,0.1,0,0.2c0,0.1,0,0.3,0.1,0.4c0.1,0.2,0.3,0.4,0.4,0.5c0.2,0.1,0.4,0.6,0.6,0.6c0.2,0,0.4-0.1,0.5-0.1
					c0.2,0,0.4,0,0.6-0.1c0.2-0.1,0.1-0.3,0.3-0.5c0.1-0.1,0.3,0,0.4-0.1c0.2-0.1,0.3-0.3,0.4-0.5c0-0.1,0-0.1,0-0.2
					c0-0.1,0.1-0.2,0.1-0.3c0-0.1-0.1-0.1-0.1-0.2c0-0.1,0-0.2,0-0.3c0-0.2,0-0.4-0.1-0.5c-0.4-0.7-1.2-0.9-2-0.8
					c-0.2,0-0.3,0.1-0.4,0.2c-0.2,0.1-0.1,0.2-0.3,0.2c-0.1,0-0.2,0.1-0.2,0.2C23.5-25.8,23.5-25.8,23.5-25.7
					C23.5-25.7,23.5-25.7,23.5-25.7"/>
				<path class="st2" d="M15.8-25.7c0,0.1,0,0.1,0,0.2c-0.1,0.1-0.1,0.1-0.2,0.1c-0.1,0.1-0.1,0.3-0.1,0.4c-0.2,0.1,0,0.2,0,0.3
					c0,0,0,0.1,0,0.2c0,0.1,0,0.3,0.1,0.4c0.1,0.2,0.3,0.4,0.4,0.5c0.2,0.1,0.4,0.6,0.6,0.6c0.2,0,0.4-0.1,0.5-0.1
					c0.2,0,0.4,0,0.6-0.1c0.2-0.1,0.1-0.3,0.3-0.5c0.1-0.1,0.3,0,0.4-0.1c0.2-0.1,0.3-0.3,0.4-0.5c0-0.1,0-0.1,0-0.2
					c0-0.1,0.1-0.2,0.1-0.3c0-0.1-0.1-0.1-0.1-0.2c0-0.1,0-0.2,0-0.3c0-0.2,0-0.4-0.1-0.5c-0.4-0.7-1.2-0.9-2-0.8
					c-0.2,0-0.3,0.1-0.4,0.2c-0.2,0.1-0.1,0.2-0.3,0.2c-0.1,0-0.2,0.1-0.2,0.2C15.8-25.8,15.8-25.8,15.8-25.7
					C15.8-25.7,15.8-25.7,15.8-25.7"/>
				<path class="st2" d="M8.2-25.7c0,0.1,0,0.1,0,0.2C8.1-25.4,8-25.5,8-25.4c-0.1,0.1-0.1,0.3-0.1,0.4c-0.2,0.1,0,0.2,0,0.3
					c0,0,0,0.1,0,0.2c0,0.1,0,0.3,0.1,0.4C8-24,8.2-23.8,8.3-23.6c0.2,0.1,0.4,0.6,0.6,0.6c0.2,0,0.4-0.1,0.5-0.1
					c0.2,0,0.4,0,0.6-0.1c0.2-0.1,0.1-0.3,0.3-0.5c0.1-0.1,0.3,0,0.4-0.1c0.2-0.1,0.3-0.3,0.4-0.5c0-0.1,0-0.1,0-0.2
					c0-0.1,0.1-0.2,0.1-0.3c0-0.1-0.1-0.1-0.1-0.2c0-0.1,0-0.2,0-0.3c0-0.2,0-0.4-0.1-0.5c-0.4-0.7-1.2-0.9-2-0.8
					c-0.2,0-0.3,0.1-0.4,0.2c-0.2,0.1-0.1,0.2-0.3,0.2c-0.1,0-0.2,0.1-0.2,0.2C8.2-25.8,8.2-25.8,8.2-25.7
					C8.1-25.7,8.1-25.7,8.2-25.7"/>
				<path class="st2" d="M0.5-25.7c0,0.1,0,0.1,0,0.2c-0.1,0.1-0.1,0.1-0.2,0.1c-0.1,0.1-0.1,0.3-0.1,0.4c-0.2,0.1,0,0.2,0,0.3
					c0,0,0,0.1,0,0.2c0,0.1,0,0.3,0.1,0.4c0.1,0.2,0.3,0.4,0.4,0.5C0.9-23.5,1-23.1,1.3-23c0.2,0,0.4-0.1,0.5-0.1
					c0.2,0,0.4,0,0.6-0.1c0.2-0.1,0.1-0.3,0.3-0.5c0.1-0.1,0.3,0,0.4-0.1c0.2-0.1,0.3-0.3,0.4-0.5c0-0.1,0-0.1,0-0.2
					c0-0.1,0.1-0.2,0.1-0.3c0-0.1-0.1-0.1-0.1-0.2c0-0.1,0-0.2,0-0.3c0-0.2,0-0.4-0.1-0.5c-0.4-0.7-1.2-0.9-2-0.8
					c-0.2,0-0.3,0.1-0.4,0.2c-0.2,0.1-0.1,0.2-0.3,0.2c-0.1,0-0.2,0.1-0.2,0.2C0.5-25.8,0.5-25.8,0.5-25.7
					C0.5-25.7,0.5-25.7,0.5-25.7"/>
			</g>
			<g>
				<path class="st2" d="M69.4-18.1c0,0.1,0,0.1,0,0.2c-0.1,0.1-0.1,0.1-0.2,0.1c-0.1,0.1-0.1,0.3-0.1,0.4c-0.2,0.1,0,0.2,0,0.3
					c0,0,0,0.1,0,0.2c0,0.1,0,0.3,0.1,0.4c0.1,0.2,0.3,0.4,0.4,0.5c0.2,0.1,0.4,0.6,0.6,0.6c0.2,0,0.4-0.1,0.5-0.1
					c0.2,0,0.4,0,0.6-0.1c0.2-0.1,0.1-0.3,0.3-0.5c0.1-0.1,0.3,0,0.4-0.1c0.2-0.1,0.3-0.3,0.4-0.5c0-0.1,0-0.1,0-0.2
					c0-0.1,0.1-0.2,0.1-0.3c0-0.1-0.1-0.1-0.1-0.2c0-0.1,0-0.2,0-0.3c0-0.2,0-0.4-0.1-0.5c-0.4-0.7-1.2-0.9-2-0.8
					c-0.2,0-0.3,0.1-0.4,0.2c-0.2,0.1-0.1,0.2-0.3,0.2c-0.1,0-0.2,0.1-0.2,0.2C69.4-18.1,69.4-18.2,69.4-18.1
					C69.4-18,69.4-18.1,69.4-18.1"/>
				<path class="st2" d="M61.8-18.1c0,0.1,0,0.1,0,0.2c-0.1,0.1-0.1,0.1-0.2,0.1c-0.1,0.1-0.1,0.3-0.1,0.4c-0.2,0.1,0,0.2,0,0.3
					c0,0,0,0.1,0,0.2c0,0.1,0,0.3,0.1,0.4c0.1,0.2,0.3,0.4,0.4,0.5c0.2,0.1,0.4,0.6,0.6,0.6c0.2,0,0.4-0.1,0.5-0.1
					c0.2,0,0.4,0,0.6-0.1c0.2-0.1,0.1-0.3,0.3-0.5c0.1-0.1,0.3,0,0.4-0.1c0.2-0.1,0.3-0.3,0.4-0.5c0-0.1,0-0.1,0-0.2
					c0-0.1,0.1-0.2,0.1-0.3c0-0.1-0.1-0.1-0.1-0.2c0-0.1,0-0.2,0-0.3c0-0.2,0-0.4-0.1-0.5c-0.4-0.7-1.2-0.9-2-0.8
					c-0.2,0-0.3,0.1-0.4,0.2c-0.2,0.1-0.1,0.2-0.3,0.2c-0.1,0-0.2,0.1-0.2,0.2C61.8-18.1,61.8-18.2,61.8-18.1
					C61.8-18,61.8-18.1,61.8-18.1"/>
				<path class="st2" d="M54.1-18.1c0,0.1,0,0.1,0,0.2c-0.1,0.1-0.1,0.1-0.2,0.1c-0.1,0.1-0.1,0.3-0.1,0.4c-0.2,0.1,0,0.2,0,0.3
					c0,0,0,0.1,0,0.2c0,0.1,0,0.3,0.1,0.4c0.1,0.2,0.3,0.4,0.4,0.5c0.2,0.1,0.4,0.6,0.6,0.6c0.2,0,0.4-0.1,0.5-0.1
					c0.2,0,0.4,0,0.6-0.1c0.2-0.1,0.1-0.3,0.3-0.5c0.1-0.1,0.3,0,0.4-0.1c0.2-0.1,0.3-0.3,0.4-0.5c0-0.1,0-0.1,0-0.2
					c0-0.1,0.1-0.2,0.1-0.3c0-0.1-0.1-0.1-0.1-0.2c0-0.1,0-0.2,0-0.3c0-0.2,0-0.4-0.1-0.5c-0.4-0.7-1.2-0.9-2-0.8
					c-0.2,0-0.3,0.1-0.4,0.2c-0.2,0.1-0.1,0.2-0.3,0.2c-0.1,0-0.2,0.1-0.2,0.2C54.1-18.1,54.1-18.2,54.1-18.1
					C54.1-18,54.1-18.1,54.1-18.1"/>
				<path class="st2" d="M46.5-18.1c0,0.1,0,0.1,0,0.2c-0.1,0.1-0.1,0.1-0.2,0.1c-0.1,0.1-0.1,0.3-0.1,0.4c-0.2,0.1,0,0.2,0,0.3
					c0,0,0,0.1,0,0.2c0,0.1,0,0.3,0.1,0.4c0.1,0.2,0.3,0.4,0.4,0.5c0.2,0.1,0.4,0.6,0.6,0.6c0.2,0,0.4-0.1,0.5-0.1
					c0.2,0,0.4,0,0.6-0.1c0.2-0.1,0.1-0.3,0.3-0.5c0.1-0.1,0.3,0,0.4-0.1c0.2-0.1,0.3-0.3,0.4-0.5c0-0.1,0-0.1,0-0.2
					c0-0.1,0.1-0.2,0.1-0.3c0-0.1-0.1-0.1-0.1-0.2c0-0.1,0-0.2,0-0.3c0-0.2,0-0.4-0.1-0.5c-0.4-0.7-1.2-0.9-2-0.8
					c-0.2,0-0.3,0.1-0.4,0.2c-0.2,0.1-0.1,0.2-0.3,0.2c-0.1,0-0.2,0.1-0.2,0.2C46.5-18.1,46.5-18.2,46.5-18.1
					C46.5-18,46.5-18.1,46.5-18.1"/>
				<path class="st2" d="M38.8-18.1c0,0.1,0,0.1,0,0.2c-0.1,0.1-0.1,0.1-0.2,0.1c-0.1,0.1-0.1,0.3-0.1,0.4c-0.2,0.1,0,0.2,0,0.3
					c0,0,0,0.1,0,0.2c0,0.1,0,0.3,0.1,0.4c0.1,0.2,0.3,0.4,0.4,0.5c0.2,0.1,0.4,0.6,0.6,0.6c0.2,0,0.4-0.1,0.5-0.1
					c0.2,0,0.4,0,0.6-0.1c0.2-0.1,0.1-0.3,0.3-0.5c0.1-0.1,0.3,0,0.4-0.1c0.2-0.1,0.3-0.3,0.4-0.5c0-0.1,0-0.1,0-0.2
					c0-0.1,0.1-0.2,0.1-0.3c0-0.1-0.1-0.1-0.1-0.2c0-0.1,0-0.2,0-0.3c0-0.2,0-0.4-0.1-0.5c-0.4-0.7-1.2-0.9-2-0.8
					c-0.2,0-0.3,0.1-0.4,0.2c-0.2,0.1-0.1,0.2-0.3,0.2c-0.1,0-0.2,0.1-0.2,0.2C38.8-18.1,38.8-18.2,38.8-18.1
					C38.8-18,38.8-18.1,38.8-18.1"/>
				<path class="st2" d="M31.1-18.1c0,0.1,0,0.1,0,0.2c-0.1,0.1-0.1,0.1-0.2,0.1c-0.1,0.1-0.1,0.3-0.1,0.4c-0.2,0.1,0,0.2,0,0.3
					c0,0,0,0.1,0,0.2c0,0.1,0,0.3,0.1,0.4c0.1,0.2,0.3,0.4,0.4,0.5c0.2,0.1,0.4,0.6,0.6,0.6c0.2,0,0.4-0.1,0.5-0.1
					c0.2,0,0.4,0,0.6-0.1c0.2-0.1,0.1-0.3,0.3-0.5c0.1-0.1,0.3,0,0.4-0.1c0.2-0.1,0.3-0.3,0.4-0.5c0-0.1,0-0.1,0-0.2
					c0-0.1,0.1-0.2,0.1-0.3c0-0.1-0.1-0.1-0.1-0.2c0-0.1,0-0.2,0-0.3c0-0.2,0-0.4-0.1-0.5c-0.4-0.7-1.2-0.9-2-0.8
					c-0.2,0-0.3,0.1-0.4,0.2c-0.2,0.1-0.1,0.2-0.3,0.2c-0.1,0-0.2,0.1-0.2,0.2C31.1-18.1,31.1-18.2,31.1-18.1
					C31.1-18,31.1-18.1,31.1-18.1"/>
				<path class="st2" d="M23.5-18.1c0,0.1,0,0.1,0,0.2c-0.1,0.1-0.1,0.1-0.2,0.1c-0.1,0.1-0.1,0.3-0.1,0.4c-0.2,0.1,0,0.2,0,0.3
					c0,0,0,0.1,0,0.2c0,0.1,0,0.3,0.1,0.4c0.1,0.2,0.3,0.4,0.4,0.5c0.2,0.1,0.4,0.6,0.6,0.6c0.2,0,0.4-0.1,0.5-0.1
					c0.2,0,0.4,0,0.6-0.1c0.2-0.1,0.1-0.3,0.3-0.5c0.1-0.1,0.3,0,0.4-0.1c0.2-0.1,0.3-0.3,0.4-0.5c0-0.1,0-0.1,0-0.2
					c0-0.1,0.1-0.2,0.1-0.3c0-0.1-0.1-0.1-0.1-0.2c0-0.1,0-0.2,0-0.3c0-0.2,0-0.4-0.1-0.5c-0.4-0.7-1.2-0.9-2-0.8
					c-0.2,0-0.3,0.1-0.4,0.2c-0.2,0.1-0.1,0.2-0.3,0.2c-0.1,0-0.2,0.1-0.2,0.2C23.5-18.1,23.5-18.2,23.5-18.1
					C23.5-18,23.5-18.1,23.5-18.1"/>
				<path class="st2" d="M15.8-18.1c0,0.1,0,0.1,0,0.2c-0.1,0.1-0.1,0.1-0.2,0.1c-0.1,0.1-0.1,0.3-0.1,0.4c-0.2,0.1,0,0.2,0,0.3
					c0,0,0,0.1,0,0.2c0,0.1,0,0.3,0.1,0.4c0.1,0.2,0.3,0.4,0.4,0.5c0.2,0.1,0.4,0.6,0.6,0.6c0.2,0,0.4-0.1,0.5-0.1
					c0.2,0,0.4,0,0.6-0.1c0.2-0.1,0.1-0.3,0.3-0.5c0.1-0.1,0.3,0,0.4-0.1c0.2-0.1,0.3-0.3,0.4-0.5c0-0.1,0-0.1,0-0.2
					c0-0.1,0.1-0.2,0.1-0.3c0-0.1-0.1-0.1-0.1-0.2c0-0.1,0-0.2,0-0.3c0-0.2,0-0.4-0.1-0.5c-0.4-0.7-1.2-0.9-2-0.8
					c-0.2,0-0.3,0.1-0.4,0.2c-0.2,0.1-0.1,0.2-0.3,0.2c-0.1,0-0.2,0.1-0.2,0.2C15.8-18.1,15.8-18.2,15.8-18.1
					C15.8-18,15.8-18.1,15.8-18.1"/>
				<path class="st2" d="M8.2-18.1c0,0.1,0,0.1,0,0.2C8.1-17.8,8-17.8,8-17.8c-0.1,0.1-0.1,0.3-0.1,0.4c-0.2,0.1,0,0.2,0,0.3
					c0,0,0,0.1,0,0.2c0,0.1,0,0.3,0.1,0.4C8-16.3,8.2-16.1,8.3-16c0.2,0.1,0.4,0.6,0.6,0.6c0.2,0,0.4-0.1,0.5-0.1
					c0.2,0,0.4,0,0.6-0.1c0.2-0.1,0.1-0.3,0.3-0.5c0.1-0.1,0.3,0,0.4-0.1c0.2-0.1,0.3-0.3,0.4-0.5c0-0.1,0-0.1,0-0.2
					c0-0.1,0.1-0.2,0.1-0.3c0-0.1-0.1-0.1-0.1-0.2c0-0.1,0-0.2,0-0.3c0-0.2,0-0.4-0.1-0.5c-0.4-0.7-1.2-0.9-2-0.8
					c-0.2,0-0.3,0.1-0.4,0.2c-0.2,0.1-0.1,0.2-0.3,0.2c-0.1,0-0.2,0.1-0.2,0.2C8.2-18.1,8.2-18.2,8.2-18.1C8.1-18,8.1-18.1,8.2-18.1
					"/>
				<path class="st2" d="M0.5-18.1c0,0.1,0,0.1,0,0.2c-0.1,0.1-0.1,0.1-0.2,0.1c-0.1,0.1-0.1,0.3-0.1,0.4c-0.2,0.1,0,0.2,0,0.3
					c0,0,0,0.1,0,0.2c0,0.1,0,0.3,0.1,0.4c0.1,0.2,0.3,0.4,0.4,0.5c0.2,0.1,0.4,0.6,0.6,0.6c0.2,0,0.4-0.1,0.5-0.1
					c0.2,0,0.4,0,0.6-0.1c0.2-0.1,0.1-0.3,0.3-0.5C2.8-16.1,3-16,3.1-16c0.2-0.1,0.3-0.3,0.4-0.5c0-0.1,0-0.1,0-0.2
					c0-0.1,0.1-0.2,0.1-0.3c0-0.1-0.1-0.1-0.1-0.2c0-0.1,0-0.2,0-0.3c0-0.2,0-0.4-0.1-0.5c-0.4-0.7-1.2-0.9-2-0.8
					c-0.2,0-0.3,0.1-0.4,0.2c-0.2,0.1-0.1,0.2-0.3,0.2c-0.1,0-0.2,0.1-0.2,0.2C0.5-18.1,0.5-18.2,0.5-18.1C0.5-18,0.5-18.1,0.5-18.1
					"/>
			</g>
			<g>
				<path class="st2" d="M69.4-10.4c0,0.1,0,0.1,0,0.2c-0.1,0.1-0.1,0.1-0.2,0.1c-0.1,0.1-0.1,0.3-0.1,0.4c-0.2,0.1,0,0.2,0,0.3
					c0,0,0,0.1,0,0.2c0,0.1,0,0.3,0.1,0.4c0.1,0.2,0.3,0.4,0.4,0.5c0.2,0.1,0.4,0.6,0.6,0.6c0.2,0,0.4-0.1,0.5-0.1
					c0.2,0,0.4,0,0.6-0.1c0.2-0.1,0.1-0.3,0.3-0.5c0.1-0.1,0.3,0,0.4-0.1c0.2-0.1,0.3-0.3,0.4-0.5c0-0.1,0-0.1,0-0.2
					c0-0.1,0.1-0.2,0.1-0.3c0-0.1-0.1-0.1-0.1-0.2c0-0.1,0-0.2,0-0.3c0-0.2,0-0.4-0.1-0.5c-0.4-0.7-1.2-0.9-2-0.8
					c-0.2,0-0.3,0.1-0.4,0.2c-0.2,0.1-0.1,0.2-0.3,0.2c-0.1,0-0.2,0.1-0.2,0.2C69.4-10.5,69.4-10.5,69.4-10.4
					C69.4-10.4,69.4-10.4,69.4-10.4"/>
				<path class="st2" d="M61.8-10.4c0,0.1,0,0.1,0,0.2c-0.1,0.1-0.1,0.1-0.2,0.1c-0.1,0.1-0.1,0.3-0.1,0.4c-0.2,0.1,0,0.2,0,0.3
					c0,0,0,0.1,0,0.2c0,0.1,0,0.3,0.1,0.4c0.1,0.2,0.3,0.4,0.4,0.5c0.2,0.1,0.4,0.6,0.6,0.6c0.2,0,0.4-0.1,0.5-0.1
					c0.2,0,0.4,0,0.6-0.1C63.9-8,63.8-8.2,64-8.3c0.1-0.1,0.3,0,0.4-0.1c0.2-0.1,0.3-0.3,0.4-0.5c0-0.1,0-0.1,0-0.2
					c0-0.1,0.1-0.2,0.1-0.3c0-0.1-0.1-0.1-0.1-0.2c0-0.1,0-0.2,0-0.3c0-0.2,0-0.4-0.1-0.5c-0.4-0.7-1.2-0.9-2-0.8
					c-0.2,0-0.3,0.1-0.4,0.2c-0.2,0.1-0.1,0.2-0.3,0.2c-0.1,0-0.2,0.1-0.2,0.2C61.8-10.5,61.8-10.5,61.8-10.4
					C61.8-10.4,61.8-10.4,61.8-10.4"/>
				<path class="st2" d="M54.1-10.4c0,0.1,0,0.1,0,0.2c-0.1,0.1-0.1,0.1-0.2,0.1c-0.1,0.1-0.1,0.3-0.1,0.4c-0.2,0.1,0,0.2,0,0.3
					c0,0,0,0.1,0,0.2c0,0.1,0,0.3,0.1,0.4c0.1,0.2,0.3,0.4,0.4,0.5c0.2,0.1,0.4,0.6,0.6,0.6c0.2,0,0.4-0.1,0.5-0.1
					c0.2,0,0.4,0,0.6-0.1c0.2-0.1,0.1-0.3,0.3-0.5c0.1-0.1,0.3,0,0.4-0.1c0.2-0.1,0.3-0.3,0.4-0.5c0-0.1,0-0.1,0-0.2
					c0-0.1,0.1-0.2,0.1-0.3c0-0.1-0.1-0.1-0.1-0.2c0-0.1,0-0.2,0-0.3c0-0.2,0-0.4-0.1-0.5c-0.4-0.7-1.2-0.9-2-0.8
					c-0.2,0-0.3,0.1-0.4,0.2c-0.2,0.1-0.1,0.2-0.3,0.2c-0.1,0-0.2,0.1-0.2,0.2C54.1-10.5,54.1-10.5,54.1-10.4
					C54.1-10.4,54.1-10.4,54.1-10.4"/>
				<path class="st2" d="M46.5-10.4c0,0.1,0,0.1,0,0.2c-0.1,0.1-0.1,0.1-0.2,0.1c-0.1,0.1-0.1,0.3-0.1,0.4c-0.2,0.1,0,0.2,0,0.3
					c0,0,0,0.1,0,0.2c0,0.1,0,0.3,0.1,0.4c0.1,0.2,0.3,0.4,0.4,0.5c0.2,0.1,0.4,0.6,0.6,0.6c0.2,0,0.4-0.1,0.5-0.1
					c0.2,0,0.4,0,0.6-0.1c0.2-0.1,0.1-0.3,0.3-0.5c0.1-0.1,0.3,0,0.4-0.1c0.2-0.1,0.3-0.3,0.4-0.5c0-0.1,0-0.1,0-0.2
					c0-0.1,0.1-0.2,0.1-0.3c0-0.1-0.1-0.1-0.1-0.2c0-0.1,0-0.2,0-0.3c0-0.2,0-0.4-0.1-0.5c-0.4-0.7-1.2-0.9-2-0.8
					c-0.2,0-0.3,0.1-0.4,0.2c-0.2,0.1-0.1,0.2-0.3,0.2c-0.1,0-0.2,0.1-0.2,0.2C46.5-10.5,46.5-10.5,46.5-10.4
					C46.5-10.4,46.5-10.4,46.5-10.4"/>
				<path class="st2" d="M38.8-10.4c0,0.1,0,0.1,0,0.2c-0.1,0.1-0.1,0.1-0.2,0.1c-0.1,0.1-0.1,0.3-0.1,0.4c-0.2,0.1,0,0.2,0,0.3
					c0,0,0,0.1,0,0.2c0,0.1,0,0.3,0.1,0.4c0.1,0.2,0.3,0.4,0.4,0.5c0.2,0.1,0.4,0.6,0.6,0.6c0.2,0,0.4-0.1,0.5-0.1
					c0.2,0,0.4,0,0.6-0.1C40.9-8,40.8-8.2,41-8.3c0.1-0.1,0.3,0,0.4-0.1c0.2-0.1,0.3-0.3,0.4-0.5c0-0.1,0-0.1,0-0.2
					c0-0.1,0.1-0.2,0.1-0.3c0-0.1-0.1-0.1-0.1-0.2c0-0.1,0-0.2,0-0.3c0-0.2,0-0.4-0.1-0.5c-0.4-0.7-1.2-0.9-2-0.8
					c-0.2,0-0.3,0.1-0.4,0.2c-0.2,0.1-0.1,0.2-0.3,0.2c-0.1,0-0.2,0.1-0.2,0.2C38.8-10.5,38.8-10.5,38.8-10.4
					C38.8-10.4,38.8-10.4,38.8-10.4"/>
				<path class="st2" d="M31.1-10.4c0,0.1,0,0.1,0,0.2c-0.1,0.1-0.1,0.1-0.2,0.1c-0.1,0.1-0.1,0.3-0.1,0.4c-0.2,0.1,0,0.2,0,0.3
					c0,0,0,0.1,0,0.2c0,0.1,0,0.3,0.1,0.4c0.1,0.2,0.3,0.4,0.4,0.5c0.2,0.1,0.4,0.6,0.6,0.6c0.2,0,0.4-0.1,0.5-0.1
					c0.2,0,0.4,0,0.6-0.1c0.2-0.1,0.1-0.3,0.3-0.5c0.1-0.1,0.3,0,0.4-0.1c0.2-0.1,0.3-0.3,0.4-0.5c0-0.1,0-0.1,0-0.2
					c0-0.1,0.1-0.2,0.1-0.3c0-0.1-0.1-0.1-0.1-0.2c0-0.1,0-0.2,0-0.3c0-0.2,0-0.4-0.1-0.5c-0.4-0.7-1.2-0.9-2-0.8
					c-0.2,0-0.3,0.1-0.4,0.2c-0.2,0.1-0.1,0.2-0.3,0.2c-0.1,0-0.2,0.1-0.2,0.2C31.1-10.5,31.1-10.5,31.1-10.4
					C31.1-10.4,31.1-10.4,31.1-10.4"/>
				<path class="st2" d="M23.5-10.4c0,0.1,0,0.1,0,0.2c-0.1,0.1-0.1,0.1-0.2,0.1c-0.1,0.1-0.1,0.3-0.1,0.4c-0.2,0.1,0,0.2,0,0.3
					c0,0,0,0.1,0,0.2c0,0.1,0,0.3,0.1,0.4c0.1,0.2,0.3,0.4,0.4,0.5c0.2,0.1,0.4,0.6,0.6,0.6c0.2,0,0.4-0.1,0.5-0.1
					c0.2,0,0.4,0,0.6-0.1c0.2-0.1,0.1-0.3,0.3-0.5c0.1-0.1,0.3,0,0.4-0.1c0.2-0.1,0.3-0.3,0.4-0.5c0-0.1,0-0.1,0-0.2
					c0-0.1,0.1-0.2,0.1-0.3c0-0.1-0.1-0.1-0.1-0.2c0-0.1,0-0.2,0-0.3c0-0.2,0-0.4-0.1-0.5c-0.4-0.7-1.2-0.9-2-0.8
					c-0.2,0-0.3,0.1-0.4,0.2c-0.2,0.1-0.1,0.2-0.3,0.2c-0.1,0-0.2,0.1-0.2,0.2C23.5-10.5,23.5-10.5,23.5-10.4
					C23.5-10.4,23.5-10.4,23.5-10.4"/>
				<path class="st2" d="M15.8-10.4c0,0.1,0,0.1,0,0.2c-0.1,0.1-0.1,0.1-0.2,0.1c-0.1,0.1-0.1,0.3-0.1,0.4c-0.2,0.1,0,0.2,0,0.3
					c0,0,0,0.1,0,0.2c0,0.1,0,0.3,0.1,0.4c0.1,0.2,0.3,0.4,0.4,0.5c0.2,0.1,0.4,0.6,0.6,0.6c0.2,0,0.4-0.1,0.5-0.1
					c0.2,0,0.4,0,0.6-0.1C17.9-8,17.8-8.2,18-8.3c0.1-0.1,0.3,0,0.4-0.1c0.2-0.1,0.3-0.3,0.4-0.5c0-0.1,0-0.1,0-0.2
					c0-0.1,0.1-0.2,0.1-0.3c0-0.1-0.1-0.1-0.1-0.2c0-0.1,0-0.2,0-0.3c0-0.2,0-0.4-0.1-0.5c-0.4-0.7-1.2-0.9-2-0.8
					c-0.2,0-0.3,0.1-0.4,0.2c-0.2,0.1-0.1,0.2-0.3,0.2c-0.1,0-0.2,0.1-0.2,0.2C15.8-10.5,15.8-10.5,15.8-10.4
					C15.8-10.4,15.8-10.4,15.8-10.4"/>
				<path class="st2" d="M8.2-10.4c0,0.1,0,0.1,0,0.2C8.1-10.1,8-10.2,8-10.1C7.9-10,7.9-9.8,7.9-9.8c-0.2,0.1,0,0.2,0,0.3
					c0,0,0,0.1,0,0.2c0,0.1,0,0.3,0.1,0.4C8-8.7,8.2-8.5,8.3-8.3c0.2,0.1,0.4,0.6,0.6,0.6c0.2,0,0.4-0.1,0.5-0.1
					c0.2,0,0.4,0,0.6-0.1c0.2-0.1,0.1-0.3,0.3-0.5c0.1-0.1,0.3,0,0.4-0.1c0.2-0.1,0.3-0.3,0.4-0.5c0-0.1,0-0.1,0-0.2
					c0-0.1,0.1-0.2,0.1-0.3c0-0.1-0.1-0.1-0.1-0.2c0-0.1,0-0.2,0-0.3c0-0.2,0-0.4-0.1-0.5c-0.4-0.7-1.2-0.9-2-0.8
					c-0.2,0-0.3,0.1-0.4,0.2c-0.2,0.1-0.1,0.2-0.3,0.2c-0.1,0-0.2,0.1-0.2,0.2C8.2-10.5,8.2-10.5,8.2-10.4
					C8.1-10.4,8.1-10.4,8.2-10.4"/>
				<path class="st2" d="M0.5-10.4c0,0.1,0,0.1,0,0.2c-0.1,0.1-0.1,0.1-0.2,0.1C0.3-10,0.2-9.8,0.2-9.8c-0.2,0.1,0,0.2,0,0.3
					c0,0,0,0.1,0,0.2c0,0.1,0,0.3,0.1,0.4c0.1,0.2,0.3,0.4,0.4,0.5C0.9-8.2,1-7.8,1.3-7.7c0.2,0,0.4-0.1,0.5-0.1
					c0.2,0,0.4,0,0.6-0.1C2.6-8,2.5-8.2,2.7-8.3c0.1-0.1,0.3,0,0.4-0.1c0.2-0.1,0.3-0.3,0.4-0.5c0-0.1,0-0.1,0-0.2
					c0-0.1,0.1-0.2,0.1-0.3c0-0.1-0.1-0.1-0.1-0.2c0-0.1,0-0.2,0-0.3c0-0.2,0-0.4-0.1-0.5c-0.4-0.7-1.2-0.9-2-0.8
					c-0.2,0-0.3,0.1-0.4,0.2c-0.2,0.1-0.1,0.2-0.3,0.2c-0.1,0-0.2,0.1-0.2,0.2C0.5-10.5,0.5-10.5,0.5-10.4
					C0.5-10.4,0.5-10.4,0.5-10.4"/>
			</g>
		</g>
		<g>
			<path class="st2" d="M69.4-2.8c0,0.1,0,0.1,0,0.2c-0.1,0.1-0.1,0.1-0.2,0.1c-0.1,0.1-0.1,0.3-0.1,0.4c-0.2,0.1,0,0.2,0,0.3
				c0,0,0,0.1,0,0.2c0,0.1,0,0.3,0.1,0.4c0.1,0.2,0.3,0.4,0.4,0.5C69.8-0.5,70-0.1,70.2,0c0.2,0,0.4-0.1,0.5-0.1
				c0.2,0,0.4,0,0.6-0.1c0.2-0.1,0.1-0.3,0.3-0.5c0.1-0.1,0.3,0,0.4-0.1c0.2-0.1,0.3-0.3,0.4-0.5c0-0.1,0-0.1,0-0.2
				c0-0.1,0.1-0.2,0.1-0.3c0-0.1-0.1-0.1-0.1-0.2c0-0.1,0-0.2,0-0.3c0-0.2,0-0.4-0.1-0.5c-0.4-0.7-1.2-0.9-2-0.8
				c-0.2,0-0.3,0.1-0.4,0.2c-0.2,0.1-0.1,0.2-0.3,0.2c-0.1,0-0.2,0.1-0.2,0.2C69.4-2.8,69.4-2.9,69.4-2.8
				C69.4-2.7,69.4-2.8,69.4-2.8"/>
			<path class="st2" d="M61.8-2.8c0,0.1,0,0.1,0,0.2c-0.1,0.1-0.1,0.1-0.2,0.1c-0.1,0.1-0.1,0.3-0.1,0.4c-0.2,0.1,0,0.2,0,0.3
				c0,0,0,0.1,0,0.2c0,0.1,0,0.3,0.1,0.4C61.6-1,61.8-0.8,62-0.7c0.2,0.1,0.4,0.6,0.6,0.6c0.2,0,0.4-0.1,0.5-0.1
				c0.2,0,0.4,0,0.6-0.1c0.2-0.1,0.1-0.3,0.3-0.5c0.1-0.1,0.3,0,0.4-0.1c0.2-0.1,0.3-0.3,0.4-0.5c0-0.1,0-0.1,0-0.2
				c0-0.1,0.1-0.2,0.1-0.3c0-0.1-0.1-0.1-0.1-0.2c0-0.1,0-0.2,0-0.3c0-0.2,0-0.4-0.1-0.5c-0.4-0.7-1.2-0.9-2-0.8
				c-0.2,0-0.3,0.1-0.4,0.2c-0.2,0.1-0.1,0.2-0.3,0.2c-0.1,0-0.2,0.1-0.2,0.2C61.8-2.8,61.8-2.9,61.8-2.8
				C61.8-2.7,61.8-2.8,61.8-2.8"/>
			<path class="st2" d="M54.1-2.8c0,0.1,0,0.1,0,0.2C54-2.5,54-2.5,53.9-2.5c-0.1,0.1-0.1,0.3-0.1,0.4c-0.2,0.1,0,0.2,0,0.3
				c0,0,0,0.1,0,0.2c0,0.1,0,0.3,0.1,0.4C54-1,54.1-0.8,54.3-0.7c0.2,0.1,0.4,0.6,0.6,0.6c0.2,0,0.4-0.1,0.5-0.1
				c0.2,0,0.4,0,0.6-0.1c0.2-0.1,0.1-0.3,0.3-0.5c0.1-0.1,0.3,0,0.4-0.1C56.9-0.8,57-1,57.1-1.2c0-0.1,0-0.1,0-0.2
				c0-0.1,0.1-0.2,0.1-0.3c0-0.1-0.1-0.1-0.1-0.2c0-0.1,0-0.2,0-0.3c0-0.2,0-0.4-0.1-0.5c-0.4-0.7-1.2-0.9-2-0.8
				c-0.2,0-0.3,0.1-0.4,0.2c-0.2,0.1-0.1,0.2-0.3,0.2c-0.1,0-0.2,0.1-0.2,0.2C54.1-2.8,54.1-2.9,54.1-2.8
				C54.1-2.7,54.1-2.8,54.1-2.8"/>
			<path class="st2" d="M46.5-2.8c0,0.1,0,0.1,0,0.2c-0.1,0.1-0.1,0.1-0.2,0.1c-0.1,0.1-0.1,0.3-0.1,0.4c-0.2,0.1,0,0.2,0,0.3
				c0,0,0,0.1,0,0.2c0,0.1,0,0.3,0.1,0.4c0.1,0.2,0.3,0.4,0.4,0.5C46.8-0.5,47-0.1,47.2,0c0.2,0,0.4-0.1,0.5-0.1
				c0.2,0,0.4,0,0.6-0.1c0.2-0.1,0.1-0.3,0.3-0.5c0.1-0.1,0.3,0,0.4-0.1c0.2-0.1,0.3-0.3,0.4-0.5c0-0.1,0-0.1,0-0.2
				c0-0.1,0.1-0.2,0.1-0.3c0-0.1-0.1-0.1-0.1-0.2c0-0.1,0-0.2,0-0.3c0-0.2,0-0.4-0.1-0.5c-0.4-0.7-1.2-0.9-2-0.8
				c-0.2,0-0.3,0.1-0.4,0.2c-0.2,0.1-0.1,0.2-0.3,0.2c-0.1,0-0.2,0.1-0.2,0.2C46.5-2.8,46.5-2.9,46.5-2.8
				C46.5-2.7,46.5-2.8,46.5-2.8"/>
			<path class="st2" d="M38.8-2.8c0,0.1,0,0.1,0,0.2c-0.1,0.1-0.1,0.1-0.2,0.1c-0.1,0.1-0.1,0.3-0.1,0.4c-0.2,0.1,0,0.2,0,0.3
				c0,0,0,0.1,0,0.2c0,0.1,0,0.3,0.1,0.4C38.6-1,38.8-0.8,39-0.7c0.2,0.1,0.4,0.6,0.6,0.6c0.2,0,0.4-0.1,0.5-0.1
				c0.2,0,0.4,0,0.6-0.1c0.2-0.1,0.1-0.3,0.3-0.5c0.1-0.1,0.3,0,0.4-0.1c0.2-0.1,0.3-0.3,0.4-0.5c0-0.1,0-0.1,0-0.2
				c0-0.1,0.1-0.2,0.1-0.3c0-0.1-0.1-0.1-0.1-0.2c0-0.1,0-0.2,0-0.3c0-0.2,0-0.4-0.1-0.5c-0.4-0.7-1.2-0.9-2-0.8
				c-0.2,0-0.3,0.1-0.4,0.2c-0.2,0.1-0.1,0.2-0.3,0.2c-0.1,0-0.2,0.1-0.2,0.2C38.8-2.8,38.8-2.9,38.8-2.8
				C38.8-2.7,38.8-2.8,38.8-2.8"/>
			<path class="st2" d="M31.1-2.8c0,0.1,0,0.1,0,0.2c-0.1,0.1-0.1,0.1-0.2,0.1c-0.1,0.1-0.1,0.3-0.1,0.4c-0.2,0.1,0,0.2,0,0.3
				c0,0,0,0.1,0,0.2c0,0.1,0,0.3,0.1,0.4C31-1,31.1-0.8,31.3-0.7c0.2,0.1,0.4,0.6,0.6,0.6c0.2,0,0.4-0.1,0.5-0.1
				c0.2,0,0.4,0,0.6-0.1c0.2-0.1,0.1-0.3,0.3-0.5c0.1-0.1,0.3,0,0.4-0.1c0.2-0.1,0.3-0.3,0.4-0.5c0-0.1,0-0.1,0-0.2
				c0-0.1,0.1-0.2,0.1-0.3c0-0.1-0.1-0.1-0.1-0.2c0-0.1,0-0.2,0-0.3c0-0.2,0-0.4-0.1-0.5c-0.4-0.7-1.2-0.9-2-0.8
				c-0.2,0-0.3,0.1-0.4,0.2c-0.2,0.1-0.1,0.2-0.3,0.2c-0.1,0-0.2,0.1-0.2,0.2C31.1-2.8,31.1-2.9,31.1-2.8
				C31.1-2.7,31.1-2.8,31.1-2.8"/>
			<path class="st2" d="M23.5-2.8c0,0.1,0,0.1,0,0.2c-0.1,0.1-0.1,0.1-0.2,0.1c-0.1,0.1-0.1,0.3-0.1,0.4c-0.2,0.1,0,0.2,0,0.3
				c0,0,0,0.1,0,0.2c0,0.1,0,0.3,0.1,0.4c0.1,0.2,0.3,0.4,0.4,0.5C23.8-0.5,24-0.1,24.3,0c0.2,0,0.4-0.1,0.5-0.1
				c0.2,0,0.4,0,0.6-0.1c0.2-0.1,0.1-0.3,0.3-0.5c0.1-0.1,0.3,0,0.4-0.1c0.2-0.1,0.3-0.3,0.4-0.5c0-0.1,0-0.1,0-0.2
				c0-0.1,0.1-0.2,0.1-0.3c0-0.1-0.1-0.1-0.1-0.2c0-0.1,0-0.2,0-0.3c0-0.2,0-0.4-0.1-0.5c-0.4-0.7-1.2-0.9-2-0.8
				c-0.2,0-0.3,0.1-0.4,0.2c-0.2,0.1-0.1,0.2-0.3,0.2c-0.1,0-0.2,0.1-0.2,0.2C23.5-2.8,23.5-2.9,23.5-2.8
				C23.5-2.7,23.5-2.8,23.5-2.8"/>
			<path class="st2" d="M15.8-2.8c0,0.1,0,0.1,0,0.2c-0.1,0.1-0.1,0.1-0.2,0.1c-0.1,0.1-0.1,0.3-0.1,0.4c-0.2,0.1,0,0.2,0,0.3
				c0,0,0,0.1,0,0.2c0,0.1,0,0.3,0.1,0.4C15.7-1,15.8-0.8,16-0.7c0.2,0.1,0.4,0.6,0.6,0.6c0.2,0,0.4-0.1,0.5-0.1
				c0.2,0,0.4,0,0.6-0.1c0.2-0.1,0.1-0.3,0.3-0.5c0.1-0.1,0.3,0,0.4-0.1c0.2-0.1,0.3-0.3,0.4-0.5c0-0.1,0-0.1,0-0.2
				c0-0.1,0.1-0.2,0.1-0.3c0-0.1-0.1-0.1-0.1-0.2c0-0.1,0-0.2,0-0.3c0-0.2,0-0.4-0.1-0.5c-0.4-0.7-1.2-0.9-2-0.8
				c-0.2,0-0.3,0.1-0.4,0.2c-0.2,0.1-0.1,0.2-0.3,0.2c-0.1,0-0.2,0.1-0.2,0.2C15.8-2.8,15.8-2.9,15.8-2.8
				C15.8-2.7,15.8-2.8,15.8-2.8"/>
			<path class="st2" d="M8.2-2.8c0,0.1,0,0.1,0,0.2C8.1-2.5,8-2.5,8-2.5C7.9-2.4,7.9-2.2,7.9-2.1c-0.2,0.1,0,0.2,0,0.3
				c0,0,0,0.1,0,0.2c0,0.1,0,0.3,0.1,0.4C8-1,8.2-0.8,8.3-0.7C8.5-0.5,8.7-0.1,8.9,0c0.2,0,0.4-0.1,0.5-0.1c0.2,0,0.4,0,0.6-0.1
				c0.2-0.1,0.1-0.3,0.3-0.5c0.1-0.1,0.3,0,0.4-0.1c0.2-0.1,0.3-0.3,0.4-0.5c0-0.1,0-0.1,0-0.2c0-0.1,0.1-0.2,0.1-0.3
				c0-0.1-0.1-0.1-0.1-0.2c0-0.1,0-0.2,0-0.3c0-0.2,0-0.4-0.1-0.5c-0.4-0.7-1.2-0.9-2-0.8C9-3.5,8.8-3.4,8.7-3.4
				C8.5-3.3,8.6-3.2,8.4-3.1C8.3-3.1,8.2-3,8.2-2.9C8.2-2.8,8.2-2.9,8.2-2.8C8.1-2.7,8.1-2.8,8.2-2.8"/>
			<path class="st2" d="M0.5-2.8c0,0.1,0,0.1,0,0.2C0.4-2.5,0.4-2.5,0.3-2.5C0.3-2.4,0.2-2.2,0.2-2.1c-0.2,0.1,0,0.2,0,0.3
				c0,0,0,0.1,0,0.2c0,0.1,0,0.3,0.1,0.4C0.3-1,0.5-0.8,0.7-0.7C0.9-0.5,1-0.1,1.3,0c0.2,0,0.4-0.1,0.5-0.1c0.2,0,0.4,0,0.6-0.1
				c0.2-0.1,0.1-0.3,0.3-0.5c0.1-0.1,0.3,0,0.4-0.1C3.3-0.8,3.4-1,3.5-1.2c0-0.1,0-0.1,0-0.2c0-0.1,0.1-0.2,0.1-0.3
				c0-0.1-0.1-0.1-0.1-0.2c0-0.1,0-0.2,0-0.3c0-0.2,0-0.4-0.1-0.5c-0.4-0.7-1.2-0.9-2-0.8C1.3-3.5,1.2-3.4,1-3.4
				C0.9-3.3,0.9-3.2,0.7-3.1C0.6-3.1,0.5-3,0.5-2.9C0.5-2.8,0.5-2.9,0.5-2.8C0.5-2.7,0.5-2.8,0.5-2.8"/>
		</g>
	</g>
</pattern>
<path class="st2" d="M59.4,44.9c-0.1,0-0.2-0.1-0.4-0.1l1.2-3.4c0.9,0.3,1.4,1.1,1.2,2C61.3,44.5,60.5,45.1,59.4,44.9z M65,30.7
	c-0.7-0.1-0.9,0-1.1,0.6l-1,2.8c0.4,0.5,0.9,0.9,1.4,1c1.3,0.2,2.2-0.8,2.4-1.9c0.1-0.6,0-1.1-0.2-1.5C66.2,31.1,65.7,30.8,65,30.7z
	 M62.5,35.1l-2,5.6c1.5,0.5,2.3,1.9,2.1,3.3c-0.2,1-0.6,1.7-1.3,2.2c-0.6,0.5-1.4,0.6-2.3,0.5c-1.2-0.2-2.1-0.8-2.6-1.6l-0.1-0.2
	l0.3-0.1c0.5-0.1,0.9-0.5,1.1-1.2l0.8-2.3c-1.9,0.4-2.8,2.1-3.1,3.5c-0.4,2.5,1.2,4,3.1,4.3c1.2,0.2,2.3,0,3.3-0.7
	c1.9-1.3,3-4,3.3-5.9C65.7,39.1,64.8,36.6,62.5,35.1z M75.7,29.5c-0.3,1.2-1.4,5.7-4.9,13.3c-5.8,12.5-14.5,16-14.5,16
	s-0.3,0.1-0.7,0c-0.3-0.1-0.5-0.4-0.5-0.4c0,0-1.8-2.7-2.9-8.8c-0.7-4-0.6-8.6-0.6-8.6c0.6-0.3,3.6-2,4.5-2.7c1-0.8,1.5-2.3,0.6-3.6
	c-0.7-1-1.7-1-2.4-0.6c0,0,0,0-0.1,0c0,0,0,0,0,0c-0.7,0.3-1.3,0.7-1.3,0.7l0,0c0,0-0.2,0.1-0.4,0.1c-0.1,0-0.1-0.1-0.1-0.1l1.4-6.7
	c0,0,1.5-2.2,8.6-2c4.9,0.1,11.5,2.4,13,3c0.1,0.1,0.1,0.1,0.2,0.2C75.7,29.4,75.7,29.5,75.7,29.5z M64.9,29.6
	c-0.4-0.1-0.8-0.1-1.2-0.1c-2.1-0.1-4.4,0.6-4.8,2.6c-0.1,0.8,0,1.4,0.5,1.7l0.1,0l0.1,0c0.5,0,1.2-0.4,1.3-1.1c0-0.1,0-0.2,0-0.3
	l0-0.2l-0.2,0.1c0,0-0.1,0-0.1,0c0,0,0,0,0,0c-0.1-0.1-0.1-0.3,0-0.5c0.2-0.9,1.1-1.3,1.4-1.2c0.2,0,0.2,0.1,0.2,0.3
	c0,0.1-0.1,0.2-0.1,0.3l0,0.1c0,0-2.8,7.9-3.2,9c-2.5-0.1-4.5,1.4-5,3.8c-0.2,1.2,0.1,2.5,0.8,3.5c0.8,1.2,2.2,2.1,3.7,2.3
	c1.7,0.3,3.5-0.1,5-1.2c1.8-1.3,3.1-3.3,3.5-5.5c0.5-2.9,0-5-1.7-7c0-0.1,0-0.1,0-0.1c0,0,0,0,0.1,0c1.3,0.1,2.8-0.6,3.1-2.4
	C68.7,31.5,67.5,30,64.9,29.6z M32.8,6.8c-0.9-0.2-1.4,0.2-1.6,0.6l2.5,1.8c0.7-0.2,0.9-0.4,1-0.8C34.8,7.8,34,7,32.8,6.8z
	 M38.3,9.4c-1.4-0.3-2.5-0.2-3.8,0.3c1.3,0.9,6.5,4.6,6.5,4.6c0.4,0.3,0.6,0.4,1,0.5c0.5,0.1,0.9,0,1.2-0.2c0.2-0.1,0.3-0.3,0.4-0.6
	c0.1-0.5-0.1-1.1-0.5-1.7C42.2,11,40.1,9.7,38.3,9.4z M62.6,10.5c0,0.1,0,0.1,0,0.1c-0.6,0.5-2,1.6-2.1,3c0,0.3,0.1,0.6,0.2,0.8
	c0,0.1,0,0.2,0,0.2c0,0.1-0.1,0.1-0.2,0.1h-0.8c0,0-0.1,0-0.1,0.1c0,0.1-0.1,0.1-0.1,0.2c0,0,0.2,1.3,0.1,1.6
	c-0.1,0.4-1.1,1.2-1.3,1.8c-0.1,0.3,0,0.7,0,1c0,0.1,0,0.1-0.1,0.2c-0.1,0-0.1,0-0.2,0c-1.5-0.9-6.3-3.4-10.7-2.8
	c-6.1,0.8-8,2.8-8,2.8l-17.7-9.7c-0.1-0.1-0.1-0.2-0.1-0.3c0-0.1,0.1-0.2,0.2-0.2c0.7-0.2,1.4-0.4,2.5-1.3c1.6-1.3,8.9-7,20-5.1
	c9.6,1.6,16.5,5.7,18.3,6.9C62.5,10.2,62.6,10.4,62.6,10.5z M44.6,10.8c-1-1.4-2.9-2.2-4.4-2.4c-1.4-0.3-3-0.2-4.2,0
	c0.1-0.1,0.1-0.3,0.2-0.4c0.1-0.3,0-0.7-0.3-1.1c-0.4-0.6-1.1-1-1.9-1.1c-0.8-0.1-2.7-0.3-3.7,1c0,0-0.3,0.4-0.3,0.4l0,0
	c-0.7,0.6-1.1,1.3-1.2,2c-0.3,1.6,0.8,3,2.4,3.3c1.2,0.2,1.6-0.2,1.8-0.7l0,0v0c0-0.6-0.6-1.2-1.2-1.3c0,0-0.1,0-0.1,0c0,0,0,0,0,0
	l-0.2,0c0,0,0,0.2,0,0.2c0,0,0,0.1,0,0.1c0,0,0,0,0,0c0,0.1-0.1,0.3-0.4,0.2c-0.6-0.1-1.4-1-1.3-1.8c0-0.1,0.1-0.2,0.2-0.3
	c0.1-0.1,0.2-0.1,0.4-0.1c0.2,0,0.5,0.2,0.8,0.4c0,0,7.1,5,7.1,5c1,0.6,1.2,1,1.3,1.2c0,0.1-0.1,0.2-0.2,0.3c0,0.1-0.1,0.1-0.1,0.2
	l0,0l0,0c0,0.2,0,0.3,0.1,0.4c0.1,0.1,0.2,0.2,0.3,0.2l0.1,0l0.1,0c0.7-0.5,1.5-0.7,2.4-0.9c0.4-0.1,0.8-0.2,1.1-0.3
	c0.8-0.3,1.6-0.6,1.9-2.1C45.3,12.4,45.1,11.6,44.6,10.8z M156.5,131.3c0,0-0.4,0.8-1,0.9c-0.7,0.1-1.3-0.5-2.9-0.9
	c-1.2-0.3-2.3-0.1-2.9,0.2c-0.6,0.3-1.1,0.9-2.2,1.1c-1.5,0.2-2.6-2.2-3.1-2.9c-0.3-0.4-0.7-0.8-1.2-1.1c0-0.1-0.1-0.2-0.1-0.3
	c0-0.1,0.1-0.1,0.1-0.2c0,0,1.6-0.6,0.3-1.5c-0.9-0.6-1,0.7-2,0.9c-1,0.2-3.3-2.4-3.3-2.4s-1-3.8-2.7-8.1c-1.9-4.7-4-6.5-5.7-6.9
	c-1.3-0.4-9.4,2.3-17.3,0.8c-9.2-1.8-12.2-5.3-13.3-6.8c-0.2-0.3-0.2-0.4-0.4-0.5c-0.2-0.1-0.5,0-0.5,0l-2,0.8c0,0-0.1,0-0.2,0
	c-0.1,0-0.1-0.1-0.1-0.1c-0.1-0.4-0.7-1.8-1.6-2.8c-0.7-0.8-1.7-1.6-2.4-2c0-0.1-0.1-0.2-0.1-0.2c0-0.1,0.1-0.2,0.2-0.2
	c0.4,0,0.6,0,1.2,0.2c1.2,0.4,1.9,1,1.9,1s1.1-1,3.6-0.6c3.6,0.7,5.4,3.5,6,4.3c0,0,0.1,0.1,0.2,0.1c0.1,0,0.2,0,0.2,0
	c0.6-0.5,2.3-2.1,4.8-2c2.8,0.2,4.2,1.1,4.7,1.6c0.1,0,0.1,0,0.2,0c0.1,0,0.2-0.1,0.2-0.1c0.4-1,1.5-3.4,4.5-3.8
	c1.7-0.3,3,0.5,3,0.5s-0.4,0.4,0.8,1.5c1.2,1,2.8,0.6,4.2,0.9c1.4,0.2,1.9,1,3.9,1c1.8,0.1,2.4-0.7,3.7-0.1c0.6,0.3,0.7,1.3,1.2,1.9
	c0.5,0.6,1.4,0.8,1.4,0.8s-0.1,2.3,1.8,6.6c1.9,4.3,3.6,7.1,3.6,7.1l1.3,0.7l2.1,2.2l-0.2,1.5c0,0-0.5,0-0.8,0.5
	c-0.4,0.8,0.3,1.3,1,1.3c0.6,0,1-1.3,1.2-1.8c0,0,0.1-0.1,0.1-0.1c0,0,0,0,0.1,0c0.2,0.1,0.6,0.2,1.1,0.2c0.6,0,1.7-0.7,1.7-0.7
	s2.2,1.1,4.1,3.3C156.3,129,156.5,131.3,156.5,131.3z M155.1,130.2c-0.1-0.4-0.5-1.4-1.4-2.7c-0.5-0.8-1.1-1.3-1.6-1.7
	c-0.1,0-0.1,0-0.2,0.1c0,0.1-0.1,0.1-0.1,0.2c0.3,0.4,0.7,1,1,1.5c0.7,1.4,1.1,2.7,1.1,2.7l0.9,0.1c0.1,0,0.1,0,0.1-0.1
	C155.1,130.3,155.1,130.3,155.1,130.2z M54,90.8l-1.5,2c0,0-2.8-0.5-4.1-0.6c-1.8-0.1-5.3,0-5.3,0l-4.9,1.6
	c-0.1,0.1-0.1,0.1-0.1,0.2c0,0.1,0.1,0.3,0.2,0.3l2.4,0.6c0,0,0.1,0.6-1.2,1c-1.3,0.3-7.7-1.2-7.7-1.2s-1.5,0.9-4.1,0.9
	c-2.6-0.1-10.2-2.7-10.2-2.7s-1-0.5-1.3-0.1c-0.6,0.6,0.1,1.5,0.1,1.5l4.6,5.7l2.2,0.6c0,0,2.4,1.9,2.3,2.3
	c-0.1,0.4-1.2,0.1-1.2,0.4c0,0.3,0.2,0.8,0.5,1c0.8,0.5,2.1-0.3,2.2-0.5c0.2-0.2-0.8-0.9-0.6-1.3c0.2-0.3,3.4-0.5,3.4-0.5
	s2.6,1.3,4.2,2.8c1,1,1.5,2.7,1.7,3.7l0,0c0,0,0.1,0.5-0.1,0.8c-0.1,0.1-0.2,0.2-0.3,0.2l-2.7,0.1c0,0-1.4,0.6-1.8,0.3
	c-0.3-0.2-0.2-2-0.5-2.5c-0.2-0.3-0.4-0.5-0.7-0.6c-0.1,0-0.1-0.1-0.3,0c-0.1,0.1-0.1,0.2-0.1,0.2c0.2,0.9,0.6,2.6-0.1,3.3
	c-0.9,0.9-2.9-1-2.9-1s-2.1-0.9-2.2-1.1c-0.1-0.4,0.7-0.7,0.6-1.2c0-0.4-0.6-0.5-0.6-0.5s-1.4,1.3-2.1,1.2c-0.4,0-3.7-2-3.7-2
	s-5.3-8.1-6.2-9.6c-0.9-1.5-2.7-2-2.7-2s-0.6-1.9-1.2-2.9c-0.6-1,2-4.9,2.6-5.4c0.7-0.5,4.8,0.1,4.8,0.1l8.8-0.8l5.6-0.7l3.2,1.8
	c0.1,0,0.2,0,0.3,0c0.1-0.1,0.2-0.2,0.2-0.3C33.6,85,33,83.5,30.9,83c-1.6-0.3-14.3,1.5-14.3,1.5l-0.4-0.9c0,0,5.8-4.1,8.3-3.8
	c2.5,0.3,3.3,1.7,3.5,2.3c0,0,0,0,0,0c0.1,0,0.2,0,0.3,0c0.8-0.5,3.1-1.8,5.1-0.9c2.2,1,2.8,2.6,2.9,3.3c0,0,0.1,0.1,0.1,0.1
	c0.1,0,0.2,0,0.3,0c0.9-0.6,3.6-2,6.1-0.9c2.5,1.1,3.8,4.7,3.8,4.7s3.1-1.1,5.3,0C53.5,89.3,54,90.8,54,90.8z M14.6,94.1
	c0,0-0.3,0.8-0.1,1.6c0.3,0.8,3.8,4.7,4.2,5.1c0.4,0.3,1.6,0.4,1.6,0.4l-1.4-1.7l-2.4-2.7L14.6,94.1z M33.3,92l-1.7,0.2
	c0,0-4.4,0.4-7.5-0.1s-6.1-2-7-2.1c-0.9-0.2-1.4,0-1.4,0l-0.6,0.7c0,0,0,0.3,0.9,0c1-0.3,3.2,1.5,6.8,2.2c4.4,0.9,8.9,0.2,9.5,0.1
	C32.9,93,33.3,92,33.3,92z M19.2,107.6l-1.9-0.9l-3.7-5.9l-3.5-4.8L9,96.5l-0.8-2.1c0,0-1.6-3.2-1.7-3.7c-0.1-0.5,1-2.3,1-2.3
	l1.8-3.5l1.7-0.7l3.8,0.3c0,0,0,0,0,0c0.1-0.1,0.1-0.2,0-0.3l-0.3-0.8l1-1.7c0,0,0-0.1,0-0.1c-0.1-0.1-0.2-0.2-0.3-0.3l-3.6-0.2
	c0,0-3.5-1.1-4.4-1.1c-0.9,0-2.6,2.5-2.6,2.5l-1.6,3.2l1.9,7l1.5,9.7c0,0,1.5,1.9,2.2,1.7c0.2-0.1,0.3-0.5,0.3-0.7
	c0,0,0.1-0.1,0.1-0.1c0,0,0,0,0.1,0l0.9,0.1c0,0,1.2,0.8,1.2,1c0,0.2-0.5,0.3-0.5,0.5c0,0.5,2.3,3.2,2.3,3.2s1,0.9,1.8,1
	c0.6,0.1,1-0.6,1.3-0.6c0.2,0,2.2,0.3,2.5,0.1C19.1,108.4,19.2,107.8,19.2,107.6z M146.7,84.4c0,0.1,0,0.1,0,0.2
	c0.4,0.3,1,0.6,1.7,0.6c2.1,0,3.6-1.5,6.4-0.4c2.2,0.9,3.4,3.6,4.2,4.3c0.6,0.6,1.4,0.6,1.8,0.6c0,0,0.1,0.1,0.1,0.1
	c0,0,0,0.1,0,0.1c-0.3,0.3-0.9,0.8-1.6,0.6c-1.7-0.5-2.3-2.3-4.9-3.3c-2.2-0.8-3.8,1.6-7.2,0.4c-1-0.3-2.1-1.3-2.8-2
	c-0.1,0-0.1,0-0.2,0c0,0-0.1,0.1-0.1,0.1c0.2,0.7,0.6,1.8,1.7,2.5c3.9,2.8,5.7-0.7,9.3,1.4c2,1.2,1.7,3.2,3.2,4.4
	c0.7,0.6,1.4,0.8,1.9,0.8c0,0,0,0,0,0.1c0,0.1,0,0.1,0,0.2c-0.6,0.2-1.5,0.4-2.2,0.1c-1.5-0.6-2.2-2.7-4.5-3.1
	c-1.5-0.2-2.3,0.8-4.6,1c-1.7,0.1-3.4-0.4-4.1-0.7c-0.1,0-0.1,0-0.1,0.1c0,0,0,0.1,0,0.1c0.2,0.5,1.2,1.5,2.5,1.7
	c2.6,0.3,3.4,2,3.7,2.8c0,0,0,0.1-0.1,0.1c0,0-0.1,0-0.1,0c-0.4-0.4-1.4-1.2-2.3-1.3c-1.8-0.3-2.4,0.1-4.1-0.1
	c-2.4-0.2-5.7-1.9-8.4-5c-4.2-4.8-2.4-11-7.4-12.9c-2.6-1-4.6,0-4.6,0s-1-0.3-2.1-1.3c-0.8-0.8-0.7-1.6-0.7-1.6s1.4,0.2,3.6-0.5
	c1.1-0.4,5.6-1.6,8.5-1.2c7,1.1,10,7.5,13.6,8.2c3.9,0.8,5.6-1.9,8.5-1c2.4,0.7,3,3.1,4.8,3.4c0.6,0.1,1,0.1,1.3,0.1
	c0,0,0.1,0.1,0.1,0.1c0,0,0,0.1,0,0.1c-0.4,0.3-1,0.9-2,0.9c-1.5,0-3.4-2-5.3-2.5c-1.9-0.5-3.9,1-5.9,1.4c-0.7,0.1-1.1,0.1-1.4,0
	C146.8,84.3,146.8,84.3,146.7,84.4z M135.3,76.1c0.3,0.2,0.7,0.5,1.1,0.8c1.4,1.2,1.5,2.6,3.1,3.7c0.9,0.6,1.7,1,2.2,1.2
	c0,0,0.1-0.1,0.1-0.1c0,0,0-0.1,0-0.1c-0.3-0.3-0.7-0.6-1.1-1c-1.5-1.6-1.5-2.6-3.7-4c-0.7-0.5-1.3-0.7-1.7-0.8c0,0-0.1,0.1-0.1,0.1
	C135.3,76,135.3,76.1,135.3,76.1z M142.7,91.9c0-0.1,0-0.1-0.1-0.2c-0.9-0.3-2.7-0.9-3.9-2.1c-1.2-1.1-2.4-3.9-3.1-5.4
	c0,0-0.1,0-0.2,0c0,0-0.1,0-0.1,0c0.3,1.4,0.8,3.9,1.8,5.2c2,2.6,4.4,2.7,5.5,2.5C142.6,92,142.7,91.9,142.7,91.9z M104.2,17
	c0-0.1,0-0.1,0-0.2c-0.2-0.4-0.7-1.1-1.4-0.8l-0.4,0.2c-0.2-1.1,0.6-0.7,1.3-1.9c1-1.7,0.4-3.6-1.1-4.2c-1-0.4-1.7,0.2-1.7,0.2
	s0.5,1-0.2,1.3c-0.2,0.1-0.2-0.1-0.4-0.3c-0.3-0.3-1.3-1.2-2.4-0.5c-0.3,0.2-0.5,0.4-0.5,0.6c0,0,0,0.1,0,0.1c0,0,0,0.1,0.1,0.1
	c0.3,0,1,0.1,1.3,0.6c0.3,0.5,0.3,1.5-0.8,1.6c-1.9,0.2-3.7-1.9-4.8-3c-3.7-3.4-6.2-2.3-6.9-1.9c0,0,0,0,0,0.1c0,0.1,0,0.1,0,0.2
	c0.1,0.2,0.5,0.6,0.1,1C86,10.4,85.5,10,85.5,10c-0.1-0.2-0.4-0.4-0.8-0.8c-2.9-2.5-5.3-1.8-6.3-1.3c0,0,0,0.1,0,0.1
	c0,0,0,0.1,0.1,0.1c0.4,0.1,0.6,0.1,1,0.4c0.3,0.2,0.5,0.6,0.3,0.9c-0.2,0.2-0.5,0.1-1.6-0.3c-1.4-0.6-4.3-1.6-6.6-0.3
	c-1.2,0.7-1.8,1.5-2.1,2.2c-0.1,0.1-0.1,0.1-0.2,0.2c0,0-0.1,0-0.1,0c-5.1-1.1-6.3,1.5-6.5,1.9c-0.3,0.5-0.6,1.4-0.5,1.5
	c0.2,0.1,1.2,0.3,1.7,0.3c0.6,0,1.4-0.2,1.6-0.4c0.3-0.2,0.9-1.3,1.2-1.5c0.3-0.2,2.1,0,2.5,0.6c0.4,0.6,0.5,1.9,0.5,1.9
	s-1.8,0.5-2,1.5c-0.2,0.7-0.2,1.5-0.1,1.9c0,0.1,0.1,0.1,0.1,0.2c0,0,0.1,0.1,0.2,0.1c0.4-0.1,1.3-0.2,2.9,1.2
	c2.5,2.1,4.9,2.9,5.6,3c0,0,0.1,0,0.1-0.1c0,0,0-0.1,0-0.1c-0.6-0.6-1.8-1.8-2-2.8c-0.3-1.3,0.5-1.9,1-3.3c0.3-1,0.4-3.8-4-5.3
	c0,0-0.1-0.1-0.1-0.1c0,0,0-0.1,0-0.1l0.4-0.7c0,0,1.6-0.9,4.1,0.1c3,1.1,4.2,4.2,6.9,5.3c0,0,0.1,0,0.1,0c0,0,0.1,0,0.1-0.1
	l0.4-1.4l2,0.1c0,0,0.1,0,0.1-0.1c0,0,0-0.1,0-0.2L83.8,13c0,0-0.4-0.4-0.2-0.8c0.2-0.4,0.7-0.3,0.7-0.3s0.9,0.1,1.5,0.6
	c1.3,1.1,0.5,2.3,0.5,2.3c1.5,1.5,3.7,1.3,4.8,0.1c0.6-0.7,0.1-1.3-0.2-1.6l0,0c0,0,0,0-0.1,0c0,0,0,0-0.1,0
	c-0.1-0.1-0.1-0.1-0.1-0.2c0-0.1,0-0.3,0.1-0.3c0.7-0.6,1.5,0.1,1.9,0.8c3.7,7,10,5,10,5s-0.1-0.7,0.2-1.1
	C103.2,16.8,103.8,17,104.2,17C104.2,17,104.2,17,104.2,17z M100.7,25.8l-1,0c0,0,0,0,0,0c0.2,0.3,0.6,0.7,0.8,1.1l0.2,0.3
	c0.3,0,1.1,0,1.1,0c0.2,0,0.4-0.1,0.5-0.2c0.1-0.1,0.1-0.2,0.1-0.4c0-0.2-0.1-0.3-0.2-0.4C101.8,25.9,101.1,25.8,100.7,25.8z
	 M88.2,25c-0.3-0.1-0.6-0.1-1.1-0.2l1,1.7c0.3,0.1,0.9,0.2,1.2,0.2c0.2,0,0.4,0,0.5-0.1c0.1-0.1,0.1-0.2,0.1-0.3
	C90,25.6,88.8,25.2,88.2,25z M94.1,25.8c-0.2,0-0.3,0-0.4,0.1c-0.1,0.1-0.1,0.2-0.1,0.3c0.1,1.2,2.4,3.4,3.4,3.6
	c0.4,0,0.5,0,0.6-0.1c0,0,0.1-0.2,0.1-0.3C97.6,28.1,95.4,25.9,94.1,25.8z M82.1,24.1L82.1,24.1C82,24.1,82,24.1,82.1,24.1
	C82,24.1,82,24.1,82.1,24.1z M148.6,41.2c0,0.1,0,0.1-0.1,0.2c-0.6-0.1-1.5-0.2-2.5-0.3c-1.7-0.1-4.9,0.3-10.6-0.6
	c-5.7-0.8-9.1-4.1-12-5.3c-4.8-1.9-18.3-1.7-24.9-1.5c-12.3,0.4-17.7-3.3-17.9-4.6c-0.6-3.5-3.4-4.7-3.4-4.7s0-0.3,0.7-0.3
	c0.7,0,0.6,0.1,0.7-0.5c0-0.8-1.3-0.7-2.4-2.2c-0.8-1.2-0.7-1.9-0.2-2.7c0.3-0.5,0.4-1.3,0.4-1.7c0-0.1,0.1-0.1,0.1-0.2
	c0.1,0,0.2,0,0.2,0c1.5,0.8,7.4,3.9,15.4,4.5c4.4,0.3,14.3,0,16.9,0.3c11.6,1.3,23.7,12.8,27.5,15.1c3.3,1.9,8.2,2.9,9.7,3.4
	c0.9,0.3,1.7,0.7,2.2,1C148.6,41.1,148.6,41.2,148.6,41.2z M85.2,28.8c-0.2-0.2-0.3-0.4-0.6-0.7c-0.6-0.8-1.2-1.7-1.8-2.6
	c0.3,0.1,0.4,0.2,0.8,0.3c0.5,0.1,1.2-0.1,1.2-0.8c0-1.6-2.2-2.9-4-3.9c-1.1-0.6-2.1-1.1-3-1.7c0,0-0.1,0-0.1,0c0,0,0,0.1-0.1,0.1
	c0.2,0.4,0.5,1,1.2,1.9c1.3,2,2.6,3.9,4,5.7c0.1,0.1,0.3,0.4,0.4,0.7c0.5,0.4,1.1,0.7,1.8,1c0,0,0.1,0,0.1,0
	C85.1,28.9,85.1,28.8,85.2,28.8z M94.1,30.5c-0.3-0.1-0.7-0.4-0.9-0.6c-0.8-0.7-1.5-1.4-2.3-2.1c0.4-0.3,0.6-0.6,0.6-1.2
	c0.1-1.7-2.1-2.5-3.4-2.7c-0.8-0.2-1.5-0.3-2.9-0.7c0,0-0.1,0-0.2,0.1c0,0,0,0.1,0,0.1c0.3,0.5,0.9,1.7,2.3,4.1
	c0.4,0.7,0.8,1.4,1.2,2c0.1,0.2,0.3,0.5,0.3,0.7c0.3,0.1,1.1,0.3,1.6,0.3c0,0,0.1,0,0.1,0c0,0,0-0.1,0-0.1c-0.2-0.2-0.4-0.4-0.6-0.8
	c-0.4-0.6-0.7-1.1-1.1-1.7c0.3,0.1,0.6,0.1,0.9,0.2c0.6,0.7,1.3,1.3,1.9,2c0.2,0.3,0.5,0.5,0.5,0.8c0.4,0,1.4,0.1,1.9,0.1
	C94,30.6,94,30.6,94.1,30.5z M99.1,29.6c0-1.2-0.9-2.4-1.9-3.4c-0.8-0.8-1.9-1.4-2.8-1.6c-0.2,0-0.4-0.1-0.6-0.1
	c-0.8,0-1.7,0.2-1.6,1.3c0.2,2.1,3,5,5.1,5.2C98.5,31.1,99.1,30.6,99.1,29.6z M106.4,30.4c-0.4-0.2-0.8-0.5-0.9-0.6
	c-0.8-0.6-1.5-1.2-2.3-1.7c0.3-0.2,0.6-0.7,0.6-1.2c0-1.5-1.7-2.1-3.1-2.1c-0.6,0-1.2,0-1.8,0.1c-0.4,0-0.8,0-1.3,0c0,0,0,0,0,0
	c0,0,0,0.1,0,0.1c0.2,0.3,0.8,1.1,1.5,2c0.4,0.6,0.7,1.1,1.1,1.7c0.4,0.6,0.7,1.1,1.1,1.7c0.2,0.3,0.2,0.4,0.2,0.4c0.3,0,1,0,1.5,0
	c0,0,0,0,0,0c0,0,0-0.1,0-0.2c0,0-0.1-0.1-0.1-0.2c-0.3-0.4-0.7-1-1-1.3c-0.2-0.2-0.3-0.5-0.5-0.7c0.3,0,0.6,0,0.8,0
	c0.7,0.6,1.4,1.2,2.1,1.8c0.2,0.1,0.4,0.4,0.4,0.5c0.3,0,1.2-0.1,1.8-0.1C106.3,30.5,106.4,30.4,106.4,30.4z M108.3,27
	c-0.2,0-0.3-0.1-0.5-0.1c-1.7-0.4-2.5-0.5-2.4-1.2c0-0.3,0.4-0.5,0.9-0.5c0.6,0,1,0.4,1.3,0.7c0,0,0.1,0,0.1,0c0,0,0,0,0.1,0
	c0.2-0.3,0.4-0.6,0.7-0.9c-0.2-0.1-0.3-0.1-0.4-0.2c-0.3-0.2-0.8-0.4-1.7-0.5c-1.1-0.1-2.1,0.4-2.1,1.4c0,1.5,1.7,1.8,3.2,2.1
	c0.2,0,0.4,0.1,0.6,0.1c0.9,0.2,2.4,0.5,2.3,1.3c0,0.4-0.4,0.6-0.9,0.5c-0.7-0.1-1.3-0.5-1.6-0.9c0,0-0.1,0-0.1,0c0,0-0.1,0-0.1,0
	c-0.2,0.3-0.5,0.7-0.7,1c0.1,0,0.3,0.1,0.4,0.2c0.5,0.3,1.1,0.6,2.1,0.7c0.9,0.1,1.9-0.3,2.1-1.3C111.6,27.8,109.6,27.3,108.3,27z
	 M117,28.7c-0.2-0.2-0.3-0.4-0.5-0.6c-0.5-0.7-1.3-1.6-1.8-2.2c-0.2-0.2-0.3-0.4-0.4-0.6c-0.2-0.1-1-0.3-1.4-0.3c0,0,0,0,0,0
	c0,0,0,0.1,0,0.1c0.5,0.5,0.9,1,1.5,1.8c0.5,0.7,1.1,1.3,1.6,2c0.6,0.8,0.2,1.2-0.4,1.1c-0.6-0.1-1.2-0.2-2.4-1.9
	c-0.2-0.3-0.5-0.6-0.7-1c-0.4-0.5-0.9-1.1-1.4-1.8c-0.2-0.2-0.3-0.5-0.4-0.7c-0.3-0.1-1.2-0.2-1.7-0.2c0,0,0,0,0,0c0,0,0,0.1,0,0.1
	c0.9,0.9,1.2,1.3,2.4,2.8c0.2,0.3,0.5,0.7,0.7,1c1,1.3,1.8,2.4,3.8,2.6C117.1,31.4,118.4,30.5,117,28.7z M126.7,35.4
	c-0.3-0.6-1.2-2-3.6-5.7c-0.5-0.7-0.7-1.1-1.1-1.7c-0.3-0.2-1-0.6-1.4-0.8c0,0-0.1,0-0.1,0c0,0,0,0.1,0,0.1c0.2,0.4,0.2,0.6,0.3,1
	c0.1,0.4,0.2,0.8,0.3,1.1c0,0-0.1,0-0.1,0c-0.9-0.9-1.9-1.8-2.8-2.6c-0.5-0.4-0.6-0.6-0.7-0.8c-0.3-0.1-1.2-0.4-1.8-0.6
	c0,0-0.1,0-0.1,0c0,0,0,0.1,0,0.1c0.6,0.6,0.8,0.9,1.7,2c0.6,0.8,1.2,1.6,1.8,2.4c0.6,0.8,1.1,1.5,1.3,1.9c0.4,0.1,1,0.4,1.5,0.7
	c0,0,0,0,0.1,0c0,0,0-0.1,0-0.1c-0.2-0.4-0.4-0.6-0.9-1.3c-0.2-0.3-1-1.5-1.2-1.8c0,0,0-0.1,0.1-0.1c0,0,0,0,0,0
	c0,0,2.8,2.7,2.8,2.7c0,0,0.1,0,0.1,0c0,0,0-0.1,0.1-0.1l-0.5-2c0,0,0,0,0.1-0.1c0,0,0,0,0,0c0.5,0.7,1.3,1.9,1.7,2.6
	c0.5,0.8,1.3,2.1,1.3,2.1c0.4,0.2,0.8,0.5,1.3,0.9C126.6,35.5,126.6,35.5,126.7,35.4C126.7,35.5,126.7,35.5,126.7,35.4z M83.2,24.4
	c0,0,0.1-0.1,0.1-0.2c0-0.5-0.9-1.3-2.6-2.1c0,0,0,0,0,0c0,0,0,0,0,0l1.4,2c0.2,0.1,0.5,0.3,0.7,0.3C83,24.5,83.1,24.5,83.2,24.4z
	 M112.5,83.5c0,0-1,0.5-1.4,0.7c-2.3,1.3-3.1,2.4-3.8,3.1c0,0.7,0.1,1.1,0.1,1.7l0,1.5c0,0.7,0,0.9,0,1.5c0,0,0.1,0.1,0.1,0.1
	c0,0,0.1,0,0.1,0c0,0,1.4-1.4,3-2.3c1.6-1,2.9-1.4,2.9-1.4s-0.2-1.5-0.4-2.6C112.9,84.8,112.5,83.5,112.5,83.5z M88.9,86.3
	c-0.4,0.9-0.6,1.4-1,2.2c1.2,0.3,3.9,1.1,7.6,2.9c0,0,0.1,0,0.1,0c0,0,0.1-0.1,0.1-0.1c0,0,0.2-0.7,0.5-1.8c0.3-1.2,0.7-3.2,0.7-3.2
	c-3.8-2.1-6.4-2.9-6.8-3C89.9,84.1,88.9,86.3,88.9,86.3z M113.9,92.3c-0.1-0.8-0.1-1.3-0.2-2.1c-0.5,0.2-1.1,0.4-1.6,0.7
	c-2.9,1.5-4.1,3-4.7,3.5c0,0,0,0.9-0.1,1.7c-0.1,0.8-0.2,2.2-0.2,2.2s0.1,0.1,0.1,0.1c0,0,0.1,0,0.1,0c1-0.6,2.2-1.5,4.7-2.5
	c0.7-0.3,1.3-0.5,2-0.7c0-0.7-0.1-1.1-0.1-1.8L113.9,92.3z M97.4,79c-3-1.9-5.2-2.7-5.8-2.9c-0.1,0.9-0.2,1.5-0.4,2.4l-0.2,0.9v0
	c-0.2,0.9-0.4,1.6-0.7,2.5c0.9,0.2,3.3,0.9,6.5,2.7c0,0,0.1,0,0.1,0c0.1,0,0.1-0.1,0.1-0.1c0,0,0.1-0.7,0.3-2.2
	C97.5,80.9,97.4,79.4,97.4,79z M113.1,81.1c0.1,0.3,0.2,0.5,0.3,0.5c1.9-0.6,3.4-0.6,4.1-0.7c-1.3-3.7-2.7-5.1-3.3-6
	c0,0-0.1-0.1-0.1-0.1c-1.3-0.9-2.7-1.6-5.2-2.3c-0.1,0-0.1,0-0.2,0.1c-0.1,0.1-0.1,0.2-0.1,0.3C109.9,74.5,111.5,76.7,113.1,81.1z
	 M105.7,96.1c0.1-0.8,0.1-1.6,0.1-1.6c-0.9-1.2-2.7-3.8-5.7-6.2c-0.7-0.5-1.7-1.2-1.7-1.2s-0.2,1.3-0.5,2.4c-0.2,1-0.6,2.6-0.6,2.6
	c0.5,0.3,1,0.5,1.5,0.8c3.9,2.3,5.6,4.5,6.4,5.4c0,0,0,0,0.1,0c0,0,0.1,0,0.1,0S105.6,96.9,105.7,96.1z M105.8,88.8
	c0-0.7-0.1-1-0.1-1.8c-0.8-1.2-2.4-3.6-5.1-6c-0.5-0.4-1.3-1.1-1.3-1.1c0,0-0.1,0-0.1,0C99.1,80,99,80,99,80.1c0,0.8,0,1.1-0.1,1.8
	l-0.1,1.3c-0.1,0.8-0.2,1.4-0.3,2.1c0,0,0.7,0.5,1.5,1.1c2.6,1.9,4.7,4.6,5.6,5.7c0,0,0.1,0,0.1,0c0,0,0.1,0,0.1-0.1
	c0-0.6,0-0.9,0-1.5L105.8,88.8z M124.8,88.9c-0.7-4.4-2.1-7-2.1-7s-0.9-0.1-1.5-0.5c-1.7-1.1-2.9-3.2-2.9-3.2c-0.1,0-0.1,0-0.2,0
	c-0.1,0.1-0.2,0.2-0.2,0.3c0.8,1.6,1.3,2.9,2,5.6c1.6,5.5,1.9,11,1.9,13.3c0,0,0,0,0.1,0.1c0.1,0,0.1,0,0.2,0
	c0.4-0.5,0.7-1.2,1.4-1.4c0.9-0.3,1.8,0,1.8,0S125.4,92.4,124.8,88.9z M93.8,98.1C93.9,98.1,93.9,98,93.8,98.1c0.5-1.1,1-2.7,1.7-5
	c-4.4-2.2-7.6-2.9-8.1-3c-1,2.1-2,3.5-2.7,4.7c0,0.1,0,0.2,0.1,0.2c0,0,0.1,0.1,0.1,0.1c1.1-0.3,2.5-0.4,4.8,0.2
	c2.1,0.6,3.5,2,4.1,2.9C93.8,98.1,93.8,98.1,93.8,98.1z M91.7,74.8c0.8,0.2,2.7,0.8,5.5,2.4c0,0,0.1,0,0.1,0c0.1,0,0.1-0.1,0.1-0.1
	c-0.3-4.5-1.4-6.4-1.9-7.2c-1.4-0.1-2.5-0.1-3.8-0.2c-0.1,0-0.1,0-0.2,0.1c0,0.1-0.1,0.1-0.1,0.2c0.2,0.7,0.4,1.6,0.2,4.3
	C91.7,74.5,91.7,74.6,91.7,74.8z M119.9,91.5c-0.1-0.8-0.2-1.4-0.4-2.2c-0.9,0-2.5,0.1-4.6,0.7c0.1,0.8,0.2,1.4,0.2,2.1l0.1,1
	c0,0.8,0.1,1.2,0.1,1.9c2.3-0.4,4.2-0.5,4.9-0.5c0-0.7-0.1-1.2-0.2-2.1L119.9,91.5z M90,69.8c-2.2,0-3.5,0-3.5,0s-1.7,4.7-4.3,10
	c-1.8,3.6-5.5,10.7-6.5,12.4c0,0.1,0,0.1,0.1,0.2c0,0,0.1,0.1,0.1,0.1c0.8-0.3,2.7-0.7,4.5,0.4c1.2,0.7,1.6,1.6,1.9,2.2
	c0,0,0.1,0,0.1,0c0.1,0,0.1,0,0.2-0.1c2.1-3.1,6.9-11.2,7.6-20.2C90.5,71.2,90.2,70.3,90,69.8z M120.3,96c-0.9,0-2.7,0.1-4.9,0.5
	c0,1.5,0,2.6,0,3.6c0,0,0,0.1,0.1,0.1c0,0,0.1,0,0.2,0c0.6-0.8,1.5-1.7,3-2c0.9-0.2,1.4-0.1,1.8,0C120.4,97.7,120.3,97.1,120.3,96z
	 M113.9,101.3c0.1,0,0.1-0.1,0.1-0.2c0-1.1,0.1-2.4,0-4.4c-0.7,0.2-1.2,0.4-1.8,0.6c-3.2,1.2-4.9,2.5-5.6,2.9
	c-0.1,0.4-0.1,0.4-0.2,0.7c0,0,0,0.1,0.1,0.1c0,0,0.1,0,0.1,0c0.8-0.4,1.6-0.7,3.3-0.7c2,0,3,0.5,3.7,0.9
	C113.8,101.3,113.9,101.3,113.9,101.3z M104.6,101.5c0,0,0.1,0,0.1-0.1c0.1-0.4,0.2-0.7,0.3-1.3c-0.9-1.1-2.7-3.3-6.5-5.5
	c-0.6-0.4-0.9-0.7-1.5-1c-0.5,1.8-0.9,3.1-1.2,4.1c0,0,0,0.1,0.1,0.1c0,0.1,0.1,0.1,0.2,0.1c1-0.3,1.9-0.4,3.9,0.2
	c2.4,0.7,3.9,2.5,4.5,3.4C104.5,101.5,104.6,101.5,104.6,101.5z M111.9,81.2c-2.2-6-4.9-8.6-5.8-9.6c-1.3-0.3-2-0.7-3.5-0.9
	c0,0-0.1,0.1-0.1,0.1c0,0.1,0,0.1,0,0.2c1,1.3,2.6,3.9,3.9,9.9c0.4,1.7,0.6,2.7,0.8,4.3c0,0,0.1,0.1,0.1,0.1c0,0,0.1,0,0.1,0
	c0.8-0.7,1.6-1.6,3.6-2.7c0.4-0.2,0.7-0.5,1.2-0.6C112,81.6,112,81.6,111.9,81.2z M105.4,84.1c0,0,0.1,0,0.1-0.1
	c-0.2-1.2-0.4-1.8-0.6-3.1c-1.4-6.8-3.7-9.5-4.5-10.5c-0.3,0-0.5-0.1-0.8-0.1c-0.8-0.1-1.2-0.2-2.1-0.3c-0.1,0-0.1,0.1-0.2,0.1
	c0,0.1,0,0.2,0,0.2c0.5,0.9,1.3,2.5,1.6,5.9c0.1,0.6,0.1,1.1,0.1,1.7c0,0,0.8,0.5,1.5,1.1C102.7,81,104.4,82.9,105.4,84.1
	C105.3,84.1,105.3,84.1,105.4,84.1z M114.6,86.2c0.2,1.1,0.4,2,0.4,2s1.4-0.3,2.3-0.4c0.9-0.1,2.1-0.2,2.1-0.2s-0.3-1.3-0.7-2.8
	c-0.3-1.3-0.7-2.2-0.7-2.2s-1.1,0-2.1,0.1c-1,0.2-1.9,0.5-1.9,0.5S114.3,84.8,114.6,86.2z M90.6,68.2c0,0-1.1-0.5-1.3-0.7
	c-0.2-0.2-0.6-1-0.7-1.1c-0.2-0.1-0.7,0-0.7,0L87,68.3c0,0.1,0,0.2,0.1,0.2c0,0,0.1,0.1,0.2,0.1l3.3,0c0-0.1,0.1-0.1,0.1-0.2
	C90.6,68.3,90.6,68.2,90.6,68.2z M99.7,68.3c-0.4-0.7-1.1-1.2-1.1-1.2s-0.6-0.1-0.8,0.1c-0.2,0.2-0.6,0.6-0.8,0.7
	c-0.2,0.1-1.5,0.4-1.5,0.4c0,0,0,0.1,0,0.1c0,0.1,0,0.1,0,0.2l4.2,0.4C99.8,69.1,100,68.8,99.7,68.3z M93.5,67.8c1.5,0,3-0.7,3-1.1
	c0.1-0.4-1.4-1.3-3.1-1.3c-1.7-0.1-3.3,0.7-3.3,1C90.2,66.7,91.3,67.9,93.5,67.8z M159.7,51c0-0.1,0-0.1,0-0.2c-0.4-0.2-1-0.4-1.8-1
	c-1.5-1.1-1.6-4.4-6.3-6.5c-3.6-1.6-7.2-1.3-8.6-1c0,0.1-0.1,0.1-0.1,0.2c0,0,0,0.1,0,0.1c1,0.3,3,1.1,4.4,2.3
	c1.8,1.5,4.2,4.3,6.5,5.6c1.8,0.9,4.5,0.7,5.8,0.5C159.7,51.1,159.7,51,159.7,51z M170.1,57c0,0,0-0.1,0-0.1
	c-0.4-0.1-0.9-0.4-1.5-0.7c-1.1-0.8-1.1-2.5-3.4-3.8c-1.9-1.1-3.6-0.5-5.2-0.3c-0.3,0-0.8,0.1-1.2,0.1c-0.1,0.1-0.1,0.1-0.1,0.2
	c0,0,0,0.1,0,0.1c0.7,0.2,1.5,0.6,2.1,1.1c1.2,0.9,1.6,2.1,3.8,3.3c1.9,1.1,4.3,0.7,5.3,0.4C170,57.2,170.1,57.1,170.1,57z
	 M87.4,42.7c-1.1-1.5-1.1-3.2-2.4-5.2c-0.6-0.9-1.1-1.3-1.5-1.7c0,0-0.1,0-0.1,0c-0.1,0-0.1,0.1-0.1,0.1c0,0.3,0.3,2.9,0.3,3.4
	c0,0-0.7,2.8-0.7,2.9c0,0.5,0,1.4,0,2.1c0.1,0,0.1,0.1,0.2,0.1c0.1,0,0.2,0,0.3-0.1c0,0,0.5-1.2,1.8-0.9c1.7,0.3,2,2.1,2,2.1
	s0.4,0.5,1.1,0.3c0.6-0.2,0.7-0.9,0.7-0.9C88.5,44,88.4,44.1,87.4,42.7z M83,38.3L83,38.3C83,38.3,83.1,38.3,83,38.3
	C83.1,38.3,83,38.3,83,38.3z M83.1,38.3C83.1,38.3,83.1,38.3,83.1,38.3L83.1,38.3z M109.5,59.8c0,0-17.7-10-21-12.2
	c-1.7-1.1-3-2.6-3-2.6s-0.7,0.2-1.1,0.5c-0.5,0.4-1,1-1.1,1.7c-0.1,0.8,0,1.3,0,1.3s1.8,0.4,2.6,0.8c0.4,0.2,40.5,21.6,40.5,21.6
	s0.4,0,0.6-0.4c0.2-0.4,0-0.7,0-0.7L109.5,59.8z M60.6,17.6c-0.3,0.6-1.1,1.6-1.2,1.8c-0.1,0.2,0.1,0.6,0.2,0.6c0.2,0,0.8-1,2.1-1.2
	c1.3-0.2,3.4,0.3,4.1,0.4c0.1,0,0.2,0,0.1-0.2c-0.1-0.4-0.3-1.3-0.1-2.2c0.2-1.2,2.1-1.9,2.2-2c0.1-0.1-0.1-0.5-0.2-0.6
	c-0.1-0.1-0.8-0.4-1-0.2c-0.3,0.2,0,1-1.2,1.7c-1.6,0.8-4.6,0.2-4.8,0.4C60.7,16.3,61,17,60.6,17.6z M68.6,21.8l-0.4-0.2l0.2-0.9
	c0,0,0-0.1-0.1-0.1c0,0-0.1,0-0.1,0l-1.8,0.1c0,0-1.9-0.9-4.3-0.8c-0.9,0.1-1.3,0.6-1.3,0.6l-0.5,1.3c0,0.1,0,0.1,0.1,0.1
	c0.1,0.1,0.1,0.1,0.2,0.1c0.4-0.3,0.9-0.6,1.4-0.7c2.1-0.4,3.7,0.2,4.1,0.3c0,0,0.6,1,1.2,0.9c0.4,0,1.1-0.4,1.4-0.6
	c0,0,0-0.1,0-0.1C68.7,21.9,68.7,21.8,68.6,21.8z M65.7,23.2L65,22.5c0,0-2-0.3-2.8-0.1c-0.9,0.2-1.7,0.9-1.3,1.5
	c0.3,0.5,2.6,0.2,2.6,0.2l0.6,0.9c0,0,0.1,0,0.1,0c0.1,0,0.1,0,0.2-0.1l0.4-0.8l1.1-0.7c0,0,0-0.1,0-0.2
	C65.8,23.3,65.8,23.2,65.7,23.2z M73.9,46.8c0.1,0,0.1-0.1,0.1-0.2c0,0-0.3-3.7-0.5-4c-0.1-0.2-0.8-0.2-0.8-0.2s-0.7,1.7-1.2,2.7
	c-0.2,0.4-0.7,1.2-0.7,1.2l0,0.6c0,0,0,0,0.1,0.1c0,0,0.1,0,0.1,0c0.3-0.1,0.9-0.4,1.3-0.4C72.6,46.7,73.4,46.7,73.9,46.8
	C73.8,46.8,73.8,46.8,73.9,46.8z M87.7,58.3c-1.1,0-2,1.5-2,1.5s0.5,0.5-0.4,2.6c-0.9,2.1-4.8,4.8-4.8,4.8l-1,2.3
	c0,0.1,0,0.1,0.1,0.2c0.1,0,0.1,0.1,0.2,0.1c0.7-0.5,1.8-1.4,3-2.6c1.5-1.5,1.5-1.8,1.5-1.8s1.1,0.3,1.4,0.3c0.3,0,1.6-0.9,1.6-0.9
	s0.7-1.2,1.1-2c0.5-1,0.6-3,0.6-3s0.8-1.1,0.8-1.2C89.7,58.5,88.8,58.3,87.7,58.3z M81.6,64.9c1-0.4,2.9-3.3,2.9-3.6
	c0.1-0.2-0.3-1.5-0.2-1.7c0.1-0.2,1.9-2.7,2.1-2.8c0.2-0.1,3.2,0.5,3.4,0.4c0.2-0.1,1.3-1.5-0.3-2.1c-0.7-0.2-3.2-0.2-4.2,0.5
	c-1.7,1.2-2.8,4.6-2.8,4.6s-0.4,3-0.5,3.2c-0.1,0.2-1.5,1.1-1.5,1.1S80.5,65.3,81.6,64.9z M86.1,67.2c-0.1-0.2-1.2,0-1.4,0.2
	c-0.1,0.1-2.9,3.6-2.9,3.6l-1.5-0.3c0,0-1.2,0.6-1.4,2.2c-0.3,2.5,1.3,3.1-0.6,3.6c-1.1,0.3-1-1.2-0.9-2.1c0,0,0-0.1-0.1-0.1
	c-0.1,0-0.1,0-0.2,0c-0.5,0.8-1.4,2.3-1.4,2.7c0.1,0.5,0.7,2.2,3.5,1.2c2.9-1,3.1-2.1,3.4-3.2c0.4-1.1,1.1-3.7,2-5
	C85.4,68.7,86.1,67.4,86.1,67.2z M84.9,52.6c-0.1-0.9-0.9-1.6-1.3-2c0,0-0.1,0-0.1,0c-0.1,0-0.1,0.1-0.1,0.1l-0.1,4.8
	c0,0,0,0.1,0.1,0.1c0.1,0,0.2,0,0.2,0l1.2-1.1C84.7,54.6,85.1,53.9,84.9,52.6z M74.3,48.7c0-0.1,0-0.1,0-0.2c0,0-0.1-0.1-0.1-0.1
	l-1.6-0.3l-1.5,0.2l0.2,6.4l-3.4,5.5c0,0,0.1,0.1,0.1,0.2c0.1,0,0.1,0,0.1,0c0.4-0.4,0.7-0.7,1.4-1.2c1.4-0.9,2.9-1.3,2.9-1.3
	s0.2-1.5,0.6-2.1c0.4-0.6,0.8-0.9,0.9-1.2c0.1-0.3-0.2-0.8-0.5-2.3C73.3,51.3,74,49.3,74.3,48.7z M67,66c-0.4,1.5-0.8,4.7-0.8,4.7
	l-0.5,1.1l1.2,0.4c0,0,1-1.1,1.5-1.4c0.5-0.3,2-1,2-1s1.1-3.8,2.7-6.9c1.6-3.1,3.1-5.7,3.1-5.7s-1.3-1.1-2-0.5
	c-0.6,0.5-0.7,2.2-0.7,2.2S71,59.6,70,60.6C68.1,62.4,67.4,64.6,67,66z M76.7,56.2c0.1,0,0.1-0.1,0.1-0.2l0-1.2l-0.2-4.2l-1.4,0.2
	c0,0-0.3,0.9-0.3,1.3c0,0.3,0.8,2.2,0.8,2.4c0,0.2-0.5,0.7-0.5,0.9c0,0.2,0.9,0.6,1.4,0.9C76.6,56.3,76.7,56.3,76.7,56.2z
	 M82.2,50.5L80,50.2l-2.2,0.3l0.3,5.7c0,0,1.7-0.5,2-0.5c0.3,0,2,0.3,2,0.3L82.2,50.5z M74.2,72c-3.5-2.3-6.7,1.8-7,1.9
	c-0.2,0-2.1-0.8-2.3-0.8c-0.2,0.1-1.6,1.4-1.1,2.4c0.5,1,0.6,1.1,0.7,1.2c0.1,0.1,2.7-0.8,2.9-0.7c0.2,0.1,2,2.9,2.4,3.2
	c0.4,0.2,2.8,1.3,3.7,0.1c0.8-1.2-0.4-3.7-0.4-3.7S76,73.2,74.2,72z M80.1,80c-0.1-0.1-0.2-0.1-0.2-0.1c-1.4,0.2-5.3,0.7-7.4,2.4
	c-2.8,2.3-3.1,6.3-3.1,6.3l-1.2,1c0,0.1,0,0.2,0,0.2c0,0.1,0.1,0.1,0.2,0.2l6.4,0.7l5.5-10.4C80.2,80.1,80.2,80,80.1,80z M70.6,81
	c-0.1-0.3-1.1,0.1-1.5-0.1c-1-0.6-1.9-3.2-2.3-3.4c-0.4-0.2-2,0.6-2,0.6l-2.3,3.5l-4.1,11.2l-0.7,1c0,0.1-0.1,0.2-0.1,0.3
	c0,0,0,0.1,0.1,0.1l2.9,1.8l1.2,1.7c0,0,0,0,0.1,0.1c0,0,0.1,0,0.1,0l0.8-0.2c0,0,0-0.1,0.1-0.1c0-0.1,0-0.2-0.1-0.2
	c0,0-1.1-2.4-0.2-3.7c1-1.4,5.1-5.9,6-7.7C69.2,84.9,70.8,81.3,70.6,81z M63.9,36C63.9,36,63.9,36,63.9,36L63.9,36L63.9,36z
	 M65.9,55l0.4-2.2c0,0,0-0.1-0.1-0.1c0,0,0,0-0.1,0c0,0-1.5,2.1-2.7,3.1c-1.2,1.1-2.8,2.2-2.8,2.2c0,0,0,0.1,0,0.2
	c0,0,0.1,0.1,0.1,0.1l2.8,0.8l2.5-3.3L65.9,55z M66.6,63c-0.1-0.1-0.2-0.1-0.3-0.2c-1.5,0.4-5.7,1.9-5.9,4.1
	c-0.2,2.3,1.9,3.8,2.9,4.4c0.1,0,0.1,0,0.2-0.1c0,0,0.1-0.1,0.1-0.1c-0.3-0.8-0.8-2.5-0.2-3.5c0.8-1.5,2.7-2.7,2.7-2.7L66.6,63
	C66.6,63,66.6,63,66.6,63z M55.5,61.3c0-0.1-0.1-0.2-0.1-0.2l-1.5-1L52.8,58c0,0-0.1-0.1-0.2-0.1c-0.1,0-0.1,0-0.2,0
	c-0.9,0.8-3.9,3.8-3.1,5.2c0.8,1.3,5-1,6.1-1.6C55.5,61.4,55.5,61.4,55.5,61.3z M50.4,64.9c-0.4,0.2-0.5,0.8-0.5,0.8l5.7,2.3
	c0,0,0.3,0,0.3-0.2c0-0.1-0.5-1.5-0.4-1.7c0-0.2,1.1-2.6,1.1-2.8c0-0.3-0.1-0.3-0.1-0.3l-4,1.7C52.5,64.7,50.8,64.7,50.4,64.9z
	 M55.5,69.7c-3.6-1.7-10.2-4.8-18.6-5c-4.5-0.1-7.8,1.1-7.8,1.1l-0.9-0.2l-1.3,2l3,0.9c0,0,4-1,7.9-1c3.9,0,10.8,2.5,14.1,3.9
	c3,1.3,8.2,4.2,8.2,4.2l1.3-2.4C61.3,73,58.6,71.2,55.5,69.7z M62.4,75.9c0,0-0.1-0.1-0.2-0.1c-0.1,0-0.1,0-0.2,0.1l-2.6,6.2
	l1.4,0.5l2.3-4.9L62.4,75.9z M58.8,83.3l-1.2,2.8l0.2,0.9c0,0.1,0.1,0.1,0.2,0.1c0,0,0.1,0,0.1,0l0.8-0.4l1.3-3L58.8,83.3z
	 M58.7,100.4c0.4,0.3,1.2,0.9,1.7,0.4c1.6-1.3,0-2.9-0.6-3.4L57.7,96c0,0-0.1,0-0.1,0c-0.1,0-0.1,0.1-0.1,0.1l-0.7,3.2L58.7,100.4z
	 M50.2,96.4c0.1,0,0.2-0.2,0.2-0.2l1.3-1.8c0,0,0.1-0.1,0-0.2C51.6,94,51.5,94,51.5,94s-4.8-0.8-6.6-0.7c-0.7,0.1-1.9,0.3-2.5,0.5
	c0,0.1-0.1,0.1-0.1,0.2c0,0.1,0.1,0.2,0.2,0.3l3.7,0.9l3.8,1.1C49.9,96.4,50.1,96.4,50.2,96.4z M10.8,5.2c0,0-0.4-0.3-1-0.8
	C9.4,4.1,9.5,2.8,9.5,2.8L9.1,2.5c0,0-0.7,0.5-1.8,0.2C5.3,2.3,0.2,0,0.2,0L0,0.5c0,0,4.3,3.3,5.5,4.9c0.6,0.8,0.9,1.8,0.9,1.8
	l0.4,0.2c0,0,0.9-0.5,1.2-0.5c1,0,1.6,0.3,1.6,0.3L10.8,5.2z M52.6,28.4L11.5,6.2l-0.6,1.2l41.2,22.8L52.6,28.4z M26.5,44.3
	c-0.6,0.8-1.3,2.8-1.3,2.8L23.2,51c0,0-0.7,1.5-2.4,2.3c-1.9,0.9-7.4-0.6-7.4-0.6l2.4-12.3l-0.8-2l-8.4-3.7l0-0.5l8.6,1.1l0.9-1
	c0,0,0.3-1.8,0.5-2.5c0.4-1.3,1.7-3,1.7-3s0.2,0,0.2,0.1c0.1,0.3,0.2,0.8,0.5,1.2c0.5,0.5,1.2,0.8,1.2,0.8l1.1,0.2l3.7,0.4
	c0,0,3.4,1.4,3.9,3.7C30.3,40.1,27.1,43.5,26.5,44.3z M20.2,37.7c0,0-1.2,0.4-1.8-0.2c-0.6-0.5-0.5-1.2-0.5-1.2l-1-0.4
	c0,0-1,1-0.4,2.2c0.9,2,2.8,1,2.8,1L20.2,37.7z M26,36.3l-1-1.6l-4.3,15l0.6,0.4L26,36.3z M27.8,50.7c0.1-0.1,0.1-0.2,0.1-0.2
	l0.4-3.6c0,0,0-0.1-0.1-0.1c-0.1,0-0.2,0.1-0.2,0.1l-2.7,2v1.8L27.8,50.7C27.8,50.8,27.8,50.8,27.8,50.7z M51.7,54.3
	c0,0-0.1,0-0.1,0c-0.5,0.2-1.8,0.9-2.2,1.2c-0.5,0.4-1.3,1.7-2.1,2.2c-0.9,0.7-2.6,1.1-3.5,1.6c-0.9,0.5-1.8,1.7-3.5,2.5
	c-2.2,1-5.5,1.4-7.3,0.3c-0.9-0.6-0.8-2.1-0.8-2.1l-0.8-0.1L29.2,64l0.3,0.3c0,0,4.6-1.1,9.5-0.7c4.6,0.4,7.7,1.4,7.7,1.4l0.8-1.1
	c0,0-0.9-1.3,0.6-3.7c1.5-2.3,4.1-4.2,4.1-4.2l-0.4-1.7C51.8,54.3,51.7,54.3,51.7,54.3z M48.1,47.1c-0.3,0.2-4,3.3-7.1,5.1
	c-2.5,1.5-8.6,4.7-9.2,5c-0.1,0-0.2,0-0.2,0c-0.1,0-0.1-0.1-0.2-0.2c-0.2-0.9-0.8-2.2-0.7-4.1c0.2-4.7,3.3-8.4,2.7-12.3
	c-0.2-1.2-0.6-2.1-0.6-2.1l0.8-4.8l-0.7-2.3l0.1-0.2c0,0,7.3-0.5,10.8,4.1c1.2,1.6,2.7,5,2.7,5l0.4,4.2l1.2,2.3
	C48.1,46.8,48.3,47,48.1,47.1z M41.1,36.6c0,0.5,0.4,0.9,0.9,0.9c0.5,0,0.9-0.4,0.9-0.9c0-0.5-0.4-0.9-0.9-0.9
	C41.5,35.7,41.1,36.1,41.1,36.6z M38.2,34.5c0,0.5,0.4,0.8,0.8,0.8c0.5,0,0.8-0.4,0.8-0.8c0-0.5-0.4-0.8-0.8-0.8
	C38.6,33.7,38.2,34,38.2,34.5z M38.1,39c0,0.5,0.4,0.9,0.9,0.9c0.5,0,0.9-0.4,0.9-0.9c0-0.5-0.4-0.9-0.9-0.9
	C38.5,38.1,38.1,38.5,38.1,39z M33.9,54.2c0-0.5-0.4-0.9-0.9-0.9c-0.5,0-0.9,0.4-0.9,0.9c0,0.5,0.4,0.9,0.9,0.9
	C33.6,55.1,33.9,54.7,33.9,54.2z M34.3,50.1c0-0.5-0.4-0.8-0.8-0.8c-0.5,0-0.8,0.4-0.8,0.8c0,0.5,0.4,0.8,0.8,0.8
	C34,50.9,34.3,50.6,34.3,50.1z M36,45.2c0-0.5-0.4-0.8-0.8-0.8c-0.5,0-0.8,0.4-0.8,0.8c0,0.5,0.4,0.8,0.8,0.8
	C35.7,46.1,36,45.7,36,45.2z M36.1,41.3c0-0.5-0.4-0.8-0.8-0.8c-0.5,0-0.8,0.4-0.8,0.8c0,0.5,0.4,0.8,0.8,0.8
	C35.8,42.1,36.1,41.8,36.1,41.3z M36.1,37.4c0-0.5-0.4-0.8-0.8-0.8c-0.4,0-0.8,0.4-0.8,0.8c0,0.5,0.4,0.8,0.8,0.8
	C35.8,38.2,36.1,37.9,36.1,37.4z M36.5,33.4c0-0.5-0.4-0.8-0.8-0.8c-0.5,0-0.8,0.4-0.8,0.8c0,0.5,0.4,0.8,0.8,0.8
	C36.1,34.2,36.5,33.9,36.5,33.4z M38,51.9c0-0.5-0.4-0.9-0.9-0.9c-0.5,0-0.9,0.4-0.9,0.9c0,0.5,0.4,0.9,0.9,0.9
	C37.6,52.8,38,52.4,38,51.9z M38.5,47.8c0-0.5-0.4-0.9-0.9-0.9c-0.5,0-0.9,0.4-0.9,0.9c0,0.5,0.4,0.9,0.9,0.9
	C38.1,48.7,38.5,48.3,38.5,47.8z M40,42.9c0-0.5-0.4-0.9-0.9-0.9c-0.5,0-0.9,0.4-0.9,0.9c0,0.5,0.4,0.9,0.9,0.9
	C39.6,43.7,40,43.4,40,42.9z M42.3,49.3c0-0.5-0.4-0.9-0.9-0.9c-0.5,0-0.9,0.4-0.9,0.9c0,0.5,0.4,0.9,0.9,0.9
	C42,50.2,42.3,49.8,42.3,49.3z M42.7,45.2c0-0.5-0.4-0.9-0.9-0.9c-0.5,0-0.9,0.4-0.9,0.9c0,0.5,0.4,0.9,0.9,0.9
	C42.3,46.1,42.7,45.7,42.7,45.2z M44.2,39.7c0-0.5-0.4-0.9-0.9-0.9c-0.5,0-0.9,0.4-0.9,0.9c0,0.5,0.4,0.9,0.9,0.9
	C43.8,40.6,44.2,40.2,44.2,39.7z M44.9,43.8c0.5,0,0.9-0.4,0.9-0.9c0-0.5-0.4-0.9-0.9-0.9c-0.5,0-0.9,0.4-0.9,0.9
	C44,43.4,44.4,43.8,44.9,43.8z M46.1,46.6c0-0.5-0.4-0.9-0.9-0.9c-0.5,0-0.9,0.4-0.9,0.9c0,0.5,0.4,0.9,0.9,0.9
	C45.7,47.5,46.1,47.1,46.1,46.6z M22.2,54c0,0-0.1,0-0.1,0c-0.5,0.2-1.6,0.7-2.9,0.7c-1.5,0-3.3-0.3-3.9-0.5c-0.1,0-0.1,0.1-0.2,0.1
	c0,0,0,0.1,0,0.1c0.1,0.5,0.5,1.5,1.6,1.9c1.7,0.5,3.2-0.6,3.2-0.6s1.4,0.5,1.9,0c0.3-0.4,0.5-1.1,0.5-1.5C22.2,54,22.2,54,22.2,54z
	 M29.6,30.6c0-0.1,0-0.2,0-0.2c-0.6-0.8-2.8-3.6-4.8-5.3c-0.9-0.7-1.7-0.1-1.7-0.1l2.3,5.4c0,0,0.9,0.7,2.1,0.7
	C28.3,31.1,29,30.8,29.6,30.6C29.5,30.7,29.5,30.7,29.6,30.6z M32.7,29.6c0.1-0.6-0.6-1.4-0.6-1.4L29,23.8c0,0-0.3-0.4-0.5-0.5
	c-0.4-0.3-1-0.1-1-0.1s-1.1,0.3-1.3,0.6c-0.4,0.4-0.2,0.8-0.2,0.8s1.8,1.6,3.5,3.7c0.6,0.8,1.7,2.1,1.7,2.1l1.1-0.2
	C32.2,30.2,32.6,30,32.7,29.6z M36.3,28.9l-3.2-5.4c0,0-0.3-0.5-1-0.6c-0.5-0.1-1,0.1-1,0.1s-0.4,0.1-0.5,0.5
	c-0.1,0.5,0.2,0.9,0.2,0.9s3.2,4.2,3.4,4.7c0.1,0.4,0.1,0.8,0,0.9c0,0,0,0.1,0.1,0.1c0,0,0.1,0,0.1,0.1l1.5,0.1c0,0,0.5-0.1,0.6-0.5
	C36.6,29.3,36.3,28.9,36.3,28.9z M39.4,30l-0.9-4.5c0,0-0.1-0.6-0.3-1c-0.3-0.5-0.8-0.6-0.8-0.6L36,23.3c0,0-0.5-0.1-0.8,0.2
	c-0.3,0.3-0.1,0.7-0.1,0.7s2.3,4.2,2.5,4.6c0.1,0.3,0,0.9,0,1.2c0,0.1,0,0.1,0.1,0.2c0,0,0,0,0,0c0.4,0.1,1.1,0.3,1.4,0.3
	C39.5,30.5,39.4,30,39.4,30z M42.1,25.8c-0.2-0.4-0.7-0.6-0.7-0.6l-1-0.3c0,0-0.4-0.2-0.6,0.3c-0.1,0.3,0,1.2,0,1.2l0.9,5l1,0.4
	c0,0,0,0,0.1,0c0.1,0,0.1-0.1,0.2-0.1l0.4-4.9C42.3,26.7,42.4,26.2,42.1,25.8z M45.7,27.9c-0.2-0.6-0.7-0.8-0.7-0.8l-0.5-0.2
	c0,0-0.6-0.3-0.9,0.1c-0.3,0.2-0.3,1-0.3,1l-0.3,4.9l1,0.9c0,0,0.1,0,0.2,0c0.1,0,0.1-0.1,0.1-0.1l1.5-4.9
	C45.7,28.8,45.9,28.3,45.7,27.9z M49.7,29.9l-1.4-0.7c0,0-0.5-0.3-1,0c-0.4,0.3-0.6,0.6-0.6,0.6L45,35.2l0.8,1.2
	c0,0,0.1,0.1,0.1,0.1c0.1,0,0.1,0,0.2-0.1c0.8-1.1,3.6-4.8,3.7-5.1C50.3,30.4,49.7,29.9,49.7,29.9z M51.6,31.8
	c-0.5-0.1-0.8,0.4-0.8,0.4l-4.1,5.7l0.6,1.2c0,0,0.1,0.1,0.2,0.1c0.1,0,0.1,0,0.2,0l3.8-2.9l0.6-4C52,32.2,51.8,31.9,51.6,31.8z
	 M54.8,37.6c0,0-0.1-1.1-0.4-1.4c-0.5-0.6-1-0.5-1-0.5l-1.4,1.8l-4.4,3l0.3,3c0,0,0.1,0.1,0.1,0.1c0.1,0,0.1,0,0.2,0l1.7-1.1
	l-0.1-1.8L54.8,37.6z M49.3,46.5C49.4,46.5,49.4,46.5,49.3,46.5l0.9-0.6L50,44.1c0-0.1-0.1-0.1-0.2-0.1c0,0,0,0-0.1,0l-1.3,0.8
	L49.3,46.5C49.3,46.5,49.3,46.5,49.3,46.5z M50.5,47.5c0-0.1-0.1-0.1-0.2-0.1c-0.1,0-0.1,0-0.2,0c-1.2,1-5.9,4.5-10.7,7.3
	c-3.8,2.2-6.2,3.2-7,3.6c-0.1,0-0.1,0.1-0.1,0.2c0,0.1,0,0.2,0,0.3l1.2,0.7c0,0-0.2,1,0,1.3c0.1,0.2,1.5,1.1,3.1,0.5
	c0.8-0.3,0.4-1.4,0.8-1.8c0.5-0.3,1.3-0.8,1.8-0.8c0.9,0,0.8,1.4,1.6,1.2c0.7-0.2,1.7-0.8,2.1-1.5c0.4-0.6-0.1-1.2,0-1.6
	c0.2-0.4,1.8-1.3,2.1-1.3c0.9,0.1,0.6,0.8,1.3,0.7c0.7,0,1.3-0.5,1.9-1.4c0.5-0.8-0.1-1.2,0.1-1.7c0.2-0.4,1.3-1.1,1.6-1
	c0.5,0.1,0.3,0.8,0.7,0.8c0.3,0,0.7-0.6,0.7-0.6L50.5,47.5z M120.5,77.5c-1.2-1.4-0.9-2.3-0.9-2.3s-3-2.6-6.9-4.2
	c-4.4-1.9-9.8-2.8-11.5-3.1c-0.1,0-0.1,0-0.2,0.1c0,0-0.1,0.1-0.1,0.2l0.6,1.1c0,0,8,1.4,12.4,3.8c4.4,2.4,6.6,6.2,7.8,6.9
	c1.9,1.2,2-0.7,2-0.7S121.7,78.9,120.5,77.5z M72.9,23.2c0-0.1,0-0.1,0-0.2c-0.8-0.3-2.1-0.7-4.3,0.1c-3.3,1.2-3.3,2.3-3.3,2.3
	l2.1,0.3c0,0,0.2-0.5,0.8-0.8c1.1-0.6,2.2-0.9,2.2-0.9l0.3-0.5l1.1-0.2L72.9,23.2C72.8,23.2,72.8,23.2,72.9,23.2z M31.2,37.8
	c0.1-0.2,0.9-4.3,0.9-4.3s-0.5-1.8-0.7-2c-0.2-0.1-2.8,0.8-2.8,0.8s0.1,0.1,0.2,0.2c0.2,0.2,0.7,0.8,1.1,1.6
	c1.1,2.3,0.6,5.2-0.1,7.2C29.3,43,28,44.3,28,44.3l1,2.1c0,0,0.1,0.1,0.1,0.1c0,0,0.1,0,0.1,0c0.6-0.3,2.5-1.4,2.8-4.7
	C32.2,39.7,31.1,38,31.2,37.8z M82.1,57.5c-0.2-0.3-2.6-0.7-3.7,0c-1.3,0.8-2.9,3.7-4,5.7c-1.4,2.6-2.6,6.6-2.6,6.6s1.1,0.1,1.8,0.4
	c0.7,0.3,1.5,0.9,1.5,0.9s0.6-0.7,1.7-2c1.5-2,2.6-5,2.6-5s1.3-0.9,1.4-1.1c0.1-0.1,0.3-2.6,0.5-3.3C81.4,59.2,82.2,57.8,82.1,57.5z
	 M90.2,97.7c0.1-0.1,0.1-0.2,0-0.3c-0.4-0.4-1.2-0.9-2.8-1.2c-1.8-0.3-4.6,0.7-5.2,1c0,0-0.1,0-0.1,0c-0.1,0-0.1-0.1-0.2-0.1
	c0,0,0-0.1-0.1-0.1c0,0,0,0,0,0l0,0c-0.4-0.9-1.7-2.9-3.1-3.1c-2.3-0.4-4.4,1-4.4,1L73,94.1l1-1.7c0,0,0-0.1,0-0.1
	c0-0.1-0.1-0.1-0.1-0.1l-5.5-0.6l-3.9,2.8l-0.1,1.5c0,0.1,0,0.2,0.1,0.2c0,0,0.1,0,0.1,0.1c0,0,5,0.8,5.1,0.7
	c0.2-0.2-0.1-0.6,0.2-0.7c0.4-0.2,0.6,0.3,0.8,0.3c0.2,0,0.5-0.4,0.9-0.2c0.3,0.2,0,0.7,0,0.9c0,0.2,0.4,0.5,0.3,0.8
	c-0.2,0.3-0.7,0-0.9,0.1c-0.2,0.1-0.4,0.6-0.8,0.5c-0.4-0.1-0.2-0.6-0.4-0.7c-0.2-0.1-5.4,0.8-5.4,0.8c-0.1,0-0.1,0.1-0.1,0.2
	c0,0.1,0,0.1,0,0.2c1.4,0.5,4.9,1.7,8,1.8c3.6,0.1,7.8-1.7,10.6-2.4C85.2,97.8,88.9,97.8,90.2,97.7C90.1,97.8,90.2,97.8,90.2,97.7z
	 M129.3,100c-0.9-0.6-2.8,0.1-3.6,0.3c-0.4,0.1-0.6,0.3-0.8,0.4c0,0.1-0.1,0.2,0,0.3c0,0.1,0.1,0.1,0.2,0.1c0.8,0,2.3,0.1,3.3,0.4
	c1.4,0.4,1.9,0.8,1.9,0.8S131,101.2,129.3,100z M56.9,88.5L51,97.7c0,0,0,0.1,0,0.1c0,0,0,0.1,0.1,0.1l0.7,0.3l3,1.2l0.5,0.2
	l2.7-10.8L56.9,88.5z M82.1,47.3l-0.4-1.4l0.1-5.7l0.3-2.3l0.1-3.8l-0.8-1.8l-0.7-0.2c0,0,0.2,1.7-0.8,3.6c-1.3,2.5-3.5,3.1-3.5,3.1
	L75.7,40c-1.3,0.4-2.3,0.4-2.3,0.4L73,40.8c0,0.1,0,0.2,0,0.2c0,0,0,0,0.1,0.1c0.8,0.1,3.4,0.3,5.6-1c1.2-0.8,1.8-1.4,2-1.7
	c0,0,0.1,0,0.1,0c0,0,0.1,0,0.1,0l0.1,1.2l-0.5,0.6l0,4.7l-0.6,0.4l-0.4-0.2l0-3.8c0,0,0-0.1-0.1-0.1c-0.1,0-0.1,0-0.1,0
	s-0.3,0.6-2.7,1.1c-0.7,0.2-1.4,0.2-1.5,0.2c0,0,0,0-0.1,0.1c0,0,0,0.1,0,0.1l0.5,4.1c0,0.1,0,0.2,0.1,0.2c0,0,0.1,0.1,0.1,0.1
	c0.3,0.1,0.5,0.1,0.6,0.1c0.1-0.1,0.4-0.6,1.4-0.8c0.6-0.2,1.2,0.4,1.6,0.6c0,0,0,0.1,0,0.1c0,0-0.1,0.1-0.1,0.1
	c-0.4,0-0.8,0.1-1.2,0.3c-1,0.5-1,1.1-1.1,1.1c-0.1,0.1-0.8-0.2-0.9-0.2c-0.1,0-0.3,0.9-0.3,0.9c0,0.1,0,0.1,0.1,0.1
	c0,0,0.1,0,0.1,0.1l4.1-0.6l2.8,0.2c0,0,0.1,0,0.1-0.1c0,0,0.1-0.1,0.1-0.2L82.1,47.3z M137.8,126.3c-1.3-1.6-1.1-3-1.1-3
	s-1.2-1.1-2.1-1c-0.5,0.1-0.6,0.6-0.7,1c-0.1,0.3-0.5,0.7-1,0.2c-1.2-1.1,0.2-1.5,0.5-1.9c0.3-0.4,0.1-1.2,0.1-1.2s-1-0.7-2.1-4.2
	c-0.8-2.5-0.5-3.8-0.5-3.8s-0.6-0.6-0.8-0.7c-0.2,0-0.6,0.3-1.1,0.9c-0.6,0.7,0,4.2,0.4,5c0.1,0.3,0.4,0.6,0.6,0.7
	c0,0.1,0,0.2,0,0.3c0,0.1-0.1,0.1-0.1,0.1l-1.5-0.1c-0.1,0-0.1-0.1-0.2-0.1c0,0,0-0.1,0-0.1c0.1-0.1,0.1-0.4,0.1-0.7
	c0-0.7-0.6-2.4-0.7-3.7c-0.1-1.3,0.3-1.8,0.3-2c0-0.2-0.5-0.6-0.5-0.6s-1.1,0.3-1.4,0.4c-0.2,0.1-0.4,0.3-0.5,0.5
	c-0.1,0.1,0.7,2.1,0.9,3.9c0.2,1.8-0.1,4.7,0.2,5.9c0.2,1.2,0.7,2.2,1.2,2.7c0.7,0.8,2.5,1,3.2,1.7c0.7,0.7,0.8,2.4,1.8,3
	c0.7,0.4,1.6-0.1,1.6-0.1s-0.3-0.7-0.2-0.9c0.1-0.2,0.8-0.5,1-0.6c0.2-0.1,0.9,0.4,0.9,0.5c0,0.2-0.2,0.6-0.2,0.6l-0.3,0.2
	c0,0-0.1,0.1-0.1,0.1c0,0.1,0,0.2,0.1,0.3c0,0,0.1,0,0.1,0.1c0.4,0.3,2.1,2.3,2.7,2.7c0.5,0.4,0.9,0.4,1.6-0.1
	c0.6-0.4,0.7-3.9,0.7-3.9S139.1,127.9,137.8,126.3z M69.6,48.4C69.6,48.4,69.6,48.4,69.6,48.4c-0.1,0-0.1,0-0.2,0l-1.3,1.9
	c0,0-0.9,3.9-0.9,4.3c0,0.2,0.5,0.5,0.5,0.9c0,0.4-2.8,4.1-2.8,4.1l-5.1,2.4c0,0-1.7,1.7-2,3.2c-0.5,2.1,0.5,3.4,1.2,4
	c0.1,0,0.2,0,0.3-0.1c0,0,0.1-0.1,0.1-0.1c-0.4-1.1-1-3.8,0.9-5.3c1.8-1.3,5.8-2.9,5.8-2.9s2.6-3.7,3.3-6.2
	C70.1,52.4,69.7,49.3,69.6,48.4z M22.1,25.1c-0.3-0.8-4.7-3.1-5.9-3.7C16,21.3,16,21.5,16,21.5l0.2,1.4l0.4,2.3l2.3,2.7
	c0,0,0,0,0.1,0c0.1,0,0.1,0,0.2,0l1.4-0.4l0.8-1c0.1,0,0.2,0,0.3,0c0.1,0,0.1,0.1,0.1,0.1l-0.5,3.1c0,0,0.1,0.3,0.2,0.2
	c0.5-0.1,1.4-0.3,1.7-0.5C23.5,29.2,22.5,26,22.1,25.1z M73.4,24.3c-2.8,0-3.7,0.9-4.2,1.4c0,0.1,0,0.1,0,0.2c0,0.1,0.1,0.2,0.2,0.2
	l4,1.1l3.5,1.2c0,0,0.1,0.1,0.2,0.2c0.1,0.2,0,0.3,0,0.3l-1.4,4.9c0,0,0.2,0.7,0,2c-0.1,0.6-0.3,1.5-0.4,1.8c0,0.1,0.1,0.1,0.1,0.1
	c0,0,0,0,0.1,0c-0.1,0,2.3-2,2.6-6c0.1-1.2-0.3-2-0.3-2c0-0.2,0.1-0.5,0.3-0.6c0.2-0.1,0.3,0,0.4,0.1c0.8,1.8,0.8,3.1,0.5,4.4
	c0,0.1,0.1,0.3,0.3,0.4c0.2,0.1,0.4,0,0.4-0.1c0.1-0.4,0.3-0.9,0.3-1.4C80.3,27.5,77.7,24.3,73.4,24.3z M29.7,59.3
	c0,0-1.2,0.7-1.4,0.7c-0.2,0-1.1-0.1-1-1.1c0-0.8,1.9-1.3,1.9-1.3l-0.3-1.1c0,0-2.1,0.6-3,1.6c-0.5,0.6-0.5,1.2-1,1
	c-0.5-0.1-0.6-0.5-0.6-0.9c0.5-2.1,4.8-2,4.4-4.6c-0.4-3.3-5.3-1.3-5.3-1.3c0,0-0.1,0.1-0.1,0.1c0,0.1,0,0.2,0,0.3l0.6,0.7
	c0,0,1.2-0.3,1.5-0.4c0.3,0,1.3-0.1,1.5,0.9c0.4,2-5.4,1.7-4.5,5.3c0.6,2.3,6.1,3.1,6.1,3.1l1.4-2.2L29.7,59.3z M52.7,73.1
	c-2.3-1-5.9-2.1-5.9-2.1L41,80.1l-1,0l5.1-9.7c0,0-3.7-1.4-6.7-1.6c-3.6-0.2-9,1-9,1l-3.4-1l-3.5,5L17,80.9l0.7,0.3
	c0,0,3.8-3.2,7.7-2.7c2.2,0.3,3.1,1.6,3.3,2c0,0,0,0,0.1,0c0,0,0.1,0,0.1,0c0.1-0.1,0.3-0.1,0.5-0.2l1.5-1.9l-3.5-3.9l0.9-0.3
	l3.5,3.1l1.3-1.7l-2.5-3.4l0.7-0.2l2.6,2.6l1.1-1.5l-1.4-2.3l0.7-0.2l1.4,1.6l1.4-1.9l0.8,0l-1.1,1.8l2.3-0.3l0.3,0.6l-3.4,0.9
	l-0.8,1.3l4-0.2l0.3,0.6l-5.2,1l-0.9,1.5l5.6-0.4l0.4,0.8l-6.9,1l-0.5,0.9l0,0c0.7,0,1.4,0.1,2.2,0.4c1.9,0.8,2.5,2,2.6,2.6
	c0,0,0.1,0.1,0.1,0.1c0.1,0,0.1,0,0.2,0c0.8-0.5,3.2-1.6,6.3-0.2c1.3,0.6,2.1,1.4,2.7,2.3l0,0.1l0.9-1.4l-3.7-4.7l1.1,0l3.4,3.5
	l1.1-1.8l-2.6-4l1.1,0.1l2.4,2.6l1-1.6l-1.3-2.5l0.9,0.1l1.1,1.4l1-1.7l0.6,0.6l-0.7,1.4l1.7,0.1l0.3,0.7l-2.6,0.2l-0.9,1.8l3.4,0.3
	l0.5,0.9l-4.5,0l-1.1,2.2l5.4,0.3l0.5,0.8L49,84.3l-1.1,2.3c0,0,0,0,0,0c0,0,0.1,0,0.1,0.1c1-0.2,3-0.5,4.7,0.6
	c1,0.6,1.5,1.3,1.7,1.7c0.1,0,0.1,0.1,0.2,0.1c0,0,0.1,0,0.1,0l2.5-4.7l0.3-2.1l1.9-5.7C59.4,76.5,55.5,74.3,52.7,73.1z"/>
</svg>
