<svg enable-background="new 0 0 577.8 403" viewBox="0 0 577.8 403" xmlns="http://www.w3.org/2000/svg"><g fill="#fff"><path d="m269.1 126.9c.4.2.9.4 1.5.7.2.1.4.3.6.6.6 1.1.6 2.2.4 3.3-.2 1-.8 1.7-1.5 2.3 0 .3-.1.6 0 1 0 .2.1.5.3.6.7.6.7 1.4.8 2.1.2.7-.1 1.3-.4 2-.4 1-1.3 1.4-1.9 2.1 0 0-.1.1-.1.1-1 0-1.9.6-3 .3-.4-.1-.8 0-1.1.4-.2.3-.3.6-.4.9-.3.9-.5 1.8-.7 2.6-.4 1-.8 2.1-1.2 3.1-.1.4-.2.8-.4 1.2-.2.5-.3 1-.6 1.4-.2.3-.3.7-.5 1-.3.7-.5 1.5-.9 2.1-.4.7-.6 1.4-1 2.1-.6 1.1-1.2 2.3-1.7 3.5-.3.7-.7 1.4-1 2.1-.2.4-.2.9-.7 1.1-.1 0-.1.1-.2.2-.2 1.1-1.1 1.8-1.4 2.8-.6.7-1.1 1.6-1.6 2.4-.1.2-.2.3-.3.5-.7 1.6-1.9 2.9-2.8 4.4-.3.5-.6 1-.8 1.4-.4.6-.7 1.1-1.3 1.6.3.6.4 1.2.2 1.8-.1.4-.2 1 0 1.4.2.7.1 1.3-.1 1.9-.3.9-.7 1.8-1.3 2.6-.5.5-1.1.9-1.7 1.2-.4.2-.9.2-1.3.1s-.9-.1-1.3-.2c-.6-.1-1.2-.2-1.8-.3-1-.3-1.9-.5-2.9-.9-.4-.2-.8-.1-1.2-.2-.4 0-.8 0-1.2-.3-.1-.1-.3-.1-.5-.1-.4-.1-.9-.1-1.3-.2-.9-.2-1.7-.6-2.7-.7-.9-.1-1.7-.4-2.5-.5-.4-.1-.7-.1-1.1-.1-.6 0-1.3 0-1.9-.3-.2-.1-.5-.1-.8-.1-1.3 0-2.6.1-3.9 0-.8-.1-1.7-.1-2.6 0-.8 0-1.6.1-2.5.1-.5 0-1.1 0-1.6-.1-2-.2-3.9-.2-5.9-.2-.6 0-1.2 0-1.8-.2-.5-.2-1.2-.1-1.8-.1s-1.2 0-1.8-.2c-.3-.1-.6-.1-1-.1s-.7-.1-1.1-.1c-.3 0-.6-.1-.9-.2-.4-.1-.7-.1-1.1-.2-.3 0-.5-.2-.8-.1-1.4.1-2.8-.1-4.2-.6-.1 0-.3-.1-.4-.1-.8.2-1.5-.3-2.3-.3-.7 0-1.4-.5-2.1-.6-1.5-.2-2.9-.8-4.3-1.2-.5-.2-1.1-.2-1.6-.3-.7-.2-1.4-.3-2.1-.6s-1.4-.1-2.2-.1c-.7.5-1.7.6-2.3 1.3-.3.3-.5.7-.5 1.1-.1.8 0 1.6.4 2.3.2.4.5.9.8 1.3.8.9 1.7 1.8 2.5 2.7.4.5.8.9 1.3 1.4.3.4.7.7 1 1.1.6.6 1.3 1.2 1.7 2 .5 1 1.3 1.7 2.1 2.5.7.6 1.2 1.3 1.8 2.1.3.4.5.8.9 1 .5.3 1 .6 1.7.5.5-.1 1.1-.2 1.6-.4.5-.4.6-.9.8-1.5.1-.4.2-.8.3-1.2s.4-.7.8-.8.9-.3 1.4-.1c.2.1.4.1.5.1 1.1-.1 2.1.3 3.1.5s1.9.6 2.9 1c.9.4 1.7.9 2.6 1.3.5.3.9.6 1.3 1l2.1 2.1c.7.7 1.2 1.6 1.6 2.6.2.7.6 1.3.7 2.1.1.7.5 1.4.6 2.1.2.9.2 1.9.2 2.9 0 .7-.4 1-1.1.9-.5-.1-.9-.1-1.4 0-.2.1-.6.1-.8 0-.7-.3-1.6 0-2.3-.4-.7.3-1.3-.1-2-.1-.5.1-.9-.3-1-.8-.1-.3-.2-.6-.2-.9-.1-.5-.1-1-.4-1.4-.1-.1-.2-.3-.2-.5 0-1-.5-1.9-.8-2.9-.2-.5-.3-1-.4-1.5-.4-.6-.9-.9-1.8-.9-.2.2-.5.4-.7.6v.3c.1.4.2.7.3 1.1.2.9.4 1.9.4 2.9 0 .6.1 1.3.2 2-.3.5-.3.5-.9.9-.5-.2-1.1-.3-1.7-.2-.6 0-1.3-.2-1.9-.4-1.5-.5-3-.8-4.4-1.6-.1-.1-.3-.1-.5-.1s-.4 0-.5-.1c-1-.6-2.2-.9-3.3-1.4-.4-.2-.8-.4-1.3-.5-1.1-.3-2.2-.7-3.2-1.1-.3-.1-.6-.3-1-.5-.1 0-.1-.2-.2-.2-1-.2-1.7-.9-2.6-1.3-1.3-.5-2.5-1.1-3.6-2-2.1-1-3.6-2.7-5.2-4.3-.5-.5-1-1.1-1.4-1.7-.8-1.1-1.2-2.3-1.3-3.6 0-.5-.2-1 0-1.5.1-.4-.1-.7-.4-1-.2-.2-.4-.3-.6-.4-1-.4-1.6-1.4-2.3-2.2-.1-.1-.2-.2-.2-.3-.2-1.2-.8-2.3-.7-3.5 0-.7-.3-1.3-.8-1.8-.2-.2-.4-.5-.7-.7-1.5-1.4-2.5-3.1-3.5-4.9-.1-.8-.5-1.5-.7-2.2-.3-.9-.5-1.7-.8-2.6-.1-.3-.1-.6 0-.9.1-.6 0-.7-.7-.6 0 0-.1 0-.1.1-.2.4-.5.7-.3 1.3.1.3 0 .6.1 1 .1.6.2 1.2.3 1.8.6.6.4 1.4.7 2 .3.7.4 1.4.6 2.1.3.9.7 1.8 1 2.7.2.6.6 1.3.7 1.9.1.8.5 1.4.9 2 1 1.5 1.8 2.9 2.4 4.3.5 1.2 1.1 2.4 1.7 3.6s1.4 2.2 2.2 3.3c.7 1 1.4 2 2.3 2.9.3.3.6.6.8.9 1.1 1.5 2.5 2.8 3.9 4s3 2.3 4.7 3c.2.1.5.3.7.5.4.3.7.7 1.1.8 1.3.5 2.1 1.5 3.1 2.2.1.1.2.3.3.4.1.2-.1.6-.3.6-.9 0-1.8.3-2.6.7-.2.1-.6.2-.8.1-.8-.2-1.6.1-2.4.2-.1 0-.3.1-.4.1-1.5-.1-3 .5-4.5.5-.7 0-1.3-.2-2-.3-1.2-.2-2.1-1.1-3.1-1.7-.3-.2-.5-.5-.7-.8-.6-.9-1.2-1.7-1.7-2.7-.3-.7-.7-1.4-1-2.1-.6.1-1.3.2-1.9 0-1.3 0-2.4-.5-3.5-1.1-.7-.4-1.2-.9-1.4-1.8 0-.3-.1-.5-.1-.8 0-.7-.1-1.5-.4-2.1-.1-.3-.1-.6-.2-.9-.1-.5-.3-.9-.7-1.2-.1-.1-.3-.2-.4-.4-.2-.3-.3-.6-.4-.9-.2-.7-.6-1.3-.9-2-.2-.5-.4-1.1-.5-1.7-.2-.9-.3-1.8-.3-2.7-.1-1.3-.4-2.5-.1-3.8 0-.2-.1-.5-.2-.8-.5-1.8-1-3.5-1.6-5.3-.2-.8-.5-1.6-.9-2.3-.2-.5-.3-1-.7-1.5-.4-.4-.5-1-.7-1.5s-.4-1-.7-1.5c-.4-.8-.7-1.7-.9-2.6-.1-.5-.2-.9-.3-1.4 0-.2-.1-.5-.1-.7.2-1 .1-2.1.4-3.1.6-2.1 1.5-4.1 2.5-6 .5-1 1.1-1.9 1.9-2.7.3-.3.4-.7.8-1 .8-.7 1.7-1.1 2.6-1.5.7-.3 1.5-.3 2.1.1.8.4 1.6.7 2.4.9.6.1 1.2.4 1.8.7s1.2.5 1.9.5c.4 0 .9.2 1.3.3.9.3 1.9.2 2.8.7 1 0 1.9.5 2.8.8.3.1.7.1 1.1.1.5.1 1 .1 1.5.3.6.2 1.1.3 1.7.3 2.2 0 4.3.1 6.5.4 1 .1 2.1.2 3.1.6.3.1.6.1.9.1.4.1.7.5.6.9-.1.2-.2.3-.3.5-.3.3-.3.6-.3 1 .1.9.2 1.2 1.1 1.2.5 0 1 .1 1.6-.2.5-.2 1-.4 1.6-.2.3.1.5 0 .8-.1.5 0 .9-.1 1.4-.1.5-.1 1-.2 1.5-.2.5.1.9-.1 1.3-.1.5-.1 1-.1 1.5-.1.6.1 1.3 0 1.9-.1.7-.1 1.4-.3 2.1 0 .6.2 1.3.1 1.9.5.3.2.8.3 1.2.4.7.3 1.4.6 2 1.1.2.2.5.4.9.4.2 0 .4-.2.3-.4-.2-.4-.1-1-.7-1.3-.1-.4-.2-.8-.4-1.1s-.5-.6-.5-1c0 0 0-.1.1-.2.3-.1.6-.3 1-.2.9.1 1.7.1 2.6.4.5.1 1 .3 1.4.4 1.7.4 3.5.9 5.1 1.6 1.9.8 3.9 1.5 5.7 2.7.2.2.5.2.8.3.1 0 .3 0 .4.1.7.7 1.7 1.1 2.6 1.6 1 .5 1.8 1.3 2.8 1.7.5.2 1 .7 1.5 1 1.5 1.2 3 2.3 4.3 3.7.4.5.8.9 1.3 1.5-.1.2-.1.4-.2.6s-.4.3-.6.1c-.5-.3-1.2 0-1.6-.6-.1-.1-.2-.1-.4-.1-.8-.1-1.6-.2-2.5-.4-.8-.1-1.6-.3-2.4-.4-.3 0-.6.1-.9.1-1.6.3-3.2.7-4.7 1.5 0 .1 0 .2-.1.3-.2.6.1 1.1.6 1.4.4.3.7.6 1.1.9.7.6 1.5 1 2.4 1.4.4.2 1 .3 1.4.6.1.1.3.1.5.1.7 0 1.5-.1 2.2.1.7.1 1.4 0 2 0 .8 0 1.6-.4 2.4-.6.2-.1.3-.2.5-.3.7-.4 1.3-.8 2-1.2.2-.1.4-.2.6-.4.3-.3.7-.6 1-1 .2-.2.5-.4.6-.7.2-.8.9-1.2 1.3-1.8.5-.8 1-1.6 1.3-2.4s.6-1.5 1.1-2.2c.3-.4.5-.8.6-1.2.1-.6.4-1.1.7-1.6.2-.3.4-.6.4-1 .2-.9.8-1.6.9-2.4.2-1 .6-1.8 1.1-2.6.1-.2.1-.3.2-.5.2-.7.4-1.4.7-2.1s.3-1.4.8-2c0 0 0-.1.1-.1.7-2.6 1.7-5 2.3-7.7.3-1.3.8-2.6 1.2-3.9s.8-2.5 1-3.8c.2-.8.5-1.5.7-2.2.4-.9.9-1.8 1.3-2.7.5-1.1 1.2-1.8 2.1-2.5.4-.3.9-.5 1.4-.5h1.2c.4 0 .7.1 1 .5.5.6 1.1 1 1.7 1.4.3.2.4.4.3.8.1-.3.2-.4.3-.6.2 0 .5.1.8.1.7.1 1.3 0 2-.4.4-.3 1-.3 1.3-.7.1-.1.2-.2.4-.2.6 0 .9-.4 1.4-.6s.9-.4 1.3-.7c.3-.3.7-.5 1.1-.6.5-.8 1.1-1.4 2.2-1.3m-31.2 53.7c.2.3.3.6.4.8.3.6.9.8 1.5.8.3.1.6-.1.8-.4.1-.2.2-.4.3-.6.1-.6.2-1.3.3-1.9.1-.7.3-1.3.4-2 .1-.5.3-.9.4-1.4.2-.9.6-1.8.6-2.8 0-.1.1-.2.2-.4.4-1.8 1.1-3.5 1.5-5.3 0-.2.1-.4.2-.5.6-1.2 1.2-2.4 1.7-3.6.1-.1.1-.3.1-.4 0-.7.4-1.2.6-1.8s.6-1.1.8-1.7c.3-.6.6-1.2.8-1.9s.5-1.3.8-1.9c.1-.3.3-.6.4-.9.2-.7.4-1.3.9-1.8.1-.1.1-.3.2-.5.1-.7.2-1.4.6-1.9.4-.6.7-1.2 1-1.8.2-.4.3-.8.7-1.2.1-.2.2-.4.3-.6.5-1.4 1.5-2.6 2.3-3.9.4-.7.9-1.4 1.3-2.1.3-.5.6-1 1.1-1.4.1-.1.1-.2.2-.3-.1-.1-.1-.2-.2-.4-.1-.1-.2-.3-.2-.3-.9.1-1.6.3-2.4.4-.5.1-.9.1-1.4.1s-.9-.2-1.1-.6c-.4-.7-1.2-1.1-1.9-1.7-.1.3-.3.4-.3.6 0 1.2-.1 2.3-.4 3.4-.1.6-.3 1.3-.3 1.9 0 .5 0 .9-.2 1.3-.3.5 0 1-.2 1.5-.3.6-.4 1.3-.6 2-.3 1.1-.7 2.3-1 3.4-.1.5-.2 1.1-.4 1.6-.5 1.4-1.1 2.8-1.5 4.3-.3 1.2-1.1 2.3-1.1 3.7 0 .1-.1.3-.1.4-1.1 2.2-1.8 4.6-2.7 6.9-.2.5-.4.9-.4 1.4-.1.7-.3 1.3-.6 1.9-.4.8-.6 1.6-.8 2.5-.2.8-.3 1.5-.6 2.2-1 1.5-1.3 3.2-2 4.9m-38.1-8.2c-1.6-.8-1.7-.8-2.9-1-.2 0-.4-.1-.6-.2s-.3-.3-.5-.3c-1 0-1.8-.5-2.7-.9-.4-.2-.9-.3-1.3-.5-1.9-.9-3.8-1.9-5.8-2.3-.8-.6-1.8-.6-2.7-.8-.4-.1-.9-.3-1.3-.3s-.8-.3-1.3-.1c-.4.1-.9-.1-1.3-.1-.2 0-.5 0-.7.1-.9.2-1.8.4-2.7.4-.3 0-.8.1-1 .4-.5.5-1.2 1-1.1 1.9.9.6 1.6 1.3 2.7 1.4.5.1 1 .2 1.5.1.2-.1.4 0 .7 0l1.8.3c.5.1 1.1-.1 1.6.1.6.2 1.2 0 1.8 0 .2 0 .4.1.5.1l2.1.6c1.9.5 3.7 1 5.6 1.5.2.1.5.1.6.2.4.4 1 .4 1.5.7.1.1.3.1.4.1.6-.3 1.3 0 1.9-.1.3-.1.6 0 1 .1.1 0 .2.2.2.3.3-.4.6-.8 1.1-1 .2-.2.5-.5.9-.7m-19 21.9c.2-.7 0-1.3-.1-1.9 0-.3-.2-.6-.5-.9-.5-.5-1-1-1.2-1.6-.4-1.1-1.3-1.8-1.8-2.7-.1-.2-.3-.3-.5-.5-.5-.6-.9-1.1-1.4-1.7-.1-.1-.1-.3-.3-.3-.4-.2-.8-.4-1-.9-.2-.4-.8-.5-1-.9-.1-.2-.3-.3-.6-.3-.2 0-.4-.1-.6-.1-.6.3-1 .7-1.2 1.3-.1.2-.1.6 0 .8.4.8 1 1.6 1.8 2.1.2.2.5-.1.7.2.1.2.4.4.6.6.3.3.7.5 1 .9.8 1 1.8 1.7 2.3 2.9 0 .1.1.1.2.2.3.4.7.8 1 1.3.4.6.9 1.1 1.3 1.6.5 0 .8 0 1.3-.1m-16.9-27.3c-.2 0-.5-.1-.7-.1-.5 0-1 .2-1.4.5-.7.6-1 1.4-1.4 2.2-.1.1 0 .3 0 .4 0 .6.2 1.1.6 1.6s.9.8 1.5.7l.6-.3c.9-.4 1.3-1.2 1.8-2 .4-.7.1-1.2-.1-1.8 0-.1 0-.3 0-.4s-.1-.2-.1-.3c-.3-.1-.5-.3-.8-.5m104-38.8c-.7.6-1.3 1.2-1.5 2.2-.1.9-.1 1.7.7 2.4 1.2.2 1.2.2 1.7-.1.9-.5 1.3-1.6 1.1-2.6 0-.2-.1-.4-.1-.5-.3-1.1-.5-1.3-1.7-1.3-.1-.1-.1-.1-.2-.1m-.2 6.7c-.4.2-.7.4-1.1.4-.4.1-.6.4-.8.6-.5.6-.2 1.4-.4 2.1 0 .1 0 .2.1.3.1.2.3.5.4.7s.1.5.1.8c.4-.1.6-.5 1-.4.3 0 .7-.1 1-.2.6-.7 1-1.5 1.1-2.4-.3-.8-.3-.8-1.4-1.9"/><path d="m292.9 171.6h-1.2c-.2-.3-.5-.6-.7-.9-.6-1.1-1.5-1.8-2.4-2.6-1.1-1.1-2.5-1.7-3.7-2.5-.2-.1-.3-.2-.5-.2-1-.2-2.1-.4-3.1-.7-.9-.3-1.7-.2-2.6-.3-.8 0-1.5-.2-2.2-.3-.3-.4-.2-.7 0-1 .7-.9.9-1.9 1.3-2.9.2-.4.4-.8.6-1.2.3-.7.5-1.4.8-2 .1-.3.2-.6.3-.9.4-.8.6-1.6.7-2.5.2-1.4.6-2.8 1-4.1.2-.6.3-1.2.4-1.9.1-.1.3-.4.4-.6s.2-.5.2-.6c-.2-.8 0-1.5.3-2.1.4-1.2.6-2.5.9-3.7.1-.2.1-.4.2-.7.2-1.5 1.2-2.7 1.9-3.9.6-.4.8-1.2 1.3-1.8.5-.5.9-1.1 1.1-1.7 0-.1.2-.2.3-.3.8-.7 1.3-1.7 2-2.4.3-.3.4-.7.6-1.1.4-.8.8-1.7 1.4-2.4.3-1 1-1.8 1.4-2.8.2-.3.3-.7.6-.9.1-.1.2-.2.2-.3.3-1.1 1-2 1.4-3.1.3-.7.5-1.3 1-2 .4-.6.7-1.4.9-2.1.1-.8.4-1.4.7-2.1.6-.6 1.3-.7 2.1-.4 1 .3 1 .3 2 .1.2.1.3.3.5.4 1.4 0 2.8.1 4.2.4s2.8.5 4.2.7c.8.1 1.5.3 2.3.2.2 0 .5 0 .7.1.5.3 1 .2 1.5.2.8-.1 1.6 0 2.5 0h.8c1.5-.4 3.1-.1 4.6-.1.5 0 1 .1 1.5.2.7.2 1.5 0 2.2.3.7.2 1.4.3 2.1.5s1.5.4 2.2.8c.6.3 1.2.3 1.8.7.5.4 1.2.5 1.7.9.3.2.6.4.8.7.8 1.4 1.6 2.8 2.4 4.2.3.5.6.9.8 1.4.6 1.1 1.1 2.1 1.6 3.2v.1c1 1 1.3 2.5 2.1 3.7.5.8 1 1.7 1.3 2.6.2.5.5.9.8 1.3.6.8 1.1 1.7 1.7 2.5.1.2.2.3.3.5.3 1 .9 1.8 1.5 2.6.9 1.2 1.6 2.5 2.3 3.9.2.4.5.8.7 1.2.1.2.2.3.3.5.4.9.9 1.7 1.4 2.5.8 1.2 1.7 2.4 2.3 3.7.4.7.9 1.4 1.3 2.1s.9 1.4 1.3 2.1.9 1.4 1.3 2.1c.7 1.3 1.6 2.5 2.4 3.7.4.7.8 1.3 1.1 2.1.1.3.2.5.3.7.9 1.6 1.7 3.2 2.9 4.6-.1.4-.3.6-.6.5-1-.4-2.1-.1-3.1-.5-.2-.1-.6-.1-.8 0-1.5.2-3 .3-4.5.8-.9.3-1.7.7-2.5 1-.3.1-.6.4-.9.6-.1.1-.2.3-.3.3-1.4.5-2 1.8-2.9 2.8-.4.5-.9.9-1.4 1.4-.4.4-.9.3-1.4.5-1.1-.3-2.2 0-3.3-.1-.5 0-.9.1-1.4.2-1.2.2-2.2.8-3.3 1.4-.9.5-1.6 1.2-2.6 1.6-.1 0-.2.1-.2.2-.6 1-1.7 1.6-2.2 2.6-.2.3-.5.4-.8.5-.4.1-.7.1-.8-.3-.2-.6-.6-1.1-.6-1.8 0-.3-.1-.6-.2-.8-.7-1.1-1.4-2.2-2.2-3.1-.1-.2-.3-.3-.5-.5-.3-.2-.6-.4-.8-.7s-.5-.5-.9-.6c-.3-.1-.6-.4-.9-.5 0 0-.1-.1-.1-.1-.1-.1-.3-.2-.4-.2-.9.2-1.5-.8-2.3-.5-.2 0-.4.1-.5 0-1-.5-2-.3-3-.2-1.3.1-2.6.4-3.9.9-.3.1-.5.3-.7.4-.5.2-.9.6-1.5.7-.4.1-.7.4-1.1.6-.7.5-1.4.4-2-.1-.1-.1-.3-.2-.4-.4-.3-.4-.5-.9-.8-1.2-.3-.4-.8-.5-1.1-1-.1-.1-.3-.2-.4-.3-.4-.3-.8-.5-1.1-.8s-.6-.4-.9-.6c-.2-.1-.5-.1-.6-.3-.8-.7-1.9-.9-2.9-1.3-.3-.1-.7-.1-1.1-.2-.7-.1-1.4-.3-2.2-.4-.5-.1-1 0-1.5 0s-.9.3-1.3.2-.8.1-1.2.1c-1.2-.6-2.2-.1-3.2.8m.7-19.9c0 .4 0 .9-.1 1.3h.1c.3-.7.3-.7 0-1.3 0-.3.1-.6.4-.6.5-.1.8-.4.9-.9.9-.7.9-1.6.9-2.6 0-.4-.2-.7-.4-1 .1-.3.1-.7.2-1.1.1-.3.2-.5.5-.6.7-.2 1-.7 1.5-1.1.1-.2.1-.4.1-.6.3-.8.3-1.7 0-2.6-.2-.6.1-1.3.2-1.9 0-.1.2-.2.3-.3.6-.3.9-.7 1.3-1.2.1-.6.2-1.2.3-1.8.2-.9-.3-1.5-.9-2.1-.3.1-.6.1-.9.2s-.6.3-.8.4c-.2.4-.5.8-.7 1.2 0 .4.1.9 0 1.2-.3.8-.1 1.4.5 1.9 0 0 .1.1.1.1.6.7.2 2-.7 2.3-.7.2-1.1.6-1.7.9-.4 1-.7 2-.5 2.9.2.3.5.4.6.7s0 .5-.2.8c-.3.4-.5.9-1 1.1-.6.4-1 1-1.3 1.6.3.7.2 1.5.3 2.2h.5c.2.5.1.8.5.9m42 10.5c-.3-.4-.7-.5-1.1-.6s-.7-.1-1.1-.2c-.9-.2-1.5-1.1-1.4-2 0-.2.1-.4.2-.5.8-.8 1.3-1.7 2.5-2 .6-.1 1.1-.5 1.7-.4.1 0 .3 0 .4-.1.5-.3 1.1-.2 1.6-.3.6-.1 1.2.1 1.7.2.6.1.9.3 1.1.9.1.2.2.3.2.5.3.5.2.9-.1 1.3-.5.8-1 1.5-1.6 2.2-.2.2-.5.3-.9.6.6.5.6 1.3 1.2 1.7.2.1.2.4.3.6s.2.5.4.7c.6.6 1 1.4 1.3 2.1.3.6.6 1.1 1.3 1.3.1.3.1.6.2.9.1-.6.3-1 .8-1.3.4-.2.5-.6.4-1.1 0-.1 0-.3-.1-.4-.4-.7-.5-1.6-1-2.3-.6-.8-.5-1.8-.3-2.6.3-.9.6-1.7.5-2.6 0-.2.1-.3.2-.5.1-.3.2-.5.3-.7-.5-.5-.5-.5-.7-1.2-.1-.2-.2-.4-.3-.6-.2-.8-.6-1.5-1.4-1.9-.1 0-.1-.1-.2-.3.1-.4.2-.8.2-1.3.1-1.1 0-2.1-.2-3.2 0-.3-.2-.5-.3-.7-.5-.7-1-1.3-1.4-1.9.5-2.8.6-4-1.8-6.7 0-.4.1-.7.1-1.1s0-.8 0-1.2c-.2-.3-.4-.6-.6-.9-.3-.7-.8-1.4-1.5-1.6 0-.2-.1-.3-.1-.3 0-.2.1-.4.1-.7.1-.6 0-1.2-.2-1.8-.3-.7-.8-1.2-1.2-1.9-.3-.6-.8-.8-1.4-.9s-1.2-.1-1.8.1c-.8.2-.8.2-1.7-.1.1.4.1.7-.3 1-.5.3-.7.9-.9 1.3-.4.8-.5 1.7-.1 2.5.1.2.3.5.4.7.2.3.3.7.1 1.1-.1.2-.2.4-.3.6-.6 1.4-.5 3.1.3 4.5.2.4.3.8.2 1.2s-.1.8-.2 1.2c-.2 1-.1 1.9.2 2.8.2.6.4 1.3.6 1.9-.2.2-.3.4-.4.6-.5.8-.7 1.6-.5 2.5.1.5.2.9.4 1.4.4.8.8 1.8 1.2 2.7-.2.3-.4.6-.6.9-.1.2-.3.5-.4.7-.2.6-.4 1.1-.5 1.7.3.5-.2.9-.1 1.5.1.9-.4 1.5-1.2 1.7-.2.1-.4.2-.5.3v.1c.8-.2 1.6-.3 2.4-.5.1.1.2.2.3.3.2.4.7.4.8.9s.8.4 1.1.7c.3.2.5.5.4.8-.3 1.4-.2 2.8-.8 4.1-.1.1-.1.3-.1.4-.2.7 0 1.2.7 1.6 0 .3 0 .5.1 1.1.3-.8.6-1.2.8-1.7s.6-.9.6-1.5c.1-.5.3-1.1.3-1.6 0-.7.2-1.3.5-2 .2-.5.4-1 .7-1.5.5-.3.6-.8.5-1.2m4.3-34.2c-.1-.2-.3-.4-.4-.6-.3-.4-.6-.4-.9-.2s-.5.4-.7.6c-.2.3-.4.7-.5 1.1-.1.3-.2.6-.1.9.2.8.2 1.7.3 2.6.8.1 1.8 0 2.2 1.1-.4.7-.3 1.5-.2 2.2.1 1.3.5 2.4 1.8 3 .1 0 .1.1.2.3.1 1.1.2 2.2.3 3.3 0 .8.4 1.4.9 2 .3.3.6.6.9.8.8.8.8.9.3 1.9 0 .1-.1.2-.1.2.2.9.2.9 0 1.6-.1.4-.2.9 0 1.2.5 1 .8 2.2 1.9 2.8.3.2.3.4.3.7 0 .2 0 .4-.1.5-.3.7-.3 1.5-.3 2.3v.5c-.2.1-.4.2-.6.2.5 0 .8.3.8.7 0 1 .6 1.8.9 2.7.3.8 1 1.3 1.6 1.9.1.1.3.1.6.1.3-.3.6-.5.9-.8.1-.1.3-.3.3-.4.1-.6.6-.9 1-1.3.2-.2.5-.4.7-.7.4-.5.8-1 1.5-1.2.5-.1.9-.5 1-1.1-.2-.2-.5-.5-.7-.7-.7.3-1.3.5-1.9.7-.7.3-1.4.1-2-.2-.7-.4-1.1-1-.8-1.8.2-.7.3-1.3.8-1.9.4-.5.4-1.2 1.1-1.5.1 0 .1-.2.2-.4.1-.6.1-1.1-.3-1.5-.5-.2-.9 0-1.3.1-1.1.3-2 .2-2.7-.9-.1-.1-.2-.2-.2-.3 0-.5.2-.8.4-1.2.5-1.1 1.3-2.1 1.6-3.3-.2-.4-.4-.8-.6-1.1s-.5-.6-.9-.6c-.5-.1-.9-.2-1.3-.2-.7-.1-1-.5-1-1.1 0-.7-.1-1.4.3-2 .2-.3.3-.7.4-1-.3-1.1-.9-1.7-1.9-2-.4-.1-.9-.3-1.2-.8 0-.3 0-.7.1-1 .3-.7.2-1.4.2-2 0-.8-.3-1.4-1.1-1.7-.2-.1-.4-.2-.6-.2-.5-.2-.7-.6-.6-1.1-.7-.1-.6-.6-.5-1.2m-21 29.7c-.2-.5-.5-1-.6-1.4-.1-.6-.1-1.3-.1-1.9.1-.6.2-1.3.5-1.8s.4-1 .6-1.5c-.1-.4-.3-.9-.4-1.3-.4-1-.4-1-.4-1.9s0-1.8.6-2.5c.1-.1.1-.3.1-.4.1-.4.3-.7.6-.9.5-.4.8-.9.9-1.5-.8-1.1-.6-2.3-.9-3.5.2-.3.4-.7.5-1 .4-.8.6-1.7.2-2.5-.3-.7-.4-1.5-.7-2.2-.2-.5-.3-1-.8-1.2-.7.9-2.2 2.4-3 3 .1.7.1 1.4.5 1.9.2.2.1.5.2.8 0 .4-.1.7 0 1.1 0 .4-.1.8-.3 1.2-.4.8-.8 1.5-1 2.4.5.4.8.9.8 1.6 0 .4.3.8.2 1.2-.1.6-.3 1.2-.1 1.9 0 .1 0 .3-.1.4-.3.5-.4 1-.7 1.5-.4.7-.7 1.5-.1 2.3.2.2.2.5.2.8.1.5.1 1.1.2 1.6 0 .6.1 1.1-.2 1.6-.5.7-.7 1.5-.9 2.3.5.6.6 1.4.7 2.2.1.7-.1 1.5 0 2.2.1.9-.7 1.4-.7 2.2.7.5.9 1.3 1.3 2 .8-.2 1-.9 1.3-1.2.1-.6.3-1.1.2-1.4-.2-.6 0-1.2.2-1.7 0-.1.1-.2 0-.3-.3-.4 0-.8.2-1.2.3-.7.4-1.5 1-2.1-.1-.2-.1-.5 0-.8m-27.1-3.7c-.4.4-.7.7-1 1-.2.2-.5.6-.5.8.1.7-.3 1.4 0 2.1.4.3.8.6 1.2.9.1-.1.3-.3.5-.3.5-.2 1-.5 1.3-1 .4-.8 1-1.7.8-2.7-.3-.3-.7-.5-.6-1 0 0-.1-.1-.1-.1-.1.2-.2.4-.3.6-.4-.2-.8-.2-1.3-.3m8.9-22.1c.8-.4 1.2-1.2 1.6-1.9 0-.8.8-1.6.2-2.6-.4-.2-.9-.3-1.3-.5-.1.1-.2.2-.3.3-.4.3-.7.5-1.1.8-.4.7-.6 1.4-.8 2.2-.1.4 0 .7.3.9.5.3.9.5 1.4.8m2.7-11.6c-.2.3-.4.6-.6.7-.4.2-.2.7-.5.9-.7.4-.7 1.1-.9 1.8s-.1 1.4.7 1.7c.2.1.3.2.4.3.7-.2 1.2-.7 1.6-1 .5-.8.2-1.6.6-2.3-.1-.5-.3-1.1-.4-1.6-.3-.1-.6-.3-.9-.5"/><path d="m180.3 56.3c1-.7 2.1-.6 3.2-.6.2 0 .4.1.6.2.8.4 1.6.5 2.5.1.6-.3 1.2-.3 1.9-.4.2 0 .4.1.6.2.3-.5.8-.3 1.3-.3.4-.1.8-.2 1.2-.2.5.1 1-.2 1.5-.3.6-.1 1.2-.2 1.8 0 .3.1.7.1 1.1.1 1.1 0 2.3.1 3.4.1h.3c.5.3 1.1.2 1.6.3s1.1.3 1.6.4c.1 0 .3 0 .4.1 1 .6 2.3.7 3.4 1.2.5.2 1 .3 1.4.6.6.3 1 .8 1.7.9 0 0 .1 0 .1.1 1.4 1.1 3 1.9 4.4 3.1.8.8 1.7 1.6 2.4 2.5 1 1.1 1.9 2.2 2.8 3.4 1.5 2 2.9 4 4 6.3.2.5.8.8.9 1.4.9 1.3 1.6 2.7 2.5 4 .5.8.9 1.6 1.4 2.4.6.8.8 1.7 1 2.6-.3.6-.7 1-1.2 1.4-.7.5-1.4 1.1-2.2 1.7-.3.2-.7.5-1.1.6-.9.4-1.7.9-2.4 1.5-.9.8-1.9 1.4-2.9 2-1.5.9-3.1 1.8-4.6 2.7-.3.2-.6.4-.9.6-1.2.6-2.3 1.3-3.4 2.1s-2.3 1.4-3.5 2.1c-1.2.6-2.4 1.2-3.5 1.9-.2.1-.4.2-.6.3-1.3.7-2.7 1.3-4.2 1.7-.6.2-1.2.4-1.9.6-.2-.3-.4-.6-.6-.8.1-.9.1-1.7.2-2.6 0-.4-.1-.8-.2-1.2 0-.4 0-.8 0-1.2-.1-.6-.1-1.2.1-1.8s.1-1.2 0-1.8c-.1-.7-.4-1.4-.3-2 0-.9.1-1.7-.2-2.6.1-.7 0-1.4-.2-2-.1-.7 0-1.4 0-2.1 0-.3 0-.6-.1-.8-.2-.5-.2-.9 0-1.3 0-.1 0-.2 0-.3-.1-.9-.1-1.8-.3-2.7-.1-.5-.4-.9-.6-1.4-.5-.2-1-.3-1.4-.5-.3-.1-.6-.2-.9-.3-.5-.2-.9-.6-1-1.1-.1-.4-.2-.8-.5-1.1s-.3-.6-.4-1c-.2-.9-.8-1.5-1.3-2.1-.5.2-.5.6-.5.9.1.5.1 1.1.3 1.6.4 1.2.6 2.4.6 3.6 0 .8 0 1.7.3 2.5.1.3 0 .6-.1.9 0 .9-.3 1.7.1 2.6-.1.7-.4 1.3-.4 2 0 .5-.2 1-.8 1.2-.1 0-.2 0-.3-.1-.9-.8-1.8-1-2.9-.5-.2.1-.3.1-.5.2 0 0-.1.1-.2.1-.1.3-.3.6-.4.9-.4.7-.3 1.4.1 2.1.3.7.8 1.2 1.5 1.5 1.1.4 2 1 2.8 1.8.2.2.5.2.6.4.3.8 1.2 1.2 1.5 2 .1.4.3.8.4 1.2 0 .1 0 .3.1.4.5 1.1.4 2.3.4 3.5v3.3c0 .5-.1.9-.2 1.4-.2.9-.2 1.7.1 2.6.3 1.1.9 1.5 1.9 1.7h.3c.3-.1.7-.3 1.1-.5.3-.4.6-1 .9-1.5 0-1.1.8-1.5 1.5-1.9.9-.4 1.8-.7 2.6-1.3.2-.2.5-.2.8-.3s.5-.1.8-.3c1.2-.7 2.6-1 3.9-1.6.4-.2.7-.4 1.1-.5.5 0 .5-.5.9-.6.3-.1.7-.1 1.1-.3.3-.1.7-.3 1-.5.4-.2.8-.4 1.2-.7s.8-.6 1.3-.7c.1 0 .3-.1.4-.2 1-.6 1.9-1.3 2.9-1.9.1-.1.2-.2.3-.3 1.2-.3 1.9-1.2 2.9-1.8 1.4-.8 2.6-1.8 4-2.7.1-.1.2-.2.3-.2 1.2-1.1 2.6-1.9 4.1-2.8.7-.4 1.4-1 2.1-1.5.3-.2.3-.2 1-.2.4.4.4.9.3 1.4-.2.8-.2 1.5.1 2.3.2.5.2 1 .3 1.5 0 .2.1.4.2.7.1.4.3.9.4 1.3.2 1.1-.1 3.2-.5 4.1-.1.2-.2.4-.3.6-.6.5-1.1 1.1-1.7 1.6-.1.1-.2.2-.4.2-1.1.4-2.3.7-3.5.5-.8-.2-1.6-.3-2.4-.5-.1.1-.2.1-.2.2 0 1.4-1 2.2-1.7 3.2-.3.4-.7.7-1.2 1.2-1.4.6-3.2.2-4.9.4-.2.3-.4.6-.6 1-.2.6-.6 1.1-1 1.6s-.8.8-1.4 1.1-1.1.6-1.8.6c-.6 0-1.2.1-1.8-.1-.8-.2-1.5-.1-2.4-.1-.3.5-.6.9-.7 1.3-.5 1.2-1.3 1.8-2.5 2-.6.1-1.1.2-1.7 0-.5-.2-1-.2-1.5-.5-.8-.4-1.8-.7-2.7-1.1 0 .1-.1.3-.1.4-1.1 1.1-2 2.3-3 3.6-.1.1-.1.2-.2.2-1.2.8-2.2 1.8-3.6 2.2-.2.1-.4.1-.5.1-.6 0-1.3 0-1.9-.1-1-.1-1.9-.3-2.6-1.1-.4-.4-.9-.7-1.3-1.2-1.3-1.9-1.2-1.5-1.3-3.7 0-.7-.1-1.4.2-2.1.1-.2.1-.5.1-.7.1-.5.2-1 .5-1.4.1-.2.2-.4.4-.6.6-1 1.3-1.9 2.2-2.6.7-.5 1.1-1.2 1.5-2 .2-.4.2-.9.2-1.4-.1-.1-.3-.2-.4-.3-.3-.3-.7-.4-1.1-.3-.8.2-1.5.3-2.3.4-.2 0-.4 0-.5-.1-.4-.1-.7-.2-1.1-.2-.8 0-1.5-.2-2.3-.5-.3-.1-.6-.2-.9-.2-1.1.5-1.3 1.8-2.5 2.4-1 .1-2.1.4-3.1 1.1-.5.3-1.1.4-1.7.6-1.4.3-3-.7-3.3-2.2-.1-.3-.1-.5-.2-.8-.6-1.7-.4-3.3.2-5 .2-.6.2-1.3.4-1.9s.5-1.1.7-1.6c.3-.8.6-1.7.6-2.5 0-1 .4-2 .1-3.1-.2-.7 0-1.4 0-2.2-.1-.6-.1-1.3-.3-1.9-.2-.7-.3-1.3-.1-2 .1-.5.1-1 .2-1.5.1-1.9.9-3.6 2.1-4.9s2.5-2.6 4-3.5c.3-.6.6-1.1 1-1.8 0-.5 0-1.2 0-1.9 0-.8.2-1.6-.5-2.2-.1-.8-.6-1.4-1-2.1-.6-1-1.4-1.7-2.2-2.4-.5-.4-1-.8-1.5-1.2-.4-.3-.6-.7-.5-1.2 0-.4.1-.7.2-1.1.2-1.1.8-2 1.4-3 .5-.8 1.4-1.2 2.3-1.4 1.5-.3 2.9-.1 4.1.8-.6.5.3.9 1.4 1.4m1.5 24.2c-.5 0-1 .2-1.3.6-1.3 1.3-2.4 2.8-3.1 4.5-.5 1.3-.9 2.7-1.6 4-.2.3-.1.6 0 .9 0 .3-.3.5-.3.8 0 .5-.1 1-.1 1.5-.1.9 0 1.8 0 2.7 0 .1.1.1.1.2.4.1.6 0 .8-.3.3-.3.5-.7.7-1 .8-1.2 1.5-2.5 2.1-3.9.3-.9.6-1.9.9-2.9.3-.9.7-1.8.9-2.7.7-.9.6-2.1.9-3.1.2-.3.3-.8 0-1.3m5.3 35.3c.4-.5.7-1 1-1.4.1-.2.2-.4.2-.6-.1-.7-.2-1.4-.6-2-.3-.5-.6-1.1-.7-1.6-.1-.9-.6-1.6-.8-2.5 0-.1-.2-.1-.3-.2-.1.2-.3.3-.4.4-.8.9-1 2-1.5 3.1-.2.4-.1.9-.2 1.3s.2.8.2 1.2c0 .6.3 1 .6 1.5.4.7 1 .9 1.7.9.2 0 .5-.1.8-.1m25.8-35.1c-.3-.3-.6-.6-1-1-.4 0-.7 0-1.1 0-.5 0-.8.2-1 .6-.3.5-.4 1-.4 1.6 0 .9.4 1.4 1.2 1.6.2 0 .3.1.5.1.9-.4 1.1-.5 1.3-1.1.3-.6.4-1.2.5-1.8m-23.8-13.6c.4.3.7.6 1 .9s.7.3 1 .1c.6-.3 1-.7 1.3-1.4.2-.5-.1-1 0-1.5 0-.1 0-.2-.1-.2-.4-.3-.7-.7-1.3-.7-.6-.1-1.1.1-1.4.5-.5.6-.4 1.4-.5 2.3m9.5-7.7c-.3-.1-.6-.2-.9-.3s-.6-.1-.9 0c-.8.2-1.4 1.7-1 2.4.5.2.3.8.7 1.2h1.1c.6-.1 1-.3 1.3-.9.2-.8.2-1.5-.3-2.4m4.4 38c0-.5 0-1 0-1.5 0-.4-.2-.7-.6-.9-.5-.2-1-.3-1.4.1-.4.3-.7.6-1.1.9 0 .8 0 1.5.1 2.2 0 .3.4.6.7.6s.5 0 .8-.1c.6-.2 1.1-.6 1.5-1.3m1.7-23c.2.4.3.8.5 1.2.3.1.4.3.7.4.2.1.4.2.5.2.4-.3.8-.5 1.1-.7.5-.4.9-1.5.8-2.2-.1-.4-.4-.8-.7-.8-.6 0-1.2-.1-1.7.2s-.8.7-1 1.3c-.1 0-.2.1-.2.4m13 4.6c.5.2 1.1.8 1.8.6.3-.4.6-.8.8-1.2.5-1.2.4-2.2-.9-2.7-.2-.1-.4-.1-.6-.2-.7.2-.9.7-1.3 1.1-.1.9-.2 1.6.2 2.4m-13.4 8.5c1-1.2 1-1.2.8-3-.3-.3-.6-.5-.8-.8-.9.1-1.4.6-1.9 1.3-.4.5-.2 1.1-.2 1.7 0 .5.3.8.9.8.4.1.8 0 1.2 0m6.1-23c-.3-.5-.6-1-.9-1.6-.3-.5-.7-.6-1.2-.3-.7.5-1.2 1.1-1.5 2 .2.5.5.9.7 1.4.4.2.6.3.9.5 1-.3 1.8-.7 2-2m-3.2 29c.3.7.9 1 1.5 1.1.4-.2.8-.4 1.2-.7.2-.4.3-.7.5-1.1-.1-.5-.2-1-.2-1.4-.6-.5-1.2-.8-2-.5-.3.3-.5.7-.8 1.1-.1.5-.1 1-.2 1.5m-15.1-21.2c.1.5.1.8.2 1.2.1.2.2.4.4.5.4.3 1 .3 1.4.1.5-.2.8-.5.9-1.1.1-.5.2-1 0-1.5-.1-.3-.1-.6-.2-.9-.6-.4-.6-.4-1-.2-.6.2-1.1.5-1.4 1.2 0 .2-.2.5-.3.7m7.8-3c.3.1.5.3.8.4 1.1.5 2.3-.4 2.1-1.6 0-.2-.1-.5-.1-.7 0-.6-.4-.9-.9-1.1-.6-.3-1.2-.1-1.6.2-.4.9-.3 1.8-.3 2.8m-1.5 10.6c.3.2.6.3.9.1.9-.4 1.4-1.2 1.5-2.1.1-.6-.2-1.1-.7-1.4s-1-.4-1.5-.2c-.2.4-.5.7-.6 1-.3.5-.4 1.1-.1 1.7.2.3.4.6.5.9m19.9 8.4c-.2-.3-.4-.6-.6-.8-.5-.7-1.4-.7-2-.2-.2.2-.3.4-.5.6-.3.4-.3.8-.1 1.2.2.6.6 1 1.1 1.4.1.1.3.1.4.1.7-.2 1.4-.5 1.6-1.3 0-.4 0-.7.1-1m-2.7-18.6c0-.3-.1-.4-.1-.6-.1-.6-.5-.9-1-.9-.7 0-1.4.2-1.7 1-.1.2-.2.3-.3.4 0 .8-.1 1.5.5 2.2.6.2 1.2 0 1.8-.4.2-.6.5-1.1.8-1.7m-26.5-12.5c-.2.3-.4.6-.6.9-.1.2-.3.4-.3.6-.1.7-.2 1.3 0 2 .8.6 1.7.4 2.5.1.1-.3.2-.6.4-.9-.4-.7 0-1.6-.8-2.2-.3-.3-.9.1-1.2-.5m35.7 28.3c.2-.6 0-1-.1-1.5-.3-1.4-.9-1.6-2-.7-.3.3-.6.6-.6 1 0 .5 0 1-.1 1.5.5.3 1 .6 1.7.4.4-.1.8-.4 1.1-.7"/><path d="m297.7 48.8c-.5.3-1.1.2-1.7.1-.9-.2-1.8-.5-2.7-.5-.1 0-.3 0-.4 0-.6-.6-1.4-.4-2.1-.6s-1.4-.3-2.2-.4c-.2 0-.4-.1-.5-.1-.7-.3-1.5-.5-2.2-.8-.6-.3-1.2-.6-1.8-1.2 0-.2 0-.5-.1-.8 0-.2 0-.4 0-.5-.6-1.3-.5-2.9-1.4-4.1-.1-.2-.2-.4-.3-.6 0-.1 0-.3-.1-.4-.7-.8-.8-1.8-1.3-2.7-.4-.7-1-1.4-1.6-2.1-.4-.5-.8-.9-1.2-1.4-.3-.4-.7-.9-.6-1.5-.4-1.1-.2-2.4-.7-3.5 0-.1-.1-.2-.1-.3 0-1-.4-2-.5-3-.1-.9-.4-1.7-.7-2.5-.2-.5-.6-1.1-.4-1.7.4-.3.8-.3 1.1-.1.8.5 1.6.8 2.5 1.1.6.2 1.1.7 1.9.7.6 0 1.2.4 1.8.5.7.2 1.3.3 2 .3.3 0 .6.1.9.2 1.2.3 2.4.5 3.6.8.3.1.5 0 .8 0 .1 0 .3-.1.4 0 1 .6 2.2.3 3.2.7.1 0 .2.1.3 0 .7-.1 1.5-.1 2.2 0s1.3.2 2 .2c.6 0 1.2-.1 1.8-.2.3 0 .5-.1.8 0 .2.1.4.1.5.1 1.3-.1 2.5.3 3.8.2h.4c.5.3 1.1.3 1.7.4.8.1 1.5.1 2.3.2 1.1.2 2.2.1 3.3 0 .8-.1 1.6.1 2.4-.2h.1c.7 0 1.4.3 2.1 0s1.5-.2 2.1-.4c.5-.2 1-.1 1.5-.1 1.4-.2 2.9-.3 4.4-.4.5 0 1 0 1.5.1.9.2 1.8.2 2.7.1.2 0 .4-.1.7 0 1.2.2 2.4.1 3.6.1h.3c1.2.3 2.4.2 3.6.4.1 0 .3.1.4 0 .8-.1 1.5.1 2.3.3 1.3.3 2.7.6 4 1 1.7.5 3.5 1 5.3 1.4.1 0 .3.1.4.2.5.5 1.1.4 1.7.3.3.2.7.4 1.1.6.3.2.7.4 1 .4.9.1 1.6.6 2.5.8.2 0 .3.1.5.3.3.3.8.5 1.2.6 1.5.5 3.7 1.6 5.1 2.5.1 0 .1.1.2.2 1.5.3 2.7 1.5 4.3 1.8.2 0 .4.2.6.3 1.9.8 3.8 1.6 5.5 2.7.1.1.2.2.3.2 1.1.4 1.9 1.1 2.8 1.7.4.3.8.6 1.3.7.2 0 .4.1.5.2.6.7 1.5 1 2.2 1.6s1.4 1 2.1 1.6c.1.1.2.2.3.2 1.5.7 2.7 1.7 4.1 2.6.9.6 1.8 1.3 2.7 1.9.8.5 1.6 1.1 2.4 1.6.4.3.9.5 1.3.8 1.1.7 2.3 1.2 3.5 1.4.5.1 1 .2 1.4.6-.1.2-.1.4-.2.5-.5.4-1.1.8-1.9.7-.6-.1-1.2.1-1.7.2-.9.2-1.8.5-2.6.8-.3.1-.6.1-.9.2-.4.1-.8.1-1.1.2-1.3.5-2.7.4-4.1.2-.5-.1-1.1-.1-1.6 0-1 .2-2 0-3-.1s-2-.2-3-.4c-1.3-.2-2.7-.2-3.9-.9-.3-.1-.6-.1-.9-.1-.9 0-1.7-.2-2.5-.5-.5-.2-1-.5-1.6-.4-.2 0-.3-.1-.5-.2-.4-.1-.8-.3-1.2-.4-1.3-.1-2.4-.7-3.6-1.1-.4-.1-.8-.3-1.2-.3-.7-.1-1.3-.4-2-.6-.6-.2-1.3-.5-1.9-.6-.7-.2-1.3-.3-2-.5-.5-.1-1-.2-1.5-.3-1.3-.2-2.5-.6-3.8-.7-1.2-.1-2.4-.4-3.7-.3-.7.1-1.4-.1-2-.2-1.4-.3-2.9-.1-4.3-.2-.2 0-.5 0-.7.1-.5.1-.9.1-1.4 0-.3-.1-.6-.1-.9-.1-.8.2-1.6 0-2.4.2-.3.1-.7 0-1-.1s-.6-.1-.9 0-.7 0-1.1 0c-.3 0-.6.2-.9.3-.2 0-.5 0-.7 0-.7 0-1.4 0-2 .2-.3.1-.8.1-1.1 0-.4-.2-.8 0-1.2 0-.8 0-1.5.3-2.3.3-.8-.1-1.5.2-2.3.2-.6 0-1.2.2-1.9.2-.6 0-1.3 0-1.9.1-1.1.2-2.2.1-3.3.3-.5.1-1 0-1.5.1-.4.1-.9 0-1.4 0s-1 .1-1.5 0c-1.1-.3-2.3-.2-3.4-.2-.7 0-1.5-.2-2.2-.2s-1.3-.2-2-.1c-.6.1-1.3 0-1.9 0-1.1.1-2.2-.2-3.3-.3 0-.2-.3-.4-.8-.6m21.5-18.1c-.7.3-1.2.6-1.7.9-1.1.6-1.7 1.6-2.1 2.8-.5 1.4-.3 2.7-.2 4.1 0 .4.3.7.3 1.2-.1.9.3 1.8.7 2.6.5 1.1 1.4 1.6 2.6 1.6s2.1-.5 2.9-1.3c.4-.5.6-1.1 1.1-1.5.2-.1.2-.4.2-.6.1-.6.2-1.1.3-1.6.1-.6.2-1.2.1-1.8-.1-.3 0-.7-.1-1.1-.1-1 0-2-.8-2.8-.3-.4-.5-.9-.8-1.4-.7-.4-1.6-.7-2.5-1.1m-15.6-.6c-.2.5-.3 1-.2 1.5.1.7-.1 1.4.2 2-.1.6-.1 1.2.1 1.8 0 .1 0 .3-.1.4-.1.3 0 .6 0 1s.1.7 0 1.1c-.2 1.4-.1 2.8-.1 4.2 0 .3-.3.6 0 .9.9.3 1.1.3 2 .1.3-.6.5-1.2.5-1.8 0-.4-.2-.7-.1-1.1s0-.7 0-1.1c0-.2.1-.4.1-.5.9-.4 1-.4 1.4-.2s.7.6.9 1c.1.2.1.4.2.5.4.9.6 1.8.8 2.7.4.5 1 .7 1.5.7s.9-.4.8-.9c-.1-.4-.3-.7-.4-1s-.3-.6-.3-.9c0-.8-.2-1.5-.7-2.2-.2-.3-.2-.7-.1-1 .2-.3.4-.6.6-.9.5-.7.7-1.4.6-2.2-.1-.6-.3-1.1-.8-1.6-.3-.3-.4-.6-.7-.8-1.1-.4-2.3-.8-3.5-.8-.8-.3-1.7-.6-2.7-.9m24.9 1c-.1.5-.1 1 .1 1.5.1.2.2.5.1.7-.3 1.3.1 2.5-.1 3.8-.1 1.1 0 2.3-.2 3.4-.1.5-.1 1.1.2 1.6.5.1.9 0 1.4-.1.5 0 .8-.3.9-.7.3-.6.3-1.2.3-1.9 0-.4-.1-.8.1-1.2.6-.4 1.1-.3 1.7-.1.7.2 1.1.5 1.2 1.3 0 .2.2.4.3.6.1 1 .7 1.7 1.5 2.2.2 0 .4-.1.5-.1s.2.3.5 0c0-.6 0-1.2-.2-1.8s-.4-1.3-.4-2c-.1-.6-.8-1-.7-1.8.5-.4.7-1 .6-1.8.3-.4-.1-.8-.2-1.2-.2-1.7-.9-2-2.3-2.3-.9-.1-1.9-.4-2.9-.3-.2 0-.4 0-.5-.1-.6-.1-1.2 0-1.9.3m-34.3 6.1c.4-.2.8 0 1.1 0 1 .1 1.9-.2 2.6-1 .7-.9.7-.9.7-2.2 0-.1 0-.2 0-.3.1-.4-.1-.8-.1-1.2 0-.5-.1-.9-.2-1.3-.2-.7-.7-1.1-1.3-1.5-.1 0-.2-.1-.3 0-.4.2-.7 0-1-.1s-.7-.2-.9-.1c-.4.2-.8 0-1.2 0-.7-.1-1.3-.5-2-.2-.1 0-.2-.1-.3-.1-.2-.1-.5-.1-.7.2-.1 1.2-.1 2.4 0 3.6 0 .4.1.7.1 1.1-.1.4 0 .8.1 1.2 0 .6.1 1.1.1 1.7s.3 1.1.2 1.8c-.1.6 0 1.3 0 1.9 0 .2.1.4.1.6.6.2 1.1.3 1.6.5.3-.2.6-.5 1-.8-.1-.5-.1-1.1-.2-1.6.3-.8.2-1.5.6-2.2m71.8 4.6c-.7-.5-1.1-1.1-1.3-1.8 0-.2-.1-.4-.3-.5-.4-.3-.6-.7-.7-1.2-.2-.7-.7-1-1.1-1.5-.2-.3-.5-.3-.9-.1 0 .7-.1 1.4-.1 2.1v3.3c0 .4 0 .7.1 1.1s.1.7 0 1.1-.1.8.1 1.2.6.5 1 .7c.2-.1.5-.2.8-.4-.3-.7.1-1.3 0-2 0-.2.2-.4.3-.6.2-.1.5-.2.8-.2.4.7.3 1.7 1.4 1.8.3-.7 1-1 1.7-1.3.1.2.1.3.1.5-.1.8-.1 1.5-.1 2.3 0 .2 0 .5-.1.7-.2.6-.1 1.3 0 1.9.5.3.9.5 1.3.8h.4c.2-.4.3-.8.3-1.2.2-1.6.2-3.2 0-4.8-.1-.9-.2-1.8.1-2.7 0-.2 0-.4 0-.5-.5-1.2-1.4-1.3-2.2-.4-.1.1-.1.2-.2.2-.4.4-.9 1-1.4 1.5m-14.1-8c-.2.2-.4.3-.4.4-.1.3-.3.7-.3 1.1 0 1.8-.2 3.6.4 5.3 0 .1.1.3.1.4 0 .9.4 1.6.9 2.3.5.9 1.5 1 2.3 1.3h.3c.7 0 1.2-.4 1.7-.8.4-.3.5-.7.7-1.2.1-.2.1-.4.3-.6.2-.3.2-.6.1-.9-.1-.8-.2-1.6-.2-2.3 0-1-.4-1.9-.8-2.7-.1-.2-.3-.3-.5-.5-.3-.2-.6 0-.6.2 0 .5-.1 1 0 1.5.2 1 0 2-.1 3-.1.6-.4 1.1-.9 1.4-.7-.6-1.1-1.3-1.3-2.1-.1-.6-.2-1.2-.2-1.8s0-1.3-.1-1.9c-.4-.8-.6-1.5-1.4-2.1m-11.1 6.2c.1.4.1.8.2 1.1 1.5 1.4 1.5 1.4 2.6 1.7.9-.2 1.6-.8 2.4-1.2.2-.1.3-.2.4-.4.7-1.1.8-1.7.5-3-.1-.2-.2-.4-.2-.7-.1-.4-.3-.8-.7-1-.5-.3-.9-.6-1.4-.8-.7-.3-1-.8-1.1-1.5 0-.3.3-.5.5-.5s.4.1.5.2c.3.2.6.5.8.7h.4c.7-.3.9-.6.7-1.2-.1-.2-.2-.4-.3-.6-.8-.3-1.5-.6-2.1-.9-.6.1-.9.1-1.3.2-.8.2-1.4.6-1.6 1.5 0 .3-.1.5-.2.8.4.7.8 1.3 1.3 2 .1.2.2.4.4.5.7.6 1.4 1.2 2.2 1.8 0 .4 0 .7-.1 1.1 0 .3-.4.6-.6.5-.7-.1-1.3-.3-2-.5-.1 0-.1-.2-.2-.3s-.2-.2-.4-.4c-.2.4-.5.6-.7.9"/><path d="m269.7 45.1c-.4-.1-.7-.2-1-.3-.8-.4-1.8-.4-2.6-.8-.8-.3-1.7-.4-2.6-.5-.4 0-.7-.2-1.1-.2s-.7.1-1.1-.1-.9.2-1.3-.1c-.4-.2-.8 0-1.2 0-.7.1-1.5.1-2.2 0-.9-.1-1.7-.1-2.6-.1-1.4 0-2.8.1-4.1 0-.4 0-.7 0-1.1.1s-.8.1-1.2 0-.8-.1-1.2 0c-.5.1-1.1.2-1.6.3-1.4.4-2.9.4-4.4.6-.4.1-.8 0-1.2 0-.2 0-.4 0-.5.1-.6.4-1.4.4-2.1.6-.6.1-1-.1-1.1-.7-.2-1 0-2 .4-3.1.3-.2.6-.4.9-.6s.6-.4 1-.4c.2 0 .5-.1.7-.2.5-.3 1-.4 1.6-.4.2 0 .5 0 .7-.1.5-.2.9-.5 1.4-.5.4 0 .9.1 1.3 0 .5-.1 1-.1 1.5-.2 1.1-.2 2.2-.5 3.4-.7.5-.1 1-.2 1.6-.1 1.3.1 2.6.2 3.8-.1.8-.2 1.6-.1 2.5-.2.1 0 .3.1.4.1.4.1.9.2 1.3.1.5 0 1.1.1 1.6.2.4.1.7.2 1.1 0 .2-.1.4-.1.5 0 .8.2 1.5.2 2.3.2.3 0 .5.1.8.2-.1-.7-.4-1.2-1-1.6-.9-.5-1.7-1.1-2.8-1.1-.2 0-.4-.1-.6-.3-.3-.2-.3-.6 0-.8 1-.8 2-1.5 3.2-1.9.3-.1.6-.2.9-.3 1.2-.8 2.6-.9 4-.9 2.1-.1 4.2.3 6.1 1.2 1.4.6 2.7 1.4 3.8 2.4 1.6 1.4 2.7 3.1 3.5 5.1.1.2.2.3.2.5 0 .5.3 1 .5 1.4.6 1.2.8 2.6.7 4 0 .5-.1 1 0 1.5s0 .9-.1 1.3-.4.8-.3 1.2c0 .4-.1.7-.2 1.1-.3.9-.7 1.7-1.5 2.3-.1.1-.2.1-.2.2-.6.9-1.6 1.5-2.4 2.3-.6.7-1.4 1.1-2.2 1.4-.5.2-.9.4-1.5.7-.2 0-.6-.2-.8-.5-.3-.3-.6-.7-.8-1.1-.5-.8-.9-1.6-1.5-2.3-.2.2-.3.4-.4.6-.3 1.1-.7 2.2-1 3.3-.3 1.2-.7 2.4-.8 3.6 0 .3-.1.5-.2.8-.4.9-.6 1.8-1 2.7-.3.6-.5 1.3-.7 1.9-.3.9-.5 1.8-.9 2.6s-.5 1.6-1.1 2.3c-.4.4-.5 1.1-.7 1.6-.4 1.2-1.1 2.2-2 3.1 0 .8 0 1.7.2 2.5s.5 1.6.1 2.4c-.1.2 0 .4 0 .7s.1.6 0 .8c-.1.3 0 .5.1.6.3.4.7.8.9 1 1.4.4 2.6 0 3.8 0 1.4-.1 2.7.1 4 .7.7.3 1.4.6 2.1.9.3.1.7.3 1 .4.6.1 1.2.2 1.7.5.2.1.4.1.7.1.2 0 .4-.1.5 0 .9.3 1.7.1 2.6 0 .4 0 .8-.1 1.2-.3.2-.2.5-.2.8-.1.1 0 .3 0 .4-.1.5-.3 1.1-.5 1.7-.5.1 0 .3 0 .4-.1.5-.5 1.1-.3 1.7-.3.3 0 .6.1 1 .1.9.1 1.6.5 2.1 1.1.1.1.2.2.2.3.3 1.1.8 2.2.9 3.3 0 .5 0 .9.2 1.3.1.1.1.3 0 .4-.3.8-.3 1.7-.8 2.5s-1.1 1.5-1.7 2.2c-.4.5-.8.9-1.1 1.4-.6.9-1.3 1.7-2.1 2.5-.1.1-.2.3-.3.4-.7 1-1.4 2-2.2 3-.3.4-.6.8-1 1.1s-.7.6-.9 1c0 .1-.1.2-.2.2-.2 0-.4.1-.5 0-.1 0-.2-.2-.2-.3.1-.3.2-.6.3-1-.1-.2-.2-.5-.3-.7-.2-.8-.4-1.6-.7-2.5-.2-.2-.4-.4-.7-.7-.7-1-1.7-1.6-2.8-2-.7-.2-1.3-.6-2.1-.3-.2.1-.5-.1-.8-.1-.7-.1-1.3-.1-1.9.3-.3.2-.7.3-1 .4-.8.2-1.6.6-2.3 1.1-.3.3-.7.5-1.1.6-.6.1-1.1.5-1.5 1-.5.5-1.2.9-1.5 1.6 0 .1-.1.1-.2.2-.4.3-.9.5-1.3.8s-.6.8-1 1.1c-.6.5-1.1 1-1.5 1.6-.4.5-.9.7-1.6.9 0-.4 0-.8.1-1.1 0-.2.1-.4.2-.6.6-1.6.6-3.3.8-5 .1-.5 0-1.1.1-1.6s0-1 0-1.5c0-.6-.2-1.3 0-1.9 0-.1-.1-.3-.2-.3-.1-.1-.3 0-.4 0-.3.4-.4.9-.9 1.2-.1.1-.1.2-.2.4-.2.5-.5 1.1-.9 1.5-.2.2-.3.4-.4.6-.3.7-.6 1.3-.9 2-.1.3-.1.6-.3.9-.2.4-.3.7-.6 1.1-.9 1.3-1.3 2.8-1.8 4.3-.2.6-.4 1.1-.7 1.6s-.6 1.1-.7 1.7c0 .7-.3 1.3-.5 2-.1.4-.5.7-.3 1.2.1.4-.2.8-.2 1.2 0 .5 0 1-.3 1.5v.1c.1.9-.3 1.7-.4 2.5-.1.4 0 .9-.1 1.4s0 .9 0 1.4c0 .7.1 1.5-.2 2.2-.1.2-.2.3-.3.5-.7 0-1.3-.2-1.9-.2s-1.2-.2-1.7-.4c-1.1-.4-2.3-.7-3.4-1-.2 0-.4 0-.5 0-.7.1-1.3 0-1.9-.2-.7-.2-1.3-.4-2-.4-.5 0-.9-.2-1.1-.8.4-.7.4-1.7 1-2.4.1-.1.1-.2.1-.3-.1-.8.6-1.2.7-1.9.2-.6.5-1.2.8-1.7.5-.8.9-1.7 1.1-2.7.1-.5.5-.9.7-1.5.1-.4.6-.8.9-1.2.2-.2.4-.4.5-.6.2-.3.3-.7.5-1 .4-.5 1-1 1.4-1.5.6.2.8.4.6.7-.3.6-.2 1.3-.2 1.9-.1 1 .2 1.8.9 2.5.3 0 .6-.2.8-.4.4-.7.8-1.3 1.2-2 .5-.8.9-1.7 1.4-2.5.1-.1.2-.3.2-.4-.1-.9.5-1.5.8-2.2.5-1.2 1.1-2.3 1.7-3.4.1-.3.3-.6.5-.8s.3-.4.4-.7c0-.1.1-.3.1-.4.7-.7.9-1.7 1.5-2.4.3-.5.6-1.1.9-1.6.7-1.3 1.5-2.6 2.4-3.9.5-.7.8-1.4 1.2-2.1 0-.1.1-.2.1-.3 0-1 .6-1.8.5-2.8 0-.3.2-.5.2-.8.1-.5.2-1 .3-1.5 0-.1-.1-.2-.2-.4-.7 0-1.3.2-1.8.5-.3.4-.2.9-.6 1.2 0 .4-.3.7-.5 1.1-.2.3-.3.6-.5 1-.3.7-.5 1.4-1.1 1.9-.5.6-.8 1.3-1.2 2-1 1.7-2.3 3.2-3.4 4.8-.4.6-.8 1.1-1.2 1.7s-.8 1.3-1.4 1.7c-.1.1-.2.2-.3.3-.2 1-1.1 1.5-1.6 2.4-.2.4-.6.5-1 .4-.5-.1-1.1-.1-1.5-.5 0-.6.2-1 .5-1.4.3-.5.7-1 1-1.5.2-.4.5-.7.8-1.1s.5-.7.9-1c.5-.5.8-1.1 1.2-1.6.1-.1.2-.3.3-.5 1.2-1.3 2-2.9 3-4.4.2-.3.3-.7.5-1.1.6-.9 1.1-1.9 1.7-2.8.1-.2.3-.5.4-.7.6-1.3 1.3-2.4 2.1-3.5.4-.7.8-1.3 1.2-2 .7-1.2 1.4-2.5 2.4-3.6.1-.1.2-.2.2-.3.7-1.7 1.7-3.2 2.6-4.8.2-.4.5-.9.6-1.4.2-.6.4-1.2.7-1.8.2-.6.5-1.2.7-1.8.3-.8.7-1.6 1-2.4.4-.8.7-1.6.9-2.4 0-.1 0-.3.1-.4.7-1.2.7-2.6 1.1-3.8.5-1.5.7-3.1.9-4.7 0-.4.2-.7.3-1.1s.3-.9.2-1.3c0-.3.1-.5.2-.8.1-.4.1-.7.1-1.1 0-.6.1-1.3.1-1.9 0-.2.1-.3.2-.5.5-1 .8-1.5.7-2.2m10.5.5c-.1-.3-.3-.6-.4-.9-.2-.8-.3-1.6-.4-2.4-.1-1-.5-1.8-1.1-2.6-.3-.3-.5-.6-.7-1-.5-1-1.5-1.3-2.5-1.6-.4-.1-.8.4-.7.8s.3.9.6 1.2c.5.8 1.2 1.5 1.7 2.3s1.2 1.5 1.2 2.6c0 .1.1.2.1.2.2.5.5 1 .6 1.5s.2 1.1.3 1.6c0 .1.1.3.1.4.1.2.2.4.5.3.6-.7.4-1.6.7-2.4"/><path d="m359.4 173.1c.3.2.7.3.9.6 1 1.1 2.3 1.7 3.5 2.4.6.3 1.2.6 1.9.7 2 .5 4 .9 6 1.3.5.1 1 .2 1.6.2.2 0 .4.1.5 0 1.2-.2 1.2-.2 2.3 0 .3.1.6.1.9.1.6 0 1.3-.1 1.9-.2.2 0 .5-.1.7-.2s.4-.1.7-.1c.7.1 1.4.1 2-.1 2.2-.6 3.9.2 5.5 1.7.7 1.2 1.4 2.4 2.1 3.6 0 .6.4 1.1.6 1.7.1.3.3.7.3 1.1s.3.8.2 1.2c0 .3.3.6.4 1 .2.4.3.8.5 1.1.1.3.2.6.3.9.2.4.3.9.5 1.3.1.2.2.3.2.5.1.9.6 1.6.9 2.4.1.3.2.5.3.8.3.9.7 1.7 1.3 2.4.5.7 1 1.4 1.4 2.2.2.5.4 1 .8 1.5.3.3.4.8.6 1.2.4 1 1 1.8 1.8 2.5 1 .8 1.9 1.8 2.6 3.1 0 .2 0 .5-.1.8.8 0 1.5.4 2 1 .3.4.7.6 1.1 1 .2.1.6.2.9.2.7.1 1.5.2 2.1-.4 1.1-.4 2-1.1 3-1.7.1-.1.3-.2.5-.3.8-.2 1.5-.5 2.2-.5.1 0 .1 0 .2.1.8.4 1.3 1 2 1.4s1.2.9 1.8 1.4c.4.4.9.8 1.4 1.2.2.1.3.3.5.5.3.4.7.7 1.1 1 1 .8 1.8 1.8 2.6 2.8.7.9 1.1 1.9 1.8 2.7.3.3.5.7.8 1 .1.2.4.3.4.5.4 1.1 1.3 1.8 1.9 2.8v.5c0 .6-.4 1-1 1.2-1.4.4-2.8 1-4.3.8-.4 0-.8.1-1.2.1-.4-.3-.7-.6-1-1-1-1.5-2.1-2.9-3.1-4.4-.2-.2-.4-.4-.6-.6-.4.1-.8.2-1.2.2-.5 0-.8.6-.6 1 .4.7.3 1.6.9 2.1.2.1.2.4.2.6.4.9.2 1.5-.7 1.9-1 .4-2 1-3.2.6-.1 0-.3-.1-.4 0-1.1.3-2-.3-3-.6-.2-.1-.3-.3-.5-.4-1.3-1.4-2.5-2.9-3.7-4.4-.5-.6-.8-1.2-1-2-.2-.9-.8-1.5-1.4-2.2-.1-.1-.2-.1-.4-.2-1.2-.3-2.3-1-3.3-1.6-.7-.4-1.3-1-1.8-1.7-.5-.6-1-1.3-1.6-1.9-.5-.4-.8-1-1.1-1.6s-.7-1.2-1.2-1.7c-.7-.7-1.4-1.5-2-2.3-.4-.5-.6-1.2-.9-1.8-.2-.4-.2-1-.5-1.3-.5-.5-.6-1.2-1-1.8-.3-.5-.4-1-.7-1.5s-.7-.8-1.1-1.3c-.1-.1-.2-.3-.3-.5-.4-.8-.9-1.5-1.8-1.9 0 0-.1 0-.1-.1-.4-.8-1.3-1-2-1.4-.6-.4-1.2-.8-1.8-1.3-.7-.6-1.4-.8-2.3-.8-.6 0-1.1.1-1.7.1-.2 0-.3-.2-.5-.3-.4.2-.9.5-1.5.5-.2 0-.4.1-.5.1-1.2-.3-2.2.3-3.4.2-.9.4-1.8.7-2.6 1.1-.5.2-.9.4-1.4.5-.1 0-.2 0-.3 0-.9.5-1.8.5-2.8.8-.6.2-1.2.3-1.9.3-.8 0-1.5.2-2.3.3-.5.1-.9.1-1.3.1s-.9.3-1.3.3c-1 0-2 .3-3 .1-.5-.1-1.1 0-1.7 0-.7 0-1.4-.2-2.2-.2-.7 0-1.5-.2-2.2-.2-.4 0-.7-.1-1-.3s-.8-.1-1.2-.2c-.6-.1-1.1-.3-1.7-.4-.3 0-.6 0-.9-.1s-.5-.3-.7-.3c-1.8-.6-3.5-1.2-5.1-2.4-.8-.6-1.5-1.2-2.1-2-.1-.1-.3-.3-.3-.4-.6-1.2-1.2-2.5-1.8-3.7 0-.1 0-.2 0-.3.4-.5.9-.8 1.6-.9 1.3-.2 2.5-.5 3.8-.7.9-.2 1.7-.7 2.5-1.2.4-.2.7-.3 1.1-.5.7-.3 1.5-.3 2.2-.7.9-.5 2-.6 2.8-1.4 1.4-.5 2.6-1.6 4-2 .9-.7 2.1-1.1 2.9-2.1.2-.2.4-.4.6-.6.8-.5 1.5-1.2 2-2 .1-.1.3-.3.4-.3.7.5 1.1 0 1.8-.3m27.5 19.2c-.3.8-.3.8 0 1.2.3.3.6.6.9.9.1.2.3.4.4.6.1.4.3.7.6.9.5.4.9.9 1.4 1.3.3.2.5.5.6.9.2.6.6 1.1.9 1.5.4 0 .2-.3.3-.4.1-.2.3-.3.2-.8-.6-1.3-1.5-2.8-2.5-4-.6-.2-.8-.8-1.3-1.2-.4-.5-.9-.8-1.5-.9"/><path d="m397.7 127.8c.6.2 1 .4 1.5.6.1.3.2.5.2.8.7-.1.7-.1 1.4.2.4.1.8.4 1.1.4.5-.1.8.4 1.1.3.5 0 1 .1 1.5.2s1 .3 1.5.2h1.5.1c1-.4 2.1-.2 3.1 0h.3c1.7-.1 3.1.5 4.6 1.2.7.3 1.4.7 2.1 1 1 .4 1.8 1 2.7 1.6.5.3 1 .8 1.5 1.2.4.3.8.7 1.1 1.2.4.6.9 1.1 1.4 1.7.1.1.2.3.3.5.2.4-.2.9-.6.8-.5-.1-1-.3-1.4-.6-.7-.5-1.4-.7-2.2-.8-1.1-.2-2.2-.5-3.3-.8-.6-.2-1.2-.2-1.7-.1-1 .2-1.9.2-2.9.1-1.1 0-2.1 0-3.1.4-1 .3-2 .5-2.9.8-.3.1-.7.3-1 .4-1.1.7-2.4 1.1-3.5 1.7-.8.4-1.6.8-2.2 1.3-.3.3-.7.4-1.1.6-.1.1-.3.2-.5.4.5.1.9 0 1.3 0 .7-.1 1.4-.2 2 .1.1.1.3.1.4.1.5-.4 1.1 0 1.6-.1s1.1-.1 1.6-.2c.4-.1.9.2 1.4-.1h.2c.9.5 2 .2 3 .5 1.1-.3 1.9.2 2.9.6.4.1.7.4 1.2.3.1 0 .3 0 .4.1 1.1.5 2.2.9 3.3 1.4.4.2.8.6 1.2.9 1.1.9 2.3 1.6 3.3 2.7.5.5.8 1.1 1.4 1.5.5.4.8 1.1 1.3 1.6 1 1 1.7 2.2 2 3.5.2.6.5 1.1.7 1.6.3 1 .6 2 .9 3v.5c0 .2-.4.4-.5.3-.2-.1-.4-.2-.5-.4-.4-.5-.8-1.1-1.2-1.7-.8-1.1-1.8-2.1-2.7-3.1-1-.5-1.9-1.2-3.1-1.5-.1 0-.3 0-.4-.1-.9-.7-2-.6-3-.9-.3-.1-.6-.2-.9-.2-.8 0-1.6 0-2.4-.4-.1-.1-.3-.1-.4 0-.7.1-1.5-.1-2.1-.2-.5.1-.9.3-1.4.4-.3.1-.6 0-1 .1-.5.1-1.1.2-1.5.5s-1 .3-1.4.7c.1.4.4.7.7.8.6.3 1.3.5 1.9.8.3.1.6.3.9.4.6.3 1.1.6 1.7.8.5.2.8.6 1.3.7.5.2.9.5 1.3.7.5.3.9.6 1.5.8.2 0 .3.1.5.3.8.8 1.6 1.5 2.2 2.4.1.2.1.4.1.6-.2.3-.4 0-.6.1-.9.3-1.6-.1-2.3-.5-.3-.2-.6-.3-1-.4-.4 0-.7-.1-1.1-.3-.6-.3-1.2-.4-1.8-.3-.2 0-.5 0-.7 0-1.1-.4-2.2-.2-3.2-.4-1.1-.1-2.2 0-3.3.1-1.2.1-2.5.3-3.7.4-.6.1-1.2.2-1.8.3-1.8.4-3.5.1-5.1-.6-1.8-.7-3.3-1.8-4.6-3.2-.6-.6-1.2-1.1-1.6-1.9-.7-.4-1-1.2-1.4-1.8-.6-.7-1.1-1.4-1.6-2.2-.2-.3-.5-.7-.6-1-.3-.9-.9-1.6-1.4-2.3-.1-.1-.1-.2-.1-.2-.7-1.5-1.7-2.9-2.2-4.4-.1-.4-.3-.8-.6-1.1-.3-.4-.2-.8-.6-1.2-.3-.3-.3-.8-.6-1.1-.7-.9-1.3-2-2.2-2.8-.5-.4-.9-1-1.6-1.2-.4-.1-.7-.4-1-.7-.3-.4-.7-.7-1.2-.9-1.1-.4-2.1-1-3.2-1.2-.5-.1-.6-.2-1.3-.9-.2-.9-.5-1.7-.7-2.6-.1-.3-.1-.5-.1-.8 0-.8-.2-1.5-.4-2.3s-.4-1.6-.5-2.4c-.1-.4-.1-.7-.2-1.1.5-.6 1-1.3 1.6-1.8.8-.7 1.8-1.3 2.8-1.8.6-.3 1.1-.8 1.8-.9.6-.1 1.2-.4 1.8-.7.2-.1.4-.1.5-.1.6.1 1.2-.1 1.8-.2.9-.2 1.7-.4 2.6-.5.4-.1 1-.1 1.4 0 .9.4 1.8.2 2.7.4.4.1.9.1 1.3.4.2.1.4.2.6.2.8 0 1.5.3 2.2.7.2.1.6.1.7.3.5.5 1.1.7 1.7.9.8.4 1.6.7 2.3 1.2.6.5 1.3.9 2 1.5s1.3 1.1 1.9 1.8c.5.5 1.1 1 1.8 1.3 0 .3.3.6.5 1.1m-19.3.5c-.3.6-.1 1 .4 1.3l.6.3c.7.4 1.5.7 2.1 1.3.1.1.3.2.5.3.4.1.7.3 1 .6s.8.5 1.1.8c.8 1 1.7 1.8 2.2 3 .4.8 1 1.4 1.7 2 .8.7 1.7 1.3 2.6 2.1.7.6 1.6.9 2.5 1 .1 0 .1-.1.3-.2-.2-.3-.4-.6-.5-.9-.2-.3-.4-.6-.5-1-.1-.5-.4-.9-.6-1.3-.3-.5-.8-1-.8-1.7 0-.1-.1-.3-.2-.4-1.1-1.1-1.8-2.5-3.2-3.4-.8-1-2-1.3-2.9-2-.3-.2-.7-.3-1-.4-.3-.2-.7-.4-.9-.6-.3-.3-.7 0-1-.2-.5-.3-1-.6-1.5-.8-.9 0-1.4.1-1.9.2m-4.5 3.2c.1.1.2.3.3.4.6.4 1.2.7 1.6 1.3.1.1.3.2.5.3.5.3 1.2.6 1.6 1 1 1.1 2.2 2 3.1 3.2.3.4.7.8.9 1.4.6.6 1 1.3 1.3 2.1.5 1.1 1.3 2.1 2.1 3.1.1.1.2.3.4.4 1.2 1 2.5 2 3.7 3 .6.5 1.2 1 1.9 1.5.1 0 .4.1.6.1.3 0 .5-.1.5-.4-.7-.7-1.3-1.3-2-1.9-.6-.6-1.4-1.1-1.7-1.9-.8-1-1.4-2.2-2.3-3.2-.5-.6-.9-1.3-1.4-1.9-.7-.9-1.5-1.7-2.2-2.6-.4-.5-.7-.9-1-1.5-.2-.3-.4-.6-.8-.7-.5-.2-.8-.5-1.2-.9s-.8-.8-1.4-1c-.8-.3-1.5-.9-2.2-1.4-.4-.3-.8-.5-1.2-.6-.6-.5-.9-.2-1.1.2"/><path d="m246.1 10.8c.2.5.3 1 .2 1.4-.1.3-.2.7-.1 1.1.1.3-.2.7-.2 1.1-.1 1.6-.5 3.1-.8 4.7-.1.5-.3 1-.1 1.5.1.2-.1.5-.1.8-.2.9-.3 1.7-.5 2.6-.1.4-.2.8-.3 1.1-.4.3-.7.3-1 .2-.8-.3-1.5-.6-2.4-.8-.8-.2-1.5-.3-2.3-.5-1.5-.3-2.9-.7-4.5-.8-.3 0-.5-.1-.8-.1-.7.1-1.3-.3-2-.1-.6.2-1.4 0-2 0-1.7 0-3.4.3-5 .6-1.2.3-2.4.5-3.4 1.3-1 .3-1.8 1.2-2.8 1.5-.2.1-.3.2-.5.3-.6.6-1.3 1-2 1.4-.6.4-1.1.8-1.6 1.3-.4.4-.9.6-1.3 1-.3.2-.6.5-1 .5-.5 0-1.2 0-1.6-.4-.7-.7-1.6-.9-2.4-1.3-1.2-.6-2.5-1.1-3.6-1.9-.5-.4-1.1-.6-1.7-.9-1.1-.6-2.2-1.3-3.3-1.9s-2.2-1.2-3.4-1.7c-.9-.3-1.6-.9-2.4-1.3-.8-.3-1.6-.7-2.3-1.2-.2-.1-.4-.1-.6-.2s-.5-.1-.6-.3c-.3-.4-.8-.5-1.2-.6-1.6-.6-3.2-1.1-4.8-1.7-.7-.3-1.4-.6-2.1-1-.8-.4-1.7-.8-2.5-1.1-.5-.2-.9-.4-1.3-.7-.6-.4-.7-.9-.4-1.5s.6-1.1 1.1-1.6c.4-.3.7-.6 1-.9.5-.6 1.1-1.1 1.8-1.5.4-.2.9-.5 1.2-.9.1-.1.3-.3.4-.4 1.2-.7 2.4-1.5 3.6-2.2.2-.1.4-.2.6-.3 1.1-.5 2.3-.9 3.4-1.4.3-.1.5-.2.7-.4.6-.4 1.2-.7 2-.8.4 0 .8-.3 1.1-.4.7-.4 1.5-.6 2.4-.7.6-.1 1.2-.3 1.9-.5.8-.2 1.6-.3 2.5-.4.8-.1 1.5-.2 2.3-.4.8-.3 1.7-.3 2.6-.4.3 0 .6 0 .8.1.5.2 1.1.2 1.6.1 1.8-.4 3.5 0 5.3.1h1c.2 0 .5-.1.7 0 .8.3 1.6.2 2.3.2.7-.1 1.4.2 2 .3 1.5.2 3 .4 4.4.8.5.1 1.1.2 1.6.3 1.5.2 2.9.8 4.3 1.3 1.5.6 2.9 1.4 4.4 2 .5.2 1.1.4 1.6.6.6.2 1.3.4 1.9.8.2.1.4.2.6.3.4.2.8.4 1.3.5.4.1.8.3 1.1.6.1.1.2.2.4.2 1.4.8 3.1 1.7 4.8 2.6m-42.3 11.7c-.4.2-.7.4-1 .6.1.4.1.8.2 1.1.5.3.9.7 1.4.9s1.1.1 1.6.1c.5-.4.9-.8 1.3-1.2.3-.4.6-.8.9-1.2.3-.3.4-.7.4-1.1.1-.8.3-1.6.4-2.4.1-.7.1-1.4-.1-2.2-.2-1.3-1-2.2-1.5-3.3 0-.1-.1-.2-.2-.2-.5-.3-1-.6-1.5-.9-.3-.2-.5-.3-.8-.5-.1-.1-.3-.3-.4-.3-1.3-.5-2.5-1.2-3.9-1.3-.5 0-1-.1-1.5-.2-.6 0-1.1-.3-1.3-.9-.1-.4-.4-.6-.7-.8-.7-.7-1.5-1.2-2.5-1.4-.2 0-.4-.2-.6-.3s-.4-.2-.6-.3c-.9-.1-1.9-.2-2.8 0s-1.6.6-2.4 1c-.3.2-.7.3-.9.6-.9 1-1.6 2.1-2.2 3.3-.1.2-.1.4-.1.5 0 .7-.1 1.5-.1 2.1.4.5.7 1 1.1 1.4.1.2.2.2.4.3.2 0 .5.2.7.3.6-.5 1.1-1 1.7-1.5.6.2 1.2.3 1.7.5 1.7.7 3.3 1.4 4.9 2 .1 0 .2 0 .3.1.5.5 1.2.6 1.7.9.6.3 1.3.6 2 .9.2.1.4.2.6.3.3.2.6.4 1 .5.7.3 1.4.7 2 1.1.5.4.9.7.8 1.5"/><path d="m269.5 176.6c-.4.1-.8.2-1.2.1-.6-.2-1.3-.2-1.9-.4-.6-.1-1.3 0-1.9-.2-.1-.1-.3 0-.4 0-.7.1-1.5.1-2.2-.2-.3-.1-.7-.1-1.1 0-.6.2-1.3.2-2 .2-1.1-.1-2.3.1-3.3.6-.4.2-.9.3-1.4.4-.5-.3-.5-.7-.3-1 .1-.3.4-.5.3-.8.6-.5.4-1.2.9-1.8.4-.5.6-1.2.9-1.8.1-.2.2-.5.3-.8.1-.2.1-.5.2-.6.6-.9.9-1.9 1.4-2.8.3-.6.4-1.2.8-1.7.2-.3.4-.7.7-.8.4-.3.5-.6.7-1 .5-1.1.9-2.2 1.5-3.2.4-.5.6-1.1.8-1.7.5-1.3 1.2-2.5 1.8-3.7.6-1.1 1.1-2.2 1.5-3.4.3-.8.7-1.6 1.2-2.3.3-.4.5-.9.7-1.3.2-.7.7-1.4.6-2.2 0-.1.1-.2.2-.4s.3-.5.5-.7c.4-.7.8-1.3 1.4-1.8.8-.7 1.5-1.5 2.2-2.3.4-.5.7-1 .9-1.7.1-.4.3-.8.6-1.1.5-.5.5-1.2.2-1.7-.4-.7-.6-1.5-1-2 0-.2 0-.3.1-.3.5-.7.7-1.5.3-2.3-.2-.3-.1-.7-.1-1 .3-.6.8-1 1.2-1.4.4-.5 1.1-.6 1.4-1.3.3-.6.7-1 1.1-1.5.5-.8 1.1-1.5 1.3-2.4.1-.2.2-.4.3-.6.3-.5.6-.9.7-1.5 0-.1 0-.3.1-.4.6-.9.7-2.1 1.3-3 .1-.2.2-.4.3-.6.1-.4.1-1 .4-1.3.3-.4.5-.7.8-1.1.2-.3.3-.6.4-.9.4-1.3 1-2.6 1.8-3.7.4-.5.7-1 .9-1.5.3-.8.8-1.5 1.2-2.2.5-.8.8-1.7 1.6-2.4.2-.9 1-1.5 1.5-2.3.7-1 1.5-2 2.4-2.8.1-.1.2-.2.3-.3.7-1 1.7-1.8 2.5-2.8.2-.2.4-.4.6-.6 1.1-.5 1.9-1.4 2.7-2.3.3-.4.6-.7 1.2-.9 0 .3.1.5 0 .7-.2.5-.5 1.1-.8 1.6-.4.5-.7.9-.9 1.5-.1.3-.3.7-.5 1-.8 1.5-1.2 3-1.7 4.6-.4 1.3-.5 2.6-.8 3.9 0 .2-.1.4-.2.5-.7.7-.6 1.6-.8 2.4-.2.7-.3 1.5-.6 2.2-.2.4-.4.9-.3 1.5 0 .1 0 .3-.1.4-.7 1.3-.9 2.8-1.7 4.1-.5.9-.7 2-1 3-.4 1.1-.8 2.2-1.4 3.3-.2.4-.3.9-.5 1.3-.3.7-.5 1.5-1 2.1-.1.1-.1.2-.2.4-.7 1.8-1.8 3.4-2.9 5-.2.3-.4.6-.7.8-.1.1-.2.2-.3.3-.8 1.5-2.2 2.2-3.6 2.9 0 0-.1 0-.1.1-1.4.6-1.8 1.7-1.8 3.1 0 .4.1.7.3 1 .4.7.7 1.5.8 2.3 0 .1.1.3.1.4-.1 1.1 0 2.1-.2 3.2-.2 1.3-.5 2.7-.9 4-.6 1.8-1.4 3.6-2 5.4-.1.2-.2.4-.3.6-.2.9-.5 1.7-1 2.4-.1.1-.1.2-.1.2-.2 1-.7 1.9-1.2 2.7s-.9 1.7-1.4 2.5c-.1.2-.3.5-.4.7-.5 1-.5 1 .5 1.8.3.1.5-.3.8 0 .2.2.4.1.7 0 1.1-.3 2.2.1 3.3.2.1 0 .2.2.3.2.1.1.3.2.5.1s.5-.2.7-.1c1.5.5 3 .8 4.5 1.4 1.4.5 2.7 1.2 4 1.8.5.2 1 .6 1.6.9.8.4 1.7.8 2.5 1.1.9.4 1.8.5 2.7.4.5 0 1 0 1.5.2.8.3 1.7.3 2.6.3.6.1 1.3.1 1.9.1.2 0 .4 0 .5.1.6.2.8.7.3 1.1-.1.1-.3.3-.4.3-.8.3-1.6.6-2.5.9-.8.3-1.6.6-2.4.7-.9.1-1.7.4-2.5.6-.5.2-1.1.3-1.6.2-.3-.1-.5.1-.8.1-.6 0-.9.6-1.6.4-.5-.1-1 .1-1.5.1-1.1.1-2.2.1-3.2.3-.2 0-.5.1-.7 0-.7-.1-1.3 0-2 .2-.8.2-1.8.1-2.6 0-.5-.1-1-.1-1.5-.2-.4-.1-.8-.1-1.2-.2-.7-.2-1.3-.4-2-.3h-.1c-1.1-.5-2.2-.6-3.3-.8-.3 0-.5-.3-.7-.5"/><path d="m308.4 82.1c.2.5.2 1-.2 1.5-.2.3-.4.7-.5 1.1-.2.8-.8 1.3-1.2 1.9-1.2-.2-2.3-.6-3.4-1-.7-.3-1.4-.4-2-1-.1-.1-.3-.2-.5-.2-.4-.1-.7-.3-1.1-.6-.8-.5-1.6-1.1-2.6-1.3-.7-.2-1.4-.6-2.1-.9s-1.5-.6-2.3-1c-.5-.7-.7-1.6-.7-2.6 0-1.1-.3-1.6-1.1-2.7-.2-.4-.3-.8-.5-1.2-.3-.8-.8-1.5-1.5-2.1-.2-.1-.3-.4-.4-.6-.6.1-.9.4-.9 1 0 .5-.1.9-.3 1.3-.1.3-.1.5-.1.8.1.4-.1.8-.2 1.2s0 .8-.3 1.2c-.1.1-.1.3-.1.4 0 1.2-.6 2.3-.9 3.5-.1.5-.4.9-.8 1.2-1.2.8-2.3 1.7-3.8 1.8-.9.1-1.8.4-2.7-.1-1.8-.3-3.4-1.2-4.9-2-.3-.1-.6-.3-.9-.3-.8 0-3.1-.7-4-1-.9 0-1.8.5-2.6.8-.4-.1-.5-.3-.5-.6 0-.6.1-1.1.4-1.6.5-.7.7-1.5.9-2.3.1-.3.2-.5.3-.8.4-.7.9-1.4.9-2.3.5-.8.7-1.8 1.1-2.7.1-.3.3-.7.4-1 .4-1.7 1.2-3.3 1.8-4.9.2-.5.5-.9.7-1.3 1.3-.8 2.5-1.8 3.8-2.5 1.2-.7 2.3-1.7 3.5-2.4.5-.3.9-.6 1.2-1.1.4-.5.9-.9 1.3-1.4.2-.2.3-.6.5-.8.4-.4.8-.8 1.3-1.3 1-.2 2 0 2.9.6.7.4 1.5.8 2.2 1.1.5.2.8.5 1.2.9.7.6 1.4 1.2 2 1.9.4.4.8.8 1.3 1.3.4.5.9.9 1.3 1.4s.6 1.1 1.2 1.5c.1.1.1.2.2.4.1.4.4.7.7 1 .7.7 1.3 1.5 1.7 2.3.2.5.5.9.8 1.3.8 1.4 1.4 2.9 2.1 4.3.2.4.2.9.4 1.3.5 1.3 1.1 2.5 1.7 3.8.5.8 1.2 1.3 1.9 2 .4 0 .5.3.7.5 1 .9 1.8 1.6 2.7 2.3"/><path d="m216 47.6c.6-1.1 1.6-1.3 2.3-1.9.5-.1 1.1-.2 1.6-.2.8.1 1.6.3 2.2 1 .4.5.9.8 1.1 1.5.1.3.4.6.6 1 .7.2 1.4.5 2.2.6 1 .1 1.8.6 2.4 1.1.9.7 1.7 1.5 2.2 2.6.4.8.6 1.7.9 2.6.7 1.8.7 3.8.5 5.7-.1 1.4-.2 2.7-.5 4.1.1 1.5-.7 2.8-.8 4.3-.5 1.1-1 2.2-1.5 3.2-.2.4-.4.8-.7 1.2s-.8.4-1.1 0c-.1-.1-.2-.2-.3-.3-.4-.8-.8-1.5-1.2-2.3s-.8-1.5-1.4-2.2c-.3-.4-.5-.8-.7-1.2-.3-.7-.5-1.4-.2-2.3.3-.8.5-1.6.4-2.4 0-.2-.1-.4 0-.5.4-.7.1-1.6.3-2.3 0-.2-.1-.3-.1-.5-.1-.3-.2-.5-.2-.8 0-.2 0-.4-.2-.5s-.6.1-.7.3c-.1.1-.1.3-.1.4-.5 1.1-1 2.2-1.6 3.2-.3.6-.8.7-1.4.2-.1-.1-.3-.2-.4-.4-.4-.6-.9-1.2-1.6-1.5-.7-.9-1.8-1.5-2.2-2.7.7-1.1.4-2.4.5-3.6-.3-.2-.4-.1-.6 0-.4.3-.7.6-1 .9-.6.7-1.5.9-2.4.9s-1.8-.4-2.5-1.1c-.8-.7-1.2-1.7-1.6-2.7-.2-.5-.4-.9-.5-1.4s-.3-.9-.9-1.1c-.1.1-.3.3-.5.5-.7.7-1.6 1.3-2.4 1.9-.1.1-.2.2-.4.2-.9.1-1.9.2-2.6-.5-.9-.7-1.5-1.6-2-2.6-.3-.7-.7-1.3-1-1.8-.4-.1-.4.1-.5.3-.3.7-.8 1.3-1.2 1.9-.7 1-1.7 1.5-2.9 1.6-.3 0-.6-.1-.9-.1-.5-.1-.8-.5-.9-.9-.1-.3-.3-.6-.4-.8-.1-.1-.3-.2-.4-.3-.5.2-1 .3-1.4.6-.9.7-1.9 1.2-2.9 1.8-.9.1-1.8.3-2.6-.2-1.3-.8-2.3-1.8-3.3-2.9-.5-.6-.9-1.2-1.4-1.7-1-.9-1-2.3-.6-3.3.3-.6.5-1.3.8-1.9.4-.9 1.1-1.7 2.1-2 .2-.1.3-.1.5-.2.8-.4 1.5-.4 2.4-.1.8.3 1.6.7 2.3 1.2.1.1.3.2.4.3.5.3.8.2 1.2-.3.1-.2.2-.3.2-.5.5-1.1 1.5-1.5 2.5-2 .3-.1.7-.2 1.1-.1 1 .2 2.1.5 2.7 1.4.3.4.3.4 1 .6.1-.1.3-.2.4-.3.5-.5 1.1-1 1.9-1.1 1.1-.7 2.3-.4 3.5-.7.2-.1.5.1.8.2 1.1.5 1.8 1.4 2.4 2.4.1.7.7 1.1.8 1.8.3 0 .6 0 .7-.1 1-.9 2.2-1.3 3.4-1.6.1 0 1.9 0 2 .1.5.2 1 .4 1.3.7.5.5 1 1 1.3 1.6.5.8.9 1.7 1.1 2.7.3.3.4.6.7 1.3"/><path d="m239.4 101.1c-.4-.6-.9-1.1-1.1-1.6-.4-1.2-1.2-2.1-1.6-3.1-.3-.9-.9-1.7-1.3-2.6-.2-.4-.3-.8-.4-1.2-.4-1.1-.8-2.3-1.1-3.4-.5-2-1.2-4.1-1.3-6.2-.4-1.4-.3-2.8-.8-4.2 0-.1-.1-.2 0-.3.4-.9-.2-1.8-.1-2.7.1-.7 0-1.4.2-2 .1-.4 0-.9 0-1.5.2-.3.5-.8.9-1.1 1-1 2-2.1 2.9-3.1.5-.6 1.1-1.1 1.5-1.8.7-.9 1.1-2 1.1-3.2 0-.6.1-1.3-.2-1.9-.6-1.5-1.6-2.3-3.1-2.5-.2 0-.5 0-.7-.1-.6 0-1.1-.4-.9-.9.1-.7 0-1.5 0-2.2s.2-1.5.3-2.2c.1-.4.2-.7.1-1.1 0-.3 0-.5.1-.8.2-.7.2-1.4.2-2.2 0-1 .2-1.4 1.3-1.8 1-.4 2-.6 3-1.1.4-.2.9-.2 1.3-.2.5-.1 1.1-.3 1.6-.4.5-.2 1.1-.3 1.6-.3s1-.1 1.4-.5c.8.5 1.5.1 2.3.1 1 0 2-.4 3-.2.9-.3 1.9-.1 2.9-.1s2 0 3 .1h.7c.4-.1.8.1 1.2.1 1.3.1 2.6.4 3.9.6.4.1.7.1 1.1.1s.7.2 1 .4c.2-.1.5-.2.8-.3.6.4 1.4.5 2 1.1.4.4.7.8.4 1.4-.1.2-.2.5-.1.8.1.5-.1 1-.2 1.5-.1.4-.1.9-.4 1.3-.1.1 0 .3-.1.4-.1.8-.1 1.6-.6 2.2.1.7-.2 1.3-.2 2 0 .3-.1.6-.2.9-.4 1-.8 2.1-1.1 3.1-.3.9-.7 1.8-.9 2.7-.4.5-.5 1-.6 1.6-.1.5-.4 1-.6 1.5-.5 1.4-1.2 2.8-1.8 4.2-.1.2-.2.4-.3.6-.2.3-.4.5-.5.8-.9 2.1-2.2 3.9-3.2 5.9-.5 1-1 1.9-1.6 2.9-.2.3-.2.6-.4.9-.1.3-.3.5-.6.5-.1 0-.3.1-.3.2-.3.7-.6 1.3-.9 2-.3.5-.5 1.1-.9 1.6-.9 1.4-1.8 2.8-2.7 4.1-.2.2-.3.4-.5.6-.3.4-.7.8-1 1.3-.5.8-1 1.5-1.7 2.1-.2.1-.3.4-.4.6-.3.6-.6 1.1-1.2 1.5-.2.1-.3.3-.4.5-.4.7-.9 1.4-1.5 2-.6.7-1.1 1.5-1.7 2.2.1.4-.1.5-.6.4m-4-22.9v.5c-.2.5-.1 1 0 1.5.2.7.3 1.5.8 2.2 0 .6.4 1 .7 1.4.7.7 1.1 1.7 2.2 2 0 0 .1.1.1.1.1.4.4.3.6.3.4 0 .7.1 1.1.2.7.2 1.5.4 2.3.4s1.6-.3 2.4-.3c.5-.5 1.2-.3 1.8-.7.5-.3 1.1-.5 1.5-.9.9-.7 1.8-1.3 2.4-2.2.2-.3.2-.8.7-1 .4-.2.4-.8.8-1 .3-.2.4-.6.5-1 .1-.6.3-1.2.7-1.6.4-.5.6-1.1.7-1.8.1-.6.5-1.1.6-1.7.2-1.1.4-2.3.1-3.4-.1-.2-.1-.5-.1-.7 0-1.2-.1-2.4-.8-3.4-.2-.2-.2-.5-.3-.8-.3-.6-.6-1.2-1-1.8-.2-.3-.4-.6-.6-.9s-.4-.6-.6-.8c0-.6.4-.9.7-1.3.4-.5.9-1 1.2-1.7.4-.9.4-1.9.8-2.8.1-.4-.1-.9-.1-1.4 0-.7 0-1.3 0-2.1-.4-.4-.7-.9-.8-1.5s-.4-1.2-1-1.6c-.3-.2-.6-.5-.8-.8-.6-.9-1.5-1.3-2.5-1.5-.7-.1-1.5-.4-2.2-.3-.6.1-1.2 0-1.7 0-.4.2-.8.3-1.2.5-.5.2-.9.4-1.3.7-.7.6-1.4 1.3-2.1 1.9-.2.2-.4.5-.5.8-.2.4-.3.8-.5 1.1.2.8.5 1.6 1.5 1.7.3 0 .4.3.5.6v.5c-.1 1-.3 2.1-.2 3.2 0 .1 0 .3-.1.4-.4 1.7-.5 3.3-.6 5 0 .7-.1 1.4-.2 2-.1.5-.1 1-.1 1.5 0 1.1.1 2.1-.5 3.1-.5.1-.9.4-1.3.8-.1.2-.3.4-.5.5-.9.6-1.7 1.4-2.4 2.2-.3.3-.5.7-.6 1.1s-.2.7-.3 1.1c-.2.3-.8.3-.7.9.4.6.6.7.9.8"/><path d="m307.8 17.9c.1.3.3.6.4.8-.2.5-.5.7-.8.8-.5 0-1-.1-1.4-.1-.6 0-1.3 0-1.9-.1-.4-.1-.7-.1-1.1 0-.8 0-1.5-.1-2.3-.4-.3-.1-.6-.3-1.1-.2-.3.1-.5-.4-.9-.2-.1.1-.3 0-.4 0-1.1-.5-2.2-1-3.3-1.6-.6-.3-1.1-.7-1.7-1.1-.5-.3-1.1-.6-1.4-1.2-.3-.5-1-.7-1.3-1.2-.6-1-1.5-1.6-2.3-2.3-.5-.4-1-.9-1.5-1.2-.6-.3-1.2-.5-1.9-.9 0 .8.1 1 .5 1.6.3.5.5 1 .7 1.3-.1.6-.1 1-.2 1.4 0 .2-.2.5-.3.6-.7.5-1.6.5-2.5.7-.4-.2-.9-.3-1.3-.5s-.9-.5-1.4-.6c-.1 0-.2 0-.3-.1-.6-.4-1.2-.7-1.7-1.2-.8-.8-1.8-1-2.9-1.2-.3 0-.5-.1-.8-.1-.8-.1-1.4-.4-2-.9-.3-.2-.5-.4-.8-.5-.9-.4-1.8-.9-2.6-1.5-.7-.5-1.6-.9-2.4-1.2s-1.4-.9-1.7-1.6c0-.5.3-.7.6-.9.8-.4 1.6-.8 2.4-1.1.2-.1.4-.1.7-.2.4-.1.7-.1 1.1-.3s.9-.3 1.3-.3c.5 0 1-.2 1.4-.4.5-.2.9-.4 1.5-.2.1.1.4 0 .5-.1.2 0 .5-.1.7-.1 1.2.1 2.4-.3 3.5-.5.7-.1 1.4-.1 2.1-.1h2.6c.8 0 1.7-.2 2.6.2 1.1-.1 2 .5 3.1.4.1 0 .3 0 .4.1 1.3.5 2.8.7 4.1 1 .6.1 1.1.5 1.7.3.1 0 .3 0 .4.1 1.2.7 2.6 1 3.8 1.5 1 .4 2 .8 3.1 1.1 1 .3 2 .6 3 .9 1.2.4 4.2.9 5.4 1 .5 0 1-.2 1.5-.3.2 0 .4-.2.5-.2 1.1.3 2.1-.6 3.2-.5.6 0 1.1.5 1.3 1.2.1.2.3.4.5.6.8-.1 1.5-.5 2.2-.8s1.4-.5 2.2-.8c.2-.2.3-.5.6-.6.5-.2 1-.4 1.5-.6.4-.1.6.1.7.5v1.1c0 .6.2 1.1.7 1.4 1 .4 1.7-.2 2.4-.7.4.1.7.3.8.6s.1.6 0 .9c-.2.3-.3.6-.5.8-.6.9-1.2 1.7-1.9 2.5-.1.1-.2.3-.4.4-1 1-2.1 2-3.3 2.8-.7.5-1.3 1.1-2.2 1.1-.5.7-1.5.4-2.1.9-.2.1-.4.1-.7.1-.6 0-1.3 0-1.9 0-1.5 0-3-.4-4.4-.8-.2 0-.4-.1-.5-.2-1.5-.9-2.9-1.9-4.2-3.1-.4-.3-.7-.7-1-1.1-.9-1-2.2-1.5-3.3-2.3-.2-.1-.5-.2-.7-.4-1.9-1.4-2.6-1.8-4.9-2.4-.5-.1-1 .2-1.1.8-.1.7.3 1.3.8 1.6.2.2.4.3.5.6 0 .2.2.4.3.4.8.2 1.1 1 1.8 1.4.6.4 1 1 1.5 1.5.4.4.9.8 1.4 1 .4.2.9.5 1.3.8.7.6 1.6.8 2.5 1.1.5.7.9.8 1.5 1"/><path d="m224.5 158.3c.3-1.3 1.3-1.8 2.1-2.6 0 0 .1 0 .1-.1.6-.3.9-.9 1.5-1.3.6-.3 1.1-.6 1.6-1.1.2-.2.6-.3.8-.4s.3-.3.4-.5c-.2-.9-1.2-1.2-1.3-2.2.3-.9 1.4-1 1.9-1.8 0-.4-.3-.7-.6-.8-.4-.1-.9-.3-1.3-.4 0-.6.2-1 .6-1.2.5-.3 1-.7 1.4-1.1l.6-.6c-.2-.6-.8-.7-1.1-1.1-.6.1-1.1.4-1.7.1-.1-.6-.1-1.3-.2-1.9 0-.6.3-1.2-.1-1.7-.5 0-.9.2-1.1.7-.2.6-.8 1-.9 1.7 0 .3-.5.4-.8.4-.6-.4-.4-1.2-.9-1.7-.4-.5-.8-1-1.2-1.6-.2.3-.4.6-.6.9 0 .6.1 1.1.1 1.7.1.6 0 1.1-.1 1.6-.1.4-.1.9-.2 1.4 0 .3-.4.5-.6.4s-.6-.3-.6-.5c-.1-.7-.7-1-1.2-1.5-.2.1-.5.2-.8.3 0 .3.1.6.1.8s-.1.4-.1.7c-.1.7-.2 1.4-.1 2.2v1.1c-.1.2-.2.5-.4.7-.5-.2-.4-.7-.6-.9-.2-.3-.4-.6-.7-.9-.4 0-.5.3-.5.6-.1 1.6-.2 3.1-.5 4.6-.1.7-.3 1.3-.6 2-.1.4-.2.4-.8.9-.9-.1-1.6-.4-2.3-.8-.6-.3-1.2-.6-1.9-.8-1-.3-1.9-.6-2.7-1.4 0-.2 0-.5.1-.7.5-1 .9-2 1.2-3.1.1-.2.1-.5.3-.6.3-.4.4-.8.5-1.3.2-.7.3-1.3.7-1.9.2-.2.2-.6.2-.9.1-.4.1-.8.4-1 .7-.8 1-1.8 1.5-2.7.5-.8.8-1.8 1.5-2.6.4-.4.6-.9.8-1.4.3-1 1-1.9 1.4-2.8s.9-1.7 1.3-2.6 1.1-1.6 2.1-2c.7.3 1.5.6 2.3.9.6.3 1.1.5 1.7.4.4 0 .7.1 1 .3.6.4 1.3.6 2 .9 1.3.5 2.6.8 3.9 1.4.1.1.3.1.4.1.9.1 1.6.5 2.3.9.6.3 1.3.6 1.9.8.5.2.9.4 1.4.7.8.5 1.5 1 2.4 1.4.6.3 1.1.6 1.5 1.1.1.2.3.3.5.5.2.8.1 1.6-.2 2.4-.1.3-.2.5-.3.8-.5 1.2-.5 2.4-.8 3.6-.4 1.5-.6 3-1.1 4.5-.6 1.6-1 3.3-1.4 5-.2 1.3-.4 2.5-.6 3.8-.1.7-.2 1.4-.4 2.2-.3.5-.8.9-1.5 1-.5.1-.9.2-1.3.3-.5.1-1 .3-1.5.7-.4.3-.8.6-1.3.8-.3.2-.7.2-1 0-.5-.3-.9-.6-1.4-.9-.7-.4-1.4-.9-2.1-1.3-.2-.1-.4-.1-.5-.3-.5-.6-1-.9-1.7-1-.2 0-.3-.2-.4-.3-.2-.5-.3-.8-.5-1"/><path d="m198.1 150.3c-.1-.3-.1-.5-.2-.7 1.7-1.8 3.6-3.3 5.8-4.3-.1-.3-.2-.6-.2-.9-.4-.4-1.1.1-1.3-.7l.3-.3c.7-.6 1.5-1.2 2.3-1.8 0 0 .1 0 .1-.1.4-.3.4-.7-.1-.8-.5-.2-1-.5-1.3-1 .6-1.1 1.3-2.1 1.6-3.3-.3-.2-.6-.2-.9-.1-.8.3-1.6.7-2.4 1-.3-.1-.5-.4-.5-.8 0-.3 0-.6.1-.8.2-.5-.1-.9-.3-1.3-.1-.1-.4-.2-.5-.1 0 0-.1 0-.1.1-.4 1-1.4 1.6-1.7 2.6-.1.3-.3.5-.7.5-.2-.8-.8-1.5-1-2.3 0-.1-.1-.2-.2-.3-.3-.3-.6-.4-.9-.3-.3.2-.4.4-.5.8 0 1.3-.1 2.6-.2 3.9-.2.1-.3.2-.5.3-.4-.3-.8-.7-1.3-1.1-.2 0-.4 0-.7 0-.1 0-.3.1-.4.1 0 .6.1 1.3.1 1.9.1 1.1.3 2.2.2 3.3 0 .2 0 .4-.1.5-.1.3-.5.4-.7.3-.3-.2-.5-.4-.7-.6-.1-.1-.3-.2-.4-.2-.5.2-.7.6-.6 1 0 .5.2 1 .3 1.5.1.7.3 1.3.4 2 .1.4.1.7.2 1.1v.8c0 .3-.3.6-.5.6-.9 0-1.7.3-2.6.2-1-.1-1.9.2-2.7.7-.2.1-.3.2-.5.4-.8-.2-1.6-.3-2.3-.6-.5-.2-1-.4-1.6-.5s-1.1-.3-1.7-.5c-.8-.3-1.6-.4-2.4-.5-.7-.1-1.5 0-2.2-.2-.3-.1-.6.1-.9.1s-.5.1-.8.1c-.1 0-.3-.1-.5-.1-.1-.2-.2-.4-.2-.6 0-.3.2-.5.4-.7.8-.6 1.6-1.2 2.3-1.9.8-.8 1.7-1.4 2.3-2.3l.3-.3c.9-.5 1.6-1.4 2.3-2.2.9-1 1.7-2 2.7-2.9.2-.2.3-.3.5-.5.7-1.2 1.7-2.3 2.6-3.3.1-.1.1-.2.2-.4l.9-1.5c.3-.5.6-.9 1-1.3.7-.8 1-1.8 1.5-2.6.6-1.1 1.2-2.3 1.9-3.3.3-.4.7-.7 1.3-.7.7 0 1.4-.1 2-.2h.7c.8.3 1.6.1 2.3.2.4 0 .8.1 1.2.1s.7.1 1.1.1c.5 0 .9 0 1.4.2.3.1.7.1 1.1.1.5 0 1 0 1.5.1.8.2 1.6.2 2.5.3.6.1 1.3.1 1.9.3.2.1.4 0 .7 0h.4c.8.4 1.6.3 2.4.5 1.2.3 2.4.4 3.6.8.3.1.7.3 1 .4s.5.4.6.8c-.2.4-.4.9-.7 1.3-.6.5-.9 1.3-1.5 1.8-.9.7-1.3 1.8-1.8 2.7-.8 1.4-1.5 2.8-2.2 4.3-.5 1.1-1.2 2.1-1.7 3.1-.3.6-.7 1.2-.9 1.8-.2.4-.3.8-.7 1-.1.1-.2.2-.2.3-.1.8-.7 1.3-.8 2-.1.6-.5 1.1-.8 1.6-.4.8-.9 1.5-1.3 2.2-.4.2-.8.2-1.2 0-1.2-.5-2.4-1-3.7-.9-.2.1-.7 0-1.2 0"/><path d="m406 228.3c-.6.7-1.1 1-1.9.9-.5 0-.9 0-1.4 0-2 0-3.9-.4-5.7-1.2-.7-.3-1.3-.6-1.9-1-.2-.1-.4-.2-.6-.3-.5-.3-1.1-.5-1.7-.8-.6.4-1.4.5-2.1.9-.1.1-.4.1-.5.1-1.6-.1-3-.6-4.1-1.6-.7-.6-1.3-1.3-1.7-2.1-.6-1.2-1.1-2.4-1.2-3.8-.3-.1-.6-.3-.9-.2-1.4.1-2.6-.5-3.6-1.3-.3-.3-.6-.6-1-.8-.6-.5-1.2-1-1.7-1.6-.1-.1-.2-.2-.3-.3-.3-.2-.6-.4-.9-.6-.3-.9-1-1.6-1.2-2.5-.2-1.3-.5-2.6-.2-4 .1-.3.1-.6.1-.8-.1-.4-.2-.7 0-1.1.1-.3-.1-.7.1-1.1.1-.3.2-.7.1-.9-.2-.9 0-1.8.2-2.6.3-.9.1-1.7.1-2.5 0-.6-.1-1.2-.2-1.8.2-.3.4-.5.7-.7.3-.3.7-.5 1.2-.5 1.8-.2 3.4.3 4.9 1.2.6.4 1.2.6 1.8 1 1.5 1 2.7 2.4 3.7 3.8.9 1.3 1.7 2.6 2.4 4 .6 1.1 1.4 2.1 2.1 3.2.5.8 1 1.5 1.5 2.3.6.8 1.2 1.6 1.8 2.4.4.5.8.9 1.2 1.3.9 1.1 1.9 2.1 3.2 2.8.9.5 1.7 1.1 2.4 1.8.7.6 1.2 1.4 1.2 2.3 0 .3.1.5.3.7.3.4.5.8.7 1.2.4 1 1.1 1.7 1.7 2.5.1.1.3.3.4.4.6.3.8.8 1 1.3"/><path d="m246.9 24.9c-.4-1.1 0-1.9.4-2.7.6-.7 1.4-.9 2.2-.9s1.6-.1 2.5-.2c.6 0 1.3.1 1.9.2s1.2.1 1.8.2c.7.1 1.5.1 2.2-.1.2-.1.3-.2.5-.3-.2-.9-.8-1.3-1.5-1.6-.4-.2-.9-.3-1.3-.3-1.3-.2-2.7-.5-4-.5-.8 0-1.6.1-2.4.5-.2.1-.4.1-.6.1-.4-.3-.5-.6-.4-1 .2-.9.3-1.7.5-2.6.1-.3.2-.5.3-.8.6-1.6 1.7-2.9 2.7-4.3.8-1.1 2-1.8 3.1-2.7 1.1-.4 2.1-.9 3.2-1.1 1.5-.3 3.1-.4 4.7 0s3.1 1 4.4 2.1c1.2 1 2.2 2.2 3.1 3.5 1.6 2.2 1.8 2.8 2.6 4.9.8 1 .7 2.3 1 3.4.5 1.8.9 3.5 1.2 5.3.1.5.1.9.1 1.4 0 .3-.2.6-.5.6-.5.1-1 .3-1.5.2s-1.1-.1-1.6-.2c-.5 0-.9-.2-1.3-.5-.7-.5-1.5-.8-2.4-.9-.7-.1-1.4-.4-2.2-.1-.1 0-.2 0-.3 0-.8-.1-1.7-.3-2.6-.1-.8.2-1.6.2-2.4.5-.2.1-.4.1-.5.1-.5-.2-1 0-1.5.1-.7.2-1.4.3-2.2.1-.4-.1-.9-.1-1.4-.1-1.3 0-2.6-.2-3.8-.6-.3-.1-.7-.3-1.1-.3-1 0-2-.5-2.9-1.3"/><path d="m340.9 121.4c.2-.1.3-.1.4-.1s.2.1.2.1c.6.7 1.4 1.2 2.2 1.7.5.3.9.7 1.3 1s.8.7 1.2.9c.6.4 1.2.9 1.9 1.4 1.5 1.1 3.1 2.2 4.4 3.6.8.8 1.5 1.6 2.3 2.3.6.6 1.2 1.3 1.7 1.9 1.2 1.3 2.3 2.7 3.2 4.1.6.9 1.2 1.7 1.8 2.6 1 1.4 1.8 2.9 2.6 4.3.2.8.7 1.4.9 2.1 0 .3.2.5.4.7.7 1.2 1.1 2.5 1.4 3.8.1.4.2.9.4 1.3.3.5.4 1.1.5 1.7 0 .2 0 .4.1.5.6 1 .9 2.1 1 3.2.4 2.5.5 3.6.5 5.7 0 .7.1 1.5.1 2.2 0 .4-.3.5-.7.4-.4-.2-.7-.6-.9-1-.8-1.6-1.7-3.1-2.7-4.6-.3-.5-.7-.9-.9-1.3-.2-.5-.5-.9-.7-1.3-.8-1.4-1.8-2.7-2.5-4.1-.6-1.1-1.3-2.2-2-3.3-.4-.6-1-1.2-1.3-2-.2-.5-.6-.9-1-1.3-.1-.1-.3-.3-.3-.5-.1-.8-.7-1.4-1.1-2-.5-.7-1-1.3-1.2-2.1-.1-.2-.1-.4-.2-.5-1.1-1.3-1.5-2.9-2.6-4.2-.3-.3-.4-.8-.7-1.2-.2-.4-.3-.9-.8-1.1-.1-.1-.2-.2-.2-.3-.5-1-1.1-1.9-1.6-2.9-.6-1.2-1.5-2.2-2.1-3.4-.2-.4-.4-.9-.7-1.3s-.5-.9-.7-1.3c-.3-.7-.6-1.3-1.1-1.9s-.8-1.2-1.2-1.8c-.2-.4-.4-.8-.8-1.1-.2 0-.3-.5-.5-.9"/><path d="m300.4 110.3c.1-.3.1-.6.2-.8.5-.7.7-1.5 1-2.3.2-.5.3-.9.8-1.3 1.3.5 2.7.3 4 .9.1.1.3.1.4.1.6 0 1.1.3 1.6.3h.7c.2 0 .5-.1.7 0 .9.4 1.8.2 2.7.2.6 0 1.2 0 1.8.2.2.1.5.1.7.1.4 0 .7-.2 1.1-.2.3 0 .6.1 1 .1 0 .1.1.3.2.5s.4.3.6.3c.3.1.3-.2.4-.4.2-.3.4-.5.9-.4.3.1.6.1 1 .1 1.2-.2 2.4 0 3.5.2.2 0 .4.1.5.1.6-.2 1.1.1 1.6.2.2 0 .3.3.4.3.2-.1.3-.3.6-.3.2 0 .4.1.5.1.6-.3 1.2-.2 1.8-.1.8.1 1.5 0 2.3.2.3.1.6.2.9.3.2.1.4.2.5.2 1.3-.2 2.4.6 3.6.7.3.3.8.2 1.2.3.3.1.6.1.9.2 1.3.6 2.8.8 4.1 1.5.4.2.9.1 1.3.3.6.3 1.3.5 1.9.9.6.3 1.2.6 1.9.8 1 .3 2 .8 2.8 1.4.3.2.6.4.9.6 1.1.5 1.9 1.2 2.9 1.8.6.4 1 .9 1.6 1.3s1.2.8 1.6 1.3 1 .8 1.5 1.3c.8.8 1.5 1.6 2.3 2.4.6.6.9 1.4 1 2.2.1 1.1.4 2.2.6 3.2.1.2.1.5.1.7 0 1.1.3 2.1.5 3.1 0 .1.1.3.1.4 0 .2-.1.3-.2.5-.1.1-.5 0-.6-.2-.2-.3-.4-.5-.5-.8-.1-.6-.4-1-.8-1.4-.7-.9-1.3-1.8-2.2-2.5-.5-.4-.9-.9-1.3-1.4-.6-.6-1.1-1.2-1.8-1.7-1.2-1-2.4-2.1-3.8-3-.7-.4-1.3-1-2-1.5-.2-.1-.3-.3-.5-.4-.9-.4-1.6-.9-2.3-1.6-.3-.2-.6-.4-.9-.5-.8-.4-1.6-.7-2.1-1.4-.5-.3-1 0-1.4-.3-.3-.2-.7-.3-1.1-.5-1.2-.7-2.6-1.2-3.9-1.5 0 0-.1 0-.1-.1-.5-.2-1.1-.6-1.6-.7-.6-.1-1.1-.4-1.7-.5-.8-.3-1.6-.6-2.5-.6-.1 0-.3 0-.4-.1-.6-.5-1.3-.3-1.9-.6-.8-.4-2.4-.6-3.5-.7-.1 0-.2 0-.3 0-.5-.3-1-.5-1.7-.4-.5.1-1.1-.1-1.6-.2-.6-.1-1.2-.2-1.9-.1-.6.1-1.2-.1-1.8-.2-1-.2-2.1-.1-3.1-.3-.7-.1-1.5-.1-2.3-.1-1.1 0-2.1-.1-3.1-.1-.9 0-1.8 0-2.8 0-.4 0-.8.1-1.2.2-.7.1-1.4.1-2.1-.1-.4-.1-.7-.1-1 .2-.3.2-.7.2-1.1.2-.4-.1-.9-.1-1.3-.1-.4-.2-.6-.4-.8-.5"/><path d="m231.4 100.3c.3.2.6.3.7.5.5.7 1.2 1.3 1.5 2.2-.2.6-.4 1.2-.7 1.8-.6 1.2-1 2.5-1.6 3.8-.3.8-.5 1.6-.6 2.4-.3 1.6-.4 3.2-.7 4.8-.2.9.1 1.6.1 2.5 0 .4.1.8-.1 1.2-.1.3-.1.5-.1.8 0 .5-.3.7-.8 1-.7 0-1.6 0-2.4-.2-1.1-.2-2.2-.3-3.3-.4-.4-.1-.9.1-1.4-.1-.8-.3-1.5-.2-2.3-.2-.5 0-1.1 0-1.6-.2s-1.1.1-1.6-.2c-1 .1-2-.2-3-.1-.8 0-1.5.1-2.3-.2-.6-.2-1.3-.1-1.9-.1-.7 0-1.4 0-2.1 0-.8.1-1.5 0-2.3-.2-.3-.1-.6.1-.9.1-.5.1-1 .1-1.5-.1-.6-.2-1.3-.1-1.9-.2s-1.2-.1-1.8 0c-.4.1-.9.1-1.4.1-.4-.1-.8-.1-1.2 0-.3.1-.5 0-.8-.1-.4-.2-.5-.5-.2-.9.2-.2.4-.4.6-.7.4 0 .9 0 1.3.2.5.1 1.1.2 1.6.3.2 0 .4-.1.7-.1.5-.2 1-.3 1.4-.5.6-.3 1.3-.4 2-.5 1-.2 1.9-.1 2.5.8 0 .1.1.1.2.2.2 0 .4.1.7.1 1.2-.4 1.7-1.4 2-2.6.3-.2.6-.4.9-.5.9-.2 1.7-.6 2.6-1 .4-.2.9-.4 1.3-.2s.1.6.2.9c.2.3.4.5.6.8h.2c.8.2 1.2-.1 1.5-.8.2-.4.3-.9.5-1.3.3-.9.8-1.6 1.7-2 .7-.3 1.3-.7 1.9-1.1.3-.2.4-.2 1.2-.3.4.6.2 1.5.9 2 .4-.1.6-.4.8-.8s.3-.9.5-1.3c.1-.4.2-.8.3-1.2.2-.7.4-1.3 1-1.7.2-.8.9-1.1 1.4-1.6.3-.3.6-.6 1-.7.7-.4 1.3-.9 1.7-1.5 1-1.3 2-2 3-2.9"/><path d="m426.2 73.5c-.7.2-1.3.4-2 .2-1.1-.2-2.3-.3-3.4-.3h-.1c-1.3.3-2.4-.2-3.7-.3-.5-.1-1.1-.2-1.6-.2-.6 0-1.2-.2-1.8-.5-.6-.2-1.2-.3-1.8-.7-.5-.4-1.1-.7-1.6-1.1-.1-.1-.3-.3-.4-.4-.5-.8-1.2-1.5-2-2.1-.4-.3-.6-.6-.9-1-.3-.5-.8-.9-1.3-1.3s-1-.7-1.3-1.2c-.1-.2-.4-.4-.6-.6-.1-.1-.3-.2-.5-.3-.3-.3-.5-.6-.8-.9s-.7-.4-1-.7c-.3-.2-.6-.4-.9-.6-.3-.1-.6-.4-.9-.6-.7-.6-1.5-1.2-2.4-1.7-.4-.2-.8-.5-1.1-.8-.5-.4-1.1-.9-1.8-1-.2 0-.3-.1-.5-.2-.4-.3-.4-.7.1-.9.6-.3 1.1-.7 1.8-.7.1 0 .2-.1.3-.1.9.2 1.8-.3 2.7-.4.7-.1 1.4-.1 2 .1.5.2 1 .3 1.5.3.8 0 1.5.1 2.3.5.2.1.4.1.7.1 1.5.3 2.8.9 4.1 1.6.4.2.8.3 1.2.6.3.3.8.4 1.2.7 0 0 .1 0 .1.1.5.3 1.1.2 1.5.6.4.5 1.1.5 1.5.9.4.3.9.6 1.4.9 1.4 1.1 2.9 1.9 4 3.3.1.1.3.3.4.4.6.4 1.3.9 1.6 1.6.1.2.2.3.4.4 1.2.8 1.9 2 2.6 3.2.3.6.6 1.1 1 1.7 0 .5.1 1 0 1.4"/><path d="m271 123.4c-.1-.7-.1-1.2.1-1.9.2-.6.2-1.3.3-2 .1-.4.2-.8.4-1.2.6-1.3 1.2-2.7 1.3-4.2.1-.6.3-1.2.4-1.7 0-.1 0-.3 0-.4-.5-.2-.8 0-1.1.3-.3.2-.5.6-.6.9-.4.8-1 1.5-1.5 2.3-.8 1.1-1.7 2.1-2.4 3.3-.4.6-.9 1.1-1.4 1.7-.5.5-1 1-1.5 1.6-.2.1-.5.1-.8-.1-.2-.4-.2-.8 0-1.3.4-.9.6-1.9.7-2.9 0-.1 0-.2 0-.3 0-.2-.3-.4-.5-.3-.3.1-.7.2-.8.6-.5 1.2-1.4 2.2-1.7 3.4-.1.3-.5.5-.5.9-.9.7-1 2-1.9 2.6-.4 1-1.2 1.2-2.1 1.3-.2 0-.3.1-.5.1-.5-.2-.6-.6-.5-.9.4-1.5.2-3.1.6-4.6 0-.2 0-.4.1-.5.2-.5.6-.9.7-1.3.1-.5.2-.9.5-1.3.2-.4.5-.8.4-1.3 0-.1 0-.3.1-.4.6-.7.8-1.5 1.3-2.3.4-.7.9-1.4 1.3-2.1.1-.2.3-.5.5-.6.9-.8 1.6-1.9 2.4-2.8.5-.6 1.1-1.1 1.8-1.5.6-.3 1-.7 1.5-1.2.6-.5 1.2-.9 1.9-1.1.8-.3 1.6-.7 2.5-.6.3 0 .5 0 .8.1.2 0 .4.2.7.2 1.1 0 1.9.6 2.6 1.4.9 1 1.7 2.2 1.9 3.6.1.5.2 1.1.3 1.6 0 .2.1.5 0 .7-.3.7-.2 1.5-.4 2.3-.2.9-.6 1.7-1.1 2.5-.3.5-.6.9-.9 1.4-.2.3-.3.7-.6.9-.6.7-1.2 1.3-1.8 2-.4.5-.8 1-1 1.6-.2.5-.5.9-.8 1.3-.4 0-.6.1-.7.2"/><path d="m159.9 12.9c.3-.6.6-1.3.9-1.9.4-.3.9-.3 1.4 0 .7.4 1.5.7 2.2 1.1 1.1.7 2.3 1 3.5 1.6 1.6.8 3.3 1.5 4.9 2.2.8.7 1.8.8 2.7 1.4.6.5 1.4.7 2.1.9.6.2 1.1.5 1.7.6.5.2.9.5 1.4.6s.9.4 1.4.6c1.9.8 3.8 1.7 5.7 2.5.1 0 .2.1.3.1 1.1.1 1.9.8 2.9 1.2s1.9.9 2.8 1.4c.3.1.6.3.9.4.4.2.8.3 1.2.6.3.2.7.3 1.1.5 1.3.6 2.6 1.2 3.9 1.7 1.6.7 3.1 1.3 4.6 2.3.2.1.5.2.7.3.7.3 1.5.7 2.2 1.1 1.2.6 2.5 1.1 3.8 1.6.2.1.4.1.5.2 1.6 1.1 3.5 1.7 5.1 2.7 1.6.9 3.4 1.5 4.9 2.5.1.1.3.1.4.2.9.3 1.6.8 2.4 1.3 1 .6 2 1.2 3.1 1.7.5.2.9.4 1.4.6.4.2.9.3 1.4.6.3.2.5.4.6.8-.1.2-.3.4-.5.6-.4.3-.8.6-1.2.9s-.9.3-1.3.1c-.7-.3-1.4-.7-2.1-.9-.7-.3-1.3-.8-2.1-1-.6-.6-1.5-.9-2.2-1.3-1.2-.7-2.4-1.4-3.6-1.9-1.6-.6-3-1.6-4.6-2.2-.7-.6-1.6-.8-2.3-1.2-1-.6-2.1-1.1-3.2-1.5-1.4-.5-2.7-1.2-4.1-1.9-.5-.3-1.1-.5-1.6-.7-.8-.4-1.6-.7-2.3-1.1-.6-.4-1.2-.6-1.9-.9-1.3-.6-2.6-1.3-4-1.9-1.7-.7-3.2-1.5-4.8-2.3-.9-.5-2-.8-2.9-1.1-.2-.1-.4-.1-.5-.2-.7-.7-1.6-.9-2.4-1.3s-1.5-.9-2.3-1.2c-.9-.3-1.7-.7-2.6-1s-1.7-.8-2.5-1.1c-.2-.1-.3-.2-.5-.2-.7-.2-1.5-.3-2.1-1-.9-.2-1.6-.7-2.4-1.1-1.5-.7-3-1.5-4.5-2.1-1.1-.4-2.1-1.1-3.3-1.3-.1 0-.3-.1-.3-.2-.2-.4-.7-.3-.9-.6-.2-.2-.6-.2-.9-.3-1.1-.5-1.8-.9-2.2-1.5"/><path d="m201.9 122.6c-.7.3-1.4.2-2.1.1-1.1-.2-2.2-.4-3.3-.2-.4.1-.8 0-1.2-.1s-.9-.2-1.3-.3c-.2-.4-.2-.6.1-1 .7 0 1.5-.2 2.3-.5.2-.1.5-.1.7-.1 1.3 0 2.6.1 3.9.2h.3c1.2-.3 2.4 0 3.5.1.8.1 1.7 0 2.5.3.2.1.5 0 .7 0 .7 0 1.5-.1 2.2.2.2.1.4.1.5.1 1-.1 1.9.1 2.9.1.3 0 .6 0 .9.1.9.3 1.9.3 2.8.3.3 0 .6.1 1 .1.2 0 .4.1.5.1 1.2-.1 2.3.3 3.5.5.4.1.7.1 1.1 0 .4-.2.8-.1 1.2 0 .6.2 1.2.3 1.9.4 1 .1 1.9.6 2.9.9s2 .5 3 .6c1.2.1 2.4.5 3.6.8.6.1 1.2.3 1.9.4.3.1.7.1.9.2 1.5.7 3.2.9 4.7 1.6.7.3 1.3.6 2 1 .5.3.7.7.6 1.3 0 .1 0 .2-.1.3-.2 1-.5 2-.6 3.1-.1.6-.6.9-1.2.7-.2-.1-.4-.4-.7-.4-.9-.1-1.4-.7-2.3-.9-.7-.2-1.4-.6-2.1-.9-.3-.2-.7-.3-1-.3s-.5-.1-.8-.2c-1.4-.4-2.9-.9-4.3-1.4s-2.7-1-4.2-1.3c-.2 0-.4 0-.5-.1-.7-.6-1.6-.6-2.4-.9-.5-.1-1 .1-1.5-.1s-1-.3-1.5-.3c-.4 0-.7-.2-1.1-.2-.6-.1-1.2-.4-1.9-.2-.3.1-.7-.1-1.1-.2-.6-.2-1.3-.4-2-.5-.1 0-.2 0-.3 0-.7-.4-1.6-.4-2.4-.6-.7-.2-1.5-.4-2.3-.4-1-.4-2.1-.4-3.2-.7-1.1-.2-2.2-.2-3.3-.4-.4-.1-.9 0-1.3-.4-.1-.1-.2-.1-.3-.1-.5-.1-1.2-.5-1.8-.8"/><path d="m362.9 109.8c.3 0 .5 0 .7.1 1.1.6 2.4.6 3.3 1.7.1.8-.3 1.5-.9 2-.3.3-.7.3-1 .1-.2-.1-.4-.3-.6-.4-1.3-.8-2.8-1.4-4.2-2-.6-.2-1.2-.5-1.7-.9-.8-.5-1.6-.8-2.4-1.4s-1.7-.9-2.6-1.3c-.5-.2-.9-.4-1.3-.7-.5-.4-1.1-.6-1.7-.8s-1.1-.5-1.6-.8-1-.6-1.6-.8c-.7-.3-1.4-.7-2.1-1s-1.4-.8-2.1-1.1c-.8-.4-1.5-1-2.5-1.2-.9-.9-2.2-1-3.3-1.7-.5-.3-1-.6-1.6-.9-.4-.2-.7-.5-1.1-.4-.1 0-.3-.1-.5-.2-1.7-1-3.3-2.1-5.1-2.8-1.1-.5-2.2-1.1-3.2-1.7-1.2-.8-2.6-1.3-3.9-1.9-.6 0-1-.4-1.5-.7-1.7-.9-3.6-1.7-5.3-2.7-.2-.1-.5-.2-.8-.3-.7-.3-1.4-.4-2-.9-.1-.1-.3-.2-.5-.2-.6-.1-1.1-.5-1.6-.9.1-.9.7-1.5 1.2-2.2.7.1 1.3.3 1.9.6s1.4.5 1.9 1c1.8.6 3.4 1.6 5.1 2.5.3.2.7.2 1 .4 1.8.9 3.6 1.8 5.4 2.7 1.3.7 2.5 1.6 3.9 1.9 1.5.8 3.1 1.4 4.5 2.4.1.1.3.2.5.3 2.1.8 4 1.9 6 2.9.7.4 1.4.7 2.2 1.1.7.4 1.4.6 2.1 1 .7.3 1.3.7 1.9 1 .3.2.6.3.9.4.7.3 1.3.8 2 1.1 1.1.5 2.2 1.2 3.3 1.7l5.7 3c.3.1.6.4.9.4 1.2.5 1.8.9 2.3 1.6"/><path d="m307.1 178.2c1.1.1 2.1.4 3.1.7.8.2 1.7.5 2.6.5.3 0 .6.1.9.2.5.2 1.1.2 1.6 0 .3-.1.6-.1.9-.2 1.1-.4 2.2-.2 3.3-.5.1 0 .3-.1.4 0 .9.3 1.9.1 2.8.5.6.2 1.2.6 1.9.5.1 0 .3.1.4.1.7.4 1.4.8 2.2 1.2.9.4 1.5 1.2 2.1 2 .7.9 1.2 1.9 1.6 2.9s.6 2.1.1 3.2c-.1.2-.2.5-.4.7-.3.2-.6.4-.9.7-.6.5-1.4.6-2.1.4-.4-.1-.8-.1-1.2-.2-.9-.1-1.8-.5-2.6-.8-1.1-.4-2.1-1.1-3.1-1.7-.2-.1-.3-.2-.4-.3-.3-.4-.6-.6-1-.8s-.7-.5-1-.7c-.2-.2-.4-.3-.7-.5-.2-.1-.4-.3-.6-.4-.6-.1-1-.5-1.4-.8s-.6-.7-1.2-.7c-.1 0-.2-.1-.2-.1-.2-.5-.8-.6-1.2-.9s-.9-.5-1.3-.7c-.2-.1-.3-.2-.5-.3-1.3-1-2.2-1.3-4-1.6-.3 0-.5-.1-.8-.2-.3 0-.6 0-.8.1-.9.5-2 .5-3 .9-.1 0-.2 0-.3 0-.2 0-.5-.1-.6-.3s-.1-.6 0-.8c.4-.5.7-1.2 1.5-1.3.4-.5 1-.5 1.6-.5.3 0 .6-.1.9-.2.5 0 1 0 1.4-.1"/><path d="m137.8.7c.4-.1.5-.2.7-.2.4 0 .9.1 1.3.2.7.2 1.4.2 2.1.4.6.2 1.3.3 2 .4 2.4.5 4.7.9 7.1 1.4.8-.1 1.6.3 2.4.3h.1c.8.5 1.8.3 2.7.6s1.8.4 2.7.5c.5.1 1 .1 1.5.3.4.1.6.5.4.8-.6 1.1-.9 2.4-1.7 3.4-.4.5-.6 1.2-1.1 1.7 0 .5-.3.9-.6 1.4-.7 1-1.1 2.2-1.6 3.3-.2.5-.2.5-.9.8-.4-.4-.8-.7-1.2-1.1-1-.9-1.9-1.7-2.9-2.6-.3-.2-.6-.5-.9-.7-.9-.7-1.7-1.6-2.6-2.4s-1.9-1.6-2.8-2.4c-1.8-1.7-3.8-3.1-5.6-4.9-.2-.2-.4-.2-.6-.4 0-.2-.2-.4-.5-.8"/><path d="m385.2 175.2c-.2.7-.6 1-1.1 1-.4 0-.7.1-1.1.1-.4.1-.9 0-1.4.1-.6 0-1.1.2-1.6.2s-1 0-1.5.1c-.6.1-1.3.1-1.9-.1-.9-.3-1.9-.1-2.8-.4-.7.1-1.5-.1-2.2-.1-.9 0-1.7-.5-2.6-.4-.4 0-.6-.5-1.1-.5-.4 0-.8.1-1.2-.1-.5-.2-1-.5-1.4-.7-.1-.4.2-.5.3-.8.2-.1.5-.2.8-.2 1 0 1.8-.6 2.6-1.2.4-.3.6-.8 1.2-.9.5-.1.7-.6 1.1-.8s.6-.5 1-.8c.6-.5 1.2-1.1 1.9-1.6.4-.3.9-.4 1.4-.4.9-.1 1.8 0 2.7 0 .6.5 1.1.9 1.7 1.3s1 .9 1.4 1.5c.3.4.6.8 1 1.1s.8.8 1.1 1.2c.5.9 1.1 1.6 1.7 2.4"/><path d="m268.4 29.1c-.6.4-1.1.8-1.7.5-.6.2-1.2.3-1.9.5-.5.1-1 .3-1.5.3-1.2.1-2.3.6-3.4 1.1-1.2.6-2.4 1.2-3.7 1.8-.5.3-1.1.4-1.7.4-1.4.2-2.7.2-4.1.4-1 .1-2.1-.1-3.1-.1-.8 0-1.6.1-2.3-.2-.3-.1-.6 0-1 0-.3 0-.6 0-1-.1-.5-.1-.7-.8-.3-1.1.8-.6 1.1-1.6 2-2.1.3-.2.4-.6.5-.9.1-.6.6-.9 1.2-1 .3-.1.6-.1.8-.1 1.1.1 2.2.1 3.3.4 1 .3 2 .6 3.1.3h.4c1.2.2 1.2.2 2.7-.3.1 0 .2-.1.3 0 .7.3 1.3 0 1.8-.3.7-.3 1.5-.4 2.3-.5.7 0 1.4 0 2.1-.1.5 0 .9-.1 1.3 0 .3.1.5 0 .8 0 .1 0 .3-.1.4-.1.7.4 1.5.4 2.2.6.2.3.3.4.5.6"/><path d="m167.8 64.6c.5.2.9.3 1.4.5v.8c-.1.4-.2.7-.3 1.1-.4 1.5-.7 2.9-.8 4.5 0 .5-.2 1.1-.3 1.6-.1.3-.5.5-.8.3-.2-.1-.5-.3-.7-.4-.7-.4-1.3-.9-2-1.2s-1.3-.7-2-.9c-.7-.1-1.4-.5-2-.8-1.8-.7-3.5-1.5-5.3-2.2-.8-.3-1.5-.5-2.3-.9-.4-.2-.7-.4-1.1-.6-.1-.1-.2-.3-.1-.5.1-.1.3-.2.4-.2.2 0 .5.2.6.1.9-.3 1.8-.2 2.7-.2.5 0 .9 0 1.4-.1 1.1-.3 2.2-.3 3.3-.3.1 0 .3 0 .4-.1.8-.4 1.7-.3 2.6-.3 1.5 0 3 0 4.5-.2.2.1.3 0 .4 0"/><path d="m175.1 43.6c-.3.1-.5.2-.7.4-.9-.4-1.6-.9-2.6-.9-.1 0-.2 0-.3-.1-.5-.2-1.1-.5-1.6-.8-.5-.2-1.1-.3-1.7-.5-.6-.3-1.3-.6-2-.9-.4-.2-.8-.4-1.3-.6-.3-.1-.6-.3-.9-.4-.7-.1-1.2-.4-1.7-.8 0-.3.1-.4.3-.6 1.6-.9 3.4-1.5 5.2-1.6.8 0 1.5-.3 2.3.1.1.1.3-.1.5-.1.3-.1.6-.2.9 0s.7.2 1.1.2c.6-.1 1.1.1 1.6.2s.7.7 1.2.4c.4.2.7.3 1.1.5.2.1.3.3.3.6 0 .2 0 .5-.1.7-.4 1-.8 2-1.3 3 0 .5-.2.8-.3 1.2"/><path d="m439.9 83.8c-.8-.1-1.4-.2-2-.3-1-.1-1.9-.3-2.6-1-.1-.1-.3-.2-.5-.1-.1 0-.3 0-.4-.1-.8-.8-1.9-1.3-2.9-1.9s-2.1-1.1-3.2-1.6c-.2-.1-.3-.2-.5-.2-1.1 0-1.9-.6-2.5-1.5 0 0-.1-.1-.1-.1.1-.4.3-.7.8-.6.8.1 1.5-.3 2.3-.1.7-.3 1.5-.1 2.2-.3.7-.1 1.3-.1 1.9 0 .5.1 1.1.4 1.6.2.1 0 .2.1.4.2s.4.2.6.3c1.1.4 2 1.1 2.7 2 .1.1.3.3.4.4.5 1.2 1.2 2.1 1.9 3.2.1.6.1 1-.1 1.5"/><path d="m162.2 41.6c.4.2.9.3 1.3.6.4.4 1 .4 1.4.7.4.4.9.5 1.4.6.1 0 .2.1.3.2 1 .8 2.2 1.4 3.3 1.9.4.2.7.4 1.1.6.4.3.5.7 1 .9.5.6.7 1.2.4 1.9-.1.3-.3.6-.4.9-.6 1-1.5 1.2-2.5 1.1-.5-.1-1.1-.1-1.5-.7-1.5-.7-2.4-2.1-3.4-3.3-.3-.3-.5-.6-.8-.9s-.6-.6-.7-1c0-.1-.1-.2-.1-.2-.8-.5-.8-1.4-1.1-2.2-.2-.3-.2-.7.3-1.1"/><path d="m424.2 145.5c-.3.3-.7.3-1 .1-1-.6-2.1-1-3-1.7-1-.7-2.1-.9-3.2-1.2s-2.2-.3-3.2-.6c-.6.4-1.1-.1-1.7-.2-.2 0-.4 0-.5 0-1.2.1-2.4.1-3.5.5-.4-.2-.8-.4-1.2-.6-.1-.2-.1-.4-.2-.6-.1-.3 0-.5.3-.7.2-.1.4-.3.6-.3.6-.1 1.3 0 1.8-.4h1.8c.6.1 1.3-.1 1.9.1s1.2.2 1.7.4c.3.1.6.1 1 .1 1-.1 1.9.2 2.8.6 1 .5 2.1 1.1 3.1 1.8.4.3.8.5 1 .9.3.3.6.6.9.8.4.2.5.5.6 1"/><path d="m232.9 118.5c-.3-.1-.5-.3-.4-.5.2-1 .2-2.1.2-3.1 0-.4.1-.7.3-1.1.3-.7.4-1.4.5-2.1.1-.6.3-1.1.4-1.7 0-.3 0-.6.3-.9.5-.5.5-1.3 1-1.9.2 0 .5 0 .7.1 1 .5 2 1.1 3 1.7.1 0 .1.1.2.2.2.2.2.6 0 .8-.1.1-.2.2-.3.3-1.1.9-2.1 1.9-2.8 3.2-.2.4-.6.8-.9 1.2-.4.5-.8 1.1-1 1.8-.4.6-.8 1.3-1.2 2"/><path d="m332.7 151.3c0-.1 0-.2 0-.2.2-1.1 1-1.8 2.1-2.1l.6-.3c1.2-.5 2.3-.4 3.4.3.4.3.7.5 1 1-.2.4-.3.9-.5 1.3-1.1.9-2.4 1-3.6 1.4-.2.1-.5.1-.7.1-1.6 0-1.8-.1-2.3-1.5"/><path d="m331.8 144.1c.3-.4.7-.8 1-1.1.9-.2 1.8-.4 2.6-.6h.8c.4.1.8.3 1.3.5.1.3.2.6.2.9-.5.8-1.1 1.4-1.9 2-.2.2-1.4.2-1.9.1s-1-.2-1.5-.4c-.2-.3-.6-.7-.6-1.4"/><path d="m335.5 138.7c-.2.2-.5.3-.7.6-.4.3-.8.5-1.2.4s-.7.3-1.1.1-.8-.4-1.1-.9c.2-1.1.9-1.6 1.9-1.8.4-.1.8-.2 1.2-.2 1 .1.9 1 1 1.8"/><path d="m334.2 132.3c-.3 1.2-1.4 1.3-2.2 1.7-.5-.2-1-.3-1.4-.7.2-.9.4-1.1.9-1.4.4-.2.7-.3 1.1-.4s.7 0 1 .2.4.3.6.6"/><path d="m318.9 40.4c-.5-.6-.8-1.1-.8-1.7 0-.2 0-.4 0-.7 0-.2.1-.5.1-.7-.2-.7 0-1.3.1-2 .1-.8.9-1.3 1.6-1 .5.2.8.6.9 1.1.1.8.2 1.6.2 2.3s-.3 1.4-.5 2.1c-.1.3-.4.5-.8.5-.3.1-.5.1-.8.1"/><path d="m305.8 33.1c1.1-.3 1.9 0 2.6.7.3.5 0 1-.3 1.4s-.7.6-1.2.5c-.9 0-1.7-1-1.4-1.9 0-.3.2-.5.3-.7"/><path d="m334 34.1c-.1 1-.3 1.2-1.1 1.4-.2 0-.4.1-.7.1-.4 0-.8-.2-1.1-.5-.4-.5-.5-1.1-.4-1.8 1.3-.7 2.3-.1 3.3.8"/><path d="m296.5 32.3c.1.5.1 1 .2 1.6-.2.1-.4.2-.6.2-.6 0-1.2 0-1.8 0-.4 0-.7-.3-.7-.7-.1-.4-.2-.7.1-1.1.5-.2 1-.3 1.6-.1.3 0 .7 0 1.2.1"/><path d="m200.7 14c1.3-.3 2.7-.2 3.6.9.7.9 1.3 2 .4 3.9-.9.3-1.7-.1-2.4-.4-.9-.4-1.7-.9-2.6-1.3-1.1-.5-1.2-1.4-.3-2.2.4-.4.9-.6 1.3-.9"/><path d="m188.9 11.5c.1-.5.1-.9.2-1.3.3-.4.7-.6 1.1-.8.8-.4 1.5-.3 2.2.1.4.2.9.5 1.3.8.1.1.3.2.4.4.6 1 .6 2.1.1 3.1-1 .2-1.8-.1-2.6-.5-1-.6-2-.9-2.7-1.8"/><path d="m239.6 77.2v1.3c.1.4.2.8.3 1.2.2.6.6 1.2 1.2 1.5.5.2.9.5 1.4.6s1.1.2 1.6-.1c.7-.5 1.4-.9 2.1-1.3.1-.1.3-.3.3-.4.3-.6.7-1.1.9-1.7.1-.3.2-.7.2-1.1 0-.5 0-1.1-.1-1.6-.1-.9-.3-1.8-1-2.5-.2-.2-.4-.5-.6-.8-.4-.1-.7-.3-1.1-.4-.1-.7-.4-1.4 0-2-.2-.5.1-1.1.1-1.6 0-.1-.1-.2-.1-.3.1-.5.4-1 .3-1.6-.1-.5 0-1 .1-1.5 0-.6.4-.7.9-.6 1.5.4 2.8 1.1 3.9 2.2.1.1.3.2.3.3.4 1 1.2 1.8 1.5 2.8.3.9.6 1.7.6 2.7-.1 1.1-.2 2.2-.4 3.3-.1.5-.2 1-.4 1.4s-.4.8-.6 1.2c-.3.6-.6 1.2-.8 1.9-.3.7-.8 1.4-1.5 1.8-.5.3-.7.9-1.4 1.1-.5.1-.9.5-1.3.7-.2.1-.3.1-.5.2-1.2.1-2.5.2-3.7 0-.7-.1-1.4-.3-2.1-.7-.5-.3-1-.8-1.4-1.3-.1-.1-.2-.2-.2-.3-.1-.7-.3-1.5-.3-2.2 0-.6.3-1.3.4-1.9.1-.2.2-.4.4-.5.5-.1.8 0 1 .2"/><path d="m250.3 55.4c0 .1-.1.2-.1.3 0 1.2-.6 2.1-1.1 3-.1.2-.3.5-.5.6-.6.5-1.3.9-2 1.1-.5.1-.9-.2-.8-.6.2-1 .1-2.1.2-3.1.1-.8.2-1.6.2-2.4s.2-1.5.3-2.3c0-.1.1-.1.2-.3 1.4.1 2.4.8 3 2.2.2.5.3.9.6 1.5"/><path d="m245.1 74.2c.2.2.3.2.3.3.5.9.3 2.5-.4 3.2-.2.2-.6.3-.9.2-.2-.1-.4-.2-.4-.5.1-1.2.3-2.4 1.4-3.2"/><path d="m76.3 315.6c-3.3-4.5-8.9-6.7-11.7-7.2-.6 0-.6-1.1 0-1.1 2.8-2.8 12.2-12.2 12.2-25.6 0-15.6-4.5-21.7-4.5-21.7-8.9-12.2-19.5-12.2-19.5-12.2h-52.8v3.9c1.1 0 11.7.6 11.7 12.8v90.2c0 10-11.7 11.1-11.7 11.1v5h59c1.7 0 3.9-.6 5.6-1.1h.6c3.9-1.7 7.2-3.9 10.6-7.2 3.3-3.9 7.2-13.9 7.2-23.9 0-12.4-2.8-18-6.7-23m-45.7-55.1c0-4.5 6.1-5 6.1-5h3.3c6.1 0 12.8 3.9 15.6 9.5 2.8 7.8 2.8 17.3 2.2 23.4-.6 4.5-2.2 8.9-5 12.8-1.1 1.7-2.8 2.8-3.9 3.3-1.7 1.1-3.3 1.1-5 1.1h-6.7c-2.2 0-3.9-1.1-5.6-2.8-.6-1.1-1.1-1.7-1.1-2.8v-39.5zm32.3 88.5c-2.2 7.8-8.4 14.5-15 14.5h-11.2c-2.2 0-3.3-1.7-5-3.3-.6-1.1-1.1-1.7-1.1-2.8v-39.5c0-4.5 6.1-5 6.1-5h10.6c6.1 0 11.7 3.9 13.9 9.5 3.9 7.7 3.4 20.5 1.7 26.6"/><path d="m154.8 365.7v4.5h-22.3c-1.1 0-1.7-1.1-1.7-1.7v-4.5c-2.2 1.7-5.6 3.9-10.6 5-2.8.6-6.1 1.1-9.5 1.1-14.5 0-14.5-16.1-14.5-16.1v-44c0-1.1-.6-2.8-1.1-3.9-1.1-1.7-3.9-2.8-7.2-2.8v-3.3l25.1-3.3v55.7c0 3.9 3.3 6.7 6.1 6.7 3.9 0 8.9-3.3 11.7-5.6v-43.5c0-1.1-.6-2.8-1.1-3.9-1.1-1.7-3.9-2.8-7.2-2.8v-3.3l25.1-3.3v58.5c0 2.2.6 3.9 1.7 6.1.5 2.2 2.1 4.4 5.5 4.4"/><path d="m212.1 307.8-.6 6.7c0 2.2-1.1 5-3.3 6.1l-6.1 4.5c-1.1.6-2.2 0-2.2-1.1s0-2.2 0-3.3c0-2.2 0-4.5-.6-6.7-.6-1.7-1.7-3.3-3.3-3.9-2.2-1.1-4.5 0-6.1 1.7-.6.6-1.7 1.1-2.2 2.2-.6.6-1.1 1.1-1.7 1.7v41.2c0 2.2 1.1 5 2.2 6.7 1.7 2.2 5.6 3.3 8.9 3.3v4.5h-35.6v-4.5c3.3 0 5-2.2 6.1-3.9s1.7-3.9 1.7-6.1v-45.7c0-1.1-.6-2.2-1.1-2.8-1.1-1.7-3.9-2.8-7.2-2.8v-3.9l8.4-1.1 16.7-2.2v8.9l9.5-7.2s3.3-3.3 7.8-3.3c4.8-.7 8.7 3.8 8.7 11"/><path d="m252.8 297.2c-7.8 0-12.8 3.9-15.6 6.7v-53.4l-25.1 3.3v3.9c3.9 0 6.1 1.7 7.2 2.8.6 1.1 1.1 2.2 1.1 3.9v104.6h3.3s2.8-4.5 8.4-1.1c6.1 3.9 11.7 3.9 15.6 4.5 12.2 1.1 30.1-7.2 30.1-38.4 0-27.9-13.4-36.8-25-36.8m7.7 42.3c0 16.7-4.5 23.9-11.7 24.5h-2.8c-5 0-9.5-5-9.5-13.9v-23.9c0-11.1 5.6-19.5 11.1-19.5h1.1c5.6 0 11.7 6.7 11.7 21.2v11.6z"/><path d="m397.5 307.8-.6 6.7c0 2.2-1.1 5-3.3 6.1l-6.1 4.5c-1.1.6-2.2 0-2.2-1.1s0-2.2 0-3.3c0-2.2 0-4.5-.6-6.7-.6-1.7-1.7-3.3-3.3-3.9-2.2-1.1-4.5 0-6.1 1.7-.6.6-1.7 1.1-2.2 2.2-.6.6-1.1 1.1-1.7 1.7v41.2c0 2.2 1.1 5 2.2 6.7 1.7 2.2 5.6 3.3 8.9 3.3v4.5h-35.6v-4.5c3.3 0 5-2.2 6.1-3.9s1.7-3.9 1.7-6.1v-45.7c0-1.1-.6-2.2-1.1-2.8-1.1-1.7-3.9-2.8-7.2-2.8v-3.9l8.4-1.1 16.7-2.2v8.9l9.5-7.2s3.3-3.3 7.8-3.3c4.8-.7 8.7 3.8 8.7 11"/><path d="m455.4 307.8-.6 6.7c0 2.2-1.1 5-3.3 6.1l-6.1 4.5c-1.1.6-2.2 0-2.2-1.1s0-2.2 0-3.3c0-2.2 0-4.5-.6-6.7-.6-1.7-1.7-3.3-3.3-3.9-2.2-1.1-4.5 0-6.1 1.7-.6.6-1.7 1.1-2.2 2.2-.6.6-1.1 1.1-1.7 1.7v41.2c0 2.2 1.1 5 2.2 6.7 1.7 2.2 5.6 3.3 8.9 3.3v4.5h-35.6v-4.5c3.3 0 5-2.2 6.1-3.9s1.7-3.9 1.7-6.1v-45.7c0-1.1-.6-2.2-1.1-2.8-1.1-1.7-3.9-2.8-7.2-2.8v-3.9l8.4-1.1 16.7-2.2v8.9l9.5-7.2s3.3-3.3 7.8-3.3c4.8-.7 8.7 3.8 8.7 11"/><path d="m340.2 325.6c-1.1-11.7-7.2-23.4-18.4-27.8-10.6-3.9-21.7 3.3-27.8 11.7-7.2 10-7.8 23.4-5.6 35.6.6 4.5 2.2 8.9 4.5 12.8 3.3 5.6 7.8 10.6 14.5 12.8 6.1 2.2 13.4 2.2 19.5-.6 2.8-1.1 5.6-3.3 7.8-6.1 1.1-1.1 2.2-2.2 2.8-3.9 0-.6.6-.6.6-1.1v-.6-3.9c0-.6-.6-1.1-1.1-1.1s-1.1 0-1.1.6c-1.1 1.1-3.3 3.9-7.2 6.1-1.7 1.1-3.3 1.7-5.6 1.7-13.9 1.1-17.8-15-18.4-25.6h33.4c1.1 0 2.2-1.1 2.2-2.2-.1-3.4-.1-7.3-.1-8.4m-35.1 1.1c0-3.9.6-7.2 1.1-11.1 1.1-5 3.3-10 8.4-10.6 7.2-1.1 9.5 8.9 9.5 13.4v7.2c0 .6-.6 1.1-1.1 1.1z"/><path d="m504.4 298.3v3.3s5.6 1.1 7.2 6.7c0 0 1.7 5.6-.6 11.1l-11.1 30.1-10-30.1c-2.2-5.6-.6-11.1-.6-11.1 1.7-5.6 7.2-6.7 7.2-6.7v-3.3h-34.5v3.3s5.6.6 6.7 5l21.7 67.4c-.6 3.9-3.3 13.9-8.9 16.1 0 0-5 1.1-7.8-.6-2.2-1.7-3.3-5.6-3.3-7.8 0-2.8.6-5.6 1.7-8.4 0-.6 0-.6 0-1.1v-.6c0-.6-.6-1.1-1.1-1.1h-.6s0 0-.6 0c-1.1.6-10.6 5-10.6 15.6 0 13.9 8.4 16.7 11.7 16.7 6.7 0 13.4.6 25.1-29.5l23.9-65.7c1.7-5 8.4-6.1 8.4-6.1v-3.3z"/><path d="m573.4 335.1c-2.8-3.3-6.7-6.1-15-11.1-7.2-4.5-11.1-6.1-12.2-10-.6-2.8-.6-6.1 1.7-8.4 2.8-2.8 6.7-2.8 8.4-2.2 5.6.6 8.9 3.9 10 5 4.5 5 4.5 11.1 4.5 12.8h3.3v-21.2h-3.9s0 1.7-1.1 2.2c-.6 0-1.1 0-1.1 0-1.1-.6-1.7-.6-2.8-1.1-4.5-2.8-8.9-2.8-10-2.8-1.7 0-6.1-.6-10.6 2.2-6.7 3.3-9.5 9.5-10 11.7-.6 1.1-3.3 8.9.6 17.3 2.8 6.1 8.4 9.5 12.2 11.7 1.1.6 7.2 3.9 13.4 7.8 1.1.6 2.8 1.7 3.9 3.9 1.7 2.8 1.1 6.1 1.1 7.2s-.6 4.5-3.9 6.7c-2.8 2.2-5.6 1.7-7.2 1.7-4.5 0-7.8-2.2-8.9-2.8-3.9-2.2-5.6-5.6-7.2-9.5-1.7-3.3-2.8-6.7-3.9-8.9h-3.3v22.8h3.9s0-1.7 1.1-2.2h1.1c1.1.6 1.1.6 2.2 1.1 1.7 1.1 5 3.3 9.5 4.5 2.2.6 10 1.7 17.8-2.8 1.1-.6 8.4-5.6 10.6-14.5 2-11.7-3.6-19.5-4.2-21.1"/></g></svg>