<svg enable-background="new 0 0 394.5 43.5" viewBox="0 0 394.5 43.5" xmlns="http://www.w3.org/2000/svg"><g fill="#fff"><path d="m14.8.4v6.2h-5.4v11.2h4.4v6.5h-4.4v12.3h5.7v6.5h-10.1v-42.7z"/><path d="m20.3.4 3.7 22.8v-22.8h3.9v42.6h-3.5l-4.2-24.5v24.5h-3.9v-42.6z"/><path d="m40.7.4v6.2h-3.6v36.4h-4.3v-36.5h-3.6v-6.1z"/><path d="m51.8.4v6.2h-5.5v11.2h4.4v6.5h-4.4v12.3h5.7v6.5h-10v-42.7z"/><path d="m57.8 42.9h-4.4v-42.5h7c2.9 0 4.4 1.7 4.4 6.5v7.6c0 3.5-1.1 5-1.9 5.5 1 .6 1.9 1.7 1.9 4.6v14.9c0 1.7.3 2.5.5 3.2v.3h-4.3c-.2-.5-.5-1.2-.5-3.5v-12.8c0-1.9-.3-2.7-1.6-2.7h-1.1zm0-25h1.2c1.2 0 1.5-1.2 1.5-3v-6c0-1.8-.3-2.7-1.5-2.7h-1.2z"/><path d="m81.4.4v6.2h-3.6v36.4h-4.3v-36.5h-3.6v-6.1z"/><path d="m87 42.9h-4.4v-42.5h4.4v17h3v-17h4.4v42.6h-4.4v-18.7h-3z"/><path d="m105.9.4v6.2h-5.5v11.2h4.4v6.5h-4.4v12.3h5.7v6.5h-10.1v-42.7z"/><path d="m118 34.9h-3.2l-.5 8h-3.9l3.5-42.6h5.2l3.7 42.6h-4.2zm-2.8-6.3h2.3l-1.2-15.7z"/><path d="m127.9 42.9h-4.4v-42.5h7c2.9 0 4.4 1.7 4.4 6.5v7.6c0 3.5-1.1 5-1.9 5.5 1 .6 1.9 1.7 1.9 4.6v14.9c0 1.7.3 2.5.5 3.2v.3h-4.3c-.2-.5-.5-1.2-.5-3.5v-12.8c0-1.9-.3-2.7-1.6-2.7h-1.1zm0-25h1.2c1.2 0 1.5-1.2 1.5-3v-6c0-1.8-.3-2.7-1.5-2.7h-1.2z"/><path d="m143.7 24.5h4.3v9.8c0 4.5-1 9.2-5.2 9.2h-1c-4.5 0-5.4-4.7-5.4-9v-25.9c0-4.4 1.3-8.6 5.2-8.6h1c4.7 0 5.3 4.7 5.3 8.8v7.6h-4.3v-7.4c0-1.8-.4-2.8-1.5-2.8s-1.4.9-1.4 2.8v25.3c0 1.9.5 2.9 1.4 2.9 1 0 1.5-1.1 1.5-2.8z"/><path d="m153.8 42.9h-4.4v-42.5h4.4v17h3v-17h4.4v42.6h-4.4v-18.7h-3z"/><path d="m167.2 42.9h-4.4v-42.5h4.4z"/><path d="m168.2.4h4.5l2 29.3 2-29.3h4.1l-3.6 42.6h-5.3z"/><path d="m191.4.4v6.2h-5.5v11.2h4.4v6.5h-4.4v12.3h5.7v6.5h-10.1v-42.7z"/><path d="m212.2.4v6.2h-5.5v11.2h4.4v6.5h-4.4v12.3h5.7v6.5h-10.1v-42.7z"/><path d="m217.7.4 3.7 22.8v-22.8h3.9v42.6h-3.5l-4.2-24.5v24.5h-3.8v-42.6z"/><path d="m238.2.4v6.2h-3.6v36.4h-4.3v-36.5h-3.6v-6.1z"/><path d="m249.3.4v6.2h-5.5v11.2h4.4v6.5h-4.4v12.3h5.7v6.5h-10.1v-42.7z"/><path d="m255.2 42.9h-4.4v-42.5h7c2.9 0 4.4 1.7 4.4 6.5v7.6c0 3.5-1.1 5-1.9 5.5 1 .6 1.9 1.7 1.9 4.6v14.9c0 1.7.3 2.5.5 3.2v.3h-4.3c-.2-.5-.5-1.2-.5-3.5v-12.8c0-1.9-.3-2.7-1.6-2.7h-1.1zm0-25h1.2c1.2 0 1.5-1.2 1.5-3v-6c0-1.8-.3-2.7-1.5-2.7h-1.2z"/><path d="m278.8.4v6.2h-3.6v36.4h-4.3v-36.5h-3.6v-6.1z"/><path d="m284.4 42.9h-4.4v-42.5h4.4v17h3v-17h4.4v42.6h-4.4v-18.7h-3z"/><path d="m303.3.4v6.2h-5.5v11.2h4.4v6.5h-4.4v12.3h5.7v6.5h-10.1v-42.7z"/><path d="m315.4 34.9h-3.2l-.5 8h-3.9l3.5-42.6h5.2l3.7 42.6h-4.2zm-2.7-6.3h2.3l-1.2-15.7z"/><path d="m325.3 42.9h-4.4v-42.5h7c2.9 0 4.4 1.7 4.4 6.5v7.6c0 3.5-1.1 5-1.9 5.5 1 .6 1.9 1.7 1.9 4.6v14.9c0 1.7.3 2.5.5 3.2v.3h-4.3c-.2-.5-.5-1.2-.5-3.5v-12.8c0-1.9-.3-2.7-1.6-2.7h-1.1zm0-25h1.2c1.2 0 1.5-1.2 1.5-3v-6c0-1.8-.3-2.7-1.5-2.7h-1.2z"/><path d="m341.1 24.5h4.3v9.8c0 4.5-1 9.2-5.2 9.2h-1c-4.5 0-5.4-4.7-5.4-9v-25.9c0-4.4 1.3-8.6 5.2-8.6h1c4.7 0 5.3 4.7 5.3 8.8v7.6h-4.2v-7.4c0-1.8-.4-2.8-1.5-2.8s-1.4.9-1.4 2.8v25.3c0 1.9.5 2.9 1.4 2.9 1 0 1.5-1.1 1.5-2.8z"/><path d="m351.2 42.9h-4.4v-42.5h4.4v17h3v-17h4.4v42.6h-4.4v-18.7h-3z"/><path d="m364.6 42.9h-4.4v-42.5h4.4z"/><path d="m365.6.4h4.5l2 29.3 2-29.3h4.1l-3.6 42.6h-5.3z"/><path d="m388.8.4v6.2h-5.5v11.2h4.4v6.5h-4.4v12.3h5.7v6.5h-10.1v-42.7z"/></g></svg>