<svg viewBox="0 0 394.5 43.5" xmlns="http://www.w3.org/2000/svg"><path d="M14.8.4v6.2H9.4v11.2h4.4v6.5H9.4v12.3h5.7v6.5H5V.4zm5.5 0L24 23.2V.4h3.9V43h-3.5l-4.2-24.5V43h-3.9V.4zm20.4 0v6.2h-3.6V43h-4.3V6.5h-3.6V.4zm11.1 0v6.2h-5.5v11.2h4.4v6.5h-4.4v12.3H52v6.5H42V.4zm6 42.5h-4.4V.4h7c2.9 0 4.4 1.7 4.4 6.5v7.6c0 3.5-1.1 5-1.9 5.5 1 .6 1.9 1.7 1.9 4.6v14.9c0 1.7.3 2.5.5 3.2v.3H61c-.2-.5-.5-1.2-.5-3.5V26.7c0-1.9-.3-2.7-1.6-2.7h-1.1zm0-25H59c1.2 0 1.5-1.2 1.5-3v-6c0-1.8-.3-2.7-1.5-2.7h-1.2zM81.4.4v6.2h-3.6V43h-4.3V6.5h-3.6V.4zM87 42.9h-4.4V.4H87v17h3V.4h4.4V43H90V24.3h-3zM105.9.4v6.2h-5.5v11.2h4.4v6.5h-4.4v12.3h5.7v6.5H96V.4zM118 34.9h-3.2l-.5 8h-3.9L113.9.3h5.2l3.7 42.6h-4.2zm-2.8-6.3h2.3l-1.2-15.7zm12.7 14.3h-4.4V.4h7c2.9 0 4.4 1.7 4.4 6.5v7.6c0 3.5-1.1 5-1.9 5.5 1 .6 1.9 1.7 1.9 4.6v14.9c0 1.7.3 2.5.5 3.2v.3h-4.3c-.2-.5-.5-1.2-.5-3.5V26.7c0-1.9-.3-2.7-1.6-2.7h-1.1zm0-25h1.2c1.2 0 1.5-1.2 1.5-3v-6c0-1.8-.3-2.7-1.5-2.7h-1.2zm15.8 6.6h4.3v9.8c0 4.5-1 9.2-5.2 9.2h-1c-4.5 0-5.4-4.7-5.4-9V8.6c0-4.4 1.3-8.6 5.2-8.6h1c4.7 0 5.3 4.7 5.3 8.8v7.6h-4.3V9c0-1.8-.4-2.8-1.5-2.8s-1.4.9-1.4 2.8v25.3c0 1.9.5 2.9 1.4 2.9 1 0 1.5-1.1 1.5-2.8zm10.1 18.4h-4.4V.4h4.4v17h3V.4h4.4V43h-4.4V24.3h-3zm13.4 0h-4.4V.4h4.4zm1-42.5h4.5l2 29.3 2-29.3h4.1L177.2 43h-5.3zm23.2 0v6.2h-5.5v11.2h4.4v6.5h-4.4v12.3h5.7v6.5h-10.1V.4zm20.8 0v6.2h-5.5v11.2h4.4v6.5h-4.4v12.3h5.7v6.5h-10.1V.4zm5.5 0l3.7 22.8V.4h3.9V43h-3.5l-4.2-24.5V43h-3.8V.4zm20.5 0v6.2h-3.6V43h-4.3V6.5h-3.6V.4zm11.1 0v6.2h-5.5v11.2h4.4v6.5h-4.4v12.3h5.7v6.5h-10.1V.4zm5.9 42.5h-4.4V.4h7c2.9 0 4.4 1.7 4.4 6.5v7.6c0 3.5-1.1 5-1.9 5.5 1 .6 1.9 1.7 1.9 4.6v14.9c0 1.7.3 2.5.5 3.2v.3h-4.3c-.2-.5-.5-1.2-.5-3.5V26.7c0-1.9-.3-2.7-1.6-2.7h-1.1zm0-25h1.2c1.2 0 1.5-1.2 1.5-3v-6c0-1.8-.3-2.7-1.5-2.7h-1.2zM278.8.4v6.2h-3.6V43h-4.3V6.5h-3.6V.4zm5.6 42.5H280V.4h4.4v17h3V.4h4.4V43h-4.4V24.3h-3zM303.3.4v6.2h-5.5v11.2h4.4v6.5h-4.4v12.3h5.7v6.5h-10.1V.4zm12.1 34.5h-3.2l-.5 8h-3.9L311.3.3h5.2l3.7 42.6H316zm-2.7-6.3h2.3l-1.2-15.7zm12.6 14.3h-4.4V.4h7c2.9 0 4.4 1.7 4.4 6.5v7.6c0 3.5-1.1 5-1.9 5.5 1 .6 1.9 1.7 1.9 4.6v14.9c0 1.7.3 2.5.5 3.2v.3h-4.3c-.2-.5-.5-1.2-.5-3.5V26.7c0-1.9-.3-2.7-1.6-2.7h-1.1zm0-25h1.2c1.2 0 1.5-1.2 1.5-3v-6c0-1.8-.3-2.7-1.5-2.7h-1.2zm15.8 6.6h4.3v9.8c0 4.5-1 9.2-5.2 9.2h-1c-4.5 0-5.4-4.7-5.4-9V8.6c0-4.4 1.3-8.6 5.2-8.6h1c4.7 0 5.3 4.7 5.3 8.8v7.6h-4.2V9c0-1.8-.4-2.8-1.5-2.8s-1.4.9-1.4 2.8v25.3c0 1.9.5 2.9 1.4 2.9 1 0 1.5-1.1 1.5-2.8zm10.1 18.4h-4.4V.4h4.4v17h3V.4h4.4V43h-4.4V24.3h-3zm13.4 0h-4.4V.4h4.4zm1-42.5h4.5l2 29.3 2-29.3h4.1L374.6 43h-5.3zm23.2 0v6.2h-5.5v11.2h4.4v6.5h-4.4v12.3h5.7v6.5h-10.1V.4z" fill="#fff"/></svg>