<?xml version="1.0" encoding="utf-8"?>
<!-- Generator: Adobe Illustrator 22.0.1, SVG Export Plug-In . SVG Version: 6.00 Build 0)  -->
<svg version="1.1" id="Layer_1" xmlns="http://www.w3.org/2000/svg" xmlns:xlink="http://www.w3.org/1999/xlink" x="0px" y="0px"
	 viewBox="0 0 394.5 43.5" style="enable-background:new 0 0 394.5 43.5;" xml:space="preserve">
<style type="text/css">
	.st0{fill:#FFFFFF;}
</style>
<title>EverybodyWelcome</title>
<g>
	<path class="st0" d="M14.8,0.4v6.2H9.4v11.2h4.4v6.5H9.4v12.3h5.7v6.5H5V0.4H14.8z"/>
	<path class="st0" d="M20.3,0.4L24,23.2V0.4h3.9v42.6h-3.5l-4.2-24.5v24.5h-3.9V0.4H20.3z"/>
	<path class="st0" d="M40.7,0.4v6.2h-3.6v36.4h-4.3V6.5h-3.6V0.4H40.7z"/>
	<path class="st0" d="M51.8,0.4v6.2h-5.5v11.2h4.4v6.5h-4.4v12.3H52v6.5H42V0.4H51.8z"/>
	<path class="st0" d="M57.8,42.9h-4.4V0.4h7c2.9,0,4.4,1.7,4.4,6.5v7.6c0,3.5-1.1,5-1.9,5.5c1,0.6,1.9,1.7,1.9,4.6v14.9
		c0,1.7,0.3,2.5,0.5,3.2V43h-4.3c-0.2-0.5-0.5-1.2-0.5-3.5V26.7c0-1.9-0.3-2.7-1.6-2.7h-1.1V42.9z M57.8,17.9h1.2
		c1.2,0,1.5-1.2,1.5-3v-6c0-1.8-0.3-2.7-1.5-2.7h-1.2V17.9z"/>
	<path class="st0" d="M81.4,0.4v6.2h-3.6v36.4h-4.3V6.5h-3.6V0.4H81.4z"/>
	<path class="st0" d="M87,42.9h-4.4V0.4H87v17h3v-17h4.4v42.6H90V24.3h-3V42.9z"/>
	<path class="st0" d="M105.9,0.4v6.2h-5.5v11.2h4.4v6.5h-4.4v12.3h5.7v6.5H96V0.4H105.9z"/>
	<path class="st0" d="M118,34.9h-3.2l-0.5,8h-3.9l3.5-42.6h5.2l3.7,42.6h-4.2L118,34.9z M115.2,28.6h2.3l-1.2-15.7L115.2,28.6z"/>
	<path class="st0" d="M127.9,42.9h-4.4V0.4h7c2.9,0,4.4,1.7,4.4,6.5v7.6c0,3.5-1.1,5-1.9,5.5c1,0.6,1.9,1.7,1.9,4.6v14.9
		c0,1.7,0.3,2.5,0.5,3.2V43h-4.3c-0.2-0.5-0.5-1.2-0.5-3.5V26.7c0-1.9-0.3-2.7-1.6-2.7h-1.1V42.9z M127.9,17.9h1.2
		c1.2,0,1.5-1.2,1.5-3v-6c0-1.8-0.3-2.7-1.5-2.7h-1.2V17.9z"/>
	<path class="st0" d="M143.7,24.5h4.3v9.8c0,4.5-1,9.2-5.2,9.2h-1c-4.5,0-5.4-4.7-5.4-9V8.6c0-4.4,1.3-8.6,5.2-8.6h1
		c4.7,0,5.3,4.7,5.3,8.8v7.6h-4.3V9c0-1.8-0.4-2.8-1.5-2.8c-1.1,0-1.4,0.9-1.4,2.8v25.3c0,1.9,0.5,2.9,1.4,2.9c1,0,1.5-1.1,1.5-2.8
		L143.7,24.5L143.7,24.5z"/>
	<path class="st0" d="M153.8,42.9h-4.4V0.4h4.4v17h3v-17h4.4v42.6h-4.4V24.3h-3V42.9z"/>
	<path class="st0" d="M167.2,42.9h-4.4V0.4h4.4V42.9z"/>
	<path class="st0" d="M168.2,0.4h4.5l2,29.3l2-29.3h4.1l-3.6,42.6h-5.3L168.2,0.4z"/>
	<path class="st0" d="M191.4,0.4v6.2h-5.5v11.2h4.4v6.5h-4.4v12.3h5.7v6.5h-10.1V0.4H191.4z"/>
</g>
<g>
	<path class="st0" d="M212.2,0.4v6.2h-5.5v11.2h4.4v6.5h-4.4v12.3h5.7v6.5h-10.1V0.4H212.2z"/>
	<path class="st0" d="M217.7,0.4l3.7,22.8V0.4h3.9v42.6h-3.5l-4.2-24.5v24.5h-3.8V0.4H217.7z"/>
	<path class="st0" d="M238.2,0.4v6.2h-3.6v36.4h-4.3V6.5h-3.6V0.4H238.2z"/>
	<path class="st0" d="M249.3,0.4v6.2h-5.5v11.2h4.4v6.5h-4.4v12.3h5.7v6.5h-10.1V0.4H249.3z"/>
	<path class="st0" d="M255.2,42.9h-4.4V0.4h7c2.9,0,4.4,1.7,4.4,6.5v7.6c0,3.5-1.1,5-1.9,5.5c1,0.6,1.9,1.7,1.9,4.6v14.9
		c0,1.7,0.3,2.5,0.5,3.2V43h-4.3c-0.2-0.5-0.5-1.2-0.5-3.5V26.7c0-1.9-0.3-2.7-1.6-2.7h-1.1V42.9z M255.2,17.9h1.2
		c1.2,0,1.5-1.2,1.5-3v-6c0-1.8-0.3-2.7-1.5-2.7h-1.2V17.9z"/>
	<path class="st0" d="M278.8,0.4v6.2h-3.6v36.4h-4.3V6.5h-3.6V0.4H278.8z"/>
	<path class="st0" d="M284.4,42.9H280V0.4h4.4v17h3v-17h4.4v42.6h-4.4V24.3h-3V42.9z"/>
	<path class="st0" d="M303.3,0.4v6.2h-5.5v11.2h4.4v6.5h-4.4v12.3h5.7v6.5h-10.1V0.4H303.3z"/>
	<path class="st0" d="M315.4,34.9h-3.2l-0.5,8h-3.9l3.5-42.6h5.2l3.7,42.6h-4.2L315.4,34.9z M312.7,28.6h2.3l-1.2-15.7L312.7,28.6z"
		/>
	<path class="st0" d="M325.3,42.9h-4.4V0.4h7c2.9,0,4.4,1.7,4.4,6.5v7.6c0,3.5-1.1,5-1.9,5.5c1,0.6,1.9,1.7,1.9,4.6v14.9
		c0,1.7,0.3,2.5,0.5,3.2V43h-4.3c-0.2-0.5-0.5-1.2-0.5-3.5V26.7c0-1.9-0.3-2.7-1.6-2.7h-1.1V42.9z M325.3,17.9h1.2
		c1.2,0,1.5-1.2,1.5-3v-6c0-1.8-0.3-2.7-1.5-2.7h-1.2V17.9z"/>
	<path class="st0" d="M341.1,24.5h4.3v9.8c0,4.5-1,9.2-5.2,9.2h-1c-4.5,0-5.4-4.7-5.4-9V8.6c0-4.4,1.3-8.6,5.2-8.6h1
		c4.7,0,5.3,4.7,5.3,8.8v7.6h-4.2V9c0-1.8-0.4-2.8-1.5-2.8c-1.1,0-1.4,0.9-1.4,2.8v25.3c0,1.9,0.5,2.9,1.4,2.9c1,0,1.5-1.1,1.5-2.8
		V24.5z"/>
	<path class="st0" d="M351.2,42.9h-4.4V0.4h4.4v17h3v-17h4.4v42.6h-4.4V24.3h-3V42.9z"/>
	<path class="st0" d="M364.6,42.9h-4.4V0.4h4.4V42.9z"/>
	<path class="st0" d="M365.6,0.4h4.5l2,29.3l2-29.3h4.1l-3.6,42.6h-5.3L365.6,0.4z"/>
	<path class="st0" d="M388.8,0.4v6.2h-5.5v11.2h4.4v6.5h-4.4v12.3h5.7v6.5h-10.1V0.4H388.8z"/>
</g>
</svg>
