<?xml version="1.0" encoding="utf-8"?>
<!-- Generator: Adobe Illustrator 22.0.1, SVG Export Plug-In . SVG Version: 6.00 Build 0)  -->
<svg version="1.1" id="Layer_1" xmlns="http://www.w3.org/2000/svg" xmlns:xlink="http://www.w3.org/1999/xlink" x="0px" y="0px"
	 viewBox="0 0 426.7 47.8" style="enable-background:new 0 0 426.7 47.8;" xml:space="preserve">
<style type="text/css">
	.st0{fill:#FFFFFF;}
</style>
<title>EverybodyWelcome</title>
<g>
	<path class="st0" d="M10.8,0.4v6.8H4.8v12.3h4.8v7.1H4.8v13.5h6.3v7.1H0V0.4H10.8z"/>
	<path class="st0" d="M16.8,0.4l4.1,25.1V0.4h4.3v46.8h-3.9l-4.6-26.9v26.9h-4.3V0.4H16.8z"/>
	<path class="st0" d="M39.3,0.4v6.8h-4v40h-4.7v-40h-4V0.4H39.3z"/>
	<path class="st0" d="M51.5,0.4v6.8h-6.1v12.3h4.8v7.1h-4.8v13.5h6.3v7.1H40.7V0.4H51.5z"/>
	<path class="st0" d="M58,47.2h-4.8V0.4h7.7c3.2,0,4.8,1.9,4.8,7.2V16c0,3.9-1.2,5.5-2.1,6c1.1,0.7,2.1,1.9,2.1,5.1v16.4
		c0,1.9,0.3,2.8,0.5,3.5v0.3h-4.7c-0.2-0.5-0.5-1.3-0.5-3.8V29.3c0-2.1-0.3-3-1.8-3H58V47.2z M58,19.7h1.3c1.3,0,1.7-1.3,1.7-3.3
		V9.8c0-2-0.3-3-1.7-3H58V19.7z"/>
	<path class="st0" d="M84,0.4v6.8h-4v40h-4.7v-40h-4V0.4H84z"/>
	<path class="st0" d="M90.1,47.2h-4.8V0.4h4.8v18.7h3.3V0.4h4.8v46.8h-4.8V26.7h-3.3V47.2z"/>
	<path class="st0" d="M110.9,0.4v6.8h-6.1v12.3h4.8v7.1h-4.8v13.5h6.3v7.1H100V0.4H110.9z"/>
	<path class="st0" d="M124.2,38.4h-3.5l-0.6,8.8h-4.3l3.8-46.8h5.7l4.1,46.8h-4.6L124.2,38.4z M121.2,31.4h2.5l-1.3-17.3L121.2,31.4
		z"/>
	<path class="st0" d="M135.1,47.2h-4.8V0.4h7.7c3.2,0,4.8,1.9,4.8,7.2V16c0,3.9-1.2,5.5-2.1,6c1.1,0.7,2.1,1.9,2.1,5.1v16.4
		c0,1.9,0.3,2.8,0.5,3.5v0.3h-4.7c-0.2-0.5-0.5-1.3-0.5-3.8V29.3c0-2.1-0.3-3-1.8-3h-1.2V47.2z M135.1,19.7h1.3
		c1.3,0,1.7-1.3,1.7-3.3V9.8c0-2-0.3-3-1.7-3h-1.3V19.7z"/>
	<path class="st0" d="M152.5,26.9h4.7v10.8c0,5-1.1,10.1-5.7,10.1h-1.1c-4.9,0-5.9-5.2-5.9-9.9V9.4c0-4.8,1.4-9.4,5.7-9.4h1.1
		c5.2,0,5.8,5.2,5.8,9.7v8.4h-4.7V9.9c0-2-0.4-3.1-1.6-3.1c-1.2,0-1.5,1-1.5,3.1v27.8c0,2.1,0.5,3.2,1.5,3.2c1.1,0,1.6-1.2,1.6-3.1
		V26.9z"/>
	<path class="st0" d="M163.6,47.2h-4.8V0.4h4.8v18.7h3.3V0.4h4.8v46.8h-4.8V26.7h-3.3V47.2z"/>
	<path class="st0" d="M178.3,47.2h-4.8V0.4h4.8V47.2z"/>
	<path class="st0" d="M179.4,0.4h4.9l2.2,32.2l2.2-32.2h4.5l-4,46.8h-5.8L179.4,0.4z"/>
	<path class="st0" d="M204.9,0.4v6.8h-6.1v12.3h4.8v7.1h-4.8v13.5h6.3v7.1h-11.1V0.4H204.9z"/>
</g>
<g>
	<path class="st0" d="M232.3,0.4v6.8h-6.1v12.3h4.8v7.1h-4.8v13.5h6.3v7.1h-11.1V0.4H232.3z"/>
	<path class="st0" d="M238.3,0.4l4.1,25.1V0.4h4.3v46.8h-3.9l-4.6-26.9v26.9H234V0.4H238.3z"/>
	<path class="st0" d="M260.8,0.4v6.8h-4v40h-4.7v-40h-4V0.4H260.8z"/>
	<path class="st0" d="M273,0.4v6.8H267v12.3h4.8v7.1H267v13.5h6.3v7.1h-11.1V0.4H273z"/>
	<path class="st0" d="M279.5,47.2h-4.8V0.4h7.7c3.2,0,4.8,1.9,4.8,7.2V16c0,3.9-1.2,5.5-2.1,6c1.1,0.7,2.1,1.9,2.1,5.1v16.4
		c0,1.9,0.3,2.8,0.5,3.5v0.3h-4.7c-0.2-0.5-0.5-1.3-0.5-3.8V29.3c0-2.1-0.3-3-1.8-3h-1.2V47.2z M279.5,19.7h1.3
		c1.3,0,1.7-1.3,1.7-3.3V9.8c0-2-0.3-3-1.7-3h-1.3V19.7z"/>
	<path class="st0" d="M305.5,0.4v6.8h-4v40h-4.7v-40h-4V0.4H305.5z"/>
	<path class="st0" d="M311.6,47.2h-4.8V0.4h4.8v18.7h3.3V0.4h4.8v46.8h-4.8V26.7h-3.3V47.2z"/>
	<path class="st0" d="M332.4,0.4v6.8h-6.1v12.3h4.8v7.1h-4.8v13.5h6.3v7.1h-11.1V0.4H332.4z"/>
	<path class="st0" d="M345.7,38.4h-3.5l-0.6,8.8h-4.3l3.8-46.8h5.7l4.1,46.8h-4.6L345.7,38.4z M342.7,31.4h2.5l-1.3-17.3L342.7,31.4
		z"/>
	<path class="st0" d="M356.6,47.2h-4.8V0.4h7.7c3.2,0,4.8,1.9,4.8,7.2V16c0,3.9-1.2,5.5-2.1,6c1.1,0.7,2.1,1.9,2.1,5.1v16.4
		c0,1.9,0.3,2.8,0.5,3.5v0.3h-4.7c-0.2-0.5-0.5-1.3-0.5-3.8V29.3c0-2.1-0.3-3-1.8-3h-1.2V47.2z M356.6,19.7h1.3
		c1.3,0,1.7-1.3,1.7-3.3V9.8c0-2-0.3-3-1.7-3h-1.3V19.7z"/>
	<path class="st0" d="M374,26.9h4.7v10.8c0,5-1.1,10.1-5.7,10.1h-1.1c-4.9,0-5.9-5.2-5.9-9.9V9.4c0-4.8,1.4-9.4,5.7-9.4h1.1
		c5.2,0,5.8,5.2,5.8,9.7v8.4H374V9.9c0-2-0.4-3.1-1.6-3.1c-1.2,0-1.5,1-1.5,3.1v27.8c0,2.1,0.5,3.2,1.5,3.2c1.1,0,1.6-1.2,1.6-3.1
		V26.9z"/>
	<path class="st0" d="M385.1,47.2h-4.8V0.4h4.8v18.7h3.3V0.4h4.8v46.8h-4.8V26.7h-3.3V47.2z"/>
	<path class="st0" d="M399.8,47.2h-4.8V0.4h4.8V47.2z"/>
	<path class="st0" d="M400.9,0.4h4.9l2.2,32.2l2.2-32.2h4.5l-4,46.8h-5.8L400.9,0.4z"/>
	<path class="st0" d="M426.4,0.4v6.8h-6.1v12.3h4.8v7.1h-4.8v13.5h6.3v7.1h-11.1V0.4H426.4z"/>
</g>
</svg>
