<svg id="Layer_1" data-name="Layer 1" xmlns="http://www.w3.org/2000/svg" viewBox="0 0 532.92 50.63"><defs><style>.cls-1{fill:#fff;}</style></defs><title>EverybodyWelcome</title><path class="cls-1" d="M15.47.46V7.51H9V20.25h5v7.37H9V41.67h6.69v8.38H4V.46Z"/><path class="cls-1" d="M17.21.46h5.13l2.27,33.43L26.93.46h4.78l-4.2,49.59H21.4Z"/><path class="cls-1" d="M45.14.46V7.51H38.71V20.25h5v7.37h-5V41.67h6.7v8.38H33.67V.46Z"/><path class="cls-1" d="M52.81,50.05h-5V.46h8.17c3.39,0,5,2,5,7.51v8.62c0,4.05-1.3,5.68-2.19,6.2,1.12.72,2.19,2,2.19,5.29V45.13a19.14,19.14,0,0,0,.49,4.59v.33h-5a18.08,18.08,0,0,1-.49-5V30.43c0-2.15-.27-3.07-1.87-3.07h-1.3Zm0-29.61h1.34C55.53,20.44,56,19.13,56,17V10.19c0-2.09-.27-3.14-1.83-3.14H52.81Z"/><path class="cls-1" d="M71.91,28.87V50.05h-5V28.8L62.32.46h4.91l2.31,18.15L71.78.46h4.55Z"/><path class="cls-1" d="M78.07.46H86c4.15,0,5.31,3.2,5.31,7.9V15.8c0,4.12-1.21,6-2.5,6.73,1.29.72,2.9,2.22,2.9,7.12V40.16c0,5.16-1.56,9.89-5.35,9.89h-8.3Zm5,6.59V19.66h1.52c1.38,0,1.74-1.37,1.74-3.4V10.12c0-2-.36-3.07-1.74-3.07Zm0,19.86V42.19h1.52c1.6,0,2-1.11,2-3.27V30c0-2-.36-3.13-2-3.13Z"/><path class="cls-1" d="M108,38.21c0,6.79-1.57,12.42-6.43,12.42h-.85c-4.81,0-6.51-5.63-6.51-12.42v-27C94.22,4.38,95.92,0,100.69,0h.85c4.9,0,6.47,4.44,6.47,11.1Zm-5.13-27.43c0-2.49-.59-3.73-1.74-3.73s-1.79,1.18-1.79,3.73V38.73c0,2.09.4,3.72,1.83,3.72s1.7-1.63,1.7-3.72Z"/><path class="cls-1" d="M110.82.46h7.72c4.32,0,5.66,3.59,5.66,9.34V39.38c0,6-1.51,10.67-5.66,10.67h-7.72Zm5,41.53h1.2c1.57,0,2-1.17,2-3.78V10.84c0-2.81-.49-3.79-1.74-3.79h-1.43Z"/><path class="cls-1" d="M135,28.87V50.05h-5V28.8L125.41.46h4.91l2.32,18.15L134.87.46h4.55Z"/><path class="cls-1" d="M159.9.46l2.27,31.48L164.49.46h4.73L165,50.05h-5.39l-2.1-29.28-2.14,29.28h-5.58L145.62.46h5.09L153,31.87,155.21.46Z"/><path class="cls-1" d="M182.65.46V7.51h-6.42V20.25h5v7.37h-5V41.67h6.69v8.38H171.19V.46Z"/><path class="cls-1" d="M190.33.46V41.54h6.16v8.51h-11.2V.46Z"/><path class="cls-1" d="M206.84,27.89h4.95V39.12c0,5.22-1.2,11.51-6,11.51h-1.12c-5.13,0-6.2-6.35-6.2-11.25V9.73c0-5,1.47-9.73,6-9.73h1.16c5.54,0,6.16,5.35,6.16,10.12v8.69h-4.95V10.25c0-2.09-.45-3.2-1.7-3.2s-1.56,1-1.56,3.2V39.12c0,2.22.54,3.33,1.61,3.33s1.65-1.24,1.65-3.27Z"/><path class="cls-1" d="M228.12,38.21c0,6.79-1.56,12.42-6.42,12.42h-.85c-4.82,0-6.51-5.63-6.51-12.42v-27C214.34,4.38,216,0,220.81,0h.84c4.91,0,6.47,4.44,6.47,11.1ZM223,10.78c0-2.49-.58-3.73-1.74-3.73s-1.78,1.18-1.78,3.73V38.73c0,2.09.4,3.72,1.83,3.72S223,40.82,223,38.73Z"/><path class="cls-1" d="M230.93.46h6.47l2.41,25.66L242.27.46h6V50.05h-4.73V17.63l-3,32.42h-2l-3.08-32.42V50.05h-4.51Z"/><path class="cls-1" d="M262.7.46V7.51h-6.42V20.25h5v7.37h-5V41.67H263v8.38H251.24V.46Z"/><path class="cls-1" d="M282.25.46V7.51h-6.43V20.25h5v7.37h-5V41.67h6.69v8.38H270.78V.46Z"/><path class="cls-1" d="M284,.46h5.13l2.27,33.43L293.71.46h4.78l-4.2,49.59h-6.11Z"/><path class="cls-1" d="M311.92.46V7.51h-6.43V20.25h5v7.37h-5V41.67h6.69v8.38H300.45V.46Z"/><path class="cls-1" d="M319.59,50.05h-5V.46h8.16c3.4,0,5.05,2,5.05,7.51v8.62c0,4.05-1.3,5.68-2.19,6.2,1.12.72,2.19,2,2.19,5.29V45.13a18.62,18.62,0,0,0,.49,4.59v.33h-5a18.08,18.08,0,0,1-.49-5V30.43c0-2.15-.27-3.07-1.87-3.07h-1.3Zm0-29.61h1.34c1.38,0,1.83-1.31,1.83-3.46V10.19c0-2.09-.27-3.14-1.83-3.14h-1.34Z"/><path class="cls-1" d="M338.69,28.87V50.05h-5V28.8L329.1.46H334l2.32,18.15L338.55.46h4.56Z"/><path class="cls-1" d="M344.85.46h7.94c4.15,0,5.31,3.2,5.31,7.9V15.8c0,4.12-1.21,6-2.5,6.73,1.29.72,2.9,2.22,2.9,7.12V40.16c0,5.16-1.56,9.89-5.35,9.89h-8.3Zm5,6.59V19.66h1.52c1.38,0,1.74-1.37,1.74-3.4V10.12c0-2-.36-3.07-1.74-3.07Zm0,19.86V42.19h1.52c1.6,0,2-1.11,2-3.27V30c0-2-.36-3.13-2-3.13Z"/><path class="cls-1" d="M374.79,38.21c0,6.79-1.57,12.42-6.43,12.42h-.85c-4.82,0-6.51-5.63-6.51-12.42v-27C361,4.38,362.69,0,367.47,0h.85c4.9,0,6.47,4.44,6.47,11.1Zm-5.14-27.43c0-2.49-.58-3.73-1.74-3.73s-1.78,1.18-1.78,3.73V38.73c0,2.09.4,3.72,1.83,3.72s1.69-1.63,1.69-3.72Z"/><path class="cls-1" d="M377.6.46h7.72C389.64.46,391,4.05,391,9.8V39.38c0,6-1.51,10.67-5.66,10.67H377.6Zm5,41.53h1.2c1.57,0,2-1.17,2-3.78V10.84c0-2.81-.49-3.79-1.74-3.79h-1.43Z"/><path class="cls-1" d="M401.78,28.87V50.05h-5V28.8L392.19.46h4.91l2.32,18.15L401.65.46h4.55Z"/><path class="cls-1" d="M426.68.46,429,31.94,431.27.46H436l-4.24,49.59h-5.39l-2.1-29.28-2.14,29.28h-5.58L412.4.46h5.09l2.27,31.41L422,.46Z"/><path class="cls-1" d="M449.43.46V7.51H443V20.25h5v7.37h-5V41.67h6.69v8.38H438V.46Z"/><path class="cls-1" d="M457.11.46V41.54h6.16v8.51h-11.2V.46Z"/><path class="cls-1" d="M473.62,27.89h4.95V39.12c0,5.22-1.2,11.51-6,11.51h-1.12c-5.13,0-6.2-6.35-6.2-11.25V9.73c0-5,1.47-9.73,6-9.73h1.16c5.54,0,6.16,5.35,6.16,10.12v8.69h-4.95V10.25c0-2.09-.45-3.2-1.7-3.2s-1.56,1-1.56,3.2V39.12c0,2.22.54,3.33,1.61,3.33s1.65-1.24,1.65-3.27Z"/><path class="cls-1" d="M494.9,38.21c0,6.79-1.56,12.42-6.42,12.42h-.85c-4.82,0-6.52-5.63-6.52-12.42v-27c0-6.79,1.7-11.17,6.47-11.17h.85c4.91,0,6.47,4.44,6.47,11.1Zm-5.13-27.43c0-2.49-.58-3.73-1.74-3.73s-1.78,1.18-1.78,3.73V38.73c0,2.09.4,3.72,1.82,3.72s1.7-1.63,1.7-3.72Z"/><path class="cls-1" d="M497.71.46h6.47l2.41,25.66L509.05.46h6V50.05h-4.73V17.63l-3,32.42h-2l-3.08-32.42V50.05h-4.51Z"/><path class="cls-1" d="M529.48.46V7.51h-6.42V20.25h5v7.37h-5V41.67h6.69v8.38H518V.46Z"/></svg>