<svg viewBox="0 0 755 416.78" xmlns="http://www.w3.org/2000/svg"><g fill="#272727"><path d="m79.54 6.46 11.32 219.78 22.65-219.78h35l-41.72 401.75h-31.86l-13.09-233.27-24.42 233.27h-35l41.72-401.75z"/><path d="m214.73 2.68c37.86 0 52 36.18 46.36 92.34l-23 223c-5.66 55.08-18.75 95-54.15 95h-6.72c-36.81 0-51.32-38.88-45.65-95l23-223c5.65-56.16 18-92.34 53.43-92.34zm-20.18 89.1-23.71 230c-2.48 18.9.35 31.86 11.33 31.86s13.44-12.42 15.92-31.86l23.71-230c2.48-21.6-2.12-30.78-11.68-30.78s-13.12 9.72-15.57 30.78z"/><path d="m360.88 232.71h38.93l-9.91 96.12c-4.6 41-14.86 84.78-51 84.78h-9.2c-38.58 0-47.78-42.66-43.18-85.86l25.17-243.53c3.89-41 15.57-81.54 50.61-81.54h9.2c42.82 0 47.07 45.36 43.18 85.86l-7.08 69.12h-38.93l7.43-70.2c1.77-17.82-1.77-26.46-11-26.46-9.56 0-12.39 9.18-14.16 26.46l-24.74 240.29c-1.42 15.12.71 26.46 10.26 26.46s12.74-10.21 14.54-27z"/><path d="m463.16 332.61h-28.31l-12.74 75.6h-35.74l73.25-401.75h46.38l-8.14 401.75h-37.17zm2.13-59.94 5.31-151.73-25.84 151.73z"/><path d="m561.19 241.89-17 166.32h-38.92l41.73-401.75h57.33c28.31 0 41.76 21.06 37.16 66.42l-9.91 96.66c-4.6 45.9-17.34 72.35-44.24 72.35zm6-58.85h10.62c11.68 0 13.45-9.72 15.92-29.7l6.75-65.34c1.41-15.12.7-27.54-11.68-27.54h-8.5z"/><path d="m667.37 412.53c-32.92 0-49.55-29.16-44.24-78.84l8.49-82.62h38.58l-7.79 75.6c-1.77 18.36 1.77 27.54 11.33 27.54s12.38-10.8 14.86-35.1l1.06-10.26c3.89-34 .71-47.52-11.68-82.07l-10.61-29.7c-14.16-38.88-21.59-66.42-17-107.46l1.41-13.5c5.32-51.84 21.22-73.44 49.92-73.44h9.2c31.14 0 45.65 22.14 41.05 67.5l-6.72 65.34h-37.87l5.64-54.52c1.77-16.74-.35-24.3-9.2-24.3s-11.33 8.64-12.74 22.14l-1.06 10.24c-1.77 21.6 1.06 32.4 11.32 63.72l10.26 31.32c15.93 50.75 25.49 74 20.89 124.73l-1.42 14c-6 61-24.42 89.64-55.56 89.64z"/></g></svg>