<svg xmlns="http://www.w3.org/2000/svg" viewBox="0 0 1066.69 378"><defs><style>.a{fill:#fff;}</style></defs><title>no-trainers</title><path class="a" d="M76.45,3.49,86.87,205.63,107.7,3.49h32.22L101.51,373H72.22l-12-214.56L37.71,373H5.49L43.9,3.49Z"/><path class="a" d="M200.79,0c34.83,0,47.85,33.27,42.64,84.92L222.27,290.07c-5.21,50.65-17.25,87.41-49.8,87.41h-6.19c-33.85,0-47.19-35.76-42-87.41L145.45,84.94C150.66,33.29,162.05,0,194.6,0ZM182.23,82l-21.8,211.58c-2.28,17.38.32,29.3,10.41,29.3s12.37-11.42,14.65-29.3L207.3,82c2.28-19.86-2-28.3-10.74-28.3S184.51,62.6,182.23,82Z"/><path class="a" d="M388.92,3.49l-5.53,54.14H353.77L320.89,373h-35.8L318,57.63H287.69l5.53-54.14Z"/><path class="a" d="M396.73,373h-35.8L399.34,3.49h54c25.71,0,37.76,17.88,33.85,57.12l-6.83,66.05c-2.93,28.31-11.4,41.23-20.84,46.69,5.54,5.46,14,14.9,11.4,43.21l-13,125.16c-1.63,15.89-.65,23.34.32,28.8l-.32,2.49H422.45c-1.3-6-2-15.4-.33-31.29l11.39-109.27c2.28-19.37.33-24.33-10.41-24.33H414Zm22.46-217.54h10.09c10.09,0,13-8.94,14.65-24.83l5.53-53.14c1.63-15.9-.32-23.84-10.74-23.84h-8.79Z"/><path class="a" d="M532.14,303.47h-26L494.38,373H461.5L528.88,3.49h42.64L564,373H529.86Zm2-55.12L539,108.78,515.21,248.35Z"/><path class="a" d="M606.67,373h-35.8L609.28,3.49h35.8Z"/><path class="a" d="M692.6,3.49,703,205.63,723.85,3.49h32.23L717.67,373h-29.3l-12-214.56L653.87,373H621.65L660.05,3.49Z"/><path class="a" d="M852.1,3.49l-5.54,53.64H801.32L791.23,154h35.48l-5.86,56.12H785.37L774.3,316.88h47.2L815.64,373h-83L771.05,3.49Z"/><path class="a" d="M862.19,373H826.38L864.79,3.49h54c25.72,0,37.76,17.88,33.85,57.12l-6.83,66.05c-2.9,28.34-11.36,41.23-20.81,46.69,5.53,5.46,14,14.9,11.39,43.21l-13,125.16c-1.63,15.89-.65,23.34.33,28.8l-.33,2.49H887.9c-1.3-6-1.95-15.4-.32-31.29L899,232.45c2.28-19.37.32-24.33-10.42-24.33h-9.11Zm22.46-217.54h10.09c10.09,0,13-8.94,14.64-24.83l5.54-53.14c1.62-15.9-.33-23.84-10.75-23.84h-8.78Z"/><path class="a" d="M979.69,377c-30.28,0-45.57-26.82-40.69-72.51l7.81-76h35.48L975.13,298c-1.63,16.89,1.63,25.33,10.42,25.33s11.39-9.93,13.67-32.28l1-9.44c3.58-31.29.65-43.7-10.74-75.49l-9.76-27.32c-13-35.76-19.86-61.09-15.63-98.83l1.3-12.42C970.25,19.88,984.89,0,1011.26,0h8.46c28.65,0,42,20.36,37.76,62.08l-6.18,60.09h-34.83L1021.68,72c1.62-15.39-.33-22.35-8.47-22.35s-10.41,8-11.71,20.37l-1,9.43c-1.63,19.87,1,29.8,10.41,58.61l9.44,28.8c14.65,46.69,23.44,68,19.21,114.73l-1.3,12.91c-5.54,56.13-22.46,82.45-51.11,82.45Z"/></svg>