<svg viewBox="0 0 1066.69 378" xmlns="http://www.w3.org/2000/svg"><g fill="#fff"><path d="m76.45 3.49 10.42 202.14 20.83-202.14h32.22l-38.41 369.51h-29.29l-12-214.56-22.51 214.56h-32.22l38.41-369.51z"/><path d="m200.79 0c34.83 0 47.85 33.27 42.64 84.92l-21.16 205.15c-5.21 50.65-17.25 87.41-49.8 87.41h-6.19c-33.85 0-47.19-35.76-42-87.41l21.17-205.13c5.21-51.65 16.6-84.94 49.15-84.94zm-18.56 82-21.8 211.58c-2.28 17.38.32 29.3 10.41 29.3s12.37-11.42 14.65-29.3l21.81-211.58c2.28-19.86-2-28.3-10.74-28.3s-12.05 8.9-14.33 28.3z"/><path d="m388.92 3.49-5.53 54.14h-29.62l-32.88 315.37h-35.8l32.91-315.37h-30.31l5.53-54.14z"/><path d="m396.73 373h-35.8l38.41-369.51h54c25.71 0 37.76 17.88 33.85 57.12l-6.83 66.05c-2.93 28.31-11.4 41.23-20.84 46.69 5.54 5.46 14 14.9 11.4 43.21l-13 125.16c-1.63 15.89-.65 23.34.32 28.8l-.32 2.49h-35.47c-1.3-6-2-15.4-.33-31.29l11.39-109.27c2.28-19.37.33-24.33-10.41-24.33h-9.1zm22.46-217.54h10.09c10.09 0 13-8.94 14.65-24.83l5.53-53.14c1.63-15.9-.32-23.84-10.74-23.84h-8.79z"/><path d="m532.14 303.47h-26l-11.76 69.53h-32.88l67.38-369.51h42.64l-7.52 369.51h-34.14zm2-55.12 4.86-139.57-23.79 139.57z"/><path d="m606.67 373h-35.8l38.41-369.51h35.8z"/><path d="m692.6 3.49 10.4 202.14 20.85-202.14h32.23l-38.41 369.51h-29.3l-12-214.56-22.5 214.56h-32.22l38.4-369.51z"/><path d="m852.1 3.49-5.54 53.64h-45.24l-10.09 96.87h35.48l-5.86 56.12h-35.48l-11.07 106.76h47.2l-5.86 56.12h-83l38.41-369.51z"/><path d="m862.19 373h-35.81l38.41-369.51h54c25.72 0 37.76 17.88 33.85 57.12l-6.83 66.05c-2.9 28.34-11.36 41.23-20.81 46.69 5.53 5.46 14 14.9 11.39 43.21l-13 125.16c-1.63 15.89-.65 23.34.33 28.8l-.33 2.49h-35.49c-1.3-6-1.95-15.4-.32-31.29l11.42-109.27c2.28-19.37.32-24.33-10.42-24.33h-9.11zm22.46-217.54h10.09c10.09 0 13-8.94 14.64-24.83l5.54-53.14c1.62-15.9-.33-23.84-10.75-23.84h-8.78z"/><path d="m979.69 377c-30.28 0-45.57-26.82-40.69-72.51l7.81-76h35.48l-7.16 69.51c-1.63 16.89 1.63 25.33 10.42 25.33s11.39-9.93 13.67-32.28l1-9.44c3.58-31.29.65-43.7-10.74-75.49l-9.76-27.32c-13-35.76-19.86-61.09-15.63-98.83l1.3-12.42c4.86-47.67 19.5-67.55 45.87-67.55h8.46c28.65 0 42 20.36 37.76 62.08l-6.18 60.09h-34.83l5.21-50.17c1.62-15.39-.33-22.35-8.47-22.35s-10.41 8-11.71 20.37l-1 9.43c-1.63 19.87 1 29.8 10.41 58.61l9.44 28.8c14.65 46.69 23.44 68 19.21 114.73l-1.3 12.91c-5.54 56.13-22.46 82.45-51.11 82.45z"/></g></svg>