<svg id="Layer_1" data-name="Layer 1" xmlns="http://www.w3.org/2000/svg" viewBox="0 0 60.19 103.79"><defs><style>.cls-1{fill:#000;}</style></defs><title>NoCaps</title><path class="cls-1" d="M19.52.46l4.33,26.05V.46h4.59V49.05h-4.1l-4.82-28v28H15V.46Z"/><path class="cls-1" d="M45,38.21c0,6.79-1.56,11.42-6.42,11.42h-.85c-4.82,0-6.51-4.63-6.51-11.42v-27C31.26,4.38,33,0,37.73,0h.84C43.48,0,45,4.44,45,11.1ZM39.91,10.78c0-2.49-.58-3.73-1.74-3.73s-1.78,1.18-1.78,3.73V38.73c0,2.09.4,3.72,1.83,3.72s1.69-1.63,1.69-3.72Z"/><path class="cls-1" d="M8.39,82.05h4.95V93.28c0,5.22-1.2,10.51-6,10.51H6.2c-5.13,0-6.2-5.35-6.2-10.25V63.89c0-5,1.47-9.73,6-9.73H7.18c5.54,0,6.16,5.35,6.16,10.12V73H8.39V64.41c0-2.09-.45-3.2-1.7-3.2s-1.56,1-1.56,3.2V93.28c0,2.22.54,3.33,1.61,3.33s1.65-1.24,1.65-3.27Z"/><path class="cls-1" d="M23.78,94.06h-3.7l-.63,9.15H15L19,54.62h6l4.32,48.59H24.45Zm-3.17-7.25h2.64l-1.34-18Z"/><path class="cls-1" d="M36.23,83v20.18h-5V54.62h8c3.56,0,5.17,2.22,5.17,8V74.14c0,5.75-1.74,8.89-5.17,8.89Zm0-7h1.29c1.57,0,1.74-1.5,1.74-3.53v-8c0-1.89-.26-3.33-1.74-3.33H36.23Z"/><path class="cls-1" d="M53.94,54.16c4.15,0,5.76,2.68,5.76,8.42v8H54.84v-7c0-1.63-.23-2.87-1.43-2.87s-1.47,1.11-1.47,3.4V65c0,2.74.35,4.25,2.05,7.45l3.21,6.07c2.28,4.31,3,6.73,3,12.28v1.56c0,7.12-2,11.37-6.51,11.37h-1c-4.06,0-6.15-3.2-6.15-9.21V84.79h5v8.49c0,2.28.54,3.39,1.66,3.39s1.65-1.11,1.65-4.17V91.38c0-3.52-.23-4.63-2.06-8.16l-3.21-6a22.81,22.81,0,0,1-2.76-12V63.63c0-6.53,2.23-9.47,6.2-9.47Z"/></svg>