<svg id="Layer_1" data-name="Layer 1" xmlns="http://www.w3.org/2000/svg" viewBox="0 0 114.89 103.73"><defs><style>.cls-1{fill:#000;}</style></defs><title>NoTraineers</title><path class="cls-1" d="M47.12.46l4.32,26.05V.46H56V49.05h-4.1l-4.82-28v28H42.57V.46Z"/><path class="cls-1" d="M72.64,38.21c0,6.79-1.56,11.42-6.43,11.42h-.84c-4.82,0-6.52-4.63-6.52-11.42v-27C58.85,4.38,60.55,0,65.32,0h.85c4.91,0,6.47,4.44,6.47,11.1ZM67.51,10.78c0-2.49-.58-3.73-1.74-3.73S64,8.23,64,10.78V38.73c0,2.09.4,3.72,1.83,3.72s1.7-1.63,1.7-3.72Z"/><path class="cls-1" d="M13.47,54.62v7.05H9.24v41.54h-5V61.67H0V54.62Z"/><path class="cls-1" d="M20.84,103.21h-5V54.62H24c3.39,0,5,2,5,7.51v8.62c0,4-1.29,5.68-2.18,6.2,1.11.72,2.18,2,2.18,5.29V99.29a10.44,10.44,0,0,0,.49,3.59v.33h-5c-.23-.53-.5-1.38-.5-4V84.59c0-2.15-.26-3.07-1.87-3.07H20.84Zm0-28.61h1.34c1.38,0,1.82-1.31,1.82-3.46V64.35c0-2.09-.26-3.14-1.82-3.14H20.84Z"/><path class="cls-1" d="M39.71,94.06H36l-.63,9.15h-4.5l4.06-48.59h6l4.32,48.59H40.38Zm-3.17-7.25h2.63l-1.33-18Z"/><path class="cls-1" d="M52.16,103.21h-5V54.62h5Z"/><path class="cls-1" d="M59.66,54.62,64,80.67V54.62h4.6v48.59H64.47l-4.81-28v28H55.1V54.62Z"/><path class="cls-1" d="M83,54.62v7.05H76.57V74.4h5v7.38h-5v14h6.69v7.38H71.52V54.62Z"/><path class="cls-1" d="M90.67,103.21h-5V54.62h8.17c3.39,0,5,2,5,7.51v8.62c0,4-1.29,5.68-2.19,6.2,1.12.72,2.19,2,2.19,5.29V99.29a10.44,10.44,0,0,0,.49,3.59v.33h-5a9.88,9.88,0,0,1-.49-4V84.59c0-2.15-.27-3.07-1.87-3.07H90.67Zm0-28.61H92c1.39,0,1.83-1.31,1.83-3.46V64.35c0-2.09-.27-3.14-1.83-3.14H90.67Z"/><path class="cls-1" d="M108.65,54.16c4.15,0,5.75,2.68,5.75,8.42v8h-4.86v-7c0-1.63-.22-2.87-1.43-2.87s-1.47,1.11-1.47,3.4V65c0,2.74.36,4.25,2,7.45l3.21,6.07c2.28,4.31,3,6.73,3,12.28v1.56c0,7.12-2,11.37-6.51,11.37h-1c-4.06,0-6.16-3.2-6.16-9.21V84.79h5v8.49c0,2.28.53,3.39,1.65,3.39s1.65-1.11,1.65-4.17V91.38c0-3.52-.22-4.63-2.05-8.16l-3.22-6a22.81,22.81,0,0,1-2.76-12V63.63c0-6.53,2.23-9.47,6.2-9.47Z"/></svg>