<svg enable-background="new 0 0 468 68" viewBox="0 0 468 68" xmlns="http://www.w3.org/2000/svg"><g fill="#fff"><path d="m9.9 20.3h21.8l-.6 5.1c4.2-4.2 7.5-5.6 10.3-5.6 1.8 0 3.8.2 5.6 1.3l-3.6 16.8c-2.4-.6-5.1-1.3-9-1.3-4.2 0-6.3 2.9-6.9 5.8l-5.2 24.3h-22.3z"/><path d="m96.1 51.8c-3.8 10.5-13.1 16.2-30.4 16.2-13.6 0-24.5-6.1-20.5-24.8 3.4-16 16-24.3 32.6-24.3 17.5 0 24 9 20.5 25.5l-.6 3.1h-32l-.3 1.4c-1.2 5.4.2 7.7 4.6 7.7 2.5 0 5.3-1.5 6.6-4.8zm-16.5-14.1.1-.6c.9-4.4-.8-6.7-4.3-6.7-3.6 0-6.6 2.3-7.5 6.7l-.1.6z"/><path d="m106.6 34.1h46.1l-3.3 15.7h-46.1z"/><path d="m162.7 20.3h22.3l-9.9 46.3h-22.3zm4.2-20.3h22.3l-3 14.2h-22.2z"/><path d="m215.3 34.6c.5-2.3.4-3.6-.2-4.3s-1.7-1-3.1-1c-3.7 0-5.1 1.4-5.5 3.4s.3 3 6 3.9c17.5 2.5 21.5 6 19.7 15-2.4 10-10.6 16.4-29 16.4-15 0-23.3-4.4-20.9-16.8h20.1c-.4 2.6-.3 4.2.4 5.1.6 1 1.8 1.4 3.4 1.4 3.5 0 4.9-1.8 5.4-4 .3-1.4 0-2.9-2.7-3.4-1.4-.3-3-.6-9.5-1.9-10.9-2.2-14.6-5.4-12.8-13.9s10.1-15.5 26.6-15.5c14.3 0 23.4 3.5 21.2 15.7h-19.1z"/><path d="m268 34.6c.5-2.3.4-3.6-.2-4.3s-1.7-1-3.1-1c-3.7 0-5.1 1.4-5.5 3.4s.3 3 6 3.9c17.5 2.5 21.5 6 19.7 15-2.3 10-10.5 16.4-28.9 16.4-15 0-23.3-4.4-20.9-16.8h20.1c-.4 2.6-.3 4.2.4 5.1.6 1 1.8 1.4 3.4 1.4 3.5 0 4.9-1.8 5.4-4 .3-1.4 0-2.9-2.7-3.4-1.4-.3-3-.6-9.5-1.9-10.9-2.2-14.6-5.4-12.8-13.9s10.1-15.5 26.6-15.5c14.3 0 23.4 3.5 21.2 15.7h-19.2z"/><path d="m338.6 66.6h-21.8l.9-7h-.2c-5.2 6.6-11.1 8.4-16.3 8.4-9.3 0-15.1-4.6-12.5-16.9l6.6-30.8h22.3l-6 28.7c-.7 3.4.2 5.4 2.9 5.4 2.5 0 4.8-1.5 5.5-5.2l6.2-28.9h22.3z"/><path d="m398.4 51.8c-3.8 10.5-13.1 16.2-30.4 16.2-13.6 0-24.5-6.1-20.5-24.8 3.4-16 16-24.3 32.6-24.3 17.5 0 24 9 20.5 25.5l-.6 3.1h-32l-.3 1.4c-1.2 5.4.2 7.7 4.6 7.7 2.5 0 5.3-1.5 6.6-4.8zm-16.5-14.1.1-.6c.9-4.4-.8-6.7-4.3-6.7-3.6 0-6.6 2.3-7.5 6.7l-.1.6z"/><path d="m433.6 61.3c-5 5.3-10.7 6.7-15.8 6.7-11.3 0-17.4-8.7-13.9-25.1 3.7-17.5 14-24 24.1-24 5.2 0 9.7 1.5 12.5 5.6l5.2-24.5h22.3l-14.1 66.6h-21zm4-25c0-2.7-1.4-4.2-3.9-4.2-4.6 0-6.2 4.1-7.8 11.4-1.3 6.3-1.8 11.4 3 11.4 2.5 0 3.8-1.1 4.7-2.5s1.8-4.2 2.8-9c1-4 1.2-5.2 1.2-7.1z"/></g></svg>