<?xml version="1.0" encoding="utf-8"?>
<!-- Generator: Adobe Illustrator 21.1.0, SVG Export Plug-In . SVG Version: 6.00 Build 0)  -->
<svg version="1.1" id="Layer_1" xmlns="http://www.w3.org/2000/svg" xmlns:xlink="http://www.w3.org/1999/xlink" x="0px" y="0px"
	 viewBox="0 0 468 68" style="enable-background:new 0 0 468 68;" xml:space="preserve">
<style type="text/css">
	.st0{fill:#FFFFFF;}
</style>
<g>
	<path class="st0" d="M9.9,20.3h21.8l-0.6,5.1c4.2-4.2,7.5-5.6,10.3-5.6c1.8,0,3.8,0.2,5.6,1.3l-3.6,16.8c-2.4-0.6-5.1-1.3-9-1.3
		c-4.2,0-6.3,2.9-6.9,5.8l-5.2,24.3H0L9.9,20.3z"/>
	<path class="st0" d="M96.1,51.8C92.3,62.3,83,68,65.7,68c-13.6,0-24.5-6.1-20.5-24.8c3.4-16,16-24.3,32.6-24.3
		c17.5,0,24,9,20.5,25.5l-0.6,3.1H65.7l-0.3,1.4c-1.2,5.4,0.2,7.7,4.6,7.7c2.5,0,5.3-1.5,6.6-4.8H96.1z M79.6,37.7l0.1-0.6
		c0.9-4.4-0.8-6.7-4.3-6.7c-3.6,0-6.6,2.3-7.5,6.7l-0.1,0.6H79.6z"/>
	<path class="st0" d="M106.6,34.1h46.1l-3.3,15.7h-46.1L106.6,34.1z"/>
	<path class="st0" d="M162.7,20.3H185l-9.9,46.3h-22.3L162.7,20.3z M166.9,0h22.3l-3,14.2H164L166.9,0z"/>
	<path class="st0" d="M215.3,34.6c0.5-2.3,0.4-3.6-0.2-4.3c-0.6-0.7-1.7-1-3.1-1c-3.7,0-5.1,1.4-5.5,3.4c-0.4,2,0.3,3,6,3.9
		c17.5,2.5,21.5,6,19.7,15C229.8,61.6,221.6,68,203.2,68c-15,0-23.3-4.4-20.9-16.8h20.1c-0.4,2.6-0.3,4.2,0.4,5.1
		c0.6,1,1.8,1.4,3.4,1.4c3.5,0,4.9-1.8,5.4-4c0.3-1.4,0-2.9-2.7-3.4c-1.4-0.3-3-0.6-9.5-1.9c-10.9-2.2-14.6-5.4-12.8-13.9
		c1.8-8.5,10.1-15.5,26.6-15.5c14.3,0,23.4,3.5,21.2,15.7H215.3z"/>
	<path class="st0" d="M268,34.6c0.5-2.3,0.4-3.6-0.2-4.3c-0.6-0.7-1.7-1-3.1-1c-3.7,0-5.1,1.4-5.5,3.4c-0.4,2,0.3,3,6,3.9
		c17.5,2.5,21.5,6,19.7,15C282.6,61.6,274.4,68,256,68c-15,0-23.3-4.4-20.9-16.8h20.1c-0.4,2.6-0.3,4.2,0.4,5.1
		c0.6,1,1.8,1.4,3.4,1.4c3.5,0,4.9-1.8,5.4-4c0.3-1.4,0-2.9-2.7-3.4c-1.4-0.3-3-0.6-9.5-1.9c-10.9-2.2-14.6-5.4-12.8-13.9
		c1.8-8.5,10.1-15.5,26.6-15.5c14.3,0,23.4,3.5,21.2,15.7H268z"/>
	<path class="st0" d="M338.6,66.6h-21.8l0.9-7h-0.2c-5.2,6.6-11.1,8.4-16.3,8.4c-9.3,0-15.1-4.6-12.5-16.9l6.6-30.8h22.3L311.6,49
		c-0.7,3.4,0.2,5.4,2.9,5.4c2.5,0,4.8-1.5,5.5-5.2l6.2-28.9h22.3L338.6,66.6z"/>
	<path class="st0" d="M398.4,51.8C394.6,62.3,385.3,68,368,68c-13.6,0-24.5-6.1-20.5-24.8c3.4-16,16-24.3,32.6-24.3
		c17.5,0,24,9,20.5,25.5l-0.6,3.1H368l-0.3,1.4c-1.2,5.4,0.2,7.7,4.6,7.7c2.5,0,5.3-1.5,6.6-4.8H398.4z M381.9,37.7l0.1-0.6
		c0.9-4.4-0.8-6.7-4.3-6.7c-3.6,0-6.6,2.3-7.5,6.7l-0.1,0.6H381.9z"/>
	<path class="st0" d="M433.6,61.3c-5,5.3-10.7,6.7-15.8,6.7c-11.3,0-17.4-8.7-13.9-25.1c3.7-17.5,14-24,24.1-24
		c5.2,0,9.7,1.5,12.5,5.6L445.7,0H468l-14.1,66.6h-21L433.6,61.3z M437.6,36.3c0-2.7-1.4-4.2-3.9-4.2c-4.6,0-6.2,4.1-7.8,11.4
		c-1.3,6.3-1.8,11.4,3,11.4c2.5,0,3.8-1.1,4.7-2.5c0.9-1.4,1.8-4.2,2.8-9C437.4,39.4,437.6,38.2,437.6,36.3z"/>
</g>
</svg>
