<svg xmlns="http://www.w3.org/2000/svg" viewBox="0 0 1790.47 384"><defs><style>.a{fill:none;stroke:#fff;stroke-miterlimit:10;stroke-width:4px;}.b{fill:#fff;}</style></defs><title>shop-now-combo</title><path class="a" d="M62.53,376.91c-30,0-45.24-26.63-40.4-72l7.76-75.44H65.12L58,298.5c-1.62,16.77,1.61,25.15,10.34,25.15s11.31-9.86,13.57-32l1-9.37c3.56-31.07.65-43.39-10.66-75l-9.7-27.12C49.61,144.65,42.82,119.5,47,82l1.31-12.3C53.16,22.36,67.7,2.64,93.88,2.64h8.4c28.44,0,41.69,20.22,37.49,61.64l-6.14,59.66H99.05l5.17-49.8C105.84,58.85,103.9,52,95.82,52S85.48,59.84,84.19,72.17l-1,9.37c-1.62,19.72,1,29.58,10.34,58.18l9.37,28.6c14.57,46.35,23.3,67.56,19.1,113.91l-1.29,12.82c-5.5,55.72-22.3,81.86-50.74,81.86Z"/><path class="a" d="M159.16,373H123.61L161.75,6.09H197.3L182.11,153H206L221.21,6.09h35.55L218.63,373H183.08l16.8-161.24H176Z"/><path class="a" d="M317.19,2.64c34.59,0,47.51,33,42.34,84.32l-21,203.65c-5.18,50.3-17.13,86.79-49.45,86.79h-6.14c-33.61,0-46.86-35.51-41.69-86.79L262.25,87c5.17-51.28,16.49-84.32,48.8-84.32ZM298.77,84,277.12,294.06c-2.26,17.26.32,29.1,10.34,29.1s12.28-11.34,14.55-29.1L323.66,84c2.26-19.72-1.94-28.11-10.67-28.11S301,64.77,298.77,84Z"/><path class="a" d="M394.75,221.08,379.24,373H343.69L381.83,6.09h52.35c25.86,0,38.14,19.23,33.94,60.65L459.07,155c-4.2,41.91-15.84,66.07-40.4,66.07Zm5.5-53.74h9.69c10.67,0,12.29-8.88,14.55-27.12l6.14-59.67c1.29-13.81.64-25.15-10.67-25.15h-7.75Z"/><path class="a" d="M551.17,6.09l10.34,200.69L582.19,6.09h32L576.05,373H547L535,160,512.7,373h-32L518.85,6.09Z"/><path class="a" d="M674.62,2.64c34.58,0,47.51,33,42.34,84.32L696,290.61c-5.17,50.3-17.13,86.79-49.45,86.79h-6.14c-33.61,0-46.86-35.51-41.69-86.79L619.68,87c5.17-51.28,16.48-84.32,48.8-84.32ZM656.2,84,634.55,294.06c-2.27,17.26.32,29.1,10.34,29.1s12.28-11.34,14.54-29.1L681.08,84c2.27-19.72-1.93-28.11-10.66-28.11S658.46,64.77,656.2,84Z"/><path class="a" d="M829.42,6.09,820.7,247.71l41-241.62h33.61L829.1,373H790.32l6.14-211-36.2,211H721.8L728.27,6.09h35.55l-7.44,234.72L796.14,6.09Z"/><path class="b" d="M938.53,377.91c-30,0-45.24-26.63-40.4-72l7.76-75.44h35.23l-7.12,69c-1.62,16.77,1.61,25.15,10.34,25.15s11.31-9.86,13.57-32l1-9.37c3.56-31.07.65-43.39-10.66-75l-9.7-27.12C925.61,145.65,918.82,120.5,923,83l1.31-12.3c4.85-47.34,19.39-67.06,45.57-67.06h8.4c28.44,0,41.69,20.22,37.49,61.64l-6.14,59.66H975.05l5.17-49.8c1.62-15.29-.32-22.14-8.4-22.14s-10.34,7.84-11.63,20.17l-1,9.37c-1.62,19.72,1,29.58,10.34,58.18l9.37,28.6c14.57,46.35,23.3,67.56,19.1,113.91l-1.29,12.82c-5.5,55.72-22.3,81.86-50.74,81.86Z"/><path class="b" d="M1035.16,374H999.61L1037.75,7.09h35.55L1058.11,154H1082L1097.21,7.09h35.55L1094.63,374h-35.55l16.8-161.24H1052Z"/><path class="b" d="M1193.19,3.64c34.59,0,47.51,33,42.34,84.32l-21,203.65c-5.18,50.3-17.13,86.79-49.45,86.79h-6.14c-33.61,0-46.86-35.51-41.69-86.79l21-203.61c5.17-51.28,16.49-84.32,48.8-84.32ZM1174.77,85l-21.65,210.06c-2.26,17.26.32,29.1,10.34,29.1s12.28-11.34,14.55-29.1L1199.66,85c2.26-19.72-1.94-28.11-10.67-28.11S1177,65.77,1174.77,85Z"/><path class="b" d="M1270.75,222.08,1255.24,374h-35.55L1257.83,7.09h52.35c25.86,0,38.14,19.23,33.94,60.65l-9,88.26c-4.2,41.91-15.84,66.07-40.4,66.07Zm5.5-53.74h9.69c10.67,0,12.29-8.88,14.55-27.12l6.14-59.67c1.29-13.81.64-25.15-10.67-25.15h-7.75Z"/><path class="b" d="M1427.17,7.09l10.34,200.69L1458.19,7.09h32L1452.05,374h-29l-12-213-22.3,213h-32l38.1-366.91Z"/><path class="b" d="M1550.62,3.64c34.58,0,47.51,33,42.34,84.32l-21,203.65c-5.17,50.3-17.13,86.79-49.45,86.79h-6.14c-33.61,0-46.86-35.51-41.69-86.79l21-203.61c5.17-51.28,16.48-84.32,48.8-84.32ZM1532.2,85l-21.65,210.06c-2.27,17.26.32,29.1,10.34,29.1s12.28-11.34,14.54-29.1L1557.08,85c2.27-19.72-1.93-28.11-10.66-28.11S1534.46,65.77,1532.2,85Z"/><path class="b" d="M1705.42,7.09l-8.72,241.62,41-241.62h33.61L1705.1,374h-38.78l6.14-211-36.2,211H1597.8l6.47-366.91h35.55l-7.44,234.72L1672.14,7.09Z"/></svg>